<svg id="Layer_1" data-name="Layer 1" xmlns="http://www.w3.org/2000/svg" viewBox="0 0 768 768"><rect width="768" height="768" fill="#fff"/><circle cx="384" cy="384" r="321.56" fill="#fff"/><path d="M153.57,280q21.09,5.91,13.5,32.94L156,352.43a2.74,2.74,0,0,1-3.32,1.86l-61.9-17.37a2.71,2.71,0,0,1-1.86-3.31l10.81-38.52q3.81-13.62,10.56-18.7T127,274.11l.29.08a13.13,13.13,0,0,1,7.16,4.69,11.6,11.6,0,0,1,2.66,6.33,12.71,12.71,0,0,1,6.84-5A15.74,15.74,0,0,1,153.57,280ZM123.42,302.2a5.37,5.37,0,0,0-2.83-1.88,4.78,4.78,0,0,0-3.26.17,3.66,3.66,0,0,0-2.06,2.57l-3.61,12.84,8.72,2.45L124,305.51A3.5,3.5,0,0,0,123.42,302.2Zm13,20.64,9.39,2.64,3.9-13.9a4,4,0,0,0-.56-3.72,5.64,5.64,0,0,0-3-2l-.09,0a4.81,4.81,0,0,0-3.5.31,4.22,4.22,0,0,0-2.24,2.84Z" fill="#5db3e4"/><path d="M222.9,213.79a2.52,2.52,0,0,1,1,.5,1.89,1.89,0,0,1,.68,1.33,2.09,2.09,0,0,1-.41,1.62L210.6,235.3a4.26,4.26,0,0,1-4.5,1.84l-21-4.84-5,6.68,15.59,11.72a2.73,2.73,0,0,1,.53,3.77l-12.92,17.18a2.72,2.72,0,0,1-3.76.53l-51.39-38.64a2.72,2.72,0,0,1-.53-3.76l23.27-30.95Q159,187.94,169,185.46t18.86,4.22q10.81,8.15,9.39,20.14Zm-66,7.79,8.43,6.34,7.48-9.95a4.17,4.17,0,0,0,.88-3.57,5.53,5.53,0,0,0-2.19-3.14,6.59,6.59,0,0,0-3.75-1.39,3.89,3.89,0,0,0-3.37,1.76Z" fill="#5db3e4"/><path d="M264.63,131.81l-15.3,9.51,15.23,24.51,15.3-9.5a2.58,2.58,0,0,1,2-.32,2.55,2.55,0,0,1,1.67,1.18L291.5,170a2.72,2.72,0,0,1-.87,3.7L237,207a2.7,2.7,0,0,1-3.7-.86l-7.93-12.77a2.72,2.72,0,0,1,.87-3.7L241.74,180,226.51,155.5,211,165.11a2.72,2.72,0,0,1-3.7-.87l-7.93-12.76a2.62,2.62,0,0,1-.32-2,2.57,2.57,0,0,1,1.19-1.67l53.6-33.3a2.72,2.72,0,0,1,3.7.86l7.93,12.77a2.62,2.62,0,0,1,.32,2A2.53,2.53,0,0,1,264.63,131.81Z" fill="#5db3e4"/><path d="M338.83,116.87l28.33-5.52a2.58,2.58,0,0,1,2,.42,2.65,2.65,0,0,1,1.15,1.7l2,10.36q2.9,14.85-5.82,24t-25.32,12.38q-16.6,3.24-28.08-1.79t-14.33-19.7l-2.19-11.24A28.6,28.6,0,0,1,297,114a24,24,0,0,1,6.29-10.62q8.86-8.64,24.59-11.71a56.8,56.8,0,0,1,14.65-1,33,33,0,0,1,18.88,6.6q5.81,4.32,6.6,8.36a2,2,0,0,1-.35,1.58,2.22,2.22,0,0,1-1.4.9l-22.08,4.3a4,4,0,0,1-3-.32,11.28,11.28,0,0,0-8.85-1.46q-5.23,1-7.83,3.54a5.86,5.86,0,0,0-2,5.57l3.06,15.7a6.8,6.8,0,0,0,4.05,5.2c2.23,1,5.11,1.16,8.66.47s6.15-1.92,7.8-3.7a6.45,6.45,0,0,0,2-5.51L342,133a2.71,2.71,0,0,1-3.15-2.13L336.71,120a2.72,2.72,0,0,1,2.12-3.15Z" fill="#5db3e4"/><path d="M450.86,93.7,471,97.43a2.73,2.73,0,0,1,2.15,3.13l-11.69,63.22a2.62,2.62,0,0,1-1.13,1.72,2.57,2.57,0,0,1-2,.43l-20.16-3.72a2.6,2.6,0,0,1-1.72-1.13,2.57,2.57,0,0,1-.44-2l3.86-20.85-19.58-3.62-3.85,20.84a2.72,2.72,0,0,1-3.13,2.16l-20.16-3.73a2.65,2.65,0,0,1-1.73-1.08,2.55,2.55,0,0,1-.43-2.05l11.7-63.22a2.58,2.58,0,0,1,1.12-1.72,2.63,2.63,0,0,1,2-.44L426,89.1a2.73,2.73,0,0,1,2.15,3.14l-3.71,20.06L444,115.92l3.72-20.06a2.58,2.58,0,0,1,1.12-1.72A2.63,2.63,0,0,1,450.86,93.7Z" fill="#5db3e4"/><path d="M511.28,112.75l58.41,36.12a2.71,2.71,0,0,1,.87,3.7l-8.43,13.63a2.71,2.71,0,0,1-3.7.87l-18.2-11.26-24,38.77a2.73,2.73,0,0,1-3.7.88l-17.44-10.79a2.71,2.71,0,0,1-.87-3.7l24-38.77L500,131a2.59,2.59,0,0,1-1.19-1.67,2.54,2.54,0,0,1,.32-2l8.42-13.63a2.63,2.63,0,0,1,1.67-1.19A2.58,2.58,0,0,1,511.28,112.75Z" fill="#5db3e4"/><path d="M620.75,251.42l-9.44,7.15q-8,6-16.3,6.12A26.92,26.92,0,0,1,579.55,260a65.65,65.65,0,0,1-23-30.3,26.92,26.92,0,0,1-.3-16.13q2.33-8,10.45-14.17l9.13-6.92q11.68-8.85,23.7-5t21.94,16.9q9.91,13.08,10.34,25.69T620.75,251.42Zm-27.21-38.57-12,9.09a7,7,0,0,0-3.07,5.77,12,12,0,0,0,2.83,7.16,11.8,11.8,0,0,0,6.16,4.63,7.14,7.14,0,0,0,6.42-1.43l11.85-9a7.09,7.09,0,0,0,3.1-5.79,11.74,11.74,0,0,0-2.79-7.19,12,12,0,0,0-6.12-4.66A7,7,0,0,0,593.54,212.85Z" fill="#5db3e4"/><path d="M674,315,679,332.84a2.75,2.75,0,0,1-1.86,3.32l-61.85,17.53a2.72,2.72,0,0,1-3.32-1.85l-4.37-15.42a4.81,4.81,0,0,1,.92-4.4l20.7-28.42-26,7.39a2.71,2.71,0,0,1-3.32-1.86l-5-17.81a2.71,2.71,0,0,1,1.85-3.31l61.86-17.54a2.57,2.57,0,0,1,2,.25,2.61,2.61,0,0,1,1.28,1.6l4.4,15.52a4.62,4.62,0,0,1-.86,4.27l-22.9,29.05,28.15-8A2.71,2.71,0,0,1,674,315Z" fill="#5db3e4"/><path d="M518.05,571.48l15.62-9.94a2.71,2.71,0,0,1,3.71.82L571.9,616.6a2.73,2.73,0,0,1-.82,3.71l-13.52,8.61a4.86,4.86,0,0,1-4.48.37L519.92,617.6l14.53,22.84a2.59,2.59,0,0,1,.35,2,2.67,2.67,0,0,1-1.17,1.69L518,654.08a2.71,2.71,0,0,1-3.71-.82L479.78,599a2.72,2.72,0,0,1,.83-3.71l13.6-8.66a4.66,4.66,0,0,1,4.34-.4l34.39,13.62-15.71-24.68a2.62,2.62,0,0,1-.35-2A2.58,2.58,0,0,1,518.05,571.48Z" fill="#5db3e4"/><path d="M427.84,680.88l-13.68,2.63a4.47,4.47,0,0,1-3.3-.54,4.28,4.28,0,0,1-1.91-2.31L388.49,620l-.05-.29a2.12,2.12,0,0,1,.34-1.64,2.09,2.09,0,0,1,1.4-.93L407,613.94a4.46,4.46,0,0,1,3.4.57,4.74,4.74,0,0,1,2,2.66l8.87,29.31,2.68-16.63a4.17,4.17,0,0,1,1.05-2.18,4.46,4.46,0,0,1,2.71-1.48l6.65-1.28a4.46,4.46,0,0,1,3.06.38,4.2,4.2,0,0,1,1.78,1.63l8.65,14.45-2.61-30.51a4.72,4.72,0,0,1,.85-3.2,4.48,4.48,0,0,1,3-1.78l16.81-3.23a2.2,2.2,0,0,1,2.56,1.74l.06.29,3.44,63.89a4.36,4.36,0,0,1-.91,2.87,4.51,4.51,0,0,1-2.87,1.71l-13.68,2.63a4.66,4.66,0,0,1-3.05-.33,4,4,0,0,1-1.76-1.49l-12.95-18.89-5,22.35a4.17,4.17,0,0,1-1.08,2A4.6,4.6,0,0,1,427.84,680.88Z" fill="#5db3e4"/><path d="M373.06,645.44l-2.15,11.64q-1.82,9.82-7.93,15.51a26.85,26.85,0,0,1-14.55,7,65.65,65.65,0,0,1-37.38-6.91A26.86,26.86,0,0,1,300,660.93q-3.69-7.48-1.83-17.51l2.09-11.26q2.65-14.4,14.11-19.69t27.6-2.3q16.15,3,25,12T373.06,645.44ZM327,635.27l-2.74,14.81a7,7,0,0,0,1.61,6.33,12,12,0,0,0,6.92,3.38,11.76,11.76,0,0,0,7.67-.73,7.13,7.13,0,0,0,3.78-5.38l2.71-14.62a7.13,7.13,0,0,0-1.61-6.37,11.84,11.84,0,0,0-6.91-3.43,12,12,0,0,0-7.66.68A7,7,0,0,0,327,635.27Z" fill="#5db3e4"/><path d="M233.77,561.65l58.37,36.17a2.62,2.62,0,0,1,1.19,1.68,2.59,2.59,0,0,1-.32,2l-8.44,13.62a2.61,2.61,0,0,1-1.68,1.19,2.55,2.55,0,0,1-2-.32l-18.19-11.27-24,38.75a2.6,2.6,0,0,1-1.68,1.18,2.55,2.55,0,0,1-2-.32l-17.43-10.8a2.57,2.57,0,0,1-1.19-1.67,2.62,2.62,0,0,1,.32-2l24-38.74-18.19-11.27a2.75,2.75,0,0,1-.87-3.71l8.45-13.61a2.71,2.71,0,0,1,3.7-.87Z" fill="#5db3e4"/><path d="M180.68,532.51l4.88,7a1,1,0,0,1,.18.83,1.07,1.07,0,0,1-.45.73l-22,15.32a1.06,1.06,0,0,1-.83.18,1.12,1.12,0,0,1-.73-.46l-4.88-7a1.13,1.13,0,0,1,.28-1.56l7.24-5.06-4.74-6.8-7.25,5a1.07,1.07,0,0,1-.83.18,1.11,1.11,0,0,1-.73-.45l-4.88-7a1.12,1.12,0,0,1-.2-.83,1,1,0,0,1,.48-.73l22-15.32a1,1,0,0,1,.84-.18,1.07,1.07,0,0,1,.72.45l4.88,7a1,1,0,0,1,.18.84,1.05,1.05,0,0,1-.45.72l-7,4.86,4.75,6.81,7-4.87a1.11,1.11,0,0,1,.83-.18A1.12,1.12,0,0,1,180.68,532.51Z" fill="#bdc2c7"/><path d="M127.23,497.63l-3.37-7.08a.92.92,0,0,1,0-.69.75.75,0,0,1,.35-.47,1,1,0,0,1,.36-.12l27.81-3.2a1.74,1.74,0,0,1,2,1.1l5,10.41a1.74,1.74,0,0,1-.44,2.27l-20.06,19.53a1.19,1.19,0,0,1-.32.2.74.74,0,0,1-.58,0,.88.88,0,0,1-.52-.46L134.05,512a1.93,1.93,0,0,1,.48-2.3l2.18-2.17-4.34-9.15-3.07.31A1.89,1.89,0,0,1,127.23,497.63Zm15.87,4.54,6.53-6.37-9,1Z" fill="#bdc2c7"/><path d="M139,443.12l8.28,27.38a1.15,1.15,0,0,1-.74,1.4l-6.39,1.94a1.14,1.14,0,0,1-.85-.09,1.08,1.08,0,0,1-.55-.67l-2.58-8.53L118,470.05a1.14,1.14,0,0,1-1.4-.75l-2.47-8.17a1.06,1.06,0,0,1,.09-.85,1.09,1.09,0,0,1,.66-.55l18.18-5.5-2.59-8.53a1.14,1.14,0,0,1,.09-.85,1.09,1.09,0,0,1,.66-.55l6.39-1.93a1.14,1.14,0,0,1,1.4.75Z" fill="#bdc2c7"/><path d="M110.05,431q-3.49-3.66-4.4-10.57t1.53-11.35q2.43-4.44,8.73-5.26l15.5-2a1.07,1.07,0,0,1,.82.23,1.09,1.09,0,0,1,.43.74l1.12,8.59a1.12,1.12,0,0,1-.94,1.25l-16.08,2.11a3.08,3.08,0,0,0-2.4,1.46,5.8,5.8,0,0,0,.81,6.13,3.06,3.06,0,0,0,2.69.8L133.93,421a1.12,1.12,0,0,1,1.24,1l1.13,8.59a1.1,1.1,0,0,1-.23.83,1,1,0,0,1-.72.42l-15.51,2Q113.54,434.7,110.05,431Z" fill="#bdc2c7"/><path d="M646,403.23l7.29.93q5.34.68,7.58,4.83t1.46,10.34q-.78,6.19-4,9.63t-8.62,2.75l-7.14-.91a9.34,9.34,0,0,1-7.6-4.93,19.11,19.11,0,0,1,2.51-19.75A9.3,9.3,0,0,1,646,403.23Zm-2.38,16.42,7.78,1a2.39,2.39,0,0,0,1.91-.55,2.76,2.76,0,0,0,1-1.8,2.7,2.7,0,0,0-.5-2,2.42,2.42,0,0,0-1.69-1l-7.78-1a2.41,2.41,0,0,0-1.9.53,2.71,2.71,0,0,0-1,1.83,2.68,2.68,0,0,0,.5,2A2.43,2.43,0,0,0,643.59,419.65Z" fill="#bdc2c7"/><path d="M648.87,447.07a1.07,1.07,0,0,1,.54-.66,1.1,1.1,0,0,1,.85-.1l6,1.74a1.05,1.05,0,0,1,.67.53,1.11,1.11,0,0,1,.1.85l-6.94,24a1.08,1.08,0,0,1-.53.67,1,1,0,0,1-.84.11l-4.81-1.39a2.39,2.39,0,0,1-1.82-1.65q-2.22-8-3.76-12.07c-1-2.73-2-4.23-2.9-4.49a4.58,4.58,0,0,0-.79-.16,1,1,0,0,0-.67.26,1.93,1.93,0,0,0-.55,1,2.13,2.13,0,0,0,0,1.27,1.75,1.75,0,0,0,.43.81,5,5,0,0,0,.78.57c.34.22.54.35.58.39.25.18.29.6.1,1.24L633,468.07a1.06,1.06,0,0,1-.48.62.93.93,0,0,1-.8.09,8.72,8.72,0,0,1-6-5.52q-1.62-4.25.07-10.1c1.13-3.91,2.74-6.63,4.83-8.19a7.92,7.92,0,0,1,7.32-1.12,6.15,6.15,0,0,1,3.43,2.5c.48.68.89,1.33,1.24,1.93a17.53,17.53,0,0,1,1.12,2.51c.94,2.54,1.67,4.79,2.21,6.76Z" fill="#bdc2c7"/><path d="M627.58,482.23l6.67,3.11a9.32,9.32,0,0,1,5.75,6.9q.88,4.63-1.75,10.3t-6.73,7.95q-4.1,2.31-9,0l-6.53-3a9.35,9.35,0,0,1-5.74-7,19.12,19.12,0,0,1,8.39-18.05A9.3,9.3,0,0,1,627.58,482.23Zm-7.25,14.93,7.11,3.3a2.35,2.35,0,0,0,2,.05,2.84,2.84,0,0,0,1.59-3.46,2.42,2.42,0,0,0-1.3-1.48l-7.12-3.3a2.42,2.42,0,0,0-2-.08,2.68,2.68,0,0,0-1.47,1.45,2.61,2.61,0,0,0-.14,2.06A2.43,2.43,0,0,0,620.33,497.16Z" fill="#bdc2c7"/><path d="M617.05,524.89a1.08,1.08,0,0,1,.71-.48,1.12,1.12,0,0,1,.84.17l5.2,3.48a1.06,1.06,0,0,1,.47.71,1,1,0,0,1-.16.84l-13.9,20.79a1.07,1.07,0,0,1-.71.47,1.09,1.09,0,0,1-.83-.15l-4.16-2.79a2.35,2.35,0,0,1-1.23-2.12q.3-8.28.08-12.64T602,528a4.34,4.34,0,0,0-.69-.39,1,1,0,0,0-.72,0,2,2,0,0,0-.83.77,2.14,2.14,0,0,0-.41,1.2,1.9,1.9,0,0,0,.16.91,5.68,5.68,0,0,0,.57.78,5.29,5.29,0,0,1,.44.54c.18.25.09.66-.28,1.21l-4.68,7a1,1,0,0,1-.64.44.94.94,0,0,1-.79-.16,8.72,8.72,0,0,1-4.09-7.09q-.25-4.54,3.14-9.61t7.08-6.34a7.94,7.94,0,0,1,7.31,1.16,6.18,6.18,0,0,1,2.52,3.42c.24.8.44,1.54.59,2.22a17.57,17.57,0,0,1,.31,2.73c.12,2.7.13,5.08,0,7.11Z" fill="#bdc2c7"/><path d="M384,718C199.83,718,50,568.17,50,384S199.83,50,384,50,718,199.83,718,384,568.17,718,384,718Zm0-655.56C206.69,62.44,62.44,206.69,62.44,384S206.69,705.56,384,705.56,705.56,561.31,705.56,384,561.31,62.44,384,62.44Z" fill="#163158"/><path d="M318.59,497.74c-38.75-26.55-86.78-47.61-132.32-51.19,26.53,83.94,105,144.79,197.73,144.79A206.34,206.34,0,0,0,495.13,559C434.5,567.83,379.84,539.71,318.59,497.74Z" fill="#163158"/><path d="M384,176.65c-114.52,0-207.35,92.83-207.35,207.35,0,.22,0,.44,0,.66,49.74.39,103.56,13.75,151.53,30.64,78.48,27.62,140.8,47.11,217.69,21.77,13.63-4.5,27.86-11.06,42.29-17.18A208.1,208.1,0,0,0,591.34,384C591.34,269.48,498.51,176.65,384,176.65ZM509.11,371.14c-32.72-4.85-33.09,1.62-46.32.95s-57.27-8.83-81-28.4c-7.84-6.35-14.72,6.63-30.52,7.67-19.2,1.25-27.62-9-23.39-13.23,7.75-7.75,23-23,19.12-37.4s3.89-20,10-29.9,24.22-27.17,26.62-27.21c3.4-.12,13.44,7.84,22.81,15s62.66,61.21,79.58,70.05c11.82,6.13,7.09,8.33,5.43,14.43S518,372.43,509.11,371.14Zm5.48-53.45C496.34,305.12,393,231.31,379.15,231.31c-14.23,0-81.62,53.29-88.5,60.13s-29.24,19.82-33.51,20.65c-2.28.46-25.79,13.73-50.22,27.66C226.71,260.38,298.49,201.53,384,201.53A182.46,182.46,0,0,1,565.76,368C543.66,347.05,521.47,322.46,514.59,317.69Z" fill="#163158"/><path d="M318.59,436c-44.67-18-93.74-29.83-140.82-30.4.68,6.53,1.67,13,2.93,19.31,50.09,1.35,103,18.26,147.5,43.43C409,514,465.29,547.78,545.85,505c3.64-1.94,7.33-4.21,11-6.6a206.27,206.27,0,0,0,23.93-49.25c-8.83,4.42-17.68,8.81-26.3,12.6C467.46,500,405.07,470.77,318.59,436Z" fill="#163158"/></svg>