<svg id="Layer_1" data-name="Layer 1" xmlns="http://www.w3.org/2000/svg" viewBox="0 0 996.48 768"><rect width="996.48" height="768" fill="#fff"/><path d="M941,400.06V635.78H796V712H210.4V635.78H55.48V400.06H268.84V285.36c0-126.7,102.7-229.4,229.4-229.4s229.4,102.7,229.4,229.4v114.7Z" fill="#fff"/><path d="M802.06,718H204.26V642.07H50V392.65H262.46V285.78C262.46,155.77,368.23,50,498.24,50S734,155.77,734,285.78V392.65H946.48V642.07H802.06ZM219,703.31H787.37V627.37H931.79v-220H719.33V285.78c0-121.91-99.18-221.08-221.09-221.08S277.16,163.87,277.16,285.78V407.34H64.69v220H219Z" fill="#173158"/><path d="M186.46,501c0,8.53-6.22,15-14.51,16.36v.46c8.29,1.38,14.51,7.83,14.51,16.36v30.64c0,21.65-11.75,33.17-33.4,33.17H97.77a3.4,3.4,0,0,1-3.69-3.69V440.42c0-2.54,1.38-3.69,3.69-3.69h55.29c21.65,0,33.4,11.52,33.4,33.17ZM157.2,475c0-6-3-9.21-9.21-9.21H122.65v36.63H148c6,0,9.21-3.23,9.21-9Zm0,67c0-6-3-9.22-9.21-9.22H122.65V569H148c6,0,9.21-3,9.21-9.21Z" fill="#173158"/><path d="M297.09,516.21c0,13.36-4.38,22.8-12.9,28.1l12,49.53c.69,2.76-.69,4.15-3.23,4.15H270.37a3.61,3.61,0,0,1-3.92-3.23l-11.06-45.38h-20.5V594.3A3.4,3.4,0,0,1,231.2,598H208.63a3.4,3.4,0,0,1-3.69-3.69V440.42a3.39,3.39,0,0,1,3.69-3.69h55.29c21.65,0,33.17,11.52,33.17,33.17Zm-39.16,3.45c6,0,9.21-3.22,9.21-9.21V475.66c0-6-3.22-9.21-9.21-9.21h-23v53.21Z" fill="#173158"/><path d="M319.26,598c-2.53,0-3.68-1.39-3.68-3.69V440.42c0-2.31,1.15-3.69,3.68-3.69h24a3.39,3.39,0,0,1,3.68,3.69V594.3a3.39,3.39,0,0,1-3.68,3.69Z" fill="#173158"/><path d="M365.39,469.9c0-21.65,11.51-33.17,33.17-33.17h25.8c21.42,0,33.17,11.52,33.17,33.17V487a3.39,3.39,0,0,1-3.68,3.69H432.19c-2.53,0-3.68-1.39-3.68-3.69V475.66c0-6-3.23-9.21-9.22-9.21H404.55c-6.22,0-9.22,3.22-9.22,9.21v83.4c0,6.22,3.23,9.21,9.22,9.21h14.74c6,0,9.22-3,9.22-9.21V539h-12c-2.54,0-3.69-1.38-3.69-3.68v-23c0-2.53,1.15-3.68,3.69-3.68h37.32c2.3,0,3.68,1.15,3.68,3.68v52.53c0,21.65-11.75,33.17-33.17,33.17h-25.8c-21.66,0-33.17-11.52-33.17-33.17Z" fill="#173158"/><path d="M536.83,440.42a3.4,3.4,0,0,1,3.69-3.69h23.73c2.76,0,3.91,1.38,3.91,3.69V594.3c0,2.3-1.15,3.69-3.91,3.69H540.52a3.4,3.4,0,0,1-3.69-3.69V533H507.35V594.3a3.4,3.4,0,0,1-3.69,3.69H479.94c-2.77,0-3.92-1.39-3.92-3.69V440.42c0-2.31,1.15-3.69,3.92-3.69h23.72a3.39,3.39,0,0,1,3.69,3.69v62.19h29.48Z" fill="#173158"/><path d="M673,436.73c2.53,0,3.68,1.38,3.68,3.69v23c0,2.31-1.15,3.69-3.68,3.69H646.32V594.3c0,2.54-1.15,3.69-3.69,3.69h-24c-2.3,0-3.68-1.15-3.68-3.69V467.14H588.26a3.39,3.39,0,0,1-3.68-3.69v-23a3.39,3.39,0,0,1,3.68-3.69Z" fill="#173158"/><path d="M693.14,469.9c0-21.65,11.51-33.17,33.17-33.17h25.8c21.66,0,33.17,11.52,33.17,33.17v94.92c0,21.65-11.51,33.17-33.17,33.17h-25.8c-21.66,0-33.17-11.52-33.17-33.17ZM747,568.27c6,0,9.21-3,9.21-9.21v-83.4c0-6-3.22-9.21-9.21-9.21H732.3c-6,0-9.22,3.22-9.22,9.21v83.4c0,6.22,3.23,9.21,9.22,9.21Z" fill="#173158"/><path d="M898.7,436.73a3.39,3.39,0,0,1,3.69,3.69V594.3A3.4,3.4,0,0,1,898.7,598H880.5c-2.07,0-3.22-.92-4.14-3l-43.31-88V594.3c0,2.3-1.15,3.69-3.69,3.69H807.71A3.4,3.4,0,0,1,804,594.3V440.42a3.39,3.39,0,0,1,3.69-3.69h18.2c2.07,0,3.22.92,4.14,3l43.31,88V440.42c0-2.31,1.15-3.69,3.69-3.69Z" fill="#173158"/><path d="M438.41,624.82a1.69,1.69,0,0,1,1.69,1.69v45.18c0,7.92-4.21,12.14-12.14,12.14h-9.44c-7.92,0-12.14-4.22-12.14-12.14V626.51a1.69,1.69,0,0,1,1.69-1.69h8.09a1.69,1.69,0,0,1,1.69,1.69v42.82c0,2.27,1.18,3.37,3.37,3.37h4.38c2.19,0,3.37-1.1,3.37-3.37V626.51a1.69,1.69,0,0,1,1.69-1.69Z" fill="#173158"/><path d="M487.94,624.82a1.21,1.21,0,0,1,1.35,1.35v8.43a1.21,1.21,0,0,1-1.35,1.35h-9.78v46.53c0,.93-.42,1.35-1.35,1.35h-8.76a1.2,1.2,0,0,1-1.35-1.35V636h-9.78a1.25,1.25,0,0,1-1.35-1.35v-8.43a1.25,1.25,0,0,1,1.35-1.35Z" fill="#173158"/><path d="M531.46,683.83a1.3,1.3,0,0,1-1.35-1.18L527.41,672H511.57L509,682.65a1.3,1.3,0,0,1-1.35,1.18h-8.26c-.93,0-1.35-.51-1.09-1.44l14-56.39a1.31,1.31,0,0,1,1.43-1.18h11.72a1.31,1.31,0,0,1,1.43,1.18l14,56.39c.26.93-.16,1.44-1.17,1.44Zm-12-44.51-5.31,22.93H524.8Z" fill="#173158"/><path d="M578.62,626.17a1.25,1.25,0,0,1,1.35-1.35h8.68c1,0,1.44.51,1.44,1.35v56.31c0,.84-.42,1.35-1.44,1.35H580a1.25,1.25,0,0,1-1.35-1.35V660.06H567.83v22.42a1.24,1.24,0,0,1-1.35,1.35H557.8c-1,0-1.43-.51-1.43-1.35V626.17c0-.84.42-1.35,1.43-1.35h8.68a1.24,1.24,0,0,1,1.35,1.35v22.76h10.79Z" fill="#173158"/><path d="M298.23,337.52a1,1,0,0,1-1.09-1.1v-7.06c0-.82.41-1.17,1.09-1.17h45.82c.68,0,1.1.35,1.1,1.17v7.06a1,1,0,0,1-1.1,1.1H325.8v8.78h18.25a1,1,0,0,1,1.1,1.1v7.06c0,.83-.42,1.17-1.1,1.17H298.23c-.68,0-1.09-.34-1.09-1.17V347.4a1,1,0,0,1,1.09-1.1h18.52v-8.78Z" fill="#bdc2c7"/><path d="M345.15,308.73a1,1,0,0,1-1.1,1.1H298.23a1,1,0,0,1-1.09-1.1v-7.14a1,1,0,0,1,1.09-1.09h45.82a1,1,0,0,1,1.1,1.09Z" fill="#bdc2c7"/><path d="M298.61,261.05c.66-6.41,4.43-9.47,10.84-8.81l4.5.47a1,1,0,0,1,1,1.2l-.71,6.9a1,1,0,0,1-1.21,1l-2.86-.29a2.43,2.43,0,0,0-3,2.44l-.39,3.76a2.5,2.5,0,0,0,2.45,3l5.8.6,7-16a2.45,2.45,0,0,1,2.71-1.51l12.83,1.33c6.41.66,9.47,4.43,8.8,10.84l-.79,7.64c-.66,6.34-4.43,9.47-10.84,8.8L330.3,282a1,1,0,0,1-1-1.21l.71-6.89a1,1,0,0,1,1.21-1l2.86.3a2.46,2.46,0,0,0,3-2.45l.39-3.68a2.44,2.44,0,0,0-2.45-3l-6.89-.72-7,15.83a2.46,2.46,0,0,1-2.72,1.58l-11.8-1.23c-6.41-.66-9.46-4.49-8.81-10.84Z" fill="#bdc2c7"/><path d="M315.84,200a1,1,0,0,1,1.42-.62l6.38,2.53a1,1,0,0,1,.62,1.42l-2.93,7.4,35.21,13.93a1,1,0,0,1,.62,1.42l-2.63,6.64a1,1,0,0,1-1.42.61L317.9,219.43l-2.93,7.4a1,1,0,0,1-1.42.61l-6.38-2.52a1,1,0,0,1-.62-1.43Z" fill="#bdc2c7"/><path d="M337.67,181c-5.14-3.91-5.79-8.72-1.88-13.85l4.65-6.11c3.91-5.13,8.71-5.78,13.84-1.88l22.49,17.12c5.14,3.9,5.79,8.71,1.88,13.84L374,196.22c-3.9,5.13-8.71,5.79-13.84,1.88Zm33,5a2.43,2.43,0,0,0-.53-3.84l-19.76-15a2.46,2.46,0,0,0-3.84.52l-2.66,3.49a2.47,2.47,0,0,0,.52,3.85l19.76,15a2.44,2.44,0,0,0,3.85-.53Z" fill="#bdc2c7"/><path d="M402.71,135.62c2.38,3.18,3,6.21,2,9l11.7,9.65a.88.88,0,0,1,0,1.56l-5.37,4a1.08,1.08,0,0,1-1.51-.07L398.71,151l-4.88,3.66,8,10.69a1,1,0,0,1-.21,1.54l-5.38,4a1,1,0,0,1-1.53-.22l-27.51-36.61a1,1,0,0,1,.22-1.54l13.15-9.88c5.16-3.88,10-3.19,13.83,2ZM394,143.44a2.46,2.46,0,0,0,.55-3.84l-6.22-8.27a2.46,2.46,0,0,0-3.84-.55L379,134.9l9.51,12.66Z" fill="#bdc2c7"/><path d="M432.3,147.53a1,1,0,0,1-1.45-.55l-18.8-41.8a1,1,0,0,1,.55-1.45l6.51-2.92a1,1,0,0,1,1.45.55l18.79,41.79a1,1,0,0,1-.55,1.45Z" fill="#bdc2c7"/><path d="M475.34,102.87a1,1,0,0,1-.86,1.29l-6.32,1.27a1,1,0,0,1-1.29-.86l-1.11-5.52a2.46,2.46,0,0,0-3.23-2.14l-4.3.86a2.43,2.43,0,0,0-2.15,3.23l4.9,24.4a2.43,2.43,0,0,0,3.23,2.15l4.3-.86a2.44,2.44,0,0,0,2.15-3.23l-1.15-5.72a1,1,0,0,1,.86-1.29l6.32-1.27a1,1,0,0,1,1.29.87l1.46,7.26c1.27,6.32-1.48,10.37-7.73,11.62l-7.53,1.51c-6.33,1.27-10.43-1.4-11.7-7.72L446.92,101c-1.27-6.32,1.49-10.37,7.8-11.64l7.53-1.51c6.26-1.26,10.36,1.42,11.63,7.74Z" fill="#bdc2c7"/><path d="M559.35,93.72a1,1,0,0,1,.8,1.33l-1.66,6.65a1,1,0,0,1-1.33.81l-7.72-1.94-9.18,36.74a1,1,0,0,1-1.33.8L532,136.38a1,1,0,0,1-.8-1.33l9.18-36.73-7.73-1.94a1,1,0,0,1-.8-1.33l1.67-6.65a1,1,0,0,1,1.33-.8Z" fill="#bdc2c7"/><path d="M581.17,112.89c3.21-5.6,7.89-6.87,13.48-3.66l6.67,3.81c5.59,3.2,6.87,7.88,3.66,13.48L591,151c-3.2,5.6-7.88,6.87-13.48,3.67l-6.67-3.82c-5.59-3.2-6.87-7.88-3.66-13.47Zm-.61,33.39a2.43,2.43,0,0,0,3.74-1l12.33-21.55a2.46,2.46,0,0,0-1-3.74l-3.81-2.18a2.46,2.46,0,0,0-3.74,1l-12.33,21.55a2.43,2.43,0,0,0,1,3.74Z" fill="#bdc2c7"/><path d="M663.88,169.59a1.16,1.16,0,0,1-.22,1.93l-38.34,25a1.35,1.35,0,0,1-1.92-.31l-4.9-5.56a1.42,1.42,0,0,1-.07-1.95l16.91-23.32L610,179.23a1.42,1.42,0,0,1-1.92-.31l-5-5.66a1.35,1.35,0,0,1,0-2l29.76-34.66a1.15,1.15,0,0,1,1.94,0l4.26,4.83a1.33,1.33,0,0,1,0,1.95l-19.27,21.47.23.26,26-14a1.44,1.44,0,0,1,1.87.36l2.76,3.14a1.42,1.42,0,0,1,.13,1.9l-17.16,24.08.23.26,23.81-16.33a1.29,1.29,0,0,1,1.93.22Z" fill="#bdc2c7"/><path d="M690,223.46a1,1,0,0,1-.61,1.43L646.83,242a1,1,0,0,1-1.42-.61l-2-5a1.24,1.24,0,0,1,.37-1.48l19.51-21.73-24.13,9.69a1,1,0,0,1-1.42-.61l-2.4-6a1,1,0,0,1,.6-1.42l42.52-17.07a1,1,0,0,1,1.43.61l2,5a1.22,1.22,0,0,1-.37,1.47L662,226.55l24.12-9.68a1,1,0,0,1,1.43.61Z" fill="#bdc2c7"/><path d="M689.46,284.85c6.45,0,9.87,3.43,9.87,9.87v7.69c0,6.44-3.42,9.87-9.87,9.87H661.2c-6.45,0-9.88-3.43-9.88-9.87v-7.69c0-6.44,3.43-9.87,9.88-9.87Zm-29.29,16a2.43,2.43,0,0,0,2.74,2.74h24.83a2.46,2.46,0,0,0,2.75-2.74v-4.39a2.47,2.47,0,0,0-2.75-2.75H662.91a2.43,2.43,0,0,0-2.74,2.75Z" fill="#bdc2c7"/><path d="M691.38,358a1,1,0,0,1-1.1-1.1v-17H678.55v12.89a1,1,0,0,1-1.1,1.1h-6.86a1,1,0,0,1-1.09-1.1V339.92H652.42a1,1,0,0,1-1.1-1.1v-7.13a1,1,0,0,1,1.1-1.1h45.82a1,1,0,0,1,1.09,1.1v25.24a1,1,0,0,1-1.09,1.1Z" fill="#bdc2c7"/><path d="M651.23,661a1.24,1.24,0,0,0-.68,1.18v4.26a.88.88,0,0,0,1,1h5.29v-2a.88.88,0,0,1,1-1h4.7a.89.89,0,0,1,1,1v7.5a.88.88,0,0,1-1,1H644.86a.88.88,0,0,1-1-1V658.49c0-.93.35-1.32,1.28-1.81l11.66-6.27v-7.26a1.78,1.78,0,0,0-2-1.95H652.5a1.73,1.73,0,0,0-2,1.95V647a.72.72,0,0,1-.79.78h-5.09a.7.7,0,0,1-.79-.78v-5.2c0-4.6,2.45-7,7.06-7h5.48c4.56,0,7.06,2.45,7.06,7v11.56c0,.94-.39,1.33-1.32,1.82Z" fill="#5db4e5"/><path d="M667.92,641.78c0-4.6,2.44-7,7.05-7h5.49c4.6,0,7,2.45,7,7v25.08c0,4.61-2.45,7.06-7,7.06H675c-4.61,0-7.05-2.45-7.05-7.06Zm11.31,25.82a1.74,1.74,0,0,0,2-2V643a1.76,1.76,0,0,0-2-2h-2.84a1.76,1.76,0,0,0-2,2v22.63a1.74,1.74,0,0,0,2,2Z" fill="#5db4e5"/><path d="M699.3,661a1.25,1.25,0,0,0-.69,1.18v4.26a.88.88,0,0,0,1,1h5.29v-2a.88.88,0,0,1,1-1h4.7a.88.88,0,0,1,1,1v7.5a.88.88,0,0,1-1,1H692.93a.88.88,0,0,1-1-1V658.49c0-.93.34-1.32,1.27-1.81l11.66-6.27v-7.26a1.78,1.78,0,0,0-2-1.95h-2.35a1.73,1.73,0,0,0-2,1.95V647a.72.72,0,0,1-.78.78h-5.1A.69.69,0,0,1,692,647v-5.2c0-4.6,2.45-7,7-7h5.49c4.55,0,7,2.45,7,7v11.56c0,.94-.39,1.33-1.32,1.82Z" fill="#5db4e5"/><path d="M716,641.78c0-4.6,2.45-7,7-7h5.49c4.6,0,7.05,2.45,7.05,7v25.08c0,4.61-2.45,7.06-7.05,7.06H723c-4.6,0-7-2.45-7-7.06Zm11.31,25.82a1.74,1.74,0,0,0,2-2V643a1.76,1.76,0,0,0-2-2h-2.84a1.76,1.76,0,0,0-2,2v22.63a1.74,1.74,0,0,0,2,2Z" fill="#5db4e5"/><path d="M458.34,355.15c-23.63-16.2-52.93-29-80.7-31.22A126.46,126.46,0,0,0,566,392.52C529,397.9,495.7,380.75,458.34,355.15Z" fill="#5db4e5"/><path d="M498.24,159.31A126.47,126.47,0,0,0,371.77,285.78c0,.13,0,.26,0,.4,30.34.24,63.16,8.39,92.42,18.69,47.87,16.85,85.88,28.73,132.77,13.27,8.32-2.74,17-6.74,25.8-10.47A126.36,126.36,0,0,0,498.24,159.31Zm76.3,118.62c-19.95-2.95-20.18,1-28.25.59s-34.93-5.39-49.42-17.33c-4.78-3.87-9,4.05-18.62,4.68-11.71.76-16.84-5.46-14.26-8.07,4.73-4.73,14-14,11.66-22.81s2.38-12.17,6.09-18.24,14.78-16.57,16.24-16.59c2.08-.08,8.2,4.78,13.91,9.16s38.22,37.33,48.54,42.72c7.21,3.74,4.32,5.08,3.31,8.8S580,278.72,574.54,277.93Zm3.34-32.6c-11.13-7.66-74.16-52.68-82.6-52.68-8.68,0-49.78,32.5-54,36.67s-17.83,12.09-20.44,12.6c-1.39.28-15.73,8.37-30.63,16.87A111.31,111.31,0,0,1,609.09,276C595.61,263.24,582.08,248.24,577.88,245.33Z" fill="#5db4e5"/><path d="M458.34,317.49c-27.25-11-57.17-18.2-85.89-18.54q.63,6,1.79,11.77c30.55.82,62.83,11.14,90,26.49,49.25,27.87,83.61,48.46,132.75,22.38,2.22-1.18,4.47-2.57,6.74-4a126.06,126.06,0,0,0,14.6-30c-5.39,2.7-10.78,5.38-16,7.69C549.14,356.54,511.09,338.7,458.34,317.49Z" fill="#5db4e5"/><path d="M291.57,634.72a.73.73,0,0,1,.79.79v37.63a.72.72,0,0,1-.79.78h-5.09a.7.7,0,0,1-.79-.78V635.51a.71.71,0,0,1,.79-.79Z" fill="#5db4e5"/><path d="M319.7,634.72a.72.72,0,0,1,.78.79v37.63a.72.72,0,0,1-.78.78h-4.85a.83.83,0,0,1-.88-.63l-7.5-20.93h-.24v20.78a.7.7,0,0,1-.79.78h-5.09a.72.72,0,0,1-.79-.78V635.51a.73.73,0,0,1,.79-.79h4.85a.85.85,0,0,1,.88.64l7.45,20.83h.29V635.51a.71.71,0,0,1,.79-.79Z" fill="#5db4e5"/><path d="M347.37,647.07a.72.72,0,0,1-.78.79h-4.9a.7.7,0,0,1-.78-.79v-3.92a1.76,1.76,0,0,0-2-2H336.4a1.74,1.74,0,0,0-2,2V665.5a1.74,1.74,0,0,0,2,2H339a1.74,1.74,0,0,0,2-2v-3.92a.7.7,0,0,1,.78-.79h4.9a.72.72,0,0,1,.78.79v5.29c0,4.6-2.49,7-7.05,7h-5.49c-4.61,0-7.1-2.45-7.1-7V641.78c0-4.6,2.49-7.06,7.1-7.06h5.49c4.56,0,7.05,2.46,7.05,7.06Z" fill="#5db4e5"/></svg>