<svg id="Layer_1" data-name="Layer 1" xmlns="http://www.w3.org/2000/svg" viewBox="0 0 1366 768"><rect width="1366" height="768" fill="#fff"/><path d="M683,718a8.71,8.71,0,0,1-4.34-1.16L396.92,554.19a8.7,8.7,0,0,1-4.34-7.52V486.06H315.16a8.68,8.68,0,0,1-8.67-8.68V290.63a8.67,8.67,0,0,1,8.67-8.67h77.42V221.34a8.68,8.68,0,0,1,4.34-7.51L678.66,51.16a8.68,8.68,0,0,1,8.68,0L969.08,213.83a8.68,8.68,0,0,1,4.34,7.51V282h77.42a8.67,8.67,0,0,1,8.67,8.67V477.38a8.68,8.68,0,0,1-8.67,8.68H973.42v60.61a8.7,8.7,0,0,1-4.34,7.52L687.34,716.84A8.74,8.74,0,0,1,683,718ZM409.94,541.66,683,699.3,956.06,541.66V477.38a8.68,8.68,0,0,1,8.68-8.68h77.42V299.31H964.74a8.68,8.68,0,0,1-8.68-8.68V226.35L683,68.7,409.94,226.35v64.28a8.68,8.68,0,0,1-8.68,8.68H323.84V468.7h77.42a8.68,8.68,0,0,1,8.68,8.68Z" fill="#231f20" stroke="#000" stroke-miterlimit="10" stroke-width="1.45"/><path d="M442.55,296.62a7.23,7.23,0,0,1-3.24-13.7l57.15-28.57a1.86,1.86,0,0,0,.66-.55l64-81.91a16.51,16.51,0,0,1,17.72-5.59l57.31,17.5a7.23,7.23,0,0,1-4.23,13.83l-57.3-17.5a2,2,0,0,0-2.1.66l-64,81.92a16.4,16.4,0,0,1-5.59,4.57l-57.16,28.58A7.14,7.14,0,0,1,442.55,296.62Z" fill="#231f20" stroke="#000" stroke-miterlimit="10" stroke-width="1.45"/><path d="M923.46,267.39a7.18,7.18,0,0,1-4.72-1.75l-81.14-70a1.61,1.61,0,0,0-.53-.26l-.52-.2L788,174.81a2,2,0,0,0-1.38.19l-50.42,27.85a7.24,7.24,0,0,1-7-12.67l50.42-27.84a16.48,16.48,0,0,1,13.07-1.22l.53.2,48.74,20.43a16.35,16.35,0,0,1,5,2.85l81.25,70.09a7.23,7.23,0,0,1-4.73,12.7Z" fill="#231f20" stroke="#000" stroke-miterlimit="10" stroke-width="1.45"/><path d="M493.05,306.06l98.45-65.95a28.34,28.34,0,0,0,6-5.41L663,139.85A28.13,28.13,0,0,1,703,136.56l84.73,93.38a27.69,27.69,0,0,1,2.39,2.33l79.69,73.79" fill="#fff" stroke="#000" stroke-miterlimit="10" stroke-width="1.45"/><path d="M493.06,313.29a7.23,7.23,0,0,1-4-13.24l98.45-66a20.78,20.78,0,0,0,4.26-3.79L657,135.74a6.26,6.26,0,0,1,.39-.51,35.37,35.37,0,0,1,50.38-4.14,6,6,0,0,1,.62.61l84.45,93.07c.85.76,1.67,1.56,2.44,2.39l79.48,73.59a7.24,7.24,0,0,1-9.83,10.62l-79.69-73.79-.44-.44A20.74,20.74,0,0,0,783,235.4a7,7,0,0,1-.62-.6l-84.42-93a20.9,20.9,0,0,0-29.28,2.48l-65.26,94.57a6.26,6.26,0,0,1-.39.51,35.56,35.56,0,0,1-7.53,6.8l-98.45,65.95A7.2,7.2,0,0,1,493.06,313.29Z" fill="#231f20" stroke="#000" stroke-miterlimit="10" stroke-width="1.45"/><path d="M686.19,188.42a7.14,7.14,0,0,1-4.1-1.28,7.23,7.23,0,0,1-1.84-10.06L705,141.19a7.23,7.23,0,0,1,11.91,8.21l-24.77,35.9A7.22,7.22,0,0,1,686.19,188.42Z" fill="#231f20" stroke="#000" stroke-miterlimit="10" stroke-width="1.45"/><path d="M672.49,274.37A7.23,7.23,0,0,1,666.55,263l32.73-47.42a7.23,7.23,0,1,1,11.9,8.21l-32.73,47.43A7.22,7.22,0,0,1,672.49,274.37Z" fill="#231f20" stroke="#000" stroke-miterlimit="10" stroke-width="1.45"/><path d="M723.9,199.88A7.23,7.23,0,0,1,718,188.54l13-18.79A7.23,7.23,0,1,1,742.83,178l-13,18.79A7.23,7.23,0,0,1,723.9,199.88Z" fill="#231f20" stroke="#000" stroke-miterlimit="10" stroke-width="1.45"/><path d="M708.31,288.57a7.23,7.23,0,0,1-5.94-11.34l13.9-20.14a7.23,7.23,0,0,1,11.9,8.22l-13.9,20.14A7.22,7.22,0,0,1,708.31,288.57Z" fill="#231f20" stroke="#000" stroke-miterlimit="10" stroke-width="1.45"/><path d="M805.89,198.58a7.24,7.24,0,0,1-5.95-11.34l6.95-10.07a7.23,7.23,0,1,1,11.9,8.21l-6.94,10.07A7.23,7.23,0,0,1,805.89,198.58Z" fill="#231f20" stroke="#000" stroke-miterlimit="10" stroke-width="1.45"/><path d="M828.59,229a7.23,7.23,0,0,1-5.94-11.34l13.9-20.14a7.23,7.23,0,0,1,11.9,8.22l-13.9,20.14A7.22,7.22,0,0,1,828.59,229Z" fill="#231f20" stroke="#000" stroke-miterlimit="10" stroke-width="1.45"/><path d="M738.32,245.08a7.23,7.23,0,0,1-5.94-11.34l24.46-35.44a7.23,7.23,0,0,1,11.9,8.22L744.28,242A7.22,7.22,0,0,1,738.32,245.08Z" fill="#231f20" stroke="#000" stroke-miterlimit="10" stroke-width="1.45"/><path d="M573.09,225.1a7.14,7.14,0,0,1-4.1-1.28,7.23,7.23,0,0,1-1.85-10.06l24.46-35.43a7.23,7.23,0,1,1,11.9,8.21L579.05,222A7.25,7.25,0,0,1,573.09,225.1Z" fill="#231f20" stroke="#000" stroke-miterlimit="10" stroke-width="1.45"/><path d="M757.1,284a7.23,7.23,0,0,1-5.94-11.34l31.66-45.88A7.24,7.24,0,0,1,794.73,235l-31.67,45.88A7.22,7.22,0,0,1,757.1,284Z" fill="#231f20" stroke="#000" stroke-miterlimit="10" stroke-width="1.45"/><path d="M590.75,453H616.1l1.73.26a3.67,3.67,0,0,1,2,1.29,3.57,3.57,0,0,1,.74,2.24,3.33,3.33,0,0,1-2.94,3.28,14.78,14.78,0,0,1-2.84.26q-3.79,0-5.7.09a3.76,3.76,0,0,0-2.5.77,4,4,0,0,0-.86,2.42v24.23c0,1.61,0,2.79-.08,3.54a9.32,9.32,0,0,1-.52,2.07,3.1,3.1,0,0,1-1.25,1.64,3.33,3.33,0,0,1-1.86.6,3.24,3.24,0,0,1-2.11-.73,3.79,3.79,0,0,1-1.25-1.86c-.17-1-.26-1.61-.26-1.72-.06-.81-.09-2-.09-3.54V465.34a9.57,9.57,0,0,0-.26-3.19,2.3,2.3,0,0,0-1.37-1.47,8.15,8.15,0,0,0-3.2-.34h-5.69l-1.46-.26a3.61,3.61,0,0,1-2.12-1.21,3.3,3.3,0,0,1-.82-2.24,3.68,3.68,0,0,1,3.11-3.45l1.72-.17Z" fill="#231f20" stroke="#000" stroke-width="1.45"/><path d="M667.62,474.31A20.87,20.87,0,0,1,665,484.79a21.42,21.42,0,0,1-7.55,8,22.12,22.12,0,0,1-22.21.22,21.41,21.41,0,0,1-7.76-7.94,21.49,21.49,0,0,1,.08-21.39,21.57,21.57,0,0,1,7.85-7.85,21.21,21.21,0,0,1,10.83-2.89,20.79,20.79,0,0,1,10.69,2.89,21.66,21.66,0,0,1,7.81,7.81A20.76,20.76,0,0,1,667.62,474.31Zm-21.39-13.88a14,14,0,0,0-14.06,14.05,13.58,13.58,0,0,0,1.85,6.91,14.18,14.18,0,0,0,5,5.08,13.61,13.61,0,0,0,6.85,2,14.42,14.42,0,0,0,12.29-6.9,13.25,13.25,0,0,0,1.94-7,13.94,13.94,0,0,0-1.9-7.2,13.77,13.77,0,0,0-5.13-5.09A13.5,13.5,0,0,0,646.23,460.43Z" fill="#231f20" stroke="#000" stroke-width="1.45"/><path d="M715.85,482a6.45,6.45,0,0,0,.94-.52,4.6,4.6,0,0,0,1.08-1.47,13.29,13.29,0,0,1,.65-1.2l6.3-12,4.91-9.14a18.16,18.16,0,0,1,1.21-2.16,4.41,4.41,0,0,1,1.29-1.29,3.43,3.43,0,0,1,2.07-.69,3.47,3.47,0,0,1,1.55.43,3.29,3.29,0,0,1,1.82,3,7,7,0,0,1-.52,2.33c-.58,1.2-1.12,2.27-1.64,3.19q-7.15,13.62-13,24.66c-.64,1.27-1.64,3.17-3,5.69a3.37,3.37,0,0,0-.39.65,3.69,3.69,0,0,1-.3.56,3.78,3.78,0,0,1-6.56,0l-.86-1.55-1-2.24q-2.24-4.83-3.44-7.16a20.42,20.42,0,0,0-1.47-2.42,1,1,0,0,0-.95-.43,1.35,1.35,0,0,0-1,.43,17.61,17.61,0,0,0-1.21,1.73q-2.41,4.65-3.7,6.9a39,39,0,0,1-2.25,4.05,8.38,8.38,0,0,1-1.29,1.73,3.35,3.35,0,0,1-2.33.86,3,3,0,0,1-2.24-.86,12.37,12.37,0,0,1-1.38-1.64l-1.9-3.8-12.33-26.21-.82-1.64q-.48-.94-1-2.25a17.83,17.83,0,0,1-.61-2.07,3.14,3.14,0,0,1,.35-2,3.39,3.39,0,0,1,1.55-1.51,3.47,3.47,0,0,1,1.55-.43,3.64,3.64,0,0,1,2.42,1l1.29,1.72q.52.94,1.38,2.85,3.11,6.46,9.14,19.4c.06.17.25.61.56,1.29a6.33,6.33,0,0,0,1.25,1.82,1.42,1.42,0,0,0,1,.43,1.77,1.77,0,0,0,1-.35.59.59,0,0,1,.21-.25.71.71,0,0,0,.22-.26,3.71,3.71,0,0,1,.39-.52,2.46,2.46,0,0,0,.38-.69l3.89-7.25a3.51,3.51,0,0,1,.26-.6c.11-.23.22-.49.34-.78a3.61,3.61,0,0,0,.34-1.64,3.75,3.75,0,0,0-.25-1.46,18.2,18.2,0,0,0-1.3-2.93L696,460.08a10.7,10.7,0,0,1-.78-3,3.43,3.43,0,0,1,1-2.45,3.29,3.29,0,0,1,4.91,0c.4.52.75,1,1,1.46s.54.87.77,1.21a16.49,16.49,0,0,0,1.21,1.73.94.94,0,0,0,.69.26,1.12,1.12,0,0,0,1-.35,13.07,13.07,0,0,0,.86-1.12c.23-.35.43-.63.61-.86s.33-.59.64-1.08a7.79,7.79,0,0,1,1-1.25,3,3,0,0,1,2.42-1.12,3.22,3.22,0,0,1,1.81.51,3.26,3.26,0,0,1,1.25,1.25,3.46,3.46,0,0,1,.48,1.77,3.9,3.9,0,0,1-.09.95,17.43,17.43,0,0,1-1.12,2.67l-2.59,5L710,467.93a4.66,4.66,0,0,0-.52,2.07,4.77,4.77,0,0,0,.43,1.72l4.23,9.06a1.77,1.77,0,0,0,.69.78A3,3,0,0,0,715.85,482Z" fill="#231f20" stroke="#000" stroke-width="1.45"/><path d="M782.59,474.66v15a24,24,0,0,1-.17,3.28,3.53,3.53,0,0,1-1.25,2,3.38,3.38,0,0,1-2.2.82,3.29,3.29,0,0,1-2.42-.78,32.67,32.67,0,0,1-2.76-2.76q-11.55-13.62-17.42-20.35a15.67,15.67,0,0,0-2-2,1,1,0,0,0-.69-.26,1.33,1.33,0,0,0-.69.22.88.88,0,0,0-.43.56c-.06.23-.12.52-.18.86a8.55,8.55,0,0,0-.08,1.21c-.06,1.09-.07,2-.05,2.8s.05,1.43.05,1.95v7.24q0,3.19-.09,4.83c0,1.26,0,2.21-.08,2.85a3.93,3.93,0,0,1-1.64,3,2.91,2.91,0,0,1-2,.61,3.3,3.3,0,0,1-2-.61,3.7,3.7,0,0,1-1.64-2.67c-.12-1.26-.17-2.21-.17-2.85V460c0-1.1,0-1.93.08-2.51l.44-1.72a3.23,3.23,0,0,1,1.33-1.68,3.83,3.83,0,0,1,2-.56,3.36,3.36,0,0,1,2,.6,12.18,12.18,0,0,1,2.33,2.24l7.42,8.63,4.14,4.83,6.12,7.07a19,19,0,0,0,2.5,2.59,1,1,0,0,0,.69.25,1.11,1.11,0,0,0,.78-.3,1.28,1.28,0,0,0,.43-.73,19.62,19.62,0,0,0,.26-3.19V460.86c0-1.44,0-2.5.09-3.19a5.3,5.3,0,0,1,.43-2.07,3.2,3.2,0,0,1,3.1-2.07,3.42,3.42,0,0,1,2,.64,3.38,3.38,0,0,1,1.25,1.69,8.61,8.61,0,0,1,.43,2.07v16.73Z" fill="#231f20" stroke="#000" stroke-width="1.45"/><path d="M403.1,424.8h-35a30.36,30.36,0,0,1-5.36-.49,7,7,0,0,1-4.23-2.43,8.76,8.76,0,0,1-1.95-4.72c-.11-1.19-.16-3-.16-5.36V355.88c0-2.05.05-3.63.16-4.71a13.46,13.46,0,0,1,.65-3.25,6.29,6.29,0,0,1,5.2-4.71,22.14,22.14,0,0,1,4.71-.49h33.65a34.07,34.07,0,0,1,3.9.16A19.81,19.81,0,0,1,417.48,350a18.27,18.27,0,0,1,4.31,13.74,17.15,17.15,0,0,1-.41,3,17.41,17.41,0,0,0-.4,3.17,6.42,6.42,0,0,0,1.95,4.72l2.76,2.76a27.3,27.3,0,0,1,6,9.1A27.85,27.85,0,0,1,433.82,397a27.07,27.07,0,0,1-2.44,11.13,30.09,30.09,0,0,1-7.48,10,24.71,24.71,0,0,1-12.68,6Q408.29,424.48,403.1,424.8Zm-23.73-14h12v-.16h4.23c.87,0,2,0,3.49.08s3.17,0,5.12-.08a18.3,18.3,0,0,0,7.16-1.3,12.94,12.94,0,0,0,5.93-5.12,14.24,14.24,0,0,0,2.19-7.72,12.85,12.85,0,0,0-2.84-8,13.19,13.19,0,0,0-7.23-4.79,23.74,23.74,0,0,0-4.72-.49q-9.11-.17-27.47-.16a20.34,20.34,0,0,0-2.76.32,3.69,3.69,0,0,0-2.28,1.22,5.42,5.42,0,0,0-1.3,2.36,4.17,4.17,0,0,0-.16,1.3l-.16,8.78.16,8.61A4.82,4.82,0,0,0,372,409a5.54,5.54,0,0,0,3.33,1.62Zm1.3-42.58h18.69a11.5,11.5,0,0,0,5.2-1.3,4.82,4.82,0,0,0,2.76-4.55,4.65,4.65,0,0,0-2.43-4.23,9.74,9.74,0,0,0-3.09-1.3,20.2,20.2,0,0,0-3.25-.33H377.74a11.4,11.4,0,0,0-3.9.65,3.92,3.92,0,0,0-2.76,2.61,5.12,5.12,0,0,0-.33,1.3,7.2,7.2,0,0,0,1.06,5.2q1.38,1.79,4.79,1.95Z" fill="#231f20" stroke="#000" stroke-width="1.45"/><path d="M448.12,384.82V357.18c0-1.4.11-3.41.33-6a7.3,7.3,0,0,1,6-6.5,25.26,25.26,0,0,1,4.71-.33q5-.15,14.79-.16,9.92,0,14.8.16a38.68,38.68,0,0,1,7.47.65q17.4,3.75,22.6,19.83a34.68,34.68,0,0,1,1.79,10.24q0,10.74-8.13,19.83-3.58,3.58-4.23,4.39a3.77,3.77,0,0,0-1.14,2.77,5.27,5.27,0,0,0,.33,1.62,29.31,29.31,0,0,0,1.71,3.5,33,33,0,0,1,1.54,3c.32.76.76,1.66,1.3,2.69s1.08,2.19,1.63,3.49a5.15,5.15,0,0,1,.32,2.11,5.54,5.54,0,0,1-1.62,4.07,6.34,6.34,0,0,1-5,2.27,5.52,5.52,0,0,1-4.07-1.62A16.52,16.52,0,0,1,499,418c-2.28-4-3.63-6.34-4.07-7-.87-1.52-1.57-2.66-2.11-3.42a7.92,7.92,0,0,0-5.2-2.92l-2.6-.17H469.58a9.49,9.49,0,0,0-2.12.17,6.57,6.57,0,0,0-3.9,1.62,6.08,6.08,0,0,0-1.46,4.07q-.17,2.43-.16,7.31a9,9,0,0,1-1.3,3.74,6.08,6.08,0,0,1-5.53,3.41,6.64,6.64,0,0,1-4.31-1.7,6.29,6.29,0,0,1-2.35-4,44,44,0,0,1-.33-4.71V384.82Zm31.21-26.34h-3.25c-.76,0-1.71,0-2.85-.08a37,37,0,0,0-4,.08,20.09,20.09,0,0,0-3.25.33,3.69,3.69,0,0,0-2.28,1.22,5.42,5.42,0,0,0-1.3,2.36,9.11,9.11,0,0,0-.32,1.95v20.31l.16,1.3a5.45,5.45,0,0,0,1.46,2.93,4.6,4.6,0,0,0,2.93,1.3,9.6,9.6,0,0,0,2.11.16l10.41.17,10.4-.17a20.24,20.24,0,0,0,5.36-.81,15.07,15.07,0,0,0,8.29-5.61,15.92,15.92,0,0,0-9.75-25.11,23.83,23.83,0,0,0-4.71-.33c-2.06-.1-3.88-.13-5.45-.08S480.41,358.48,479.33,358.48Z" fill="#231f20" stroke="#000" stroke-width="1.45"/><path d="M541.92,343.53h34.14a20.55,20.55,0,0,1,6,.65,6.17,6.17,0,0,1,3.33,2.36,6.37,6.37,0,0,1,1.22,3.82q0,4.71-4.22,6.17a9.66,9.66,0,0,1-3.9.65q-2.28.17-6.67.17-3.74.16-5.12,1.54c-.92.92-1.44,2.58-1.54,5a26.1,26.1,0,0,0-.16,3.41v33.65a41.26,41.26,0,0,0,.48,6,4.15,4.15,0,0,0,1.14,2.2,4.61,4.61,0,0,0,2.28,1.38c2.16.22,3.73.32,4.71.32l6,.33a7.67,7.67,0,0,1,4.88,2.11,5.55,5.55,0,0,1,2.28,4.55,6.51,6.51,0,0,1-.9,3.34,5.05,5.05,0,0,1-2.35,2.19,9,9,0,0,1-3.26,1.14,17.11,17.11,0,0,1-3.9.32H540a23.8,23.8,0,0,1-5.85-.65,6.8,6.8,0,0,1-3.49-2.44,7.36,7.36,0,0,1-1.55-4.06,4.6,4.6,0,0,1,1-3.09,8.07,8.07,0,0,1,5.69-3.41l5.36-.33a32.47,32.47,0,0,0,5.37-.32,4.41,4.41,0,0,0,2.92-1.38,5,5,0,0,0,1.3-3,26.05,26.05,0,0,0,.33-3.25V365.15l-.17-2.76q-.48-4.39-4.71-4.88c-1.19-.11-3-.16-5.36-.16-2.06,0-3.64-.06-4.72-.17a11.46,11.46,0,0,1-3.09-1,5.57,5.57,0,0,1-3.73-5.69,6.43,6.43,0,0,1,3.41-5.69,10.94,10.94,0,0,1,3.74-1.14C537.59,343.59,539.43,343.53,541.92,343.53Z" fill="#231f20" stroke="#000" stroke-width="1.45"/><path d="M651.93,377.83h8.13a14.74,14.74,0,0,1,3.9.65,7.5,7.5,0,0,1,5.36,5.52l.17,1.3c.1,1.85.16,4.66.16,8.46s-.06,6.5-.16,8.45a10.38,10.38,0,0,1-2.12,6.18q-6.5,9.11-14.62,12.51a48.36,48.36,0,0,1-6.34,2.6,37.19,37.19,0,0,1-11.87,1.79,41.71,41.71,0,0,1-15.77-3.09,38.08,38.08,0,0,1-18-14.95,40.44,40.44,0,0,1-6.74-22.43,39.16,39.16,0,0,1,7.31-23.08A40.62,40.62,0,0,1,616,348.89a40.05,40.05,0,0,1,39.66,1.47,29.6,29.6,0,0,1,6.34,5,11,11,0,0,1,1.79,2.76,8.89,8.89,0,0,1,.49,2.76,5.79,5.79,0,0,1-1.79,4.23,6.7,6.7,0,0,1-4.88,2.11,6,6,0,0,1-2.44-.49,13.87,13.87,0,0,1-2.92-1.78L650,363.44a21.64,21.64,0,0,0-2.27-1.38,26.23,26.23,0,0,0-13.33-3.58A25.69,25.69,0,0,0,623,361.09a25.1,25.1,0,0,0-9.1,7.47,26,26,0,0,0,1,34,27.28,27.28,0,0,0,9,6.51,26.1,26.1,0,0,0,10.65,2.27,25.44,25.44,0,0,0,14.63-4.55,32.18,32.18,0,0,0,4.55-4.06,8,8,0,0,0,1.95-5.37,5.64,5.64,0,0,0-.16-1.62,3.81,3.81,0,0,0-2.93-3.25,16.42,16.42,0,0,0-4.06-.49q-2.28-.17-6.67-.16a9.26,9.26,0,0,1-4.38-1.63,6.12,6.12,0,0,1-2.93-5.36,5.68,5.68,0,0,1,2.93-5.37,13.23,13.23,0,0,1,5-1.62h9.42Z" fill="#231f20" stroke="#000" stroke-width="1.45"/><path d="M756.35,358.65V412c0,2.71-.06,4.72-.16,6a7.6,7.6,0,0,1-.65,2.6,5.77,5.77,0,0,1-2.44,3.09,7.23,7.23,0,0,1-3.9,1.13,6.59,6.59,0,0,1-3.9-1.7,6.77,6.77,0,0,1-2.28-3.66,16.28,16.28,0,0,1-.49-3.9q0-7.16-.16-10.89-.17-3.42-1.46-4.72c-.87-.86-2.39-1.35-4.55-1.46a26.17,26.17,0,0,0-3.42-.16H708.72l-5.36.32a4,4,0,0,0-2.68,1.38,5,5,0,0,0-1.22,2.85c-.11,1.3-.16,3.31-.16,6q-.16,2.92-.17,8.78a8.88,8.88,0,0,1-1.3,3.74,6.42,6.42,0,0,1-3,2.76,6.56,6.56,0,0,1-3.82.49,7.18,7.18,0,0,1-5.53-5.36,7.54,7.54,0,0,1-.32-2.6q-.17-1.95-.17-6V360.11q0-4.55.17-6.83a33.33,33.33,0,0,1,.81-3.9,7.46,7.46,0,0,1,2.44-3.17,6,6,0,0,1,3.73-1.22,6.56,6.56,0,0,1,3.74,1.22,6.13,6.13,0,0,1,2.44,3.17,14,14,0,0,1,.65,3.25c.11,1.2.16,3,.16,5.37q.17,5.21.17,15.6V379a6.87,6.87,0,0,0,1.46,3.74,5,5,0,0,0,3.58,1.47,14.55,14.55,0,0,0,2.6.16h27.63a23.08,23.08,0,0,0,4.71-.65,3,3,0,0,0,2.6-2.76,45,45,0,0,0,.65-4.72V358q0-4.06.17-6a8.08,8.08,0,0,1,1.3-3.74,5.9,5.9,0,0,1,5.52-3.25,6.06,6.06,0,0,1,5.85,3.74,10.79,10.79,0,0,1,.82,3.9C756.29,354,756.35,356.05,756.35,358.65Z" fill="#231f20" stroke="#000" stroke-width="1.45"/><path d="M782.11,344H829.9l3.25.49a6.87,6.87,0,0,1,3.82,2.43,6.75,6.75,0,0,1,1.38,4.23,6,6,0,0,1-1.54,4.06,6.15,6.15,0,0,1-4,2.12,29.44,29.44,0,0,1-5.36.48q-7.15,0-10.73.17c-2.27.11-3.84.59-4.71,1.46s-1.41,2.38-1.63,4.55v45.68q0,4.55-.16,6.66a17.34,17.34,0,0,1-1,3.9,5.87,5.87,0,0,1-2.36,3.09,6.22,6.22,0,0,1-3.5,1.14,6.16,6.16,0,0,1-4-1.38,7,7,0,0,1-2.35-3.5c-.33-2-.49-3-.49-3.25q-.17-2.28-.16-6.66V367.26a18.44,18.44,0,0,0-.49-6,4.43,4.43,0,0,0-2.6-2.77,15.25,15.25,0,0,0-6-.65H776.58q-2.6-.48-2.76-.48a6.89,6.89,0,0,1-4-2.28,6.25,6.25,0,0,1-1.55-4.22,6.93,6.93,0,0,1,5.86-6.51l3.25-.32Z" fill="#231f20" stroke="#000" stroke-width="1.45"/><path d="M923.46,384.17a39.33,39.33,0,0,1-5,19.75,40.29,40.29,0,0,1-14.22,15,41.62,41.62,0,0,1-41.86.41,40.29,40.29,0,0,1-14.63-15,40.53,40.53,0,0,1,35.36-60.54,39,39,0,0,1,20.15,5.44A40.68,40.68,0,0,1,918,364,39.11,39.11,0,0,1,923.46,384.17ZM883.15,358a26.34,26.34,0,0,0-26.5,26.49,25.4,25.4,0,0,0,3.5,13,26.67,26.67,0,0,0,9.42,9.6,25.76,25.76,0,0,0,12.93,3.73,27.1,27.1,0,0,0,23.16-13,24.86,24.86,0,0,0,3.66-13.17,26.39,26.39,0,0,0-3.58-13.57,26.09,26.09,0,0,0-9.67-9.59A25.59,25.59,0,0,0,883.15,358Z" fill="#231f20" stroke="#000" stroke-width="1.45"/><path d="M1009.56,384.82V413.1a43.16,43.16,0,0,1-.33,6.18,6.6,6.6,0,0,1-2.36,3.82,6.32,6.32,0,0,1-4.14,1.54,6.22,6.22,0,0,1-4.55-1.46A58,58,0,0,1,993,418q-21.79-25.68-32.84-38.36a29.34,29.34,0,0,0-3.74-3.74,1.73,1.73,0,0,0-1.3-.49,2.48,2.48,0,0,0-1.3.41,1.73,1.73,0,0,0-.81,1.05c-.11.44-.22,1-.32,1.63a13.74,13.74,0,0,0-.17,2.27c-.11,2.06-.13,3.82-.08,5.29s.08,2.68.08,3.65v13.66q0,6-.16,9.1c0,2.38-.06,4.17-.16,5.36q0,3.09-3.09,5.69a5.5,5.5,0,0,1-3.74,1.14,6.34,6.34,0,0,1-3.74-1.14,7,7,0,0,1-3.09-5c-.21-2.38-.32-4.17-.32-5.36V357.18c0-2.05,0-3.62.16-4.71l.81-3.25a6.3,6.3,0,0,1,2.52-3.17,7.15,7.15,0,0,1,3.82-1.06,6.34,6.34,0,0,1,3.74,1.14,23.12,23.12,0,0,1,4.39,4.23l14,16.25,7.8,9.1L987,389a35.9,35.9,0,0,0,4.72,4.88,1.76,1.76,0,0,0,1.3.49,2.15,2.15,0,0,0,1.46-.57,2.46,2.46,0,0,0,.81-1.38,36.05,36.05,0,0,0,.49-6V358.81q0-4.06.16-6a9.94,9.94,0,0,1,.82-3.91,6,6,0,0,1,5.85-3.9,6.46,6.46,0,0,1,3.82,1.22,6.28,6.28,0,0,1,2.35,3.17,15.51,15.51,0,0,1,.82,3.9v31.54Z" fill="#231f20" stroke="#000" stroke-width="1.45"/><path d="M584.37,558.85c-13,0-26.16-3-41.57-8.94-4.37-1.69-8.7-3.51-12.89-5.27-17.28-7.26-33.59-14.11-51.95-12.5A99.42,99.42,0,0,0,458.72,536a5.79,5.79,0,0,1-3.25-11.11,110.53,110.53,0,0,1,21.47-4.23c21.23-1.88,39.64,5.86,57.45,13.35,4.12,1.73,8.38,3.52,12.6,5.16,25.66,10,43.66,10.7,66.41,2.72,6.53-2.28,13.08-5.15,19.41-7.93,15.51-6.8,31.54-13.83,49.94-13.83,20.84,0,38.61,7.12,55.79,14,23.07,9.23,44.86,18,72,8.31,6.54-2.32,13-5.2,19.78-8.24,15.35-6.87,31.22-14,48.72-14.49,9.52-.28,19.81,1.33,31.52,4.92a5.78,5.78,0,0,1-3.39,11.06c-10.49-3.21-19.57-4.64-27.79-4.41-15.2.45-30,7.07-44.34,13.48-6.72,3-13.66,6.11-20.63,8.58-31.29,11.11-56.16,1.16-80.21-8.47-16.17-6.47-32.88-13.17-51.49-13.17-16,0-30.22,6.25-45.3,12.86-6.53,2.86-13.28,5.82-20.22,8.25C605.72,556.81,595.14,558.85,584.37,558.85Z" fill="#231f20" stroke="#000" stroke-miterlimit="10" stroke-width="1.45"/><path d="M584.8,594.43c-13,0-26.17-2.95-41.58-8.93-1.89-.73-3.78-1.5-5.66-2.27a5.78,5.78,0,1,1,4.39-10.7c1.81.74,3.63,1.48,5.46,2.18,25.67,10,43.67,10.71,66.42,2.73,6.52-2.29,13.07-5.16,19.4-7.93,15.51-6.8,31.54-13.83,49.94-13.83,20.84,0,38.61,7.11,55.79,14,23.08,9.24,44.87,18,72,8.31,4.71-1.67,9.39-3.66,12.93-5.2a5.78,5.78,0,1,1,4.63,10.6c-3.72,1.62-8.64,3.72-13.69,5.51-31.29,11.11-56.16,1.15-80.21-8.48-16.16-6.47-32.88-13.16-51.49-13.16-16,0-30.22,6.24-45.3,12.85-6.52,2.87-13.28,5.83-20.22,8.26C606.15,592.39,595.56,594.43,584.8,594.43Z" fill="#231f20" stroke="#000" stroke-miterlimit="10" stroke-width="1.45"/><path d="M858.38,469.89l.08-.29a5.84,5.84,0,0,0-.05-3.19,5.22,5.22,0,0,0-3.7-3.45,5.55,5.55,0,0,0-6.46,2.63,5.47,5.47,0,0,0-.16,4.85c.38,1,.37,1.07-.57,1.79a7.27,7.27,0,0,0-2.79,4.65,8,8,0,0,0,2.38,7.58,8.12,8.12,0,0,0,5.57,2.61h.12a6.48,6.48,0,0,0,3.48-.76l.14-.07c2.94-1.41,4.51-3.17,5.09-5.71a8.1,8.1,0,0,0-2.31-8C858,471.36,858,471.36,858.38,469.89Zm-.2,8.53a5,5,0,0,1-4.63,5,5.08,5.08,0,0,1-3.83-1.28,4.84,4.84,0,0,1-1.62-3.43,5,5,0,0,1,1.35-3.54,5.35,5.35,0,0,1,3.81-1.58h.08A5,5,0,0,1,858.18,478.42Zm-6.95-10.53a1.74,1.74,0,0,1,1.8-1.59h.13a2,2,0,0,1,1.36.5,1.66,1.66,0,0,1,.55,1.17,1.9,1.9,0,0,1-.47,1.46,1.88,1.88,0,0,1-1.38.53,2,2,0,0,1-1.43-.53A2.11,2.11,0,0,1,851.23,467.89Z" fill="#231f20" stroke="#000" stroke-miterlimit="10" stroke-width="1.45"/><path d="M901.68,473a12.49,12.49,0,0,0-2.12-6.56c-2-2.81-4.3-4.26-7.24-4.55a8.56,8.56,0,0,0-6.09,1.53c-3.78,2.77-5.49,6.74-5.1,11.76-.06,1.47,1.28,4.47,2,5.74a9.66,9.66,0,0,0,4.3,3.86,9.08,9.08,0,0,0,8.08-.14,9.86,9.86,0,0,0,4.19-3.81A12.53,12.53,0,0,0,901.68,473Zm-3.63,2.16a9,9,0,0,1-2,4.71c-1.62,1.91-4.59,3.41-7.67,1.37a8,8,0,0,1-3.46-5.17c0-.22-.11-.42-.16-.63a8.14,8.14,0,0,1,2.88-8.73,5.81,5.81,0,0,1,7.05-.3A8.94,8.94,0,0,1,898.05,475.14Z" fill="#231f20" stroke="#000" stroke-miterlimit="10" stroke-width="1.45"/><path d="M878.14,463.08a3.31,3.31,0,0,0-2.08.1,16.12,16.12,0,0,0-1.68.79c-.45.24-.92.48-1.4.68a6.39,6.39,0,0,1-5-.16,17.54,17.54,0,0,1-1.68-.84c-.47-.26-.95-.51-1.43-.73a1.54,1.54,0,0,0-1.32-.06,1.47,1.47,0,0,0-.77,1,10.41,10.41,0,0,0-.26,1.53c0,.21,0,.41-.08.61v0l.11,1.16c.08.89.16,1.76.27,2.62a1.33,1.33,0,0,0,1.42,1.21,1.49,1.49,0,0,0,1.63-1.12l.09-.35c.07-.3.14-.6.18-.9s.11-.71.27-.82a2,2,0,0,1,1,.11,18.81,18.81,0,0,0,3.34.52,6.72,6.72,0,0,0,1.35-.07c.23,0,.46-.06.69-.07.4,0,.48.07.49.08s0,.16,0,.39a10.32,10.32,0,0,1-.51,1.37l-.25.62c-.74,1.78-1.47,3.56-2.22,5.33-.4.95-.8,1.89-1.21,2.84-.68,1.6-1.37,3.2-2,4.81a1.8,1.8,0,0,0,0,1.56,1.69,1.69,0,0,0,1.23.82l.32,0a1.78,1.78,0,0,0,1.61-1.15c.9-1.93,1.83-4,3-6.72,1.65-3.78,3-6.89,4.21-9.78a29,29,0,0,0,1.31-3.64C879,464.36,878.67,463.27,878.14,463.08Z" fill="#231f20" stroke="#000" stroke-miterlimit="10" stroke-width="1.45"/><path d="M841.41,464.63a1.55,1.55,0,0,0-1.53-1.57,1.52,1.52,0,0,0-1.78,1.35,17.77,17.77,0,0,1-.52,1.76l-.08.23c-.47,1.45-1.2,2.19-2.35,2.39-.69.13-1.42.2-2.12.26l-.53.05a1.22,1.22,0,0,0-1.19,1.06,1.75,1.75,0,0,0,.24,1.46,2.13,2.13,0,0,0,1.63.78,7.53,7.53,0,0,0,3.64-.44,1,1,0,0,1,.82-.07c.16.1.26.39.27.82,0,.88.05,1.76.05,2.65q0,2.34,0,4.68c0,.37,0,.73,0,1.1,0,.67,0,1.35,0,2a5.77,5.77,0,0,0,.26,1.61,1.47,1.47,0,0,0,.76.92,1.51,1.51,0,0,0,.62.14,1.61,1.61,0,0,0,.6-.12,2.07,2.07,0,0,0,1.19-1.49h0c.07-1,.1-2.43.12-3.52,0-.32,0-.6,0-.81l0-8c0-1.53,0-3.07,0-4.6A24.46,24.46,0,0,0,841.41,464.63Z" fill="#231f20" stroke="#000" stroke-miterlimit="10" stroke-width="1.45"/><path d="M470.54,474.28v-7.93c0-.41,0-1,.1-1.73a2.06,2.06,0,0,1,1.86-1.91c.34-.06.65-.1.91-.12l.63,0h12.6a15,15,0,0,1,1.91.09,3.06,3.06,0,0,1,1.12.24,1.62,1.62,0,0,1,.82.67,2,2,0,0,1,.3,1.05,1.67,1.67,0,0,1-1.17,1.73,2.6,2.6,0,0,1-.93.23c-.4,0-1,.05-1.77.05-4.11,0-7.2,0-9.29,0-.74,0-1.32,0-1.72.05a1.58,1.58,0,0,0-.89.37,1.22,1.22,0,0,0-.42.84c0,.32,0,.78,0,1.4a11.44,11.44,0,0,0,.09,1.68,1.22,1.22,0,0,0,.35.73,1.45,1.45,0,0,0,.77.39l1.54.1h4.85c.68,0,1.2,0,1.54,0a3.19,3.19,0,0,1,.93.19,1.85,1.85,0,0,1,1,.68,1.8,1.8,0,0,1,.38,1.14,1.75,1.75,0,0,1-.4,1.1,2.07,2.07,0,0,1-1,.67,4.93,4.93,0,0,1-1.12.19c-.35,0-.86,0-1.54,0h-4.67c-.59,0-1,0-1.35.05a1.58,1.58,0,0,0-.89.37,1.22,1.22,0,0,0-.42.84l0,1.54,0,1.54a1.27,1.27,0,0,0,.37.75,1.49,1.49,0,0,0,.75.42c.81.06,1.39.09,1.73.09h9.89a14,14,0,0,1,1.91.14,1.9,1.9,0,0,1,1.54,1.31,2.69,2.69,0,0,1,.09.56,1.67,1.67,0,0,1-.42,1.07,2.07,2.07,0,0,1-1.3.8,8,8,0,0,1-1.5.14H473.9a9.18,9.18,0,0,1-1.54-.14,2.07,2.07,0,0,1-1.21-.68,2.4,2.4,0,0,1-.56-1.33c0-.37,0-.95,0-1.73Z" fill="#231f20" stroke="#000" stroke-width="1.45"/><path d="M503.26,486.69a9.4,9.4,0,0,1-6.57-2.29,7.4,7.4,0,0,1-2.48-5.83,6.94,6.94,0,0,1,.61-2.84,3.34,3.34,0,0,1,.79-1.12,2,2,0,0,1,1.22-.47,1.67,1.67,0,0,1,.79.19,1.72,1.72,0,0,1,1.07,1.67,2.28,2.28,0,0,1,0,.75l-.28,1.17a4.82,4.82,0,0,0-.1.84,3.48,3.48,0,0,0,1.82,3.12,5.31,5.31,0,0,0,2.8.8,5.72,5.72,0,0,0,2.29-.47,4.56,4.56,0,0,0,1.77-1.35,4.18,4.18,0,0,0,.61-1,3.83,3.83,0,0,0,.37-1.54,3,3,0,0,0-1.21-2.47,9.72,9.72,0,0,0-1.59-1.08l-1.07-.46-1.77-.8a21.8,21.8,0,0,1-2.1-1,5.26,5.26,0,0,1-2.8-4.66,5.06,5.06,0,0,1,1-3.13,6,6,0,0,1,2.29-1.89,6.66,6.66,0,0,1,2.94-.67,6.09,6.09,0,0,1,3.59,1.07,5.23,5.23,0,0,1,2.1,2.94,2.74,2.74,0,0,1,.14.84,1.57,1.57,0,0,1-.05.46,1.81,1.81,0,0,1-1.3,1.54,2.27,2.27,0,0,1-.56.1,1.55,1.55,0,0,1-1.36-.7,4.87,4.87,0,0,1-.53-.68,6.74,6.74,0,0,1-.35-.58,2.15,2.15,0,0,0-1.78-.94,2.21,2.21,0,0,0-1.58.7,1.37,1.37,0,0,0,0,1.78,4.08,4.08,0,0,0,.93.65c.44.22,1.09.51,2,.89l.89.42a9.24,9.24,0,0,1,1.54.7,10.54,10.54,0,0,1,1.63,1,7.29,7.29,0,0,1,3.08,5.93,7.37,7.37,0,0,1-1.17,4.06,9.08,9.08,0,0,1-6.81,4.24Z" fill="#231f20" stroke="#000" stroke-width="1.45"/><path d="M518.36,462.71h13.71l.94.14a2,2,0,0,1,1.09.7,1.9,1.9,0,0,1,.4,1.21,1.76,1.76,0,0,1-.44,1.17,1.78,1.78,0,0,1-1.15.6,7.81,7.81,0,0,1-1.54.14c-1.37,0-2.39,0-3.08.05a2,2,0,0,0-1.35.42,2.2,2.2,0,0,0-.47,1.31v13.11c0,.87,0,1.51,0,1.91a5.54,5.54,0,0,1-.28,1.12,1.66,1.66,0,0,1-.68.88,1.77,1.77,0,0,1-2.14-.06,2,2,0,0,1-.68-1c-.09-.56-.14-.87-.14-.93,0-.44,0-1.07,0-1.91V469.38a5.13,5.13,0,0,0-.14-1.73,1.26,1.26,0,0,0-.74-.79,4.46,4.46,0,0,0-1.73-.19h-3.08l-.79-.14a2,2,0,0,1-1.15-.65,1.82,1.82,0,0,1-.44-1.21,2,2,0,0,1,.49-1.22,2.05,2.05,0,0,1,1.19-.65l.93-.09Z" fill="#231f20" stroke="#000" stroke-width="1.45"/><path d="M683,678.9a4.34,4.34,0,0,1-4.34-4.34V590a4.34,4.34,0,0,1,8.68,0v84.56A4.34,4.34,0,0,1,683,678.9Z" fill="#231f20" stroke="#000" stroke-miterlimit="10" stroke-width="1.45"/><path d="M683,619.91h0a4.37,4.37,0,0,1-3.07-1.27l-16.87-16.87a4.34,4.34,0,0,1,6.14-6.14l13.8,13.8,13.8-13.8a4.34,4.34,0,0,1,6.14,6.14l-16.87,16.87A4.37,4.37,0,0,1,683,619.91Z" fill="#231f20" stroke="#000" stroke-miterlimit="10" stroke-width="1.45"/><path d="M666.13,670.2a4.34,4.34,0,0,1-3.07-7.41l16.87-16.87a4.47,4.47,0,0,1,6.14,0l16.87,16.87a4.34,4.34,0,0,1-6.14,6.14L683,655.13l-13.8,13.8A4.32,4.32,0,0,1,666.13,670.2Z" fill="#231f20" stroke="#000" stroke-miterlimit="10" stroke-width="1.45"/><path d="M725.28,636.62H640.72a4.34,4.34,0,1,1,0-8.68h84.56a4.34,4.34,0,1,1,0,8.68Z" fill="#231f20" stroke="#000" stroke-miterlimit="10" stroke-width="1.45"/><path d="M716.58,653.49a4.32,4.32,0,0,1-3.07-1.27l-16.87-16.87a4.35,4.35,0,0,1,0-6.14l16.87-16.87a4.34,4.34,0,0,1,6.14,6.14l-13.81,13.8,13.81,13.8a4.34,4.34,0,0,1-3.07,7.41Z" fill="#231f20" stroke="#000" stroke-miterlimit="10" stroke-width="1.45"/><path d="M649.42,653.49a4.34,4.34,0,0,1-3.07-7.41l13.81-13.8-13.81-13.8a4.34,4.34,0,0,1,6.14-6.14l16.87,16.87a4.35,4.35,0,0,1,0,6.14l-16.87,16.87A4.32,4.32,0,0,1,649.42,653.49Z" fill="#231f20" stroke="#000" stroke-miterlimit="10" stroke-width="1.45"/></svg>