<svg id="Layer_1" data-name="Layer 1" xmlns="http://www.w3.org/2000/svg" viewBox="0 0 1540 400"><rect x="1040" width="500" height="400" fill="#173158"/><rect width="1040" height="400" fill="#fff"/><path d="M447.56,207.17V312.34H382.85v34H121.57v-34H52.44V207.17h95.2V156a102.36,102.36,0,0,1,204.72,0v51.18Z" fill="#173158"/><path d="M385.56,349H118.83V315.15H50V203.86h94.8V156.18a105.2,105.2,0,1,1,210.4,0v47.68H450V315.15H385.56Zm-260.17-6.56H379V308.59h64.43V210.42H348.65V156.18a98.65,98.65,0,1,0-197.3,0v54.24H56.56v98.17h68.83Z" fill="#5db4e5"/><path d="M110.89,252.21a7.41,7.41,0,0,1-6.48,7.29v.21a7.42,7.42,0,0,1,6.48,7.3v13.67c0,9.66-5.25,14.8-14.91,14.8H71.31a1.52,1.52,0,0,1-1.64-1.65V225.17a1.46,1.46,0,0,1,1.64-1.64H96c9.66,0,14.91,5.14,14.91,14.8ZM97.83,240.59c0-2.67-1.33-4.11-4.11-4.11H82.41v16.34H93.72c2.67,0,4.11-1.44,4.11-4Zm0,29.91c0-2.67-1.33-4.11-4.11-4.11H82.41v16.14H93.72c2.67,0,4.11-1.34,4.11-4.11Z" fill="#fff"/><path d="M160.25,259c0,6-1.95,10.18-5.76,12.54l5.35,22.1c.31,1.23-.31,1.85-1.44,1.85H148.33a1.61,1.61,0,0,1-1.75-1.44l-4.94-20.25H132.5v20a1.52,1.52,0,0,1-1.65,1.65H120.78a1.52,1.52,0,0,1-1.65-1.65V225.17a1.51,1.51,0,0,1,1.65-1.64h24.67c9.66,0,14.8,5.14,14.8,14.8Zm-17.48,1.54c2.68,0,4.12-1.44,4.12-4.11V240.9c0-2.67-1.44-4.11-4.12-4.11H132.5v23.74Z" fill="#fff"/><path d="M170.14,295.48a1.47,1.47,0,0,1-1.64-1.65V225.17a1.46,1.46,0,0,1,1.64-1.64h10.69a1.51,1.51,0,0,1,1.65,1.64v68.66a1.52,1.52,0,0,1-1.65,1.65Z" fill="#fff"/><path d="M190.72,238.33c0-9.66,5.14-14.8,14.8-14.8H217c9.55,0,14.8,5.14,14.8,14.8v7.61a1.52,1.52,0,0,1-1.65,1.64h-9.66a1.46,1.46,0,0,1-1.64-1.64v-5c0-2.67-1.44-4.11-4.12-4.11H208.2c-2.78,0-4.12,1.44-4.12,4.11v37.21c0,2.77,1.44,4.11,4.12,4.11h6.57c2.68,0,4.12-1.34,4.12-4.11v-8.94h-5.35a1.47,1.47,0,0,1-1.64-1.65V257.24c0-1.13.51-1.64,1.64-1.64h16.65a1.47,1.47,0,0,1,1.65,1.64v23.44c0,9.66-5.25,14.8-14.8,14.8H205.52c-9.66,0-14.8-5.14-14.8-14.8Z" fill="#fff"/><path d="M267.22,225.17a1.51,1.51,0,0,1,1.65-1.64h10.58c1.24,0,1.75.61,1.75,1.64v68.66c0,1-.51,1.65-1.75,1.65H268.87a1.52,1.52,0,0,1-1.65-1.65V266.49H254.06v27.34a1.51,1.51,0,0,1-1.64,1.65H241.83c-1.23,0-1.74-.62-1.74-1.65V225.17c0-1,.51-1.64,1.74-1.64h10.59a1.5,1.5,0,0,1,1.64,1.64v27.75h13.16Z" fill="#fff"/><path d="M328,223.53a1.47,1.47,0,0,1,1.65,1.64v10.28A1.47,1.47,0,0,1,328,237.1H316.07v56.73c0,1.13-.51,1.65-1.64,1.65H303.74a1.47,1.47,0,0,1-1.65-1.65V237.1H290.17a1.52,1.52,0,0,1-1.65-1.65V225.17a1.51,1.51,0,0,1,1.65-1.64Z" fill="#fff"/><path d="M337,238.33c0-9.66,5.14-14.8,14.8-14.8h11.51c9.67,0,14.8,5.14,14.8,14.8v42.35c0,9.66-5.13,14.8-14.8,14.8H351.76c-9.66,0-14.8-5.14-14.8-14.8ZM361,282.22c2.67,0,4.11-1.34,4.11-4.11V240.9c0-2.67-1.44-4.11-4.11-4.11h-6.58c-2.67,0-4.11,1.44-4.11,4.11v37.21c0,2.77,1.44,4.11,4.11,4.11Z" fill="#fff"/><path d="M428.68,223.53a1.51,1.51,0,0,1,1.65,1.64v68.66a1.52,1.52,0,0,1-1.65,1.65h-8.12a1.85,1.85,0,0,1-1.85-1.34l-19.32-39.26v38.95a1.47,1.47,0,0,1-1.65,1.65h-9.66a1.51,1.51,0,0,1-1.64-1.65V225.17a1.5,1.5,0,0,1,1.64-1.64h8.12a1.84,1.84,0,0,1,1.85,1.33l19.32,39.27v-39a1.47,1.47,0,0,1,1.65-1.64Z" fill="#fff"/><path d="M223.31,307.45a.76.76,0,0,1,.75.75v20.16c0,3.54-1.88,5.42-5.42,5.42h-4.21c-3.53,0-5.42-1.88-5.42-5.42V308.2a.76.76,0,0,1,.76-.75h3.61a.76.76,0,0,1,.75.75v19.11a1.33,1.33,0,0,0,1.5,1.5h2a1.33,1.33,0,0,0,1.5-1.5V308.2a.76.76,0,0,1,.76-.75Z" fill="#fff"/><path d="M245.4,307.45a.54.54,0,0,1,.61.6v3.76a.54.54,0,0,1-.61.61H241v20.76a.52.52,0,0,1-.6.6h-3.91a.53.53,0,0,1-.6-.6V312.42h-4.37a.56.56,0,0,1-.6-.61v-3.76a.56.56,0,0,1,.6-.6Z" fill="#fff"/><path d="M264.82,333.78a.58.58,0,0,1-.6-.53l-1.2-4.74H256l-1.17,4.74a.58.58,0,0,1-.6.53h-3.69c-.41,0-.6-.23-.49-.64L256.25,308a.58.58,0,0,1,.64-.53h5.22a.58.58,0,0,1,.64.53L269,333.14c.11.41-.08.64-.53.64Zm-5.34-19.86-2.37,10.23h4.74Z" fill="#fff"/><path d="M285.87,308.05a.55.55,0,0,1,.6-.6h3.87c.45,0,.64.23.64.6v25.13c0,.37-.19.6-.64.6h-3.87a.55.55,0,0,1-.6-.6v-10h-4.82v10a.55.55,0,0,1-.6.6h-3.87c-.46,0-.64-.23-.64-.6V308.05c0-.37.18-.6.64-.6h3.87a.55.55,0,0,1,.6.6v10.16h4.82Z" fill="#fff"/><path d="M160.76,179.26a.45.45,0,0,1-.49-.49v-3.15c0-.37.18-.52.49-.52H181.2c.31,0,.49.15.49.52v3.15a.45.45,0,0,1-.49.49h-8.14v3.92h8.14a.45.45,0,0,1,.49.49v3.15c0,.37-.18.52-.49.52H160.76c-.31,0-.49-.15-.49-.52v-3.15a.45.45,0,0,1,.49-.49H169v-3.92Z" fill="#fff"/><path d="M181.69,166.42a.43.43,0,0,1-.49.48H160.76a.43.43,0,0,1-.49-.48v-3.19a.45.45,0,0,1,.49-.49H181.2a.45.45,0,0,1,.49.49Z" fill="#fff"/><path d="M160.93,145.14c.29-2.86,2-4.22,4.83-3.93l2,.21a.44.44,0,0,1,.44.54l-.32,3.07a.45.45,0,0,1-.54.44l-1.28-.13a1.08,1.08,0,0,0-1.34,1.09l-.17,1.67a1.12,1.12,0,0,0,1.09,1.35l2.59.26,3.13-7.12a1.1,1.1,0,0,1,1.21-.67l5.72.59c2.87.3,4.23,2,3.93,4.84l-.35,3.41c-.29,2.83-2,4.22-4.84,3.93l-2-.21a.44.44,0,0,1-.44-.54l.32-3.07a.43.43,0,0,1,.53-.44l1.28.14a1.1,1.1,0,0,0,1.35-1.1l.17-1.64a1.08,1.08,0,0,0-1.09-1.34l-3.08-.32L171,153.23a1.08,1.08,0,0,1-1.21.7l-5.27-.54c-2.86-.3-4.22-2-3.93-4.84Z" fill="#fff"/><path d="M168.61,117.91a.45.45,0,0,1,.64-.28l2.84,1.13a.44.44,0,0,1,.28.64l-1.31,3.3,15.72,6.21a.43.43,0,0,1,.27.64l-1.17,3a.44.44,0,0,1-.64.27l-15.71-6.21-1.3,3.3a.45.45,0,0,1-.64.27L164.75,129a.45.45,0,0,1-.28-.64Z" fill="#fff"/><path d="M178.35,109.42c-2.29-1.75-2.58-3.89-.83-6.18l2.07-2.73c1.74-2.29,3.89-2.58,6.18-.84l10,7.64c2.29,1.74,2.58,3.89.84,6.18l-2.07,2.73c-1.75,2.29-3.89,2.58-6.18.83Zm14.74,2.21a1.08,1.08,0,0,0-.23-1.71L184,103.21a1.1,1.1,0,0,0-1.71.23L181.14,105a1.1,1.1,0,0,0,.23,1.71l8.82,6.71a1.08,1.08,0,0,0,1.71-.23Z" fill="#fff"/><path d="M207.37,89.18a4,4,0,0,1,.88,4l5.22,4.3a.4.4,0,0,1,0,.7l-2.39,1.8a.5.5,0,0,1-.68,0L205.59,96l-2.18,1.64,3.59,4.77a.44.44,0,0,1-.1.68l-2.4,1.8a.44.44,0,0,1-.68-.09L191.54,88.48a.46.46,0,0,1,.1-.69l5.87-4.41c2.3-1.72,4.44-1.42,6.17.88Zm-3.88,3.49a1.1,1.1,0,0,0,.24-1.72L201,87.26a1.09,1.09,0,0,0-1.71-.24l-2.45,1.83L201,94.5Z" fill="#fff"/><path d="M220.58,94.49a.44.44,0,0,1-.65-.25l-8.39-18.65a.44.44,0,0,1,.25-.64l2.9-1.31a.46.46,0,0,1,.65.25l8.39,18.64a.46.46,0,0,1-.25.65Z" fill="#fff"/><path d="M239.78,74.56a.45.45,0,0,1-.38.58l-2.82.56a.44.44,0,0,1-.58-.38l-.49-2.46a1.1,1.1,0,0,0-1.44-1l-1.92.39a1.08,1.08,0,0,0-1,1.44l2.18,10.89a1.09,1.09,0,0,0,1.44,1l1.92-.39a1.08,1.08,0,0,0,1-1.44l-.51-2.55a.44.44,0,0,1,.39-.58l2.82-.56a.44.44,0,0,1,.57.38l.65,3.24c.57,2.82-.66,4.63-3.45,5.19l-3.36.67c-2.82.57-4.65-.62-5.22-3.44L227.1,73.74c-.56-2.82.66-4.63,3.48-5.2l3.36-.67c2.79-.56,4.62.63,5.19,3.45Z" fill="#fff"/><path d="M277.27,70.48a.43.43,0,0,1,.35.59l-.74,3a.44.44,0,0,1-.59.36l-3.45-.86-4.09,16.39a.43.43,0,0,1-.6.36l-3.08-.77a.44.44,0,0,1-.36-.6l4.09-16.39-3.44-.86a.45.45,0,0,1-.36-.59l.75-3a.45.45,0,0,1,.59-.36Z" fill="#fff"/><path d="M287,79c1.43-2.49,3.52-3.06,6-1.63l3,1.7c2.5,1.43,3.07,3.52,1.64,6l-6.26,11c-1.43,2.49-3.52,3.06-6,1.63l-3-1.7c-2.5-1.43-3.07-3.52-1.64-6Zm-.27,14.9a1.08,1.08,0,0,0,1.67-.45l5.5-9.62a1.1,1.1,0,0,0-.45-1.67l-1.7-1a1.09,1.09,0,0,0-1.67.45l-5.51,9.62A1.09,1.09,0,0,0,285,93Z" fill="#fff"/><path d="M323.91,104.33a.52.52,0,0,1-.1.86L306.7,116.37a.62.62,0,0,1-.86-.14l-2.18-2.48a.63.63,0,0,1,0-.87l7.54-10.41-11.29,6.16a.62.62,0,0,1-.85-.14L296.8,106a.61.61,0,0,1,0-.89l13.28-15.46a.52.52,0,0,1,.87,0l1.9,2.15a.61.61,0,0,1,0,.87l-8.6,9.58.1.12L316,96.1a.62.62,0,0,1,.83.16l1.24,1.4a.64.64,0,0,1,.05.85l-7.65,10.74.1.12,10.62-7.29a.57.57,0,0,1,.86.1Z" fill="#fff"/><path d="M335.54,128.37a.45.45,0,0,1-.27.64l-19,7.61a.45.45,0,0,1-.64-.27l-.9-2.24a.55.55,0,0,1,.17-.66l8.7-9.7-10.76,4.32a.44.44,0,0,1-.64-.27l-1.07-2.67a.45.45,0,0,1,.27-.63l19-7.62a.46.46,0,0,1,.64.27l.9,2.24a.55.55,0,0,1-.16.66l-8.71,9.7,10.77-4.32a.43.43,0,0,1,.63.27Z" fill="#fff"/><path d="M335.32,155.76c2.88,0,4.41,1.53,4.41,4.41v3.42c0,2.88-1.53,4.41-4.41,4.41H322.71c-2.88,0-4.41-1.53-4.41-4.41v-3.42c0-2.88,1.53-4.41,4.41-4.41Zm-13.07,7.16a1.09,1.09,0,0,0,1.23,1.23h11.07a1.1,1.1,0,0,0,1.23-1.23v-2a1.1,1.1,0,0,0-1.23-1.22H323.48a1.09,1.09,0,0,0-1.23,1.22Z" fill="#fff"/><path d="M336.18,188.41a.45.45,0,0,1-.49-.49v-7.59h-5.24v5.75a.45.45,0,0,1-.49.49H326.9a.44.44,0,0,1-.49-.49v-5.75h-7.62a.45.45,0,0,1-.49-.49v-3.18a.44.44,0,0,1,.49-.49h20.45a.44.44,0,0,1,.49.49v11.26a.45.45,0,0,1-.49.49Z" fill="#fff"/><path d="M318.27,323.61a.54.54,0,0,0-.31.52V326a.39.39,0,0,0,.44.43h2.36v-.89a.39.39,0,0,1,.43-.44h2.1a.39.39,0,0,1,.44.44v3.34a.39.39,0,0,1-.44.44h-7.87a.39.39,0,0,1-.43-.44v-6.45c0-.41.15-.59.56-.8l5.21-2.8v-3.24a.79.79,0,0,0-.88-.87h-1.05a.77.77,0,0,0-.87.87v1.71a.32.32,0,0,1-.35.35h-2.27a.31.31,0,0,1-.35-.35V315a2.82,2.82,0,0,1,3.14-3.15h2.45a2.83,2.83,0,0,1,3.15,3.15v5.16c0,.41-.18.59-.59.81Z" fill="#5db4e5"/><path d="M325.71,315a2.82,2.82,0,0,1,3.15-3.15h2.45a2.82,2.82,0,0,1,3.14,3.15v11.19a2.81,2.81,0,0,1-3.14,3.15h-2.45a2.82,2.82,0,0,1-3.15-3.15Zm5.05,11.52a.78.78,0,0,0,.87-.88V315.57a.78.78,0,0,0-.87-.88h-1.27a.78.78,0,0,0-.87.88v10.09a.78.78,0,0,0,.87.88Z" fill="#5db4e5"/><path d="M339.71,323.61a.54.54,0,0,0-.31.52V326a.39.39,0,0,0,.44.43h2.36v-.89a.4.4,0,0,1,.44-.44h2.1a.4.4,0,0,1,.44.44v3.34a.4.4,0,0,1-.44.44h-7.87a.4.4,0,0,1-.44-.44v-6.45c0-.41.16-.59.57-.8l5.2-2.8v-3.24a.79.79,0,0,0-.87-.87h-1.05a.78.78,0,0,0-.88.87v1.71a.32.32,0,0,1-.34.35h-2.28a.31.31,0,0,1-.35-.35V315a2.82,2.82,0,0,1,3.15-3.15H342a2.83,2.83,0,0,1,3.15,3.15v5.16c0,.41-.18.59-.6.81Z" fill="#5db4e5"/><path d="M347.16,315a2.82,2.82,0,0,1,3.14-3.15h2.45A2.83,2.83,0,0,1,355.9,315v11.19a2.82,2.82,0,0,1-3.15,3.15H350.3a2.81,2.81,0,0,1-3.14-3.15Zm5,11.52a.78.78,0,0,0,.88-.88V315.57a.79.79,0,0,0-.88-.88h-1.26a.79.79,0,0,0-.88.88v10.09a.78.78,0,0,0,.88.88Z" fill="#5db4e5"/><path d="M157.79,311.87a.32.32,0,0,1,.35.35V329a.32.32,0,0,1-.35.35h-2.28a.31.31,0,0,1-.35-.35V312.22a.31.31,0,0,1,.35-.35Z" fill="#5db4e5"/><path d="M170.34,311.87a.32.32,0,0,1,.35.35V329a.32.32,0,0,1-.35.35h-2.17a.38.38,0,0,1-.39-.28l-3.34-9.34h-.11V329a.31.31,0,0,1-.35.35H161.7a.32.32,0,0,1-.35-.35V312.22a.32.32,0,0,1,.35-.35h2.17a.38.38,0,0,1,.39.28l3.32,9.3h.13v-9.23a.31.31,0,0,1,.35-.35Z" fill="#5db4e5"/><path d="M182.68,317.38a.32.32,0,0,1-.34.35h-2.19a.31.31,0,0,1-.35-.35v-1.75a.78.78,0,0,0-.88-.87h-1.13a.78.78,0,0,0-.88.87v10a.78.78,0,0,0,.88.87h1.13a.78.78,0,0,0,.88-.87v-1.75a.31.31,0,0,1,.35-.35h2.19a.32.32,0,0,1,.34.35v2.36a2.82,2.82,0,0,1-3.14,3.15h-2.45a2.83,2.83,0,0,1-3.17-3.15V315a2.83,2.83,0,0,1,3.17-3.15h2.45a2.82,2.82,0,0,1,3.14,3.15Z" fill="#5db4e5"/><path d="M232.2,187.12c-10.55-7.22-23.62-13-36-13.93a56.42,56.42,0,0,0,84.05,30.61C263.74,206.2,248.87,198.54,232.2,187.12Z" fill="#5db4e5"/><path d="M250,99.75a56.43,56.43,0,0,0-56.43,56.42c0,.06,0,.12,0,.18,13.54.11,28.18,3.75,41.23,8.34,21.36,7.52,38.32,12.82,59.24,5.93,3.71-1.23,7.58-3,11.51-4.68a57.07,57.07,0,0,0,.86-9.77A56.42,56.42,0,0,0,250,99.75Zm34,52.92c-8.9-1.32-9,.45-12.6.26s-15.59-2.4-22.05-7.73c-2.13-1.72-4,1.81-8.31,2.09-5.22.34-7.51-2.43-6.36-3.6,2.11-2.11,6.26-6.26,5.2-10.18s1.06-5.42,2.72-8.13,6.59-7.39,7.24-7.41c.93,0,3.66,2.14,6.21,4.09s17.05,16.66,21.66,19.06c3.21,1.67,1.93,2.27,1.47,3.93S286.47,153,284,152.67Zm1.49-14.54c-5-3.42-33.08-23.51-36.85-23.51S226.47,129.12,224.6,131s-8,5.39-9.12,5.62c-.62.12-7,3.73-13.67,7.52a49.66,49.66,0,0,1,97.65,7.68C293.44,146.12,287.41,139.43,285.53,138.13Z" fill="#5db4e5"/><path d="M232.2,170.32c-12.16-4.89-25.51-8.12-38.32-8.27q.27,2.67.8,5.25c13.63.37,28,5,40.13,11.82,22,12.43,37.31,21.62,59.23,10,1-.53,2-1.15,3-1.8a56.17,56.17,0,0,0,6.51-13.4c-2.4,1.2-4.81,2.4-7.16,3.43C272.71,187.75,255.73,179.79,232.2,170.32Z" fill="#5db4e5"/><path d="M299.46,151.8c-6-5.68-12.06-12.37-13.93-13.67-5-3.42-33.08-23.5-36.86-23.5S226.46,129.13,224.6,131s-8,5.39-9.12,5.62c-.62.12-7,3.73-13.67,7.53a49.66,49.66,0,0,1,97.65,7.66Z" fill="#fff"/><path d="M284,152.68c-8.9-1.32-9,.44-12.6.26s-15.59-2.41-22.05-7.74c-2.14-1.72-4,1.81-8.31,2.1-5.22.33-7.52-2.44-6.36-3.6,2.1-2.12,6.26-6.27,5.2-10.18s1.06-5.43,2.72-8.14,6.59-7.39,7.24-7.41c.93,0,3.66,2.14,6.21,4.09s17.05,16.66,21.65,19.06c3.22,1.67,1.94,2.27,1.48,3.92S286.46,153,284,152.68Z" fill="#fff"/><path d="M967.56,207.17V312.34H902.85v34H641.57v-34H572.44V207.17h95.2V156a102.36,102.36,0,0,1,204.72,0v51.18Z" fill="#5db4e5"/><path d="M905.56,349H638.83V315.15H570V203.86h94.8V156.18a105.2,105.2,0,1,1,210.4,0v47.68H970V315.15H905.56Zm-260.17-6.56H899V308.59h64.43V210.42H868.65V156.18a98.65,98.65,0,0,0-197.3,0v54.24H576.56v98.17h68.83Z" fill="#173158"/><path d="M630.89,252.21a7.41,7.41,0,0,1-6.48,7.29v.21a7.42,7.42,0,0,1,6.48,7.3v13.67c0,9.66-5.25,14.8-14.91,14.8H591.31a1.52,1.52,0,0,1-1.64-1.65V225.17a1.46,1.46,0,0,1,1.64-1.64H616c9.66,0,14.91,5.14,14.91,14.8Zm-13.06-11.62c0-2.67-1.33-4.11-4.11-4.11H602.41v16.34h11.31c2.67,0,4.11-1.44,4.11-4Zm0,29.91c0-2.67-1.33-4.11-4.11-4.11H602.41v16.14h11.31c2.67,0,4.11-1.34,4.11-4.11Z" fill="#fff"/><path d="M680.25,259c0,6-2,10.18-5.76,12.54l5.35,22.1c.31,1.23-.31,1.85-1.44,1.85H668.33a1.61,1.61,0,0,1-1.75-1.44l-4.94-20.25H652.5v20a1.52,1.52,0,0,1-1.65,1.65H640.78a1.52,1.52,0,0,1-1.65-1.65V225.17a1.51,1.51,0,0,1,1.65-1.64h24.67c9.66,0,14.8,5.14,14.8,14.8Zm-17.48,1.54c2.68,0,4.12-1.44,4.12-4.11V240.9c0-2.67-1.44-4.11-4.12-4.11H652.5v23.74Z" fill="#fff"/><path d="M690.14,295.48a1.47,1.47,0,0,1-1.64-1.65V225.17a1.46,1.46,0,0,1,1.64-1.64h10.69a1.51,1.51,0,0,1,1.65,1.64v68.66a1.52,1.52,0,0,1-1.65,1.65Z" fill="#fff"/><path d="M710.72,238.33c0-9.66,5.14-14.8,14.8-14.8H737c9.55,0,14.8,5.14,14.8,14.8v7.61a1.52,1.52,0,0,1-1.65,1.64h-9.66a1.46,1.46,0,0,1-1.64-1.64v-5c0-2.67-1.44-4.11-4.12-4.11H728.2c-2.78,0-4.12,1.44-4.12,4.11v37.21c0,2.77,1.44,4.11,4.12,4.11h6.57c2.68,0,4.12-1.34,4.12-4.11v-8.94h-5.35a1.47,1.47,0,0,1-1.64-1.65V257.24c0-1.13.51-1.64,1.64-1.64h16.65a1.47,1.47,0,0,1,1.65,1.64v23.44c0,9.66-5.25,14.8-14.8,14.8H725.52c-9.66,0-14.8-5.14-14.8-14.8Z" fill="#fff"/><path d="M787.22,225.17a1.51,1.51,0,0,1,1.65-1.64h10.58c1.24,0,1.75.61,1.75,1.64v68.66c0,1-.51,1.65-1.75,1.65H788.87a1.52,1.52,0,0,1-1.65-1.65V266.49H774.06v27.34a1.51,1.51,0,0,1-1.64,1.65H761.83c-1.23,0-1.74-.62-1.74-1.65V225.17c0-1,.51-1.64,1.74-1.64h10.59a1.5,1.5,0,0,1,1.64,1.64v27.75h13.16Z" fill="#fff"/><path d="M848,223.53a1.47,1.47,0,0,1,1.65,1.64v10.28A1.47,1.47,0,0,1,848,237.1H836.07v56.73c0,1.13-.51,1.65-1.64,1.65H823.74a1.47,1.47,0,0,1-1.65-1.65V237.1H810.17a1.52,1.52,0,0,1-1.65-1.65V225.17a1.51,1.51,0,0,1,1.65-1.64Z" fill="#fff"/><path d="M857,238.33c0-9.66,5.14-14.8,14.8-14.8h11.51c9.67,0,14.8,5.14,14.8,14.8v42.35c0,9.66-5.13,14.8-14.8,14.8H871.76c-9.66,0-14.8-5.14-14.8-14.8Zm24,43.89c2.67,0,4.11-1.34,4.11-4.11V240.9c0-2.67-1.44-4.11-4.11-4.11h-6.58c-2.67,0-4.11,1.44-4.11,4.11v37.21c0,2.77,1.44,4.11,4.11,4.11Z" fill="#fff"/><path d="M948.68,223.53a1.51,1.51,0,0,1,1.65,1.64v68.66a1.52,1.52,0,0,1-1.65,1.65h-8.12a1.85,1.85,0,0,1-1.85-1.34l-19.32-39.26v38.95a1.47,1.47,0,0,1-1.65,1.65h-9.66a1.51,1.51,0,0,1-1.64-1.65V225.17a1.5,1.5,0,0,1,1.64-1.64h8.12a1.84,1.84,0,0,1,1.85,1.33l19.32,39.27v-39a1.47,1.47,0,0,1,1.65-1.64Z" fill="#fff"/><path d="M743.31,307.45a.76.76,0,0,1,.75.75v20.16c0,3.54-1.88,5.42-5.42,5.42h-4.21c-3.53,0-5.42-1.88-5.42-5.42V308.2a.76.76,0,0,1,.76-.75h3.61a.76.76,0,0,1,.75.75v19.11a1.33,1.33,0,0,0,1.5,1.5h2a1.33,1.33,0,0,0,1.5-1.5V308.2a.76.76,0,0,1,.76-.75Z" fill="#fff"/><path d="M765.4,307.45a.54.54,0,0,1,.61.6v3.76a.54.54,0,0,1-.61.61H761v20.76a.52.52,0,0,1-.6.6h-3.91a.53.53,0,0,1-.6-.6V312.42h-4.37a.56.56,0,0,1-.6-.61v-3.76a.56.56,0,0,1,.6-.6Z" fill="#fff"/><path d="M784.82,333.78a.58.58,0,0,1-.6-.53l-1.2-4.74H776l-1.17,4.74a.58.58,0,0,1-.6.53h-3.69c-.41,0-.6-.23-.49-.64L776.25,308a.58.58,0,0,1,.64-.53h5.22a.58.58,0,0,1,.64.53L789,333.14c.11.41-.08.64-.53.64Zm-5.34-19.86-2.37,10.23h4.74Z" fill="#fff"/><path d="M805.87,308.05a.55.55,0,0,1,.6-.6h3.87c.45,0,.64.23.64.6v25.13c0,.37-.19.6-.64.6h-3.87a.55.55,0,0,1-.6-.6v-10h-4.82v10a.55.55,0,0,1-.6.6h-3.87c-.46,0-.64-.23-.64-.6V308.05c0-.37.18-.6.64-.6h3.87a.55.55,0,0,1,.6.6v10.16h4.82Z" fill="#fff"/><path d="M680.76,179.26a.45.45,0,0,1-.49-.49v-3.15c0-.37.18-.52.49-.52H701.2c.31,0,.49.15.49.52v3.15a.45.45,0,0,1-.49.49h-8.14v3.92h8.14a.45.45,0,0,1,.49.49v3.15c0,.37-.18.52-.49.52H680.76c-.31,0-.49-.15-.49-.52v-3.15a.45.45,0,0,1,.49-.49H689v-3.92Z" fill="#fff"/><path d="M701.69,166.42a.43.43,0,0,1-.49.48H680.76a.43.43,0,0,1-.49-.48v-3.19a.45.45,0,0,1,.49-.49H701.2a.45.45,0,0,1,.49.49Z" fill="#fff"/><path d="M680.93,145.14c.29-2.86,2-4.22,4.83-3.93l2,.21a.44.44,0,0,1,.44.54l-.32,3.07a.45.45,0,0,1-.54.44l-1.28-.13a1.08,1.08,0,0,0-1.34,1.09l-.17,1.67a1.12,1.12,0,0,0,1.09,1.35l2.59.26,3.13-7.12a1.1,1.1,0,0,1,1.21-.67l5.72.59c2.87.3,4.23,2,3.93,4.84l-.35,3.41c-.29,2.83-2,4.22-4.84,3.93l-2-.21a.44.44,0,0,1-.44-.54l.32-3.07a.43.43,0,0,1,.53-.44l1.28.14a1.1,1.1,0,0,0,1.35-1.1l.17-1.64a1.08,1.08,0,0,0-1.09-1.34l-3.08-.32L691,153.23a1.08,1.08,0,0,1-1.21.7l-5.27-.54c-2.86-.3-4.22-2-3.93-4.84Z" fill="#fff"/><path d="M688.61,117.91a.45.45,0,0,1,.64-.28l2.84,1.13a.44.44,0,0,1,.28.64l-1.31,3.3,15.72,6.21a.43.43,0,0,1,.27.64l-1.17,3a.44.44,0,0,1-.64.27l-15.71-6.21-1.3,3.3a.45.45,0,0,1-.64.27L684.75,129a.45.45,0,0,1-.28-.64Z" fill="#fff"/><path d="M698.35,109.42c-2.29-1.75-2.58-3.89-.83-6.18l2.07-2.73c1.74-2.29,3.89-2.58,6.18-.84l10,7.64c2.29,1.74,2.58,3.89.84,6.18l-2.07,2.73c-1.75,2.29-3.89,2.58-6.18.83Zm14.74,2.21a1.08,1.08,0,0,0-.23-1.71L704,103.21a1.1,1.1,0,0,0-1.71.23L701.14,105a1.1,1.1,0,0,0,.23,1.71l8.82,6.71a1.08,1.08,0,0,0,1.71-.23Z" fill="#fff"/><path d="M727.37,89.18a4,4,0,0,1,.88,4l5.22,4.3a.4.4,0,0,1,0,.7l-2.39,1.8a.5.5,0,0,1-.68,0L725.59,96l-2.18,1.64,3.59,4.77a.44.44,0,0,1-.1.68l-2.4,1.8a.44.44,0,0,1-.68-.09L711.54,88.48a.46.46,0,0,1,.1-.69l5.87-4.41c2.3-1.72,4.44-1.42,6.17.88Zm-3.88,3.49a1.1,1.1,0,0,0,.24-1.72L721,87.26a1.09,1.09,0,0,0-1.71-.24l-2.45,1.83L721,94.5Z" fill="#fff"/><path d="M740.58,94.49a.44.44,0,0,1-.65-.25l-8.39-18.65a.44.44,0,0,1,.25-.64l2.9-1.31a.46.46,0,0,1,.65.25l8.39,18.64a.46.46,0,0,1-.25.65Z" fill="#fff"/><path d="M759.78,74.56a.45.45,0,0,1-.38.58l-2.82.56a.44.44,0,0,1-.58-.38l-.49-2.46a1.1,1.1,0,0,0-1.44-1l-1.92.39a1.08,1.08,0,0,0-1,1.44l2.18,10.89a1.09,1.09,0,0,0,1.44,1l1.92-.39a1.08,1.08,0,0,0,1-1.44l-.51-2.55a.44.44,0,0,1,.39-.58l2.82-.56a.44.44,0,0,1,.57.38l.65,3.24c.57,2.82-.66,4.63-3.45,5.19l-3.36.67c-2.82.57-4.65-.62-5.22-3.44L747.1,73.74c-.56-2.82.66-4.63,3.48-5.2l3.36-.67c2.79-.56,4.62.63,5.19,3.45Z" fill="#fff"/><path d="M797.27,70.48a.43.43,0,0,1,.35.59l-.74,3a.44.44,0,0,1-.59.36l-3.45-.86-4.09,16.39a.43.43,0,0,1-.6.36l-3.08-.77a.44.44,0,0,1-.36-.6l4.09-16.39-3.44-.86a.45.45,0,0,1-.36-.59l.75-3a.45.45,0,0,1,.59-.36Z" fill="#fff"/><path d="M807,79c1.43-2.49,3.52-3.06,6-1.63l3,1.7c2.5,1.43,3.07,3.52,1.64,6l-6.26,11c-1.43,2.49-3.52,3.06-6,1.63l-3-1.7c-2.5-1.43-3.07-3.52-1.64-6Zm-.27,14.9a1.08,1.08,0,0,0,1.67-.45l5.5-9.62a1.1,1.1,0,0,0-.45-1.67l-1.7-1a1.09,1.09,0,0,0-1.67.45l-5.51,9.62A1.09,1.09,0,0,0,805,93Z" fill="#fff"/><path d="M843.91,104.33a.52.52,0,0,1-.1.86L826.7,116.37a.62.62,0,0,1-.86-.14l-2.18-2.48a.63.63,0,0,1,0-.87l7.54-10.41-11.29,6.16a.62.62,0,0,1-.85-.14L816.8,106a.61.61,0,0,1,0-.89l13.28-15.46a.52.52,0,0,1,.87,0l1.9,2.15a.61.61,0,0,1,0,.87l-8.6,9.58.1.12L836,96.1a.62.62,0,0,1,.83.16l1.24,1.4a.64.64,0,0,1,.05.85l-7.65,10.74.1.12,10.62-7.29a.57.57,0,0,1,.86.1Z" fill="#fff"/><path d="M855.54,128.37a.45.45,0,0,1-.27.64l-19,7.61a.45.45,0,0,1-.64-.27l-.9-2.24a.55.55,0,0,1,.17-.66l8.7-9.7-10.76,4.32a.44.44,0,0,1-.64-.27l-1.07-2.67a.45.45,0,0,1,.27-.63l19-7.62a.46.46,0,0,1,.64.27l.9,2.24a.55.55,0,0,1-.16.66l-8.71,9.7,10.77-4.32a.43.43,0,0,1,.63.27Z" fill="#fff"/><path d="M855.32,155.76c2.88,0,4.41,1.53,4.41,4.41v3.42c0,2.88-1.53,4.41-4.41,4.41H842.71c-2.88,0-4.41-1.53-4.41-4.41v-3.42c0-2.88,1.53-4.41,4.41-4.41Zm-13.07,7.16a1.09,1.09,0,0,0,1.23,1.23h11.07a1.1,1.1,0,0,0,1.23-1.23v-2a1.1,1.1,0,0,0-1.23-1.22H843.48a1.09,1.09,0,0,0-1.23,1.22Z" fill="#fff"/><path d="M856.18,188.41a.45.45,0,0,1-.49-.49v-7.59h-5.24v5.75a.45.45,0,0,1-.49.49H846.9a.44.44,0,0,1-.49-.49v-5.75h-7.62a.45.45,0,0,1-.49-.49v-3.18a.44.44,0,0,1,.49-.49h20.45a.44.44,0,0,1,.49.49v11.26a.45.45,0,0,1-.49.49Z" fill="#fff"/><path d="M838.27,323.61a.54.54,0,0,0-.31.52V326a.39.39,0,0,0,.44.43h2.36v-.89a.39.39,0,0,1,.43-.44h2.1a.39.39,0,0,1,.44.44v3.34a.39.39,0,0,1-.44.44h-7.87a.39.39,0,0,1-.43-.44v-6.45c0-.41.15-.59.56-.8l5.21-2.8v-3.24a.79.79,0,0,0-.88-.87h-1a.77.77,0,0,0-.87.87v1.71a.32.32,0,0,1-.35.35h-2.27a.31.31,0,0,1-.35-.35V315a2.82,2.82,0,0,1,3.14-3.15h2.45a2.83,2.83,0,0,1,3.15,3.15v5.16c0,.41-.18.59-.59.81Z" fill="#173158"/><path d="M845.71,315a2.82,2.82,0,0,1,3.15-3.15h2.45a2.82,2.82,0,0,1,3.14,3.15v11.19a2.81,2.81,0,0,1-3.14,3.15h-2.45a2.82,2.82,0,0,1-3.15-3.15Zm5,11.52a.78.78,0,0,0,.87-.88V315.57a.78.78,0,0,0-.87-.88h-1.27a.78.78,0,0,0-.87.88v10.09a.78.78,0,0,0,.87.88Z" fill="#173158"/><path d="M859.71,323.61a.54.54,0,0,0-.31.52V326a.39.39,0,0,0,.44.43h2.36v-.89a.4.4,0,0,1,.44-.44h2.1a.4.4,0,0,1,.44.44v3.34a.4.4,0,0,1-.44.44h-7.87a.4.4,0,0,1-.44-.44v-6.45c0-.41.16-.59.57-.8l5.2-2.8v-3.24a.79.79,0,0,0-.87-.87h-1.05a.78.78,0,0,0-.88.87v1.71a.32.32,0,0,1-.34.35h-2.28a.31.31,0,0,1-.35-.35V315a2.82,2.82,0,0,1,3.15-3.15H862a2.83,2.83,0,0,1,3.15,3.15v5.16c0,.41-.18.59-.6.81Z" fill="#173158"/><path d="M867.16,315a2.82,2.82,0,0,1,3.14-3.15h2.45A2.83,2.83,0,0,1,875.9,315v11.19a2.82,2.82,0,0,1-3.15,3.15H870.3a2.81,2.81,0,0,1-3.14-3.15Zm5,11.52a.78.78,0,0,0,.88-.88V315.57a.79.79,0,0,0-.88-.88h-1.26a.79.79,0,0,0-.88.88v10.09a.78.78,0,0,0,.88.88Z" fill="#173158"/><path d="M677.79,311.87a.32.32,0,0,1,.35.35V329a.32.32,0,0,1-.35.35h-2.28a.31.31,0,0,1-.35-.35V312.22a.31.31,0,0,1,.35-.35Z" fill="#173158"/><path d="M690.34,311.87a.32.32,0,0,1,.35.35V329a.32.32,0,0,1-.35.35h-2.17a.38.38,0,0,1-.39-.28l-3.34-9.34h-.11V329a.31.31,0,0,1-.35.35H681.7a.32.32,0,0,1-.35-.35V312.22a.32.32,0,0,1,.35-.35h2.17a.38.38,0,0,1,.39.28l3.32,9.3h.13v-9.23a.31.31,0,0,1,.35-.35Z" fill="#173158"/><path d="M702.68,317.38a.32.32,0,0,1-.34.35h-2.19a.31.31,0,0,1-.35-.35v-1.75a.78.78,0,0,0-.88-.87h-1.13a.78.78,0,0,0-.88.87v10a.78.78,0,0,0,.88.87h1.13a.78.78,0,0,0,.88-.87v-1.75a.31.31,0,0,1,.35-.35h2.19a.32.32,0,0,1,.34.35v2.36a2.82,2.82,0,0,1-3.14,3.15h-2.45a2.83,2.83,0,0,1-3.17-3.15V315a2.83,2.83,0,0,1,3.17-3.15h2.45a2.82,2.82,0,0,1,3.14,3.15Z" fill="#173158"/><path d="M752.2,187.12c-10.55-7.22-23.62-13-36-13.93a56.42,56.42,0,0,0,84,30.61C783.74,206.2,768.87,198.54,752.2,187.12Z" fill="#173158"/><path d="M770,99.75a56.43,56.43,0,0,0-56.43,56.42c0,.06,0,.12,0,.18,13.54.11,28.18,3.75,41.23,8.34,21.36,7.52,38.32,12.82,59.24,5.93,3.71-1.23,7.58-3,11.51-4.68a57.07,57.07,0,0,0,.86-9.77A56.42,56.42,0,0,0,770,99.75Zm34,52.92c-8.9-1.32-9,.45-12.6.26s-15.59-2.4-22.05-7.73c-2.13-1.72-4,1.81-8.31,2.09-5.22.34-7.51-2.43-6.36-3.6,2.11-2.11,6.26-6.26,5.2-10.18s1.06-5.42,2.72-8.13,6.59-7.39,7.24-7.41c.93,0,3.66,2.14,6.21,4.09s17,16.66,21.66,19.06c3.21,1.67,1.93,2.27,1.47,3.93S806.47,153,804,152.67Zm1.49-14.54c-5-3.42-33.08-23.51-36.85-23.51S746.47,129.12,744.6,131s-8,5.39-9.12,5.62c-.62.12-7,3.73-13.67,7.52a49.66,49.66,0,0,1,97.65,7.68C813.44,146.12,807.41,139.43,805.53,138.13Z" fill="#173158"/><path d="M752.2,170.32c-12.16-4.89-25.51-8.12-38.32-8.27q.27,2.67.8,5.25c13.63.37,28,5,40.13,11.82,22,12.43,37.31,21.62,59.23,10,1-.53,2-1.15,3-1.8a56.17,56.17,0,0,0,6.51-13.4c-2.4,1.2-4.81,2.4-7.16,3.43C792.71,187.75,775.73,179.79,752.2,170.32Z" fill="#173158"/><path d="M819.46,151.8c-6-5.68-12.06-12.37-13.93-13.67-5-3.42-33.08-23.5-36.86-23.5S746.46,129.13,744.6,131s-8,5.39-9.12,5.62c-.62.12-7,3.73-13.67,7.53a49.66,49.66,0,0,1,97.65,7.66Z" fill="#fff"/><path d="M804,152.68c-8.9-1.32-9,.44-12.6.26s-15.59-2.41-22.05-7.74c-2.14-1.72-4,1.81-8.31,2.1-5.22.33-7.52-2.44-6.36-3.6,2.1-2.12,6.26-6.27,5.2-10.18s1.06-5.43,2.72-8.14,6.59-7.39,7.24-7.41c.93,0,3.66,2.14,6.21,4.09s17,16.66,21.65,19.06c3.22,1.67,1.94,2.27,1.48,3.92S806.46,153,804,152.68Z" fill="#fff"/><path d="M1425.56,349H1158.83V315.15H1090V203.86h94.8V156.18a105.2,105.2,0,1,1,210.4,0v47.68H1490V315.15h-64.44Zm-260.17-6.56H1419V308.59h64.43V210.42h-94.79V156.18a98.65,98.65,0,0,0-197.3,0v54.24h-94.79v98.17h68.83Z" fill="#fff"/><path d="M1150.89,252.21a7.41,7.41,0,0,1-6.48,7.29v.21a7.42,7.42,0,0,1,6.48,7.3v13.67c0,9.66-5.25,14.8-14.91,14.8h-24.67a1.52,1.52,0,0,1-1.64-1.65V225.17a1.46,1.46,0,0,1,1.64-1.64H1136c9.66,0,14.91,5.14,14.91,14.8Zm-13.06-11.62c0-2.67-1.33-4.11-4.11-4.11h-11.31v16.34h11.31c2.67,0,4.11-1.44,4.11-4Zm0,29.91c0-2.67-1.33-4.11-4.11-4.11h-11.31v16.14h11.31c2.67,0,4.11-1.34,4.11-4.11Z" fill="#fff"/><path d="M1200.25,259c0,6-2,10.18-5.76,12.54l5.35,22.1c.31,1.23-.31,1.85-1.44,1.85h-10.07a1.61,1.61,0,0,1-1.75-1.44l-4.94-20.25h-9.14v20a1.52,1.52,0,0,1-1.65,1.65h-10.07a1.52,1.52,0,0,1-1.65-1.65V225.17a1.51,1.51,0,0,1,1.65-1.64h24.67c9.66,0,14.8,5.14,14.8,14.8Zm-17.48,1.54c2.68,0,4.12-1.44,4.12-4.11V240.9c0-2.67-1.44-4.11-4.12-4.11H1172.5v23.74Z" fill="#fff"/><path d="M1210.14,295.48a1.47,1.47,0,0,1-1.64-1.65V225.17a1.46,1.46,0,0,1,1.64-1.64h10.69a1.51,1.51,0,0,1,1.65,1.64v68.66a1.52,1.52,0,0,1-1.65,1.65Z" fill="#fff"/><path d="M1230.72,238.33c0-9.66,5.14-14.8,14.8-14.8H1257c9.55,0,14.8,5.14,14.8,14.8v7.61a1.52,1.52,0,0,1-1.65,1.64h-9.66a1.46,1.46,0,0,1-1.64-1.64v-5c0-2.67-1.44-4.11-4.12-4.11h-6.57c-2.78,0-4.12,1.44-4.12,4.11v37.21c0,2.77,1.44,4.11,4.12,4.11h6.57c2.68,0,4.12-1.34,4.12-4.11v-8.94h-5.35a1.47,1.47,0,0,1-1.64-1.65V257.24c0-1.13.51-1.64,1.64-1.64h16.65a1.47,1.47,0,0,1,1.65,1.64v23.44c0,9.66-5.25,14.8-14.8,14.8h-11.52c-9.66,0-14.8-5.14-14.8-14.8Z" fill="#fff"/><path d="M1307.22,225.17a1.51,1.51,0,0,1,1.65-1.64h10.58c1.24,0,1.75.61,1.75,1.64v68.66c0,1-.51,1.65-1.75,1.65h-10.58a1.52,1.52,0,0,1-1.65-1.65V266.49h-13.16v27.34a1.51,1.51,0,0,1-1.64,1.65h-10.59c-1.23,0-1.74-.62-1.74-1.65V225.17c0-1,.51-1.64,1.74-1.64h10.59a1.5,1.5,0,0,1,1.64,1.64v27.75h13.16Z" fill="#fff"/><path d="M1368,223.53a1.47,1.47,0,0,1,1.65,1.64v10.28a1.47,1.47,0,0,1-1.65,1.65h-11.92v56.73c0,1.13-.51,1.65-1.64,1.65h-10.69a1.47,1.47,0,0,1-1.65-1.65V237.1h-11.92a1.52,1.52,0,0,1-1.65-1.65V225.17a1.51,1.51,0,0,1,1.65-1.64Z" fill="#fff"/><path d="M1377,238.33c0-9.66,5.14-14.8,14.8-14.8h11.51c9.67,0,14.8,5.14,14.8,14.8v42.35c0,9.66-5.13,14.8-14.8,14.8h-11.51c-9.66,0-14.8-5.14-14.8-14.8Zm24,43.89c2.67,0,4.11-1.34,4.11-4.11V240.9c0-2.67-1.44-4.11-4.11-4.11h-6.58c-2.67,0-4.11,1.44-4.11,4.11v37.21c0,2.77,1.44,4.11,4.11,4.11Z" fill="#fff"/><path d="M1468.68,223.53a1.51,1.51,0,0,1,1.65,1.64v68.66a1.52,1.52,0,0,1-1.65,1.65h-8.12a1.85,1.85,0,0,1-1.85-1.34l-19.32-39.26v38.95a1.47,1.47,0,0,1-1.65,1.65h-9.66a1.51,1.51,0,0,1-1.64-1.65V225.17a1.5,1.5,0,0,1,1.64-1.64h8.12a1.84,1.84,0,0,1,1.85,1.33l19.32,39.27v-39a1.47,1.47,0,0,1,1.65-1.64Z" fill="#fff"/><path d="M1263.31,307.45a.76.76,0,0,1,.75.75v20.16c0,3.54-1.88,5.42-5.42,5.42h-4.21c-3.53,0-5.42-1.88-5.42-5.42V308.2a.76.76,0,0,1,.76-.75h3.61a.76.76,0,0,1,.75.75v19.11a1.33,1.33,0,0,0,1.5,1.5h2a1.33,1.33,0,0,0,1.5-1.5V308.2a.76.76,0,0,1,.76-.75Z" fill="#fff"/><path d="M1285.4,307.45a.54.54,0,0,1,.61.6v3.76a.54.54,0,0,1-.61.61H1281v20.76a.52.52,0,0,1-.6.6h-3.91a.53.53,0,0,1-.6-.6V312.42h-4.37a.56.56,0,0,1-.6-.61v-3.76a.56.56,0,0,1,.6-.6Z" fill="#fff"/><path d="M1304.82,333.78a.58.58,0,0,1-.6-.53l-1.2-4.74H1296l-1.17,4.74a.58.58,0,0,1-.6.53h-3.69c-.41,0-.6-.23-.49-.64l6.25-25.16a.58.58,0,0,1,.64-.53h5.22a.58.58,0,0,1,.64.53l6.25,25.16c.11.41-.08.64-.53.64Zm-5.34-19.86-2.37,10.23h4.74Z" fill="#fff"/><path d="M1325.87,308.05a.55.55,0,0,1,.6-.6h3.87c.45,0,.64.23.64.6v25.13c0,.37-.19.6-.64.6h-3.87a.55.55,0,0,1-.6-.6v-10h-4.82v10a.55.55,0,0,1-.6.6h-3.87c-.46,0-.64-.23-.64-.6V308.05c0-.37.18-.6.64-.6h3.87a.55.55,0,0,1,.6.6v10.16h4.82Z" fill="#fff"/><path d="M1200.76,179.26a.45.45,0,0,1-.49-.49v-3.15c0-.37.18-.52.49-.52h20.44c.31,0,.49.15.49.52v3.15a.45.45,0,0,1-.49.49h-8.14v3.92h8.14a.45.45,0,0,1,.49.49v3.15c0,.37-.18.52-.49.52h-20.44c-.31,0-.49-.15-.49-.52v-3.15a.45.45,0,0,1,.49-.49H1209v-3.92Z" fill="#fff"/><path d="M1221.69,166.42a.43.43,0,0,1-.49.48h-20.44a.43.43,0,0,1-.49-.48v-3.19a.45.45,0,0,1,.49-.49h20.44a.45.45,0,0,1,.49.49Z" fill="#fff"/><path d="M1200.93,145.14c.29-2.86,2-4.22,4.83-3.93l2,.21a.44.44,0,0,1,.44.54l-.32,3.07a.45.45,0,0,1-.54.44l-1.28-.13a1.08,1.08,0,0,0-1.34,1.09l-.17,1.67a1.12,1.12,0,0,0,1.09,1.35l2.59.26,3.13-7.12a1.1,1.1,0,0,1,1.21-.67l5.72.59c2.87.3,4.23,2,3.93,4.84l-.35,3.41c-.29,2.83-2,4.22-4.84,3.93l-2-.21a.44.44,0,0,1-.44-.54l.32-3.07a.43.43,0,0,1,.53-.44l1.28.14a1.1,1.1,0,0,0,1.35-1.1l.17-1.64a1.08,1.08,0,0,0-1.09-1.34l-3.08-.32-3.13,7.06a1.08,1.08,0,0,1-1.21.7l-5.27-.54c-2.86-.3-4.22-2-3.93-4.84Z" fill="#fff"/><path d="M1208.61,117.91a.45.45,0,0,1,.64-.28l2.84,1.13a.44.44,0,0,1,.28.64l-1.31,3.3,15.72,6.21a.43.43,0,0,1,.27.64l-1.17,3a.44.44,0,0,1-.64.27l-15.71-6.21-1.3,3.3a.45.45,0,0,1-.64.27l-2.84-1.12a.45.45,0,0,1-.28-.64Z" fill="#fff"/><path d="M1218.35,109.42c-2.29-1.75-2.58-3.89-.83-6.18l2.07-2.73c1.74-2.29,3.89-2.58,6.18-.84l10,7.64c2.29,1.74,2.58,3.89.84,6.18l-2.07,2.73c-1.75,2.29-3.89,2.58-6.18.83Zm14.74,2.21a1.08,1.08,0,0,0-.23-1.71l-8.82-6.71a1.1,1.1,0,0,0-1.71.23l-1.19,1.56a1.1,1.1,0,0,0,.23,1.71l8.82,6.71a1.08,1.08,0,0,0,1.71-.23Z" fill="#fff"/><path d="M1247.37,89.18a4,4,0,0,1,.88,4l5.22,4.3a.4.4,0,0,1,0,.7l-2.39,1.8a.5.5,0,0,1-.68,0L1245.59,96l-2.18,1.64,3.59,4.77a.44.44,0,0,1-.1.68l-2.4,1.8a.44.44,0,0,1-.68-.09l-12.28-16.34a.46.46,0,0,1,.1-.69l5.87-4.41c2.3-1.72,4.44-1.42,6.17.88Zm-3.88,3.49a1.1,1.1,0,0,0,.24-1.72L1241,87.26a1.09,1.09,0,0,0-1.71-.24l-2.45,1.83L1241,94.5Z" fill="#fff"/><path d="M1260.58,94.49a.44.44,0,0,1-.65-.25l-8.39-18.65a.44.44,0,0,1,.25-.64l2.9-1.31a.46.46,0,0,1,.65.25l8.39,18.64a.46.46,0,0,1-.25.65Z" fill="#fff"/><path d="M1279.78,74.56a.45.45,0,0,1-.38.58l-2.82.56a.44.44,0,0,1-.58-.38l-.49-2.46a1.1,1.1,0,0,0-1.44-1l-1.92.39a1.08,1.08,0,0,0-1,1.44l2.18,10.89a1.09,1.09,0,0,0,1.44,1l1.92-.39a1.08,1.08,0,0,0,1-1.44l-.51-2.55a.44.44,0,0,1,.39-.58l2.82-.56a.44.44,0,0,1,.57.38l.65,3.24c.57,2.82-.66,4.63-3.45,5.19l-3.36.67c-2.82.57-4.65-.62-5.22-3.44l-2.48-12.36c-.56-2.82.66-4.63,3.48-5.2l3.36-.67c2.79-.56,4.62.63,5.19,3.45Z" fill="#fff"/><path d="M1317.27,70.48a.43.43,0,0,1,.35.59l-.74,3a.44.44,0,0,1-.59.36l-3.45-.86-4.09,16.39a.43.43,0,0,1-.6.36l-3.08-.77a.44.44,0,0,1-.36-.6l4.09-16.39-3.44-.86a.45.45,0,0,1-.36-.59l.75-3a.45.45,0,0,1,.59-.36Z" fill="#fff"/><path d="M1327,79c1.43-2.49,3.52-3.06,6-1.63l3,1.7c2.5,1.43,3.07,3.52,1.64,6l-6.26,11c-1.43,2.49-3.52,3.06-6,1.63l-3-1.7c-2.5-1.43-3.07-3.52-1.64-6Zm-.27,14.9a1.08,1.08,0,0,0,1.67-.45l5.5-9.62a1.1,1.1,0,0,0-.45-1.67l-1.7-1a1.09,1.09,0,0,0-1.67.45l-5.51,9.62A1.09,1.09,0,0,0,1325,93Z" fill="#fff"/><path d="M1363.91,104.33a.52.52,0,0,1-.1.86l-17.11,11.18a.62.62,0,0,1-.86-.14l-2.18-2.48a.63.63,0,0,1,0-.87l7.54-10.41-11.29,6.16a.62.62,0,0,1-.85-.14L1336.8,106a.61.61,0,0,1,0-.89l13.28-15.46a.52.52,0,0,1,.87,0l1.9,2.15a.61.61,0,0,1,0,.87l-8.6,9.58.1.12L1356,96.1a.62.62,0,0,1,.83.16l1.24,1.4a.64.64,0,0,1,0,.85l-7.65,10.74.1.12,10.62-7.29a.57.57,0,0,1,.86.1Z" fill="#fff"/><path d="M1375.54,128.37a.45.45,0,0,1-.27.64l-19,7.61a.45.45,0,0,1-.64-.27l-.9-2.24a.55.55,0,0,1,.17-.66l8.7-9.7-10.76,4.32a.44.44,0,0,1-.64-.27l-1.07-2.67a.45.45,0,0,1,.27-.63l19-7.62a.46.46,0,0,1,.64.27l.9,2.24a.55.55,0,0,1-.16.66l-8.71,9.7,10.77-4.32a.43.43,0,0,1,.63.27Z" fill="#fff"/><path d="M1375.32,155.76c2.88,0,4.41,1.53,4.41,4.41v3.42c0,2.88-1.53,4.41-4.41,4.41h-12.61c-2.88,0-4.41-1.53-4.41-4.41v-3.42c0-2.88,1.53-4.41,4.41-4.41Zm-13.07,7.16a1.09,1.09,0,0,0,1.23,1.23h11.07a1.1,1.1,0,0,0,1.23-1.23v-2a1.1,1.1,0,0,0-1.23-1.22h-11.07a1.09,1.09,0,0,0-1.23,1.22Z" fill="#fff"/><path d="M1376.18,188.41a.45.45,0,0,1-.49-.49v-7.59h-5.24v5.75a.45.45,0,0,1-.49.49h-3.06a.44.44,0,0,1-.49-.49v-5.75h-7.62a.45.45,0,0,1-.49-.49v-3.18a.44.44,0,0,1,.49-.49h20.45a.44.44,0,0,1,.49.49v11.26a.45.45,0,0,1-.49.49Z" fill="#fff"/><path d="M1358.27,323.61a.54.54,0,0,0-.31.52V326a.39.39,0,0,0,.44.43h2.36v-.89a.39.39,0,0,1,.43-.44h2.1a.39.39,0,0,1,.44.44v3.34a.39.39,0,0,1-.44.44h-7.87a.39.39,0,0,1-.43-.44v-6.45c0-.41.15-.59.56-.8l5.21-2.8v-3.24a.79.79,0,0,0-.88-.87h-1.05a.77.77,0,0,0-.87.87v1.71a.32.32,0,0,1-.35.35h-2.27a.31.31,0,0,1-.35-.35V315a2.82,2.82,0,0,1,3.14-3.15h2.45a2.83,2.83,0,0,1,3.15,3.15v5.16c0,.41-.18.59-.59.81Z" fill="#fff"/><path d="M1365.71,315a2.82,2.82,0,0,1,3.15-3.15h2.45a2.82,2.82,0,0,1,3.14,3.15v11.19a2.81,2.81,0,0,1-3.14,3.15h-2.45a2.82,2.82,0,0,1-3.15-3.15Zm5,11.52a.78.78,0,0,0,.87-.88V315.57a.78.78,0,0,0-.87-.88h-1.27a.78.78,0,0,0-.87.88v10.09a.78.78,0,0,0,.87.88Z" fill="#fff"/><path d="M1379.71,323.61a.54.54,0,0,0-.31.52V326a.39.39,0,0,0,.44.43h2.36v-.89a.4.4,0,0,1,.44-.44h2.1a.4.4,0,0,1,.44.44v3.34a.4.4,0,0,1-.44.44h-7.87a.4.4,0,0,1-.44-.44v-6.45c0-.41.16-.59.57-.8l5.2-2.8v-3.24a.79.79,0,0,0-.87-.87h-1a.78.78,0,0,0-.88.87v1.71a.32.32,0,0,1-.34.35h-2.28a.31.31,0,0,1-.35-.35V315a2.82,2.82,0,0,1,3.15-3.15H1382a2.83,2.83,0,0,1,3.15,3.15v5.16c0,.41-.18.59-.6.81Z" fill="#fff"/><path d="M1387.16,315a2.82,2.82,0,0,1,3.14-3.15h2.45a2.83,2.83,0,0,1,3.15,3.15v11.19a2.82,2.82,0,0,1-3.15,3.15h-2.45a2.81,2.81,0,0,1-3.14-3.15Zm5,11.52a.78.78,0,0,0,.88-.88V315.57a.79.79,0,0,0-.88-.88h-1.26a.79.79,0,0,0-.88.88v10.09a.78.78,0,0,0,.88.88Z" fill="#fff"/><path d="M1197.79,311.87a.32.32,0,0,1,.35.35V329a.32.32,0,0,1-.35.35h-2.28a.31.31,0,0,1-.35-.35V312.22a.31.31,0,0,1,.35-.35Z" fill="#fff"/><path d="M1210.34,311.87a.32.32,0,0,1,.35.35V329a.32.32,0,0,1-.35.35h-2.17a.38.38,0,0,1-.39-.28l-3.34-9.34h-.11V329a.31.31,0,0,1-.35.35h-2.28a.32.32,0,0,1-.35-.35V312.22a.32.32,0,0,1,.35-.35h2.17a.38.38,0,0,1,.39.28l3.32,9.3h.13v-9.23a.31.31,0,0,1,.35-.35Z" fill="#fff"/><path d="M1222.68,317.38a.32.32,0,0,1-.34.35h-2.19a.31.31,0,0,1-.35-.35v-1.75a.78.78,0,0,0-.88-.87h-1.13a.78.78,0,0,0-.88.87v10a.78.78,0,0,0,.88.87h1.13a.78.78,0,0,0,.88-.87v-1.75a.31.31,0,0,1,.35-.35h2.19a.32.32,0,0,1,.34.35v2.36a2.82,2.82,0,0,1-3.14,3.15h-2.45a2.83,2.83,0,0,1-3.17-3.15V315a2.83,2.83,0,0,1,3.17-3.15h2.45a2.82,2.82,0,0,1,3.14,3.15Z" fill="#fff"/><path d="M1290,97.94a58.22,58.22,0,1,0,58.22,58.22A58.23,58.23,0,0,0,1290,97.94Zm0,114.75a56.58,56.58,0,0,1-53.91-39.48c12.42,1,25.52,6.71,36.08,13.95,16.7,11.44,31.6,19.12,48.13,16.71A56.29,56.29,0,0,1,1290,212.69Zm47.14-25.34c-1,.65-2,1.27-3,1.8-21.95,11.66-37.32,2.45-59.33-10-12.13-6.86-26.55-11.47-40.21-11.83-.35-1.73-.61-3.48-.8-5.27,12.84.16,26.21,3.39,38.39,8.29,23.57,9.48,40.59,17.45,64.33,7,2.35-1,4.76-2.23,7.16-3.44A55.67,55.67,0,0,1,1337.14,187.35Zm-3-16.73c-21,6.91-38,1.61-59.34-5.93-13.08-4.61-27.75-8.25-41.31-8.36,0-.06,0-.11,0-.17a56.53,56.53,0,1,1,113,0,57.28,57.28,0,0,1-.85,9.78C1341.73,167.61,1337.85,169.4,1334.13,170.62Z" fill="#fff"/><path d="M1324.11,152.66c-8.92-1.33-9,.44-12.63.26s-15.62-2.41-22.09-7.75c-2.14-1.73-4,1.81-8.32,2.09-5.24.34-7.53-2.44-6.38-3.6,2.11-2.12,6.27-6.28,5.21-10.2s1.06-5.44,2.73-8.15,6.6-7.41,7.25-7.42c.93,0,3.67,2.14,6.22,4.09s17.08,16.69,21.7,19.1c3.22,1.67,1.93,2.27,1.48,3.93S1326.54,153,1324.11,152.66Z" fill="#fff"/><path d="M1339.55,151.79c-6-5.7-12.07-12.41-14-13.71-5-3.42-33.15-23.55-36.93-23.55s-22.24,14.53-24.12,16.4-8,5.4-9.14,5.63c-.62.12-7,3.74-13.69,7.54a49.76,49.76,0,0,1,97.83,7.69Z" fill="#fff"/></svg>