<svg id="Layer_1" data-name="Layer 1" xmlns="http://www.w3.org/2000/svg" viewBox="0 0 1366 768"><rect width="1366" height="768" fill="#fff"/><path d="M647.89,644.87A1.1,1.1,0,0,1,649,646v29.61c0,5.19-2.76,7.95-8,7.95h-6.19c-5.19,0-8-2.76-8-7.95V646a1.1,1.1,0,0,1,1.1-1.1h5.31a1.1,1.1,0,0,1,1.1,1.1V674a2,2,0,0,0,2.21,2.21h2.87A2,2,0,0,0,641.7,674V646a1.11,1.11,0,0,1,1.11-1.1Z"/><path d="M677.61,644.87a.79.79,0,0,1,.89.88v5.52a.8.8,0,0,1-.89.89h-6.4v30.48a.77.77,0,0,1-.89.89h-5.74a.79.79,0,0,1-.88-.89V652.16h-6.41a.82.82,0,0,1-.88-.89v-5.52a.81.81,0,0,1,.88-.88Z"/><path d="M703.41,683.53a.85.85,0,0,1-.88-.78l-1.77-7H690.38l-1.71,7a.86.86,0,0,1-.89.78h-5.41c-.61,0-.88-.33-.72-.94l9.17-37a.86.86,0,0,1,.94-.77h7.68a.85.85,0,0,1,.93.77l9.17,37c.17.61-.11.94-.77.94Zm-7.84-29.16-3.48,15h7Z"/><path d="M731.6,645.75a.81.81,0,0,1,.88-.88h5.69c.66,0,.94.33.94.88v36.89c0,.56-.28.89-.94.89h-5.69a.81.81,0,0,1-.88-.89V668h-7.07v14.69a.82.82,0,0,1-.89.89H718c-.66,0-.93-.33-.93-.89V645.75c0-.55.27-.88.93-.88h5.69a.81.81,0,0,1,.89.88v14.91h7.07Z"/><path d="M531,653.18a.4.4,0,0,1,.44.44v21.16a.4.4,0,0,1-.44.44h-2.87a.39.39,0,0,1-.44-.44V657.37l-1.71.22a.46.46,0,0,1-.57-.5v-2.64a.5.5,0,0,1,.52-.58Z"/><path d="M546.78,662.22a2,2,0,0,1-1.74,1.95v.06a2,2,0,0,1,1.74,1.95v5.07c0,2.6-1.41,4-4,4h-3c-2.6,0-4-1.37-4-4v-5.07a2,2,0,0,1,1.74-1.95v-.06a2,2,0,0,1-1.74-1.95v-5.08c0-2.58,1.4-4,4-4h3c2.59,0,4,1.38,4,4Zm-3.67-4.3a1,1,0,0,0-1.1-1.11H540.5a1,1,0,0,0-1.11,1.11v3.39a1,1,0,0,0,1.11,1.07H542a1,1,0,0,0,1.1-1.07Zm0,9.2A1,1,0,0,0,542,666H540.5a1,1,0,0,0-1.11,1.1v3.36a1,1,0,0,0,1.11,1.11H542a1,1,0,0,0,1.1-1.11Z"/><path d="M562.66,653.18c.44,0,.55.27.41.66l-8,20.91a.6.6,0,0,1-.64.45l-2.86,0c-.42,0-.58-.25-.44-.63l6.8-17.75h-6.53a.4.4,0,0,1-.44-.44v-2.75a.42.42,0,0,1,.44-.47Z"/><path d="M566.64,657.14c0-2.58,1.38-4,4-4h3.08c2.59,0,4,1.38,4,4v14.11c0,2.6-1.38,4-4,4h-3.08c-2.59,0-4-1.37-4-4ZM573,671.67a1,1,0,0,0,1.1-1.11V657.84a1,1,0,0,0-1.1-1.11h-1.59a1,1,0,0,0-1.11,1.11v12.72a1,1,0,0,0,1.11,1.11Z"/><path d="M790.33,668a.68.68,0,0,0-.39.66V671a.5.5,0,0,0,.55.56h3v-1.14a.5.5,0,0,1,.55-.55h2.65a.5.5,0,0,1,.55.55v4.22a.49.49,0,0,1-.55.55h-9.92a.49.49,0,0,1-.55-.55v-8.13c0-.52.19-.74.71-1l6.56-3.52v-4.08a1,1,0,0,0-1.1-1.11h-1.32a1,1,0,0,0-1.11,1.11v2.15a.4.4,0,0,1-.44.44h-2.86a.39.39,0,0,1-.44-.44v-2.93c0-2.58,1.37-4,4-4h3.08c2.56,0,4,1.38,4,4v6.51c0,.52-.22.74-.75,1Z"/><path d="M801.36,657.14c0-2.58,1.38-4,4-4h3.08c2.59,0,4,1.38,4,4v14.11c0,2.6-1.38,4-4,4h-3.08c-2.59,0-4-1.37-4-4Zm6.37,14.53a1,1,0,0,0,1.1-1.11V657.84a1,1,0,0,0-1.1-1.11h-1.6a1,1,0,0,0-1.11,1.11v12.72a1,1,0,0,0,1.11,1.11Z"/><path d="M820.66,668a.68.68,0,0,0-.39.66V671a.5.5,0,0,0,.55.56h3v-1.14a.5.5,0,0,1,.55-.55H827a.5.5,0,0,1,.55.55v4.22a.49.49,0,0,1-.55.55h-9.92a.49.49,0,0,1-.55-.55v-8.13c0-.52.19-.74.71-1L823.8,662v-4.08a1,1,0,0,0-1.1-1.11h-1.32a1,1,0,0,0-1.11,1.11v2.15a.4.4,0,0,1-.44.44H817a.39.39,0,0,1-.44-.44v-2.93c0-2.58,1.37-4,4-4h3.09c2.56,0,4,1.38,4,4v6.51c0,.52-.22.74-.75,1Z"/><path d="M831.69,657.14c0-2.58,1.38-4,4-4h3.08c2.6,0,4,1.38,4,4v14.11c0,2.6-1.37,4-4,4h-3.08c-2.59,0-4-1.37-4-4Zm6.36,14.53a1,1,0,0,0,1.11-1.11V657.84a1,1,0,0,0-1.11-1.11h-1.59a1,1,0,0,0-1.11,1.11v12.72a1,1,0,0,0,1.11,1.11Z"/><path d="M505.76,539.18c0,4.85-3.54,8.51-8.26,9.3v.26c4.72.79,8.26,4.45,8.26,9.3v17.42c0,12.31-6.69,18.86-19,18.86H455.33a1.93,1.93,0,0,1-2.09-2.1V504.74a1.86,1.86,0,0,1,2.09-2.1h31.44c12.3,0,19,6.55,19,18.86Zm-16.64-14.8c0-3.4-1.7-5.24-5.24-5.24h-14.4V540h14.4c3.41,0,5.24-1.84,5.24-5.11Zm0,38.11c0-3.4-1.7-5.24-5.24-5.24h-14.4v20.57h14.4c3.41,0,5.24-1.71,5.24-5.24Z"/><path d="M568.65,547.82c0,7.6-2.49,13-7.33,16L568.13,592c.39,1.57-.4,2.36-1.84,2.36H553.46a2.06,2.06,0,0,1-2.23-1.84L545,566.68H533.29v25.54a1.93,1.93,0,0,1-2.1,2.1H518.36a1.93,1.93,0,0,1-2.1-2.1V504.74a1.93,1.93,0,0,1,2.1-2.1h31.43c12.31,0,18.86,6.55,18.86,18.86Zm-22.27,2c3.41,0,5.24-1.83,5.24-5.24V524.77c0-3.4-1.83-5.23-5.24-5.23H533.29v30.25Z"/><path d="M581.25,594.32a1.87,1.87,0,0,1-2.09-2.1V504.74a1.87,1.87,0,0,1,2.09-2.1h13.63a1.93,1.93,0,0,1,2.09,2.1v87.48a1.93,1.93,0,0,1-2.09,2.1Z"/><path d="M607.48,521.5c0-12.31,6.55-18.86,18.86-18.86H641c12.18,0,18.85,6.55,18.85,18.86v9.69a1.93,1.93,0,0,1-2.09,2.1H645.46a1.88,1.88,0,0,1-2.1-2.1v-6.42c0-3.4-1.83-5.23-5.24-5.23h-8.38c-3.53,0-5.24,1.83-5.24,5.23v47.42c0,3.53,1.84,5.23,5.24,5.23h8.38c3.41,0,5.24-1.7,5.24-5.23v-11.4h-6.81a1.87,1.87,0,0,1-2.09-2.09V545.6c0-1.44.65-2.1,2.09-2.1h21.22a1.87,1.87,0,0,1,2.09,2.1v29.86c0,12.31-6.67,18.86-18.85,18.86H626.34c-12.31,0-18.86-6.55-18.86-18.86Z"/><path d="M705,504.74a1.93,1.93,0,0,1,2.09-2.1h13.49c1.58,0,2.23.79,2.23,2.1v87.48c0,1.31-.65,2.1-2.23,2.1H707a1.93,1.93,0,0,1-2.09-2.1V557.39H688.18v34.83a1.93,1.93,0,0,1-2.09,2.1H672.6c-1.57,0-2.23-.79-2.23-2.1V504.74c0-1.31.66-2.1,2.23-2.1h13.49a1.93,1.93,0,0,1,2.09,2.1V540.1H705Z"/><path d="M782.38,502.64a1.88,1.88,0,0,1,2.1,2.1v13.09a1.88,1.88,0,0,1-2.1,2.1H767.19v72.29c0,1.44-.65,2.1-2.1,2.1H751.48a1.88,1.88,0,0,1-2.1-2.1V519.93H734.19a1.93,1.93,0,0,1-2.1-2.1V504.74a1.93,1.93,0,0,1,2.1-2.1Z"/><path d="M793.81,521.5c0-12.31,6.55-18.86,18.86-18.86h14.67c12.31,0,18.85,6.55,18.85,18.86v54c0,12.31-6.54,18.86-18.85,18.86H812.67c-12.31,0-18.86-6.55-18.86-18.86Zm30.64,55.92c3.41,0,5.24-1.7,5.24-5.23V524.77c0-3.4-1.83-5.23-5.24-5.23h-8.38c-3.4,0-5.24,1.83-5.24,5.23v47.42c0,3.53,1.84,5.23,5.24,5.23Z"/><path d="M910.68,502.64a1.93,1.93,0,0,1,2.09,2.1v87.48a1.93,1.93,0,0,1-2.09,2.1H900.33a2.37,2.37,0,0,1-2.36-1.71l-24.62-50v49.64a1.87,1.87,0,0,1-2.1,2.1H858.94a1.93,1.93,0,0,1-2.09-2.1V504.74a1.93,1.93,0,0,1,2.09-2.1h10.35a2.36,2.36,0,0,1,2.36,1.7l24.62,50V504.74a1.87,1.87,0,0,1,2.09-2.1Z"/><path d="M453.23,610.4V718H912.76V610.4ZM889.79,695H476.21V633.38H889.79Z"/><path d="M862.37,404.66c16.24-8.62,33.26-22.23,50.4-33.92V337c-13.62,6.76-27.43,13.91-40.77,19.77-96.49,42.39-165.63,10-261.46-28.57-49.9-20.08-104.75-33.27-157.3-33.7v21.32c56.82.56,117.32,19.57,168,48.22C710.67,414.63,773.1,452,862.37,404.66Z"/><path d="M610.54,396.6c-46-31.51-103.76-56-157.3-57.27V486.51H680.06c1,.05,2,.05,2.94.05s2,0,3-.05H912.77V414.64c-13.7,10.41-27.54,20.75-40.84,27.72C776.36,492.43,699.76,457.72,610.54,396.6Z"/><path d="M862.42,329.36c16.21-5.34,33.16-13.31,50.35-20.5V279.77C912.77,152.89,809.88,50,683,50c-124.07,0-225.08,98.34-229.55,221.29,55.08.47,114.64,15.26,167.74,33.95C708.16,335.85,777.21,357.45,862.42,329.36Zm-320-129.28c-2.52.51-28.53,15.21-55.65,30.65C508.7,142.78,588.25,77.57,683,77.57c105.7,0,192.41,81.06,201.42,184.41-24.5-23.16-49.08-50.41-56.71-55.69C807.49,192.36,693,110.57,677.63,110.57c-15.77,0-90.44,59.05-98.07,66.63S547.21,199.16,542.43,200.08Zm78.36,28.86c8.59-8.59,25.5-25.5,21.18-41.45s4.32-22.1,11.07-33.13,26.84-30.1,29.5-30.14c3.77-.14,14.89,8.68,25.28,16.63s69.44,67.83,88.18,77.61c13.1,6.81,7.86,9.24,6,16s29.51,32.49,19.63,31.06c-36.26-5.38-36.63,1.79-51.33,1.06s-63.42-9.79-89.8-31.48c-8.68-7-16.31,7.35-33.82,8.5C625.43,245,616.1,233.68,620.79,228.94Z"/></svg>