<svg id="Layer_1" data-name="Layer 1" xmlns="http://www.w3.org/2000/svg" viewBox="0 0 1240 400"><rect x="840" width="400" height="400" fill="#163158"/><rect width="840" height="400" fill="#fff"/><path d="M936.51,153.3q9.48,2.65,6.07,14.79l-5,17.73a1.23,1.23,0,0,1-1.49.84l-27.8-7.8a1.18,1.18,0,0,1-.72-.58,1.16,1.16,0,0,1-.11-.91l4.85-17.3c1.14-4.08,2.73-6.87,4.75-8.4s4.52-1.86,7.51-1l.12,0a5.89,5.89,0,0,1,3.22,2.11,5.22,5.22,0,0,1,1.2,2.84,5.65,5.65,0,0,1,3.07-2.24A7,7,0,0,1,936.51,153.3Zm-13.54,10a2.35,2.35,0,0,0-1.27-.84,2.09,2.09,0,0,0-1.46.08,1.63,1.63,0,0,0-.93,1.15l-1.62,5.77,3.92,1.1,1.62-5.77A1.59,1.59,0,0,0,923,163.26Zm5.83,9.27,4.21,1.19,1.75-6.24a1.78,1.78,0,0,0-.25-1.68,2.59,2.59,0,0,0-1.34-.91h0a2.21,2.21,0,0,0-1.58.14,1.92,1.92,0,0,0-1,1.27Z" fill="#fff"/><path d="M967.65,123.56a1.15,1.15,0,0,1,.45.22.88.88,0,0,1,.31.6,1,1,0,0,1-.19.73l-6.1,8.11a1.89,1.89,0,0,1-2,.82l-9.43-2.17-2.26,3,7,5.27a1.16,1.16,0,0,1,.47.79,1.2,1.2,0,0,1-.23.9l-5.8,7.71a1.19,1.19,0,0,1-.8.47,1.17,1.17,0,0,1-.89-.23l-23.08-17.35a1.23,1.23,0,0,1-.24-1.69l10.45-13.9q3.68-4.89,8.15-6a9.63,9.63,0,0,1,8.47,1.89q4.86,3.66,4.22,9ZM938,127.05l3.79,2.85,3.36-4.46a1.89,1.89,0,0,0,.39-1.61,2.48,2.48,0,0,0-1-1.41,2.92,2.92,0,0,0-1.68-.62,1.76,1.76,0,0,0-1.52.79Z" fill="#fff"/><path d="M986.39,86.74,979.52,91l6.84,11,6.87-4.27a1.16,1.16,0,0,1,.91-.14,1.11,1.11,0,0,1,.75.53l3.57,5.73a1.16,1.16,0,0,1,.14.91,1.19,1.19,0,0,1-.53.76L974,120.49a1.24,1.24,0,0,1-1.67-.39l-3.56-5.73a1.23,1.23,0,0,1,.39-1.66l7-4.32-6.84-11-6.95,4.31a1.12,1.12,0,0,1-.91.15,1.15,1.15,0,0,1-.75-.53l-3.56-5.74a1.16,1.16,0,0,1-.15-.91,1.19,1.19,0,0,1,.54-.75l24.07-15a1.2,1.2,0,0,1,1.66.39l3.56,5.73a1.2,1.2,0,0,1,.15.91A1.16,1.16,0,0,1,986.39,86.74Z" fill="#fff"/><path d="M1019.71,80l12.73-2.48a1.16,1.16,0,0,1,.9.19,1.14,1.14,0,0,1,.51.77l.91,4.65c.87,4.44,0,8-2.61,10.78s-6.4,4.59-11.38,5.56-9.17.7-12.61-.81-5.58-4.45-6.43-8.85l-1-5a12.94,12.94,0,0,1,.16-6.06,10.84,10.84,0,0,1,2.83-4.77q4-3.88,11-5.26a25.1,25.1,0,0,1,6.57-.47,15.88,15.88,0,0,1,5,1,16.22,16.22,0,0,1,3.45,1.93q2.61,1.94,3,3.75a1,1,0,0,1-.16.71,1,1,0,0,1-.63.41L1022.09,78a1.83,1.83,0,0,1-1.34-.14,5,5,0,0,0-4-.66,6.72,6.72,0,0,0-3.51,1.59,2.66,2.66,0,0,0-.91,2.5l1.38,7a3.06,3.06,0,0,0,1.82,2.34,6.47,6.47,0,0,0,3.89.21,6.35,6.35,0,0,0,3.5-1.66,2.93,2.93,0,0,0,.91-2.48l-2.72.53a1.18,1.18,0,0,1-.91-.19,1.14,1.14,0,0,1-.51-.76l-1-4.87a1.22,1.22,0,0,1,1-1.42Z" fill="#fff"/><path d="M1070,69.63l9,1.67a1.23,1.23,0,0,1,1,1.41l-5.25,28.39a1.2,1.2,0,0,1-.51.77,1.17,1.17,0,0,1-.9.2l-9.06-1.68a1.18,1.18,0,0,1-.77-.5,1.16,1.16,0,0,1-.19-.9l1.73-9.36L1056.31,88l-1.73,9.36a1.23,1.23,0,0,1-1.41,1l-9.05-1.68a1.22,1.22,0,0,1-.78-.48,1.13,1.13,0,0,1-.19-.92l5.25-28.4a1.19,1.19,0,0,1,.51-.77,1.15,1.15,0,0,1,.9-.19l9,1.67a1.23,1.23,0,0,1,1,1.41l-1.67,9L1067,79.6l1.67-9a1.16,1.16,0,0,1,.51-.77A1.15,1.15,0,0,1,1070,69.63Z" fill="#fff"/><path d="M1097.16,78.18l26.23,16.22a1.21,1.21,0,0,1,.54.75,1.19,1.19,0,0,1-.14.91l-3.79,6.12a1.22,1.22,0,0,1-1.66.4l-8.17-5.06-10.77,17.41a1.2,1.2,0,0,1-1.66.39l-7.83-4.84a1.22,1.22,0,0,1-.4-1.66l10.77-17.41-8.17-5.06a1.2,1.2,0,0,1-.39-1.66l3.78-6.12a1.23,1.23,0,0,1,1.66-.39Z" fill="#fff"/><path d="M1146.32,140.46l-4.23,3.21a11.78,11.78,0,0,1-14.27.66,29.48,29.48,0,0,1-10.31-13.61,12,12,0,0,1-.13-7.24,12.36,12.36,0,0,1,4.69-6.37l4.1-3.1q5.25-4,10.64-2.26t9.86,7.59q4.45,5.86,4.64,11.54T1146.32,140.46Zm-12.22-17.32-5.39,4.08a3.11,3.11,0,0,0-1.37,2.59,5.33,5.33,0,0,0,1.27,3.21,5.25,5.25,0,0,0,2.76,2.08,3.21,3.21,0,0,0,2.89-.64l5.32-4a3.19,3.19,0,0,0,1.39-2.6,5.28,5.28,0,0,0-1.25-3.23,5.38,5.38,0,0,0-2.75-2.09A3.14,3.14,0,0,0,1134.1,123.14Z" fill="#fff"/><path d="M1170.22,169l2.27,8a1.21,1.21,0,0,1-.83,1.49l-27.78,7.88a1.16,1.16,0,0,1-.91-.11,1.18,1.18,0,0,1-.58-.72l-2-6.93a2.15,2.15,0,0,1,.41-2l9.3-12.77-11.7,3.32a1.16,1.16,0,0,1-.91-.11,1.18,1.18,0,0,1-.58-.72l-2.26-8a1.21,1.21,0,0,1,.83-1.49L1163.3,149a1.24,1.24,0,0,1,1.49.84l2,7a2.07,2.07,0,0,1-.38,1.92l-10.29,13.05,12.64-3.59a1.21,1.21,0,0,1,1.49.83Z" fill="#fff"/><path d="M1100.2,284.2l7-4.47a1.2,1.2,0,0,1,.91-.15,1.16,1.16,0,0,1,.75.52l15.51,24.36a1.2,1.2,0,0,1,.15.91,1.18,1.18,0,0,1-.52.76L1118,310a2.17,2.17,0,0,1-2,.17L1101,304.91l6.53,10.26a1.13,1.13,0,0,1,.15.9,1.15,1.15,0,0,1-.52.76l-7,4.46a1.13,1.13,0,0,1-.9.16,1.15,1.15,0,0,1-.76-.52L1083,296.57a1.21,1.21,0,0,1,.37-1.67l6.1-3.89a2.1,2.1,0,0,1,2-.18l15.45,6.12-7.06-11.09a1.2,1.2,0,0,1-.15-.91A1.16,1.16,0,0,1,1100.2,284.2Z" fill="#fff"/><path d="M1059.69,333.33l-6.15,1.18a2,2,0,0,1-2.34-1.28L1042,306l0-.13a1,1,0,0,1,.78-1.15l7.55-1.45a2,2,0,0,1,1.53.25,2.13,2.13,0,0,1,.89,1.2l4,13.16,1.21-7.47a1.91,1.91,0,0,1,.47-1,2,2,0,0,1,1.22-.66l3-.58a2,2,0,0,1,1.38.17,1.94,1.94,0,0,1,.8.74l3.88,6.49-1.17-13.71a2.11,2.11,0,0,1,.38-1.43,2,2,0,0,1,1.33-.81l7.55-1.44a1,1,0,0,1,.73.15.92.92,0,0,1,.42.63l0,.13,1.55,28.69a1.93,1.93,0,0,1-.41,1.29,2,2,0,0,1-1.29.77l-6.14,1.18a2.06,2.06,0,0,1-1.37-.15,1.8,1.8,0,0,1-.79-.67l-5.82-8.48-2.26,10a1.82,1.82,0,0,1-.48.92A2.12,2.12,0,0,1,1059.69,333.33Z" fill="#fff"/><path d="M1035.09,317.41l-1,5.23a11.77,11.77,0,0,1-10.09,10.1,29.4,29.4,0,0,1-16.79-3.11,12,12,0,0,1-5-5.26,12.26,12.26,0,0,1-.82-7.86l.93-5.06q1.2-6.46,6.34-8.84t12.4-1q7.25,1.34,11.2,5.39T1035.09,317.41Zm-20.7-4.56-1.23,6.65a3.15,3.15,0,0,0,.72,2.84,5.41,5.41,0,0,0,3.11,1.52,5.35,5.35,0,0,0,3.44-.33,3.19,3.19,0,0,0,1.7-2.42l1.22-6.56a3.16,3.16,0,0,0-.73-2.86,5.29,5.29,0,0,0-3.1-1.55,5.42,5.42,0,0,0-3.44.31A3.13,3.13,0,0,0,1014.39,312.85Z" fill="#fff"/><path d="M972.53,279.78,998.74,296a1.2,1.2,0,0,1,.39,1.66l-3.79,6.12a1.23,1.23,0,0,1-1.66.39l-8.17-5.07-10.78,17.41a1.18,1.18,0,0,1-.75.53,1.16,1.16,0,0,1-.91-.15l-7.83-4.85a1.23,1.23,0,0,1-.39-1.66L975.64,293,967.47,288a1.2,1.2,0,0,1-.39-1.66l3.79-6.12a1.11,1.11,0,0,1,.75-.53A1.16,1.16,0,0,1,972.53,279.78Z" fill="#fff"/><path d="M948.69,266.7l2.19,3.14a.47.47,0,0,1,.08.38.46.46,0,0,1-.2.32l-9.87,6.89a.55.55,0,0,1-.38.08.54.54,0,0,1-.32-.21l-2.2-3.15a.52.52,0,0,1-.08-.37.53.53,0,0,1,.21-.33l3.25-2.27-2.13-3.05L936,270.4a.5.5,0,0,1-.38.08.51.51,0,0,1-.32-.21l-2.2-3.14a.55.55,0,0,1-.08-.37.46.46,0,0,1,.21-.33l9.87-6.89a.52.52,0,0,1,.37-.08.53.53,0,0,1,.33.21l2.19,3.15a.44.44,0,0,1,.08.37.48.48,0,0,1-.2.33l-3.13,2.18,2.13,3.06,3.13-2.19a.49.49,0,0,1,.37-.08A.53.53,0,0,1,948.69,266.7Z" fill="#fff"/><path d="M924.68,251l-1.51-3.18a.37.37,0,0,1,0-.31.33.33,0,0,1,.16-.21.41.41,0,0,1,.16-.05L936,245.84a.77.77,0,0,1,.91.49L939.1,251a.78.78,0,0,1-.19,1l-9,8.77a.49.49,0,0,1-.15.09.34.34,0,0,1-.26,0,.4.4,0,0,1-.23-.21l-1.51-3.18a.86.86,0,0,1,.21-1l1-1-2-4.1-1.38.14A.86.86,0,0,1,924.68,251Zm7.13,2,2.94-2.86-4.07.47Z" fill="#fff"/><path d="M930,226.55l3.72,12.3a.46.46,0,0,1,0,.38.51.51,0,0,1-.29.25l-2.87.87a.54.54,0,0,1-.39,0,.46.46,0,0,1-.24-.29l-1.16-3.83-8.16,2.47a.53.53,0,0,1-.39,0,.51.51,0,0,1-.24-.3l-1.11-3.67a.46.46,0,0,1,0-.38.45.45,0,0,1,.29-.25l8.17-2.47-1.16-3.83a.46.46,0,0,1,0-.38.45.45,0,0,1,.29-.25l2.87-.87a.5.5,0,0,1,.38,0A.49.49,0,0,1,930,226.55Z" fill="#fff"/><path d="M917,221.12a9.82,9.82,0,0,1-1.29-9.84,4.82,4.82,0,0,1,3.92-2.36l7-.92a.46.46,0,0,1,.37.11.47.47,0,0,1,.19.33l.51,3.86a.56.56,0,0,1-.1.37.49.49,0,0,1-.33.19l-7.22.94a1.4,1.4,0,0,0-1.07.66,2.58,2.58,0,0,0,.36,2.75,1.35,1.35,0,0,0,1.21.36l7.21-.94a.45.45,0,0,1,.37.1.47.47,0,0,1,.19.33l.51,3.86a.55.55,0,0,1-.1.37.47.47,0,0,1-.33.19l-7,.91A4.82,4.82,0,0,1,917,221.12Z" fill="#fff"/><path d="M1157.65,208.64l3.28.41a4.23,4.23,0,0,1,3.4,2.17,7.6,7.6,0,0,1,.65,4.65,7.52,7.52,0,0,1-1.79,4.32,4.26,4.26,0,0,1-3.87,1.24l-3.21-.41a4.17,4.17,0,0,1-3.41-2.22,8.62,8.62,0,0,1,1.12-8.87A4.19,4.19,0,0,1,1157.65,208.64Zm-1.07,7.37,3.5.45a1.08,1.08,0,0,0,.85-.25,1.2,1.2,0,0,0,.43-.81,1.17,1.17,0,0,0-.22-.89,1,1,0,0,0-.76-.46l-3.49-.44a1.1,1.1,0,0,0-.86.24,1.2,1.2,0,0,0-.43.82,1.23,1.23,0,0,0,.22.9A1.11,1.11,0,0,0,1156.58,216Z" fill="#fff"/><path d="M1159,228.33a.49.49,0,0,1,.25-.3.51.51,0,0,1,.38-.05l2.7.78a.51.51,0,0,1,.3.24.47.47,0,0,1,0,.38l-3.12,10.79a.42.42,0,0,1-.23.3.46.46,0,0,1-.38.05l-2.16-.62a1.08,1.08,0,0,1-.82-.74c-.66-2.39-1.23-4.2-1.69-5.43s-.89-1.89-1.3-2a2.14,2.14,0,0,0-.35-.07.42.42,0,0,0-.3.12.8.8,0,0,0-.25.44,1,1,0,0,0,0,.56.9.9,0,0,0,.2.37,2.63,2.63,0,0,0,.35.26l.26.17c.11.08.13.27,0,.56l-1,3.63a.51.51,0,0,1-.22.28.49.49,0,0,1-.36,0,3.93,3.93,0,0,1-2.71-2.48,7,7,0,0,1,0-4.54,6.77,6.77,0,0,1,2.17-3.68,3.52,3.52,0,0,1,3.28-.5,2.75,2.75,0,0,1,1.55,1.12c.21.31.4.6.55.87a7.71,7.71,0,0,1,.51,1.12c.42,1.15.75,2.16,1,3Z" fill="#fff"/><path d="M1149.39,244.12l3,1.39a4.19,4.19,0,0,1,2.58,3.1,8.87,8.87,0,0,1-3.81,8.2,4.23,4.23,0,0,1-4.06,0l-2.93-1.36a4.23,4.23,0,0,1-2.59-3.15,8.6,8.6,0,0,1,3.77-8.11A4.17,4.17,0,0,1,1149.39,244.12Zm-3.25,6.7,3.19,1.48a1.07,1.07,0,0,0,.89,0,1.28,1.28,0,0,0,.72-1.56,1.08,1.08,0,0,0-.59-.66l-3.19-1.49a1.07,1.07,0,0,0-.89,0,1.23,1.23,0,0,0-.66.65,1.14,1.14,0,0,0-.06.92A1,1,0,0,0,1146.14,250.82Z" fill="#fff"/><path d="M1144.66,263.27a.51.51,0,0,1,.32-.21.5.5,0,0,1,.38.07l2.34,1.57a.48.48,0,0,1,.21.32.47.47,0,0,1-.07.37l-6.25,9.34a.48.48,0,0,1-.32.21.44.44,0,0,1-.37-.07l-1.87-1.25a1.06,1.06,0,0,1-.55-.95c.09-2.48.1-4.37,0-5.68s-.27-2.08-.63-2.31a1.51,1.51,0,0,0-.31-.18.4.4,0,0,0-.32,0,.83.83,0,0,0-.37.34.91.91,0,0,0-.19.54.79.79,0,0,0,.08.41,2.17,2.17,0,0,0,.25.35l.2.24c.08.12,0,.3-.13.55l-2.1,3.14a.5.5,0,0,1-.29.2.44.44,0,0,1-.35-.07,3.93,3.93,0,0,1-1.84-3.19,7,7,0,0,1,1.41-4.31,6.72,6.72,0,0,1,3.18-2.85,3.57,3.57,0,0,1,3.29.52,2.8,2.8,0,0,1,1.12,1.54c.11.36.2.69.27,1a7.78,7.78,0,0,1,.14,1.22c0,1.21.06,2.28,0,3.19Z" fill="#fff"/><path d="M1040,350c-82.71,0-150-67.29-150-150S957.29,50,1040,50s150,67.29,150,150S1122.71,350,1040,350Zm0-294.41c-79.63,0-144.41,64.78-144.41,144.41S960.37,344.41,1040,344.41,1184.41,279.63,1184.41,200,1119.63,55.59,1040,55.59Z" fill="#fff"/><path d="M1040,104.09A95.91,95.91,0,1,0,1135.91,200,95.9,95.9,0,0,0,1040,104.09Zm0,189a93.18,93.18,0,0,1-88.8-65c20.45,1.6,42,11.07,59.43,23,27.51,18.85,52.05,31.5,79.28,27.53A92.65,92.65,0,0,1,1040,293.12Zm77.66-41.74c-1.68,1.06-3.33,2.09-5,3-36.17,19.2-61.48,4-97.74-16.48-20-11.3-43.75-18.9-66.24-19.5-.58-2.85-1-5.73-1.33-8.68,21.16.26,43.19,5.59,63.25,13.65,38.83,15.63,66.86,28.76,106,11.59,3.87-1.7,7.84-3.67,11.81-5.66A92.67,92.67,0,0,1,1117.66,251.38Zm-5-27.56c-34.53,11.38-62.52,2.64-97.76-9.78-21.55-7.58-45.72-13.58-68.05-13.76,0-.1,0-.19,0-.28a93.12,93.12,0,1,1,184.82,16.11C1125.22,218.86,1118.83,221.81,1112.71,223.82Z" fill="#fff"/><path d="M1096.19,194.22c-14.7-2.17-14.86.73-20.81.43s-25.71-4-36.39-12.75c-3.52-2.85-6.61,3-13.7,3.44-8.63.56-12.41-4-10.51-5.94,3.49-3.48,10.34-10.34,8.59-16.8s1.75-9,4.49-13.43,10.87-12.19,12-12.21c1.53-.06,6,3.52,10.25,6.74s28.14,27.49,35.74,31.45c5.3,2.76,3.18,3.75,2.44,6.49S1100.19,194.8,1096.19,194.22Z" fill="#fff"/><path d="M1121.63,192.79c-9.93-9.39-19.89-20.43-23-22.57-8.2-5.64-54.61-38.79-60.83-38.79-6.39,0-36.65,23.93-39.74,27S985,167.33,983,167.7c-1,.21-11.58,6.17-22.55,12.43a82,82,0,0,1,161.15,12.66Z" fill="#fff"/><circle cx="200" cy="200" r="144.41" fill="#163158"/><path d="M96.36,153.64q9.48,2.63,6.11,14.77l-4.91,17.75a1.18,1.18,0,0,1-.58.72,1.12,1.12,0,0,1-.91.12l-27.82-7.71a1.19,1.19,0,0,1-.73-.57,1.23,1.23,0,0,1-.12-.92l4.8-17.31q1.69-6.12,4.72-8.41t7.5-1.05l.13,0a5.82,5.82,0,0,1,3.22,2.1A5.17,5.17,0,0,1,89,156,5.74,5.74,0,0,1,92,153.74,7.07,7.07,0,0,1,96.36,153.64Zm-13.51,10a2.38,2.38,0,0,0-1.27-.84,2.14,2.14,0,0,0-1.46.08,1.65,1.65,0,0,0-.93,1.16l-1.6,5.77,3.92,1.09,1.6-5.77A1.59,1.59,0,0,0,82.85,163.65Zm5.86,9.25,4.22,1.17,1.73-6.25a1.79,1.79,0,0,0-.26-1.67,2.5,2.5,0,0,0-1.35-.9l0,0a2.13,2.13,0,0,0-1.57.15,1.89,1.89,0,0,0-1,1.27Z" fill="#fff"/><path d="M127.45,123.75a1.32,1.32,0,0,1,.45.22.92.92,0,0,1,.31.6,1,1,0,0,1-.18.73L122,133.42a1.91,1.91,0,0,1-2,.84l-9.44-2.15-2.25,3,7,5.25a1.15,1.15,0,0,1,.47.79,1.18,1.18,0,0,1-.22.9l-5.79,7.73A1.21,1.21,0,0,1,108,150L84.9,132.73a1.12,1.12,0,0,1-.46-.79,1.15,1.15,0,0,1,.22-.9l10.41-13.92q3.68-4.91,8.14-6a9.64,9.64,0,0,1,8.47,1.88q4.88,3.63,4.24,9Zm-29.63,3.57,3.79,2.84,3.35-4.47a1.89,1.89,0,0,0,.39-1.61,2.47,2.47,0,0,0-1-1.4,2.91,2.91,0,0,0-1.69-.62,1.72,1.72,0,0,0-1.51.79Z" fill="#fff"/><path d="M146.22,86.82l-6.86,4.28,6.85,11,6.87-4.28a1.16,1.16,0,0,1,.91-.14,1.11,1.11,0,0,1,.75.53l3.57,5.72a1.23,1.23,0,0,1,.15.92,1.18,1.18,0,0,1-.53.75l-24.05,15a1.24,1.24,0,0,1-1.67-.39l-3.57-5.73a1.13,1.13,0,0,1-.14-.9,1.16,1.16,0,0,1,.53-.76l6.94-4.32-6.85-11-7,4.32a1.16,1.16,0,0,1-.91.15,1.18,1.18,0,0,1-.75-.53l-3.57-5.73a1.2,1.2,0,0,1-.15-.91,1.16,1.16,0,0,1,.54-.75l24-15a1.13,1.13,0,0,1,.91-.15,1.19,1.19,0,0,1,.76.53l3.57,5.73a1.16,1.16,0,0,1,.14.91A1.11,1.11,0,0,1,146.22,86.82Z" fill="#fff"/><path d="M179.67,80l12.72-2.49a1.16,1.16,0,0,1,.9.19,1.21,1.21,0,0,1,.52.77l.9,4.65q1.31,6.66-2.61,10.78T180.74,99.5q-7.47,1.45-12.62-.8t-6.44-8.84l-1-5a12.72,12.72,0,0,1,.16-6.07A10.73,10.73,0,0,1,163.68,74c2.66-2.59,6.33-4.34,11-5.26a25.23,25.23,0,0,1,6.58-.48,14.81,14.81,0,0,1,8.48,3c1.74,1.29,2.73,2.55,3,3.75a.9.9,0,0,1-.16.71,1,1,0,0,1-.63.41L182.05,78a1.76,1.76,0,0,1-1.35-.14,5.06,5.06,0,0,0-4-.65,6.75,6.75,0,0,0-3.51,1.59,2.63,2.63,0,0,0-.9,2.5l1.37,7a3.09,3.09,0,0,0,1.83,2.34,6.4,6.4,0,0,0,3.89.2,6.28,6.28,0,0,0,3.5-1.66,2.87,2.87,0,0,0,.9-2.47l-2.72.53a1.16,1.16,0,0,1-.9-.19,1.14,1.14,0,0,1-.51-.77l-.95-4.87a1.2,1.2,0,0,1,.95-1.41Z" fill="#fff"/><path d="M230.1,69.64l9.05,1.68a1.23,1.23,0,0,1,1,1.41l-5.27,28.39a1.23,1.23,0,0,1-1.41,1l-9.05-1.68a1.16,1.16,0,0,1-.77-.51,1.21,1.21,0,0,1-.2-.9l1.74-9.36L216.37,88l-1.74,9.36a1.11,1.11,0,0,1-.5.77,1.17,1.17,0,0,1-.9.2l-9.06-1.68a1.21,1.21,0,0,1-.77-.49,1.13,1.13,0,0,1-.19-.92l5.27-28.39a1.18,1.18,0,0,1,.5-.77,1.17,1.17,0,0,1,.9-.2l9.06,1.68a1.22,1.22,0,0,1,1,1.41l-1.67,9L227,79.62l1.67-9a1.23,1.23,0,0,1,1.41-1Z" fill="#fff"/><path d="M257.35,78.27l26.2,16.26a1.16,1.16,0,0,1,.54.75,1.2,1.2,0,0,1-.15.91l-3.79,6.12a1.2,1.2,0,0,1-.75.53,1.15,1.15,0,0,1-.91-.14l-8.17-5.07L259.53,115a1.22,1.22,0,0,1-1.67.39L250,110.56a1.23,1.23,0,0,1-.39-1.66l10.79-17.4-8.16-5.07a1.11,1.11,0,0,1-.53-.75,1.16,1.16,0,0,1,.14-.91l3.79-6.11a1.21,1.21,0,0,1,.76-.54A1.17,1.17,0,0,1,257.35,78.27Z" fill="#fff"/><path d="M306.46,140.7l-4.25,3.2a12.22,12.22,0,0,1-7.33,2.73,12,12,0,0,1-6.93-2.1,29.63,29.63,0,0,1-10.29-13.63,12.12,12.12,0,0,1-.11-7.25,12.32,12.32,0,0,1,4.71-6.35l4.1-3.1c3.5-2.64,7.06-3.39,10.65-2.24s6.88,3.69,9.84,7.62,4.5,7.77,4.62,11.55S309.91,138.09,306.46,140.7Zm-12.18-17.35-5.4,4.07a3.16,3.16,0,0,0-1.39,2.59,5.35,5.35,0,0,0,1.27,3.21,5.27,5.27,0,0,0,2.76,2.09,3.19,3.19,0,0,0,2.88-.64l5.33-4a3.19,3.19,0,0,0,1.41-2.59,6.38,6.38,0,0,0-4-5.33A3.11,3.11,0,0,0,294.28,123.35Z" fill="#fff"/><path d="M330.32,169.43l2.24,8a1.21,1.21,0,0,1-.84,1.49l-27.8,7.79a1.24,1.24,0,0,1-1.49-.84l-1.94-6.93a2.17,2.17,0,0,1,.42-2l9.34-12.74-11.71,3.28a1.16,1.16,0,0,1-.91-.11,1.13,1.13,0,0,1-.57-.72l-2.25-8a1.16,1.16,0,0,1,.12-.91,1.13,1.13,0,0,1,.72-.58l27.8-7.79a1.19,1.19,0,0,1,.92.12,1.17,1.17,0,0,1,.57.72l1.95,7a2,2,0,0,1-.39,1.92l-10.32,13,12.65-3.55a1.24,1.24,0,0,1,1.49.84Z" fill="#fff"/><path d="M260.3,284.1l7-4.47A1.21,1.21,0,0,1,269,280l15.54,24.34a1.14,1.14,0,0,1,.15.9,1.15,1.15,0,0,1-.52.76l-6.07,3.87a2.15,2.15,0,0,1-2,.18l-14.9-5.24,6.54,10.25a1.16,1.16,0,0,1,.16.91,1.18,1.18,0,0,1-.52.76l-7,4.47a1.16,1.16,0,0,1-.91.16,1.19,1.19,0,0,1-.76-.53l-15.53-24.34a1.13,1.13,0,0,1-.16-.9,1.18,1.18,0,0,1,.52-.76l6.11-3.9a2.1,2.1,0,0,1,2-.18l15.45,6.1-7.07-11.08a1.16,1.16,0,0,1-.16-.91A1.19,1.19,0,0,1,260.3,284.1Z" fill="#fff"/><path d="M219.73,333.31l-6.15,1.18a2,2,0,0,1-2.34-1.28L202,306l0-.13a1,1,0,0,1,.15-.73,1,1,0,0,1,.63-.42l7.55-1.45a2,2,0,0,1,1.53.25,2.13,2.13,0,0,1,.89,1.2l4,13.16,1.2-7.47a1.88,1.88,0,0,1,.47-1,2,2,0,0,1,1.21-.67l3-.57a2,2,0,0,1,1.37.17,1.86,1.86,0,0,1,.8.73l3.89,6.49-1.18-13.7a2.13,2.13,0,0,1,.39-1.44,2,2,0,0,1,1.32-.8l7.55-1.45a.93.93,0,0,1,.74.15.94.94,0,0,1,.41.63l0,.13,1.56,28.69a2,2,0,0,1-.41,1.29,2.09,2.09,0,0,1-1.29.77L231.67,331a2.1,2.1,0,0,1-1.38-.15,1.82,1.82,0,0,1-.78-.66l-5.82-8.49-2.26,10a1.83,1.83,0,0,1-.49.91A2.1,2.1,0,0,1,219.73,333.31Z" fill="#fff"/><path d="M195,317.39l-1,5.23a12.18,12.18,0,0,1-3.56,7,12,12,0,0,1-6.54,3.13,29.39,29.39,0,0,1-16.78-3.11,12.12,12.12,0,0,1-5-5.27,12.39,12.39,0,0,1-.82-7.86l.94-5.06q1.2-6.46,6.35-8.84t12.39-1q7.26,1.35,11.21,5.4T195,317.39Zm-20.7-4.57-1.24,6.65a3.12,3.12,0,0,0,.73,2.84,5.38,5.38,0,0,0,3.1,1.52,5.31,5.31,0,0,0,3.45-.33,3.22,3.22,0,0,0,1.7-2.41l1.21-6.57a3.17,3.17,0,0,0-.72-2.86,5.28,5.28,0,0,0-3.1-1.54,5.36,5.36,0,0,0-3.44.3A3.13,3.13,0,0,0,174.31,312.82Z" fill="#fff"/><path d="M132.39,279.66,158.58,296a1.16,1.16,0,0,1,.54.75,1.2,1.2,0,0,1-.15.91l-3.8,6.11a1.11,1.11,0,0,1-.75.53,1.16,1.16,0,0,1-.91-.14L145.35,299l-10.81,17.38a1.14,1.14,0,0,1-.75.53,1.16,1.16,0,0,1-.91-.14L125.06,312a1.24,1.24,0,0,1-.39-1.67l10.81-17.38-8.16-5.08a1.11,1.11,0,0,1-.53-.75,1.16,1.16,0,0,1,.14-.91l3.8-6.11a1.17,1.17,0,0,1,.75-.53A1.16,1.16,0,0,1,132.39,279.66Z" fill="#fff"/><path d="M108.74,266.77l2.2,3.14a.55.55,0,0,1,.08.38.51.51,0,0,1-.21.32L101,277.5a.51.51,0,0,1-.7-.12l-2.2-3.15a.44.44,0,0,1-.08-.37.48.48,0,0,1,.2-.33l3.26-2.27-2.13-3.05L96,270.48a.52.52,0,0,1-.37.08.49.49,0,0,1-.33-.21l-2.19-3.14a.49.49,0,0,1-.09-.37.46.46,0,0,1,.21-.33l9.86-6.89a.46.46,0,0,1,.38-.08.44.44,0,0,1,.32.2l2.2,3.15a.49.49,0,0,1,.08.37.52.52,0,0,1-.2.33l-3.13,2.18,2.13,3.06,3.13-2.19a.51.51,0,0,1,.7.13Z" fill="#fff"/><path d="M84.7,251.08l-1.51-3.18a.4.4,0,0,1,0-.32.38.38,0,0,1,.15-.21.47.47,0,0,1,.16-.05L96,245.88a.78.78,0,0,1,.92.49l2.22,4.68a.78.78,0,0,1-.19,1l-9,8.77a.56.56,0,0,1-.14.09.36.36,0,0,1-.27,0,.39.39,0,0,1-.23-.21l-1.51-3.18a.85.85,0,0,1,.21-1l1-1L87,251.42l-1.38.14A.84.84,0,0,1,84.7,251.08Zm7.13,2,2.93-2.86-4.06.47Z" fill="#fff"/><path d="M90,226.5l3.71,12.31a.5.5,0,0,1-.33.62l-2.87.87a.46.46,0,0,1-.38,0,.49.49,0,0,1-.25-.3l-1.16-3.83-8.16,2.47a.5.5,0,0,1-.38,0,.49.49,0,0,1-.25-.3l-1.11-3.67a.5.5,0,0,1,0-.38.49.49,0,0,1,.3-.25l8.16-2.47-1.15-3.83a.43.43,0,0,1,0-.38.41.41,0,0,1,.29-.24l2.87-.87a.46.46,0,0,1,.38,0A.45.45,0,0,1,90,226.5Z" fill="#fff"/><path d="M77,221.07a9.88,9.88,0,0,1-1.29-9.84,4.84,4.84,0,0,1,3.92-2.36l7-.91a.44.44,0,0,1,.36.1.45.45,0,0,1,.2.33l.5,3.86a.49.49,0,0,1-.1.37.47.47,0,0,1-.32.19l-7.22.95a1.37,1.37,0,0,0-1.08.65,2.58,2.58,0,0,0,.36,2.75,1.35,1.35,0,0,0,1.21.36l7.22-.94a.48.48,0,0,1,.36.1.51.51,0,0,1,.19.33l.51,3.86a.53.53,0,0,1-.1.37.53.53,0,0,1-.33.2l-7,.91A4.85,4.85,0,0,1,77,221.07Z" fill="#fff"/><path d="M317.65,208.54l3.28.42a4.19,4.19,0,0,1,3.41,2.17,8.89,8.89,0,0,1-1.13,9,4.25,4.25,0,0,1-3.88,1.23l-3.2-.4a4.2,4.2,0,0,1-3.42-2.22,8.62,8.62,0,0,1,1.12-8.87A4.21,4.21,0,0,1,317.65,208.54Zm-1.06,7.38,3.5.44a1,1,0,0,0,.85-.25,1.24,1.24,0,0,0,.44-.81,1.22,1.22,0,0,0-.23-.89,1.07,1.07,0,0,0-.76-.45l-3.49-.44a1.1,1.1,0,0,0-.86.24,1.31,1.31,0,0,0-.21,1.72A1.13,1.13,0,0,0,316.59,215.92Z" fill="#fff"/><path d="M319,228.28a.49.49,0,0,1,.25-.3.51.51,0,0,1,.38,0l2.7.78a.51.51,0,0,1,.3.24.49.49,0,0,1,0,.39l-3.11,10.79a.51.51,0,0,1-.24.3.44.44,0,0,1-.37,0l-2.17-.62a1.08,1.08,0,0,1-.81-.74q-1-3.59-1.69-5.42c-.46-1.23-.9-1.9-1.31-2a1.53,1.53,0,0,0-.35-.08.47.47,0,0,0-.3.12.84.84,0,0,0-.25.44,1,1,0,0,0,0,.57.85.85,0,0,0,.19.37,3.73,3.73,0,0,0,.35.25l.26.17c.12.09.13.27.05.56l-1.05,3.63a.49.49,0,0,1-.21.28.41.41,0,0,1-.36,0,3.92,3.92,0,0,1-2.72-2.48,7.14,7.14,0,0,1,0-4.53,6.73,6.73,0,0,1,2.17-3.68,3.55,3.55,0,0,1,3.28-.51,2.8,2.8,0,0,1,1.55,1.12c.21.31.4.6.55.87a7.42,7.42,0,0,1,.51,1.13c.42,1.14.75,2.15,1,3Z" fill="#fff"/><path d="M309.39,244.12l3,1.39a4.19,4.19,0,0,1,2.58,3.1,8.92,8.92,0,0,1-3.81,8.2,4.23,4.23,0,0,1-4.06,0l-2.93-1.36a4.21,4.21,0,0,1-2.58-3.15,8.59,8.59,0,0,1,3.76-8.11A4.17,4.17,0,0,1,309.39,244.12Zm-3.25,6.7,3.19,1.48a1.07,1.07,0,0,0,.89,0,1.25,1.25,0,0,0,.66-.64,1.23,1.23,0,0,0,.06-.92,1.08,1.08,0,0,0-.59-.66l-3.19-1.49a1.07,1.07,0,0,0-.89,0,1.23,1.23,0,0,0-.66.65,1.14,1.14,0,0,0-.06.92A1.07,1.07,0,0,0,306.14,250.82Z" fill="#fff"/><path d="M304.64,263.31a.48.48,0,0,1,.32-.21.52.52,0,0,1,.38.07l2.33,1.57a.47.47,0,0,1,.21.32.51.51,0,0,1-.07.38l-6.25,9.33a.48.48,0,0,1-.32.21.44.44,0,0,1-.37-.07L299,273.66a1.07,1.07,0,0,1-.55-1c.09-2.48.1-4.38,0-5.68s-.28-2.08-.63-2.32a1.45,1.45,0,0,0-.32-.17.41.41,0,0,0-.32,0,.88.88,0,0,0-.37.34,1.07,1.07,0,0,0-.19.54.9.9,0,0,0,.08.41,3.07,3.07,0,0,0,.25.35,2,2,0,0,1,.2.24c.08.12,0,.3-.13.54l-2.1,3.14a.43.43,0,0,1-.29.2.4.4,0,0,1-.35-.06,3.93,3.93,0,0,1-1.84-3.19,7.19,7.19,0,0,1,1.41-4.32,6.83,6.83,0,0,1,3.18-2.84,3.56,3.56,0,0,1,3.29.52,2.78,2.78,0,0,1,1.13,1.54q.17.54.27,1a8.28,8.28,0,0,1,.13,1.23c.06,1.21.06,2.28,0,3.19Z" fill="#fff"/><path d="M200,350c-82.71,0-150-67.29-150-150S117.29,50,200,50s150,67.29,150,150S282.71,350,200,350Zm0-294.41C120.37,55.59,55.59,120.37,55.59,200S120.37,344.41,200,344.41,344.41,279.63,344.41,200,279.63,55.59,200,55.59Z" fill="#5db3e4"/><path d="M170.62,251.08c-17.4-11.92-39-21.38-59.42-23A93.11,93.11,0,0,0,249.91,278.6C222.68,282.56,198.13,269.93,170.62,251.08Z" fill="#5db3e4"/><path d="M200,106.88A93.12,93.12,0,0,0,106.88,200c0,.1,0,.2,0,.3,22.34.17,46.51,6.17,68.05,13.76,35.24,12.4,63.23,21.16,97.76,9.77,6.13-2,12.52-5,19-7.71A94.1,94.1,0,0,0,293.12,200,93.12,93.12,0,0,0,200,106.88Zm56.19,87.34c-14.7-2.17-14.86.73-20.81.43s-25.72-4-36.39-12.75c-3.52-2.85-6.61,3-13.7,3.44-8.63.56-12.41-4-10.51-5.94,3.48-3.48,10.34-10.34,8.59-16.8s1.75-9,4.49-13.43S198.73,137,199.81,137c1.53-.06,6,3.52,10.25,6.74s28.14,27.49,35.74,31.45c5.3,2.76,3.18,3.75,2.43,6.49S260.19,194.8,256.19,194.22Zm2.46-24c-8.2-5.64-54.61-38.79-60.83-38.79-6.39,0-36.65,23.93-39.74,27S145,167.33,143,167.7c-1,.21-11.59,6.17-22.56,12.43a82,82,0,0,1,161.16,12.66C271.7,183.41,261.74,172.36,258.65,170.22Z" fill="#5db3e4"/><path d="M170.62,223.35c-20.06-8.07-42.09-13.4-63.24-13.65q.47,4.4,1.32,8.67c22.49.6,46.26,8.2,66.24,19.5,36.27,20.52,61.57,35.68,97.75,16.48,1.63-.87,3.29-1.89,5-3a92.67,92.67,0,0,0,10.75-22.12c-4,2-7.94,4-11.81,5.66C237.48,252.11,209.46,239,170.62,223.35Z" fill="#5db3e4"/><path d="M281.62,192.79c-9.92-9.38-19.89-20.43-23-22.57-8.2-5.65-54.61-38.79-60.84-38.79-6.39,0-36.65,23.93-39.73,27S145,167.33,143,167.7c-1,.21-11.6,6.17-22.56,12.43a82,82,0,0,1,161.15,12.66Z" fill="#fff"/><path d="M256.18,194.23c-14.69-2.18-14.85.72-20.79.43s-25.73-4-36.4-12.77c-3.52-2.84-6.62,3-13.71,3.46-8.62.56-12.41-4-10.5-5.94,3.48-3.49,10.33-10.35,8.58-16.8s1.75-9,4.49-13.43,10.88-12.2,12-12.23c1.54,0,6,3.53,10.25,6.75s28.15,27.49,35.74,31.46c5.31,2.76,3.19,3.73,2.44,6.47S260.18,194.8,256.18,194.23Z" fill="#fff"/><circle cx="620" cy="200" r="144.41" fill="#5db3e4"/><path d="M516.36,153.64q9.48,2.63,6.11,14.77l-4.91,17.75a1.18,1.18,0,0,1-.58.72,1.12,1.12,0,0,1-.91.12l-27.82-7.71a1.19,1.19,0,0,1-.73-.57,1.23,1.23,0,0,1-.12-.92l4.8-17.31q1.69-6.12,4.72-8.41t7.5-1.05l.13,0a5.82,5.82,0,0,1,3.22,2.1A5.17,5.17,0,0,1,509,156a5.74,5.74,0,0,1,3.06-2.26A7.07,7.07,0,0,1,516.36,153.64Zm-13.51,10a2.38,2.38,0,0,0-1.27-.84,2.14,2.14,0,0,0-1.46.08,1.65,1.65,0,0,0-.93,1.16l-1.6,5.77,3.92,1.09,1.6-5.77A1.59,1.59,0,0,0,502.85,163.65Zm5.86,9.25,4.22,1.17,1.73-6.25a1.79,1.79,0,0,0-.26-1.67,2.5,2.5,0,0,0-1.35-.9l0,0a2.13,2.13,0,0,0-1.57.15,1.89,1.89,0,0,0-1,1.27Z" fill="#fff"/><path d="M547.45,123.75a1.32,1.32,0,0,1,.45.22.92.92,0,0,1,.31.6,1,1,0,0,1-.18.73L542,133.42a1.91,1.91,0,0,1-2,.84l-9.44-2.15-2.25,3,7,5.25a1.15,1.15,0,0,1,.47.79,1.18,1.18,0,0,1-.22.9l-5.79,7.73A1.21,1.21,0,0,1,528,150l-23.13-17.3a1.12,1.12,0,0,1-.46-.79,1.15,1.15,0,0,1,.22-.9l10.41-13.92q3.67-4.91,8.14-6a9.64,9.64,0,0,1,8.47,1.88q4.88,3.63,4.24,9Zm-29.63,3.57,3.79,2.84,3.35-4.47a1.89,1.89,0,0,0,.39-1.61,2.47,2.47,0,0,0-1-1.4,2.91,2.91,0,0,0-1.69-.62,1.72,1.72,0,0,0-1.51.79Z" fill="#fff"/><path d="M566.22,86.82l-6.86,4.28,6.85,11,6.87-4.28a1.16,1.16,0,0,1,.91-.14,1.11,1.11,0,0,1,.75.53l3.57,5.72a1.23,1.23,0,0,1,.15.92,1.18,1.18,0,0,1-.53.75l-24,15a1.24,1.24,0,0,1-1.67-.39l-3.57-5.73a1.13,1.13,0,0,1-.14-.9,1.16,1.16,0,0,1,.53-.76l6.94-4.32-6.85-11-7,4.32a1.16,1.16,0,0,1-.91.15,1.18,1.18,0,0,1-.75-.53l-3.57-5.73a1.2,1.2,0,0,1-.15-.91,1.16,1.16,0,0,1,.54-.75l24-15a1.13,1.13,0,0,1,.91-.15,1.19,1.19,0,0,1,.76.53l3.57,5.73a1.16,1.16,0,0,1,.14.91A1.11,1.11,0,0,1,566.22,86.82Z" fill="#fff"/><path d="M599.67,80l12.72-2.49a1.16,1.16,0,0,1,.9.19,1.21,1.21,0,0,1,.52.77l.9,4.65q1.31,6.66-2.61,10.78T600.74,99.5q-7.47,1.45-12.62-.8t-6.44-8.84l-1-5a12.72,12.72,0,0,1,.16-6.07A10.73,10.73,0,0,1,583.68,74c2.66-2.59,6.33-4.34,11-5.26a25.23,25.23,0,0,1,6.58-.48,14.81,14.81,0,0,1,8.48,3c1.74,1.29,2.73,2.55,3,3.75a.9.9,0,0,1-.16.71,1,1,0,0,1-.63.41L602.05,78a1.76,1.76,0,0,1-1.35-.14,5.06,5.06,0,0,0-4-.65,6.75,6.75,0,0,0-3.51,1.59,2.63,2.63,0,0,0-.9,2.5l1.37,7a3.09,3.09,0,0,0,1.83,2.34,6.4,6.4,0,0,0,3.89.2,6.28,6.28,0,0,0,3.5-1.66,2.87,2.87,0,0,0,.9-2.47l-2.72.53a1.16,1.16,0,0,1-.9-.19,1.14,1.14,0,0,1-.51-.77l-.95-4.87a1.2,1.2,0,0,1,.95-1.41Z" fill="#fff"/><path d="M650.1,69.64l9,1.68a1.23,1.23,0,0,1,1,1.41l-5.27,28.39a1.23,1.23,0,0,1-1.41,1l-9.05-1.68a1.16,1.16,0,0,1-.77-.51,1.21,1.21,0,0,1-.2-.9l1.74-9.36L636.37,88l-1.74,9.36a1.11,1.11,0,0,1-.5.77,1.17,1.17,0,0,1-.9.2l-9.06-1.68a1.21,1.21,0,0,1-.77-.49,1.13,1.13,0,0,1-.19-.92l5.27-28.39a1.18,1.18,0,0,1,.5-.77,1.17,1.17,0,0,1,.9-.2l9.06,1.68a1.22,1.22,0,0,1,1,1.41l-1.67,9L647,79.62l1.67-9a1.23,1.23,0,0,1,1.41-1Z" fill="#fff"/><path d="M677.35,78.27l26.2,16.26a1.16,1.16,0,0,1,.54.75,1.2,1.2,0,0,1-.15.91l-3.79,6.12a1.2,1.2,0,0,1-.75.53,1.15,1.15,0,0,1-.91-.14l-8.17-5.07L679.53,115a1.22,1.22,0,0,1-1.67.39L670,110.56a1.23,1.23,0,0,1-.39-1.66l10.79-17.4-8.16-5.07a1.11,1.11,0,0,1-.53-.75,1.16,1.16,0,0,1,.14-.91l3.79-6.11a1.21,1.21,0,0,1,.76-.54A1.17,1.17,0,0,1,677.35,78.27Z" fill="#fff"/><path d="M726.46,140.7l-4.25,3.2a12.22,12.22,0,0,1-7.33,2.73,12,12,0,0,1-6.93-2.1,29.63,29.63,0,0,1-10.29-13.63,12.12,12.12,0,0,1-.11-7.25,12.32,12.32,0,0,1,4.71-6.35l4.1-3.1c3.5-2.64,7.06-3.39,10.65-2.24s6.88,3.69,9.84,7.62,4.5,7.77,4.62,11.55S729.91,138.09,726.46,140.7Zm-12.18-17.35-5.4,4.07a3.16,3.16,0,0,0-1.39,2.59,5.35,5.35,0,0,0,1.27,3.21,5.27,5.27,0,0,0,2.76,2.09,3.19,3.19,0,0,0,2.88-.64l5.33-4a3.19,3.19,0,0,0,1.41-2.59,6.38,6.38,0,0,0-4-5.33A3.11,3.11,0,0,0,714.28,123.35Z" fill="#fff"/><path d="M750.32,169.43l2.24,8a1.21,1.21,0,0,1-.84,1.49l-27.8,7.79a1.24,1.24,0,0,1-1.49-.84l-1.94-6.93a2.17,2.17,0,0,1,.42-2l9.34-12.74-11.71,3.28a1.16,1.16,0,0,1-.91-.11,1.13,1.13,0,0,1-.57-.72l-2.25-8a1.16,1.16,0,0,1,.12-.91,1.13,1.13,0,0,1,.72-.58l27.8-7.79a1.19,1.19,0,0,1,.92.12,1.17,1.17,0,0,1,.57.72l1.95,7a2,2,0,0,1-.39,1.92l-10.32,13,12.65-3.55a1.24,1.24,0,0,1,1.49.84Z" fill="#fff"/><path d="M680.3,284.1l7-4.47A1.21,1.21,0,0,1,689,280l15.54,24.34a1.14,1.14,0,0,1,.15.9,1.15,1.15,0,0,1-.52.76l-6.07,3.87a2.15,2.15,0,0,1-2,.18l-14.9-5.24,6.54,10.25a1.16,1.16,0,0,1,.16.91,1.18,1.18,0,0,1-.52.76l-7,4.47a1.16,1.16,0,0,1-.91.16,1.19,1.19,0,0,1-.76-.53l-15.53-24.34a1.13,1.13,0,0,1-.16-.9,1.18,1.18,0,0,1,.52-.76l6.11-3.9a2.1,2.1,0,0,1,1.95-.18l15.45,6.1-7.07-11.08a1.16,1.16,0,0,1-.16-.91A1.19,1.19,0,0,1,680.3,284.1Z" fill="#fff"/><path d="M639.73,333.31l-6.15,1.18a2,2,0,0,1-2.34-1.28L622,306l0-.13a1,1,0,0,1,.15-.73,1,1,0,0,1,.63-.42l7.55-1.45a2,2,0,0,1,1.53.25,2.13,2.13,0,0,1,.89,1.2l4,13.16,1.2-7.47a1.88,1.88,0,0,1,.47-1,2,2,0,0,1,1.21-.67l3-.57a2,2,0,0,1,1.37.17,1.86,1.86,0,0,1,.8.73l3.89,6.49-1.18-13.7a2.13,2.13,0,0,1,.39-1.44,2,2,0,0,1,1.32-.8l7.55-1.45a.93.93,0,0,1,.74.15.94.94,0,0,1,.41.63l0,.13,1.56,28.69a2,2,0,0,1-.41,1.29,2.09,2.09,0,0,1-1.29.77L651.67,331a2.1,2.1,0,0,1-1.38-.15,1.82,1.82,0,0,1-.78-.66l-5.82-8.49-2.26,10a1.83,1.83,0,0,1-.49.91A2.1,2.1,0,0,1,639.73,333.31Z" fill="#fff"/><path d="M615,317.39l-1,5.23a12.18,12.18,0,0,1-3.56,7,12,12,0,0,1-6.54,3.13,29.39,29.39,0,0,1-16.78-3.11,12.12,12.12,0,0,1-5-5.27,12.39,12.39,0,0,1-.82-7.86l.94-5.06q1.2-6.46,6.35-8.84t12.39-1q7.26,1.35,11.21,5.4T615,317.39Zm-20.7-4.57-1.24,6.65a3.12,3.12,0,0,0,.73,2.84,5.38,5.38,0,0,0,3.1,1.52,5.31,5.31,0,0,0,3.45-.33,3.22,3.22,0,0,0,1.7-2.41l1.21-6.57a3.17,3.17,0,0,0-.72-2.86,5.28,5.28,0,0,0-3.1-1.54,5.36,5.36,0,0,0-3.44.3A3.13,3.13,0,0,0,594.31,312.82Z" fill="#fff"/><path d="M552.39,279.66,578.58,296a1.16,1.16,0,0,1,.54.75,1.2,1.2,0,0,1-.15.91l-3.8,6.11a1.11,1.11,0,0,1-.75.53,1.16,1.16,0,0,1-.91-.14L565.35,299l-10.81,17.38a1.14,1.14,0,0,1-.75.53,1.16,1.16,0,0,1-.91-.14L545.06,312a1.24,1.24,0,0,1-.39-1.67l10.81-17.38-8.16-5.08a1.11,1.11,0,0,1-.53-.75,1.16,1.16,0,0,1,.14-.91l3.8-6.11a1.17,1.17,0,0,1,.75-.53A1.16,1.16,0,0,1,552.39,279.66Z" fill="#fff"/><path d="M528.74,266.77l2.2,3.14a.55.55,0,0,1,.08.38.51.51,0,0,1-.21.32L521,277.5a.51.51,0,0,1-.7-.12l-2.2-3.15a.44.44,0,0,1-.08-.37.48.48,0,0,1,.2-.33l3.26-2.27-2.13-3.05L516,270.48a.52.52,0,0,1-.37.08.49.49,0,0,1-.33-.21l-2.19-3.14a.49.49,0,0,1-.09-.37.46.46,0,0,1,.21-.33l9.86-6.89a.46.46,0,0,1,.38-.08.44.44,0,0,1,.32.2l2.2,3.15a.49.49,0,0,1,.08.37.52.52,0,0,1-.2.33l-3.13,2.18,2.13,3.06,3.13-2.19a.51.51,0,0,1,.7.13Z" fill="#fff"/><path d="M504.7,251.08l-1.51-3.18a.4.4,0,0,1,0-.32.38.38,0,0,1,.15-.21.47.47,0,0,1,.16-.05L516,245.88a.78.78,0,0,1,.92.49l2.22,4.68a.78.78,0,0,1-.19,1l-9,8.77a.56.56,0,0,1-.14.09.36.36,0,0,1-.27,0,.39.39,0,0,1-.23-.21l-1.51-3.18a.85.85,0,0,1,.21-1l1-1L507,251.42l-1.38.14A.84.84,0,0,1,504.7,251.08Zm7.13,2,2.93-2.86-4.06.47Z" fill="#fff"/><path d="M510,226.5l3.71,12.31a.5.5,0,0,1-.33.62l-2.87.87a.46.46,0,0,1-.38,0,.49.49,0,0,1-.25-.3l-1.16-3.83-8.16,2.47a.5.5,0,0,1-.38,0,.49.49,0,0,1-.25-.3l-1.11-3.67a.5.5,0,0,1,0-.38.49.49,0,0,1,.3-.25l8.16-2.47-1.15-3.83a.43.43,0,0,1,0-.38.41.41,0,0,1,.29-.24l2.87-.87a.46.46,0,0,1,.38,0A.45.45,0,0,1,510,226.5Z" fill="#fff"/><path d="M497,221.07a9.88,9.88,0,0,1-1.29-9.84,4.84,4.84,0,0,1,3.92-2.36l7-.91a.44.44,0,0,1,.36.1.45.45,0,0,1,.2.33l.5,3.86a.49.49,0,0,1-.1.37.47.47,0,0,1-.32.19l-7.22.95a1.37,1.37,0,0,0-1.08.65,2.58,2.58,0,0,0,.36,2.75,1.35,1.35,0,0,0,1.21.36l7.22-.94a.48.48,0,0,1,.36.1.51.51,0,0,1,.19.33l.51,3.86a.53.53,0,0,1-.1.37.53.53,0,0,1-.33.2l-7,.91A4.85,4.85,0,0,1,497,221.07Z" fill="#fff"/><path d="M737.65,208.54l3.28.42a4.19,4.19,0,0,1,3.41,2.17,8.89,8.89,0,0,1-1.13,9,4.25,4.25,0,0,1-3.88,1.23l-3.2-.4a4.2,4.2,0,0,1-3.42-2.22,8.62,8.62,0,0,1,1.12-8.87A4.21,4.21,0,0,1,737.65,208.54Zm-1.06,7.38,3.5.44a1,1,0,0,0,.85-.25,1.24,1.24,0,0,0,.44-.81,1.22,1.22,0,0,0-.23-.89,1.07,1.07,0,0,0-.76-.45l-3.49-.44a1.1,1.1,0,0,0-.86.24,1.31,1.31,0,0,0-.21,1.72A1.13,1.13,0,0,0,736.59,215.92Z" fill="#fff"/><path d="M739,228.28a.49.49,0,0,1,.25-.3.51.51,0,0,1,.38,0l2.7.78a.51.51,0,0,1,.3.24.49.49,0,0,1,0,.39l-3.11,10.79a.51.51,0,0,1-.24.3.44.44,0,0,1-.37,0l-2.17-.62a1.08,1.08,0,0,1-.81-.74q-1-3.59-1.69-5.42c-.46-1.23-.9-1.9-1.31-2a1.53,1.53,0,0,0-.35-.08.47.47,0,0,0-.3.12.84.84,0,0,0-.25.44,1,1,0,0,0,0,.57.85.85,0,0,0,.19.37,3.73,3.73,0,0,0,.35.25l.26.17c.12.09.13.27,0,.56l-1,3.63a.49.49,0,0,1-.21.28.41.41,0,0,1-.36,0,3.92,3.92,0,0,1-2.72-2.48,7.14,7.14,0,0,1,0-4.53,6.73,6.73,0,0,1,2.17-3.68,3.55,3.55,0,0,1,3.28-.51,2.8,2.8,0,0,1,1.55,1.12c.21.31.4.6.55.87a7.42,7.42,0,0,1,.51,1.13c.42,1.14.75,2.15,1,3Z" fill="#fff"/><path d="M729.39,244.12l3,1.39a4.19,4.19,0,0,1,2.58,3.1,8.92,8.92,0,0,1-3.81,8.2,4.23,4.23,0,0,1-4.06,0l-2.93-1.36a4.21,4.21,0,0,1-2.58-3.15,8.59,8.59,0,0,1,3.76-8.11A4.17,4.17,0,0,1,729.39,244.12Zm-3.25,6.7,3.19,1.48a1.07,1.07,0,0,0,.89,0,1.25,1.25,0,0,0,.66-.64,1.23,1.23,0,0,0,.06-.92,1.08,1.08,0,0,0-.59-.66l-3.19-1.49a1.07,1.07,0,0,0-.89,0,1.23,1.23,0,0,0-.66.65,1.14,1.14,0,0,0-.06.92A1.07,1.07,0,0,0,726.14,250.82Z" fill="#fff"/><path d="M724.64,263.31a.48.48,0,0,1,.32-.21.52.52,0,0,1,.38.07l2.33,1.57a.47.47,0,0,1,.21.32.51.51,0,0,1-.07.38l-6.25,9.33a.48.48,0,0,1-.32.21.44.44,0,0,1-.37-.07L719,273.66a1.07,1.07,0,0,1-.55-1c.09-2.48.1-4.38,0-5.68s-.28-2.08-.63-2.32a1.45,1.45,0,0,0-.32-.17.41.41,0,0,0-.32,0,.88.88,0,0,0-.37.34,1.07,1.07,0,0,0-.19.54.9.9,0,0,0,.08.41,3.07,3.07,0,0,0,.25.35,2,2,0,0,1,.2.24c.08.12,0,.3-.13.54l-2.1,3.14a.43.43,0,0,1-.29.2.4.4,0,0,1-.35-.06,3.93,3.93,0,0,1-1.84-3.19,7.19,7.19,0,0,1,1.41-4.32,6.83,6.83,0,0,1,3.18-2.84,3.56,3.56,0,0,1,3.29.52,2.78,2.78,0,0,1,1.13,1.54q.16.54.27,1a8.28,8.28,0,0,1,.13,1.23c.06,1.21.06,2.28,0,3.19Z" fill="#fff"/><path d="M620,350c-82.71,0-150-67.29-150-150S537.29,50,620,50s150,67.29,150,150S702.71,350,620,350Zm0-294.41c-79.63,0-144.41,64.78-144.41,144.41S540.37,344.41,620,344.41,764.41,279.63,764.41,200,699.63,55.59,620,55.59Z" fill="#163158"/><path d="M590.62,251.08c-17.4-11.92-39-21.38-59.42-23A93.11,93.11,0,0,0,669.91,278.6C642.68,282.56,618.13,269.93,590.62,251.08Z" fill="#163158"/><path d="M620,106.88A93.12,93.12,0,0,0,526.88,200c0,.1,0,.2,0,.3,22.34.17,46.51,6.17,68.05,13.76,35.24,12.4,63.23,21.16,97.76,9.77,6.13-2,12.52-5,19-7.71A94.1,94.1,0,0,0,713.12,200,93.12,93.12,0,0,0,620,106.88Zm56.19,87.34c-14.7-2.17-14.86.73-20.81.43s-25.72-4-36.39-12.75c-3.52-2.85-6.61,3-13.7,3.44-8.63.56-12.41-4-10.51-5.94,3.48-3.48,10.34-10.34,8.59-16.8s1.75-9,4.49-13.43S618.73,137,619.81,137c1.53-.06,6,3.52,10.25,6.74s28.14,27.49,35.74,31.45c5.3,2.76,3.18,3.75,2.43,6.49S680.19,194.8,676.19,194.22Zm2.46-24c-8.2-5.64-54.61-38.79-60.83-38.79-6.39,0-36.65,23.93-39.74,27S565,167.33,563,167.7c-1,.21-11.59,6.17-22.56,12.43a82,82,0,0,1,161.16,12.66C691.7,183.41,681.74,172.36,678.65,170.22Z" fill="#163158"/><path d="M590.62,223.35c-20.06-8.07-42.09-13.4-63.24-13.65q.47,4.4,1.32,8.67c22.49.6,46.26,8.2,66.24,19.5,36.27,20.52,61.57,35.68,97.75,16.48,1.63-.87,3.29-1.89,5-3a92.67,92.67,0,0,0,10.75-22.12c-4,2-7.94,4-11.81,5.66C657.48,252.11,629.46,239,590.62,223.35Z" fill="#163158"/><path d="M701.62,192.79c-9.92-9.38-19.89-20.43-23-22.57-8.2-5.65-54.61-38.79-60.84-38.79-6.39,0-36.65,23.93-39.73,27S565,167.33,563,167.7c-1,.21-11.6,6.17-22.56,12.43a82,82,0,0,1,161.15,12.66Z" fill="#fff"/><path d="M676.18,194.23c-14.69-2.18-14.85.72-20.79.43s-25.73-4-36.4-12.77c-3.52-2.84-6.62,3-13.71,3.46-8.62.56-12.41-4-10.5-5.94,3.48-3.49,10.33-10.35,8.58-16.8s1.75-9,4.49-13.43S618.73,137,619.8,137c1.54,0,6,3.53,10.25,6.75s28.15,27.49,35.74,31.46c5.31,2.76,3.19,3.73,2.44,6.47S680.18,194.8,676.18,194.23Z" fill="#fff"/></svg>