<svg id="Layer_1" data-name="Layer 1" xmlns="http://www.w3.org/2000/svg" viewBox="0 0 1366 768"><rect width="1366" height="768" fill="#fff"/><path d="M1199.15,349.62c19.33-.29,65-8.94,66.85,18.37-3.66,19.49-2.53,99.62-44.32,96.93-13.06.56-25.37-2.73-27.28-10C1183.88,416.09,1150.29,354.41,1199.15,349.62ZM1189.53,503c-1.41-35.66,62-38.81,60.64-1.7C1250.75,536.31,1189.86,539,1189.53,503Z" fill="#7c68ad"/><path d="M464.77,370.13c-2.33,14.36-21.4,15.92-44.92,18-21.06,1.82-54.26,8-59.14-18-.67-41.68-1.17-93.87-.56-126.66-.69-25.18-47.49,4.48-47.66-22.94,1.39-13.33-5.2-36.08,4.42-46.46,29.15-7.67,66.58-8,112.59-9.46,47.31-1.49,85.39-8.58,91.74-.32,7.46,9.7,8.7,53.64-10.76,52.06,0,0-27.17,4.23-36.31,4.84-6.25.41-9.4,3.22-9.4,9.66C466,278.12,465.78,325.45,464.77,370.13Z" fill="#d95b2a"/><path d="M860.41,377.54c-105.5,11.92-157.83-139.9-72.11-203.24,48-35.5,173.21-42.57,174.57,6.35-1.28,52.95-54.7-4.86-91.51,33-30.46,31.35-24.55,89.28,15,93.49,35.27,3.76,65.9-15.1,56.91,44.95C931.77,375.48,899.21,373.31,860.41,377.54Z" fill="#d95b2a"/><path d="M1088.27,370.13c-182.61,4.35-183.23-208.2-1.1-205.31C1259.45,157.09,1251.07,368,1088.27,370.13ZM1143,262.78c1.06-45.88-81.24-41.94-79.87,2.35C1064.21,309.86,1143.06,306.29,1143,262.78Z" fill="#d95b2a"/><path d="M285.34,421.94c53.31-4.29,130.6-25.43,173.87,15.19,22.89,21.49,18.25,54.57-6.64,69.51,36.21,12.06,49.06,59.77,19.07,88.29C455,618.15,391.1,618.38,369.67,619c-10.31,0-26.85,0-85.43-4.17-5.33-.38-9.67-1.7-13-5.11-16.49-36.34-5.13-120.45-6.09-162.06C266.78,431.24,268,423.33,285.34,421.94Zm72.46,37,.27,22.65c5.53,14.41,39-1,34.27-10.5C397,457.57,362,443.37,357.8,459Zm.27,76c.62,2.9-2,39,1.38,40.21,19.73,4.77,53.09-.5,52.06-25.7,1.12-22.37-23.67-23.81-40.17-24.18C364.65,525,357.63,526.15,358.07,535Z" fill="#654198"/><path d="M1001.94,393.11c22.85-.77,14.87-1.15,49.14-1.15,54.12,3.88,72.49-1,106.11,26.41,19.41,25.11,23,59.77-6.64,77.12,36.82,13,48.72,62.58,19.07,92-16.52,24.13-57.55,26.58-102,21.6-10.25-1.15-22.72-1.73-66.82-5.71-5.32-.48-9.67-1.77-13-5.32-16.51-38.15-5.11-120.65-6.09-164.06C984.63,415.78,978.8,392.33,1001.94,393.11Zm53.84,48.65.27,23.62c5.69,15,39-1.08,34.27-10.95C1095,440.24,1059.84,425.56,1055.78,441.76Zm.27,83.25c.62,3-2,40.65,1.38,41.9,20.13,5.14,53.34-1,52.06-26.78,1.23-22.92-23.19-24.9-40.17-25.2C1062.46,514.65,1055.63,515.9,1056.05,525Z" fill="#654198"/><path d="M806.28,422.53c12.72,8.68,46.78,71.31,56.09,52.34,41.23-84.06,40.2-91.62,76.57-93.29,10.32-.47,23.93-1.25,24,10.38.12,21.12-.56,87.88-.26,109.84.49,35.23,11.29,96.54-19.61,90.85-57.58-10.62-60.71-11.2-60.79-56.17-.06-31-36.29,73.67-58,69.81-15.71,12.27-50.64-95.59-54.72-62.18L768.15,617c.42,8.64-31.21,10.46-42.28,11.89-32.82-3.84-19.53-80.33-19.62-120.27-.1-41.95-14.52-99.56,22.37-100.45C786.82,406.75,782.81,396.7,806.28,422.53Z" fill="#654198"/><path d="M772.62,371.3,654.72,174.65c-7.07-14.08-26.12-16.82-42.27-15.66-18.65,0-32,7.14-40.3,21.41-1.16,4.69-89.73,150.45-89.09,162.34.61,11.31,27.22,11.88,35.21,12.44,25.05,1.77,16.86-40.13,40.3-37.07,80.54-1,59.77-6.65,94.64,62.17,6.16,12.18,87.87,14,102,14.09C766.09,394.48,781.83,388.11,772.62,371.3ZM602.55,279.19c-3.29,5.68-27.53,2.66-33.16,3-18.07,1.08,5.44-29.76,6.9-36.85,4.38-8.83,13.21-8.66,17.05.69C594.68,252.75,609.86,272.73,602.55,279.19Z" fill="#d95b2a"/><path d="M270.92,399.11H245.36c.46,81.75-.23,156.36-1.84,176.39,0,8.52-6.68,14.28-15,15.2-18.42,2.3-43.06,6-42.6-15.2,0,0-4.15-169.94-4.38-213.92v-6.22c-41.44-1.38-83.35-14.74-81.51-67C101,269,102.82,211,102.82,211c0-22.34,17.5-18.65,28.09-15.2,24,7.83,13.82,44.44,15,88-1.84,20.73,17.73,25.56,36.61,26.95,1.85-66.32,6.45-150.37,6.45-150.37-.46-17.73,21.88-21.42,33.85-21.19a15.14,15.14,0,0,1,15.2,15c3.92,27.63,6.22,113.06,7.14,200.34l25.79,1.15c27.4,1.61,20.49-64.94,22.57-84,1.84-15.43,17.5-20.72,28.78-19.8,8.29,0,14.05,9.9,15.2,15.19C345.76,330,342.07,395.43,270.92,399.11Z" fill="#7c68ad"/><path d="M594.73,405.5a121.29,121.29,0,0,0-30.27,2.92l-9-14.44a10.48,10.48,0,0,0-14.37-3.57l-11.54,6.95c-2.87-4.94-5.09-9.82-5.09-13.3,0-5.74,8.25-7,26.71-7.69,9.9-.37,19.91-.9,28.29-3.58l-5.11,10.86a.71.71,0,0,0,1,.9l19.5-12.34a.71.71,0,0,1,.93.15l11.54,14a.71.71,0,0,0,1.24-.6l-3.27-15.26a.7.7,0,0,1,.56-.84l24.38-4.76a.71.71,0,0,0,0-1.39l-22.77-4.36a.7.7,0,0,1-.5-1l10.38-20.64a.71.71,0,0,0-1.1-.85l-19.76,17.43a.71.71,0,0,1-1.15-.32l-5.52-18a.71.71,0,0,0-1.37,0l-3.74,16.66a.72.72,0,0,1-.68.55l-19.47.34a.71.71,0,0,0-.31,1.34l13,6.69c-7,2.63-17.22,3.1-26.56,3.44-17.71.66-37.79,1.39-37.79,19.2,0,6,3,13,6.69,19.27L510.3,409a10.47,10.47,0,0,0-3.56,14.37l8,12.85C465.29,491,492.13,599.61,595.58,595.07,720.84,593,727.76,398.77,594.73,405.5Zm-47.21,86.78c-2.46-40.26,63.68-44,61.53-2.17C610.58,529.46,547.12,533.29,547.52,492.28Z" fill="#654198"/></svg>