<svg id="Layer_1" data-name="Layer 1" xmlns="http://www.w3.org/2000/svg" viewBox="0 0 1366 768"><rect width="1366" height="768" fill="#dd6fab"/><path d="M100,317.45v5.29a15.59,15.59,0,0,1,6-5.29h36.65v29.93c-.28.22-6.53,4.95-11.84,7,5.19,1.27,11.56,6.72,11.84,7v45.15a15.59,15.59,0,0,1-5.29,6h34a15.59,15.59,0,0,1-5.29-6V361.15c.79-.67,6.69-5.58,11.65-6.79-5.07-1.93-10.86-6.23-11.65-6.83V317.45h36.66a15.5,15.5,0,0,1,6,5.29V296.89H100Z" fill="#654198"/><path d="M795.84,347.77a29.07,29.07,0,0,0,6.95-19.3,29.37,29.37,0,0,0-2.7-12.54,26.5,26.5,0,0,0-8.24-10,42.11,42.11,0,0,0-13.94-6.62,72.13,72.13,0,0,0-19.71-2.4H691.15a15.59,15.59,0,0,1,5.29,6v44.63c-.82.62-6.59,4.89-11.63,6.82,4.93,1.21,10.8,6.08,11.63,6.78v45.33a15.59,15.59,0,0,1-5.29,6h75.92A70.35,70.35,0,0,0,786.86,410a38.13,38.13,0,0,0,13.9-7.1A28.72,28.72,0,0,0,809,391.78a37.71,37.71,0,0,0,2.7-14.57,36.71,36.71,0,0,0-3.92-17.16A30.57,30.57,0,0,0,795.84,347.77Zm-76-30.25h38.9q9.47,0,14.38,3.44a11.19,11.19,0,0,1,4.92,9.73,14.59,14.59,0,0,1-5,10.8q-2.89-.23-5.92-.23H719.89ZM782.05,388q-4.92,4.07-14.39,4.06H719.89V360.86h47.77q9.47,0,14.39,4.15T787,376.54Q787,383.94,782.05,388Z" fill="#654198"/><path d="M1262.08,360.05a30.57,30.57,0,0,0-11.91-12.28,30.39,30.39,0,0,0,4.26-31.84,26.62,26.62,0,0,0-8.25-10,42.11,42.11,0,0,0-13.94-6.62,72.13,72.13,0,0,0-19.71-2.4h-67a15.59,15.59,0,0,1,5.29,6v44.67c-.93.7-6.6,4.87-11.58,6.78,4.88,1.19,10.64,5.95,11.58,6.74v45.37a15.59,15.59,0,0,1-5.29,6h75.92a70.35,70.35,0,0,0,19.79-2.48,38.13,38.13,0,0,0,13.9-7.1,28.72,28.72,0,0,0,8.21-11.13,37.71,37.71,0,0,0,2.7-14.57A36.71,36.71,0,0,0,1262.08,360.05Zm-87.86-42.53h38.9q9.47,0,14.38,3.44a11.19,11.19,0,0,1,4.92,9.73,14.59,14.59,0,0,1-5,10.8q-2.9-.23-5.92-.23h-47.33ZM1236.38,388q-4.92,4.07-14.39,4.06h-47.77V360.86H1222q9.48,0,14.39,4.15t4.92,11.53Q1241.3,383.94,1236.38,388Z" fill="#654198"/><path d="M333.77,404.27,312.26,359.8c2.35-1.79,6.35-4.57,9.9-5.44-5.39-1.65-16.6-10.23-18-11.32l-19.46-40.23c.91-4.26,3.2-5.92,3.2-5.92h-37s2.34,1.67,3.23,6l-19.28,41c-3.43,2.59-12.22,9-16.8,10.4,3.37.82,7.1,3.34,9.5,5.14l-22.11,47.08a43.56,43.56,0,0,1-7.44,5.91h35.43s-2.37-1.67-3.25-6.1L236.34,393h67.53l6.72,14.14a10.45,10.45,0,0,1-3,5.31H343S337.1,408.78,333.77,404.27Zm-88.48-30.54,24.33-52.51,25,52.51Z" fill="#654198"/><path d="M455.37,378.91a32,32,0,0,1-2,6.73c-1.15.55-2.19,1.16-3.41,1.66a76.07,76.07,0,0,1-9.06,3.11,81.36,81.36,0,0,1-9.73,2,68.55,68.55,0,0,1-10.13.74,64.54,64.54,0,0,1-20.16-2.92,44.52,44.52,0,0,1-15.08-8.13,35,35,0,0,1-9.43-12.39,36,36,0,0,1-2.6-9.14c2-1.58,6.82-5.23,11-6.24a54.77,54.77,0,0,1-11-6.38,34.47,34.47,0,0,1,2.55-9.19,33,33,0,0,1,9.17-11.91,43.3,43.3,0,0,1,14.83-7.77,66.85,66.85,0,0,1,20-2.77,77.51,77.51,0,0,1,9.43.59A83.91,83.91,0,0,1,439,318.6a63,63,0,0,1,8.43,2.62c.84.33,1.45.77,2.23,1.13a32.29,32.29,0,0,1,2.07,6.86l2.69-4.44L465.17,307a82.39,82.39,0,0,0-21.93-8.69,110.3,110.3,0,0,0-25.92-2.85A86.2,86.2,0,0,0,388.44,300a64,64,0,0,0-21.6,12.38A52.86,52.86,0,0,0,353.35,331a55.58,55.58,0,0,0-4,16.36s-6.52,5-11.95,7.05c5.31,1.3,11.95,7,11.95,7V361a60,60,0,0,0,3.89,16.62,52.29,52.29,0,0,0,13.58,19.08,64.5,64.5,0,0,0,22.48,12.72Q402.75,414,420.57,414A98.77,98.77,0,0,0,447,410.6a79.78,79.78,0,0,0,21.89-9.5l-10.8-17.75Z" fill="#654198"/><path d="M614.43,347.57a57.06,57.06,0,0,0-4.16-17.18,54.11,54.11,0,0,0-13.5-18.67,61.29,61.29,0,0,0-20.89-12.09,86.73,86.73,0,0,0-53.88,0,61.44,61.44,0,0,0-20.86,12.09,54.21,54.21,0,0,0-13.49,18.67,56.77,56.77,0,0,0-4.15,17.1c-.65.48-6.57,4.91-11.71,6.87,5,1.23,11,6.28,11.7,6.84a57.53,57.53,0,0,0,4.16,17.3,55.1,55.1,0,0,0,13.49,18.9A61.72,61.72,0,0,0,522,409.71a84.67,84.67,0,0,0,53.88,0,61.57,61.57,0,0,0,20.89-12.31,55,55,0,0,0,13.5-18.9,57.5,57.5,0,0,0,4.16-17.4c.94-.78,6.71-5.55,11.59-6.74C621,352.45,615.34,348.25,614.43,347.57Zm-26,22.91a36.18,36.18,0,0,1-9,12.24,39.87,39.87,0,0,1-13.5,7.8,54,54,0,0,1-33.95,0,40.21,40.21,0,0,1-13.53-7.8,35.65,35.65,0,0,1-9-12.24,39.06,39.06,0,0,1-3.22-16.12,38.53,38.53,0,0,1,3.22-16.05,34.26,34.26,0,0,1,9-12A39.78,39.78,0,0,1,532,318.78a56.92,56.92,0,0,1,33.95,0,39.45,39.45,0,0,1,13.5,7.51,34.76,34.76,0,0,1,9,12,38.07,38.07,0,0,1,3.25,16.05A38.59,38.59,0,0,1,588.38,370.48Z" fill="#654198"/><path d="M960.21,347.69a57.1,57.1,0,0,0-4.17-17.3,54.37,54.37,0,0,0-13.5-18.67,61.29,61.29,0,0,0-20.89-12.09,86.73,86.73,0,0,0-53.88,0,61.34,61.34,0,0,0-20.86,12.09,54.37,54.37,0,0,0-13.5,18.67,57.37,57.37,0,0,0-4.27,18.42v-1.5s-6.52,5-11.95,7.05c5.31,1.3,11.95,7,11.95,7v-1.46a58.28,58.28,0,0,0,4.27,18.56,55.26,55.26,0,0,0,13.5,18.9,61.62,61.62,0,0,0,20.86,12.31,84.67,84.67,0,0,0,53.88,0,61.57,61.57,0,0,0,20.89-12.31A55.26,55.26,0,0,0,956,378.5a58,58,0,0,0,4.17-17.43v.33s6.63-5.74,11.94-7c-5.43-2.08-11.94-7.05-11.94-7.05Zm-26.06,22.79a36.31,36.31,0,0,1-8.95,12.24,39.87,39.87,0,0,1-13.5,7.8,54,54,0,0,1-34,0,40.21,40.21,0,0,1-13.53-7.8,35.52,35.52,0,0,1-9-12.24,38.9,38.9,0,0,1-3.22-16.12,38.37,38.37,0,0,1,3.22-16.05,34.14,34.14,0,0,1,9-12,39.78,39.78,0,0,1,13.53-7.51,56.92,56.92,0,0,1,34,0,39.45,39.45,0,0,1,13.5,7.51,34.88,34.88,0,0,1,8.95,12,38.07,38.07,0,0,1,3.25,16.05A38.59,38.59,0,0,1,934.15,370.48Z" fill="#654198"/><path d="M1131.6,354.36c-5.14-2-11.06-6.39-11.71-6.87V302.91a15.56,15.56,0,0,1,5.3-6h-28.74l-42,42.16-42-42.16H983.69a15.56,15.56,0,0,1,5.3,6v44.64c-.86.64-6.59,4.89-11.63,6.81,4.93,1.2,10.77,6.05,11.63,6.77v45.34a15.56,15.56,0,0,1-5.3,6h34a15.59,15.59,0,0,1-5.29-6V329.36l42,40.45,42-40.45v77.11a15.59,15.59,0,0,1-5.29,6h34a15.56,15.56,0,0,1-5.3-6V361.2C1120.54,360.65,1126.58,355.59,1131.6,354.36Z" fill="#654198"/><path d="M548,446.79h4.25l9.57,19.78h-4.22L556,463.24H544.46l-1.53,3.33H538.7Zm6.44,13.15-4.28-9-4.16,9Z" fill="#654198"/><path d="M564.51,445.58h3.75v21h-3.75Z" fill="#654198"/><path d="M573,445.58h3.75V453a6.94,6.94,0,0,1,1.16-.64,11.62,11.62,0,0,1,1.44-.54,13.78,13.78,0,0,1,1.6-.36,10.07,10.07,0,0,1,1.64-.13,10.51,10.51,0,0,1,3.49.56,8,8,0,0,1,2.73,1.57,7,7,0,0,1,1.77,2.42,8,8,0,0,1,0,6.34,7.32,7.32,0,0,1-1.85,2.45,8.45,8.45,0,0,1-2.81,1.57,10.87,10.87,0,0,1-3.52.55,12.06,12.06,0,0,1-1.6-.1,13.68,13.68,0,0,1-1.52-.28,11.65,11.65,0,0,1-1.37-.42,8.54,8.54,0,0,1-1.13-.54v1.08H573Zm3.75,16.29a6.43,6.43,0,0,0,1.2.77,7.91,7.91,0,0,0,1.29.52,7.74,7.74,0,0,0,1.33.3,9.8,9.8,0,0,0,1.3.09,7.09,7.09,0,0,0,2.3-.34,5,5,0,0,0,1.69-1,4.14,4.14,0,0,0,1.06-1.43,4.4,4.4,0,0,0,.37-1.78,4.08,4.08,0,0,0-.36-1.7,4.17,4.17,0,0,0-1-1.4,5,5,0,0,0-1.63-.94,6.1,6.1,0,0,0-2.15-.35,8.77,8.77,0,0,0-1.52.14,10.17,10.17,0,0,0-1.46.41,8.41,8.41,0,0,0-1.31.65,5.41,5.41,0,0,0-1.07.85Z" fill="#654198"/><path d="M594.64,451.62h3.73v7.29a7.41,7.41,0,0,0,.23,1.89,3.38,3.38,0,0,0,.78,1.46,3.57,3.57,0,0,0,1.46.95,6.89,6.89,0,0,0,2.29.33,5.9,5.9,0,0,0,1.31-.14,7.76,7.76,0,0,0,1.27-.38,7.11,7.11,0,0,0,1.13-.59,5.27,5.27,0,0,0,.91-.75V451.62h3.74v14.95h-3.74v-1.28a10.27,10.27,0,0,1-2.77,1.17,10.59,10.59,0,0,1-2.65.36,11.3,11.3,0,0,1-3.51-.49,6,6,0,0,1-2.39-1.44,5.56,5.56,0,0,1-1.36-2.32,10.34,10.34,0,0,1-.43-3.13Z" fill="#654198"/><path d="M615.35,459.16a7.48,7.48,0,0,1,.67-3.22,7.32,7.32,0,0,1,1.85-2.45,8.45,8.45,0,0,1,2.81-1.57,10.84,10.84,0,0,1,3.53-.55,11.85,11.85,0,0,1,3,.37,9.46,9.46,0,0,1,2.36,1v-1.07h3.75v21h-3.75v-7.5a8.43,8.43,0,0,1-1.13.65,10.25,10.25,0,0,1-1.35.53,11.89,11.89,0,0,1-1.51.36,9.51,9.51,0,0,1-1.6.13,10.26,10.26,0,0,1-3.49-.56,8.07,8.07,0,0,1-2.72-1.56,7.15,7.15,0,0,1-1.78-2.43A7.41,7.41,0,0,1,615.35,459.16Zm3.93,0a4.09,4.09,0,0,0,.37,1.7,4.14,4.14,0,0,0,1,1.4,5.16,5.16,0,0,0,1.64.95,6.24,6.24,0,0,0,2.14.34,7.21,7.21,0,0,0,1.48-.14,8.39,8.39,0,0,0,1.37-.41,6.87,6.87,0,0,0,1.23-.65,5.69,5.69,0,0,0,1-.85v-5.17a7.52,7.52,0,0,0-2.37-1.3,8.52,8.52,0,0,0-2.5-.38,6.82,6.82,0,0,0-2.3.35,5,5,0,0,0-1.69.95,4.24,4.24,0,0,0-1.06,1.43A4.4,4.4,0,0,0,619.28,459.16Z" fill="#654198"/><path d="M637.9,451.62h3.73v7.29a7,7,0,0,0,.23,1.89,3.47,3.47,0,0,0,.77,1.46,3.67,3.67,0,0,0,1.47.95,6.81,6.81,0,0,0,2.29.33,5.81,5.81,0,0,0,1.3-.14A7.59,7.59,0,0,0,649,463a7.11,7.11,0,0,0,1.13-.59,4.84,4.84,0,0,0,.9-.75V451.62h3.75v14.95H651v-1.28a10.14,10.14,0,0,1-2.77,1.17,10.58,10.58,0,0,1-2.64.36,11.26,11.26,0,0,1-3.51-.49,5.93,5.93,0,0,1-2.39-1.44,5.56,5.56,0,0,1-1.36-2.32,10.34,10.34,0,0,1-.43-3.13Z" fill="#654198"/><path d="M658.8,459.05a6.91,6.91,0,0,1,.62-2.9,7.21,7.21,0,0,1,1.78-2.45,8.92,8.92,0,0,1,2.85-1.7,12,12,0,0,1,7.7,0,8.63,8.63,0,0,1,2.91,1.75,7.75,7.75,0,0,1,1.83,2.62,8.27,8.27,0,0,1,.64,3.23c0,.14,0,.29,0,.46a3.19,3.19,0,0,1,0,.45H663a3.46,3.46,0,0,0,.78,1.23,5,5,0,0,0,1.35,1,7.33,7.33,0,0,0,1.87.62,11.38,11.38,0,0,0,2.35.22,12.4,12.4,0,0,0,2.57-.27,18.18,18.18,0,0,0,2.44-.69l1.27,2.86a14.49,14.49,0,0,1-1.49.6,11,11,0,0,1-1.57.43,14.75,14.75,0,0,1-1.7.26c-.6.06-1.23.09-1.88.09a14.4,14.4,0,0,1-4.42-.61,9.41,9.41,0,0,1-3.17-1.65,6.82,6.82,0,0,1-1.93-2.47A7.25,7.25,0,0,1,658.8,459.05Zm14.36-1.45a3.86,3.86,0,0,0-.63-1.16,4.2,4.2,0,0,0-1.06-.94,5.54,5.54,0,0,0-1.46-.62,6.67,6.67,0,0,0-1.84-.23,7.23,7.23,0,0,0-1.93.24,5.64,5.64,0,0,0-1.53.64,4.24,4.24,0,0,0-1.1.94,3.46,3.46,0,0,0-.64,1.13Z" fill="#654198"/><path d="M681.15,451.64h3.75v2.15a16,16,0,0,1,2.62-1.6,14.51,14.51,0,0,1,2.74-1l1.1,3.43a11.83,11.83,0,0,0-3.8,1,6.89,6.89,0,0,0-2.66,2.12v8.89h-3.75Z" fill="#654198"/><path d="M693.25,459.16a7.48,7.48,0,0,1,.67-3.22,7.19,7.19,0,0,1,1.85-2.45,8.45,8.45,0,0,1,2.81-1.57,10.82,10.82,0,0,1,3.52-.55,11.74,11.74,0,0,1,3,.37,9.54,9.54,0,0,1,2.37,1v-1.07h3.74v21h-3.74v-7.5a9.1,9.1,0,0,1-1.13.65,10.25,10.25,0,0,1-1.35.53,11.89,11.89,0,0,1-1.51.36,9.59,9.59,0,0,1-1.6.13,10.26,10.26,0,0,1-3.49-.56,8.12,8.12,0,0,1-2.73-1.56,7.25,7.25,0,0,1-1.77-2.43A7.41,7.41,0,0,1,693.25,459.16Zm3.93,0a4.08,4.08,0,0,0,.36,1.7,4.17,4.17,0,0,0,1,1.4,5.11,5.11,0,0,0,1.63.95,6.3,6.3,0,0,0,2.15.34,7.28,7.28,0,0,0,1.48-.14,8.69,8.69,0,0,0,1.37-.41,7.23,7.23,0,0,0,1.23-.65,5.69,5.69,0,0,0,1-.85v-5.17a7.52,7.52,0,0,0-2.37-1.3,8.52,8.52,0,0,0-2.5-.38,6.82,6.82,0,0,0-2.3.35,4.93,4.93,0,0,0-1.69.95,4,4,0,0,0-1.06,1.43A4.24,4.24,0,0,0,697.18,459.16Z" fill="#654198"/><path d="M715.79,451.62h3.74v7.29a7.43,7.43,0,0,0,.22,1.89,3.49,3.49,0,0,0,.78,1.46,3.67,3.67,0,0,0,1.47.95,6.78,6.78,0,0,0,2.28.33,5.9,5.9,0,0,0,1.31-.14,7.21,7.21,0,0,0,1.27-.38,6.81,6.81,0,0,0,1.14-.59,5.19,5.19,0,0,0,.9-.75V451.62h3.75v14.95H728.9v-1.28a10.14,10.14,0,0,1-2.77,1.17,10.58,10.58,0,0,1-2.64.36,11.26,11.26,0,0,1-3.51-.49,6,6,0,0,1-2.4-1.44,5.67,5.67,0,0,1-1.36-2.32,10.67,10.67,0,0,1-.43-3.13Z" fill="#654198"/><path d="M736.69,459.05a7.06,7.06,0,0,1,.62-2.9,7.38,7.38,0,0,1,1.79-2.45A8.81,8.81,0,0,1,742,452a12,12,0,0,1,7.69,0,8.44,8.44,0,0,1,2.91,1.75,7.64,7.64,0,0,1,1.84,2.62,8.27,8.27,0,0,1,.64,3.23c0,.14,0,.29,0,.46s0,.31,0,.45H740.87a3.46,3.46,0,0,0,.78,1.23,4.8,4.8,0,0,0,1.35,1,7.2,7.2,0,0,0,1.87.62,11.38,11.38,0,0,0,2.35.22,12.4,12.4,0,0,0,2.57-.27,18.61,18.61,0,0,0,2.44-.69l1.27,2.86a14.49,14.49,0,0,1-1.49.6,11,11,0,0,1-1.57.43,14.6,14.6,0,0,1-1.71.26,18.66,18.66,0,0,1-1.88.09,14.28,14.28,0,0,1-4.41-.61,9.37,9.37,0,0,1-3.18-1.65,6.9,6.9,0,0,1-1.92-2.47A7.26,7.26,0,0,1,736.69,459.05Zm14.36-1.45a3.62,3.62,0,0,0-.62-1.16,4.38,4.38,0,0,0-1.06-.94,5.47,5.47,0,0,0-1.47-.62,6.6,6.6,0,0,0-1.83-.23,7.36,7.36,0,0,0-1.94.24,5.92,5.92,0,0,0-1.53.64,4.18,4.18,0,0,0-1.09.94,3.46,3.46,0,0,0-.64,1.13Z" fill="#654198"/><path d="M759.12,464.5a1.53,1.53,0,0,1,.16-.7,1.75,1.75,0,0,1,.44-.57,2.1,2.1,0,0,1,.69-.39,2.85,2.85,0,0,1,.91-.14,2.94,2.94,0,0,1,1,.17,2.33,2.33,0,0,1,.77.5,2.2,2.2,0,0,1,.51.8,2.89,2.89,0,0,1,.18,1.05,4.14,4.14,0,0,1-.91,2.53,7.83,7.83,0,0,1-2.63,2.15l-1.12-1.58a9,9,0,0,0,.8-.47,6.49,6.49,0,0,0,.61-.48,4.15,4.15,0,0,0,.45-.5,5.21,5.21,0,0,0,.34-.56,2.57,2.57,0,0,1-.9-.15,2.09,2.09,0,0,1-.69-.38,1.51,1.51,0,0,1-.44-.57A1.57,1.57,0,0,1,759.12,464.5Z" fill="#654198"/><path d="M779,446.79h4l12.33,6.45v-6.45h4v19.78h-4v-9.08L783,451.08v15.49h-4Z" fill="#654198"/><path d="M804.9,446.79h4L816.1,454l7.18-7.21h4v19.78h-4V452.34l-7.18,6.93-7.19-6.93v14.23h-4Z" fill="#654198"/><polygon points="506.32 461.56 340.57 459.12 506.32 456.68 506.32 461.56" fill="#654198"/><polygon points="859.68 461.56 1025.43 459.12 859.68 456.68 859.68 461.56" fill="#654198"/></svg>