<svg id="Layer_1" data-name="Layer 1" xmlns="http://www.w3.org/2000/svg" viewBox="0 0 1366 768"><rect width="683" height="768" fill="#fff"/><path d="M368.4,63.91A1.65,1.65,0,0,1,370,65.22l10.76,38a1.62,1.62,0,0,0,1.58,1.3,1.67,1.67,0,0,0,1-.36l49-31a1.53,1.53,0,0,1,1-.38,1.68,1.68,0,0,1,1.42,2.54l-25.54,45a1.68,1.68,0,0,0,1,2.49l47,15.11a1.69,1.69,0,0,1-.23,3.31l-53.67,8.55a1.71,1.71,0,0,0-1.47,1.9L404,185.15a1.75,1.75,0,0,1-1.73,2,1.54,1.54,0,0,1-1.28-.68l-23.91-30.91a1.56,1.56,0,0,0-1.33-.67,1.67,1.67,0,0,0-.79.19l-48,23.16a1.67,1.67,0,0,1-2.25-2.32l11.56-27.67c-12.71,3-21.42,6.73-35.94,6.73-8.59,0-20.29-.12-28.94-.41-1.54-.06-3.05-.08-4.53-.08-40.68,0-56.69,15.25-57.6,28.35-.58,8.29.11,21.84,6.15,34.17l28.75-14.64c3.61-1.87,7.48-4.26,11.28-4.26,9,0,18.2,1.83,22.57,10.45l19.43,42.08a226.91,226.91,0,0,1,43.84-4.2q8,0,16.1.56c125,8.76,217.5,121.92,208.74,246.91-8.38,119.6-106.27,207.51-224.33,207.51q-8,0-16.1-.56c-125-8.76-221.17-117.07-212.41-242.06,3.9-55.75,29.64-105.28,65.87-142.37L155,276c-6.22-12.25.76-28.52,12.94-34.75l22.35-13.62c-7.73-15.52-12.75-30.74-11.76-45,2.83-40.33,47-55.21,87.63-55.21,1.93,0,3.84,0,5.75.1,8,.26,16.26.53,24.39.53,14.46,0,28.44-.85,39.37-4.14l-27.2-17.6a1.68,1.68,0,0,1,.84-3.1h.13l41.08,1.21h.1a1.68,1.68,0,0,0,1.57-1.22l14.65-38a1.62,1.62,0,0,1,1.6-1.25m1.5-13.8c-6.88-1.11-14.18,6.1-16.71,13.8-2.6,7.93-11.36,29.7-11.36,29.7s-22.71-2.21-31.53-3.26c-12.42-1.48-23.19,3.54-17.38,12.83,5.27,8.43,9.76,9.46,9.15,10.62-5.69-.09-23.9-.18-29.52-.37-2.12-.07-4.22-.11-6.34-.11-60.29,0-99,30.22-104.28,68.12-.82,11.69,1.74,25.19,7.62,40.27l-9.21,4.7c-15.55,8.25-28.58,30.91-18.09,55.76,3.47,8.22,16.67,31.57,16.67,31.57a243.27,243.27,0,0,0-60.2,143.87C89.34,591.47,190.62,708,324.49,717.39c5.73.41,11.54.61,17.26.61,127.1,0,233.63-99.44,242.53-226.38A243.31,243.31,0,0,0,358.5,231.83c-5.74-.4-11.55-.6-17.26-.6a238.84,238.84,0,0,0-34.12,2.44s-11.28-21.17-14.95-28.26c-7.09-13.68-35.11-25.38-55.69-17.81-3.32,1.22-12.63,6.43-12.63,6.43-6.17-13.51,10.93-25.29,41.81-25.29,1.29,0,2.62,0,4,.07,8.15.28,17.39.59,26.52.59,4.7,0,14.16-1.49,18.36-1.68-2.45,5.39-8.88,7.62-3.42,15.21a18.25,18.25,0,0,0,24.62,6.78l37-16.63,15.95,22.12a18.18,18.18,0,0,0,14.81,7.66c9.76-.89,17.19-17,16.56-22.19L417,159l40.28-1.71.25,0,.26,0c8.58-1.33,16.28-8.58,16.69-17.25.42-5.59-6.52-14.21-14.9-16.34l-30.95-8,17.51-32.38a17.84,17.84,0,0,0,.18-18.38c-5.69-9.17-23.35-4.58-26.58-2.13-7.85,5.94-29.39,22.34-29.39,22.34l-5-22.14C383.49,54.64,374.85,50.92,369.9,50.11Z" fill="#654198"/><path d="M365.05,277.42a5.33,5.33,0,0,1-5.48-5.2,5.36,5.36,0,1,1,10.71-.24A5.33,5.33,0,0,1,365.05,277.42Z" fill="#7c68ad"/><path d="M323.4,272.18a5.36,5.36,0,0,1-5.45,5.24,5.28,5.28,0,0,1-5.25-5.4,5.35,5.35,0,1,1,10.7.16Z" fill="#7c68ad"/><path d="M439.68,337.53a5.27,5.27,0,1,1-5-5.61A5.23,5.23,0,0,1,439.68,337.53Z" fill="#7c68ad"/><path d="M248.64,342.57a5.33,5.33,0,0,1-.19-10.66,5.3,5.3,0,0,1,5.37,5.26A5.17,5.17,0,0,1,248.64,342.57Z" fill="#7c68ad"/><path d="M491,459c8.21,10.06,6.74,18.57-3.92,22.65,3.93,13.21,1.73,17.42-11.19,21.51-.27,11.45-5.61,17.56-18.55,14.67-3.77,10.4-13.87,14.24-23,5.51-10.82,7.72-17.24,6.3-23.34-5.16-14,.82-17.62-2.13-18.4-15C380,500,376.9,494.32,381,482.36c-11.34-8.09-12.28-14.15-3.58-23-7.95-11.51-7.2-16.33,3.72-24.08-4.65-11.68-1.31-17.58,11.56-20.41-.09-12.78,6-17.93,17.79-15,7.62-12.14,13.57-13.6,23.1-5.68,11.79-7.71,17.64-6.35,23.69,5.49,11.79-2.83,18.72,2.89,18.37,14.83,12.83,4,15.15,8.15,11.68,20.89C497.92,442.87,498.84,448.91,491,459Zm-56.83-12.3c-.85-1.16-1.43-1.91-2-2.68-5.71-8.25-13.88-10.84-21-6.65-7.73,4.53-11.8,16.32-8.28,24.1,5.73,12.67,14.11,23,26.05,30.46,3.88,2.43,7,2.77,10.19-.14,6.86-6.34,14.13-12.39,20.06-19.53,6.42-7.76,10.26-16.83,5-27.15-5.75-11.25-19.37-12.51-27-2.49C436.25,443.87,435.34,445.11,434.14,446.72ZM387.6,482.08c-4.7,3.39-6.48,7.23-3.66,12.07,2.64,4.55,6.58,5.36,11.63,2.82C393,492.1,390.45,487.41,387.6,482.08Zm64.77-78c1.1-6.23-1.57-10.45-6.81-11.12-4.46-.57-7.77,2.28-8.56,7.38Zm-53.59,12.77,13-10.87c-3.89-4.13-8-4.85-12.15-1.43S395.14,412.22,398.78,416.89ZM416,404.14l16-4c-1.87-5.5-5.1-8.12-10.52-6.75C416.65,394.61,414.82,398.46,416,404.14ZM386.2,439.69c-6.42.11-10.46,3-10.48,7.75s2.37,8.13,7.77,8.91Zm70.28,71.59c5,4.79,8.65,5.08,12.66,1.32,3.65-3.42,3.62-6.93-.2-11.06Zm15.75-91.13,8.44,15.22c4.45-3.15,6.3-6.8,3.85-11.46S478,418,472.23,420.15Zm-40.64,97.08c-2.69-.56-5.39-1.06-8-1.69s-5.16-1.4-8-2.19c-1.11,6,1.05,9.43,6.26,10.88C426.53,525.55,429.74,523.22,431.59,517.23Zm5.15,0-1,1.61c2.4,1.8,4.7,4.85,7.25,5.08,2.77.25,6.27-1.56,8.51-3.54,1.41-1.25,1.09-4.46,1.61-7.16Zm45.32-39.35c6.16,1.08,8.84-2.15,9.82-7.1,1.08-5.42-1-8-7.23-9.23C483.8,467,482.94,472.34,482.06,477.93Zm-.1-38.27,2.82,16.81c6.19-1.24,8.25-5.05,7.33-10.12C491.23,441.5,487.9,438.94,482,439.66Zm-9.23,57.48c6.23,1.9,10.29.32,12.34-4.41,2.17-5-.77-7.51-4.49-9.92Zm-16.19-91,13.13,10.72c3.12-4.87,3.17-9-1.24-12.45C464.35,401.3,460.43,401.73,456.54,406.18ZM411.68,511.26l-12.63-9.76c-4.61,3.8-3.21,7.62-.18,11C402.33,516.37,406.74,515.89,411.68,511.26Zm-25.32-33.37c-1.16-5.91-2.21-11.25-3.32-16.95-5.08,2.23-8.16,5.62-6.78,11.06C377.4,476.46,380.75,478.72,386.36,477.89ZM396,420c-6-1.79-10.4-.8-12.61,4.66-1.84,4.55-.14,8,4.27,10.62C390.46,430.15,393.09,425.33,396,420Z" fill="#654198"/><path d="M191.09,457.65c-6.67-8.6-5.59-15.55,4.57-22-3.22-13.58-.7-18.12,11.57-20.85,1.56-14,5.81-17.49,18.72-15.12,5.33-11.69,12.79-13.5,23.06-5.58,10.83-7.87,17.05-6.38,23.18,5.58,10.14-3.05,19.35,2,18.08,14.67,13.6,4.8,16.34,9.61,11.71,20.5,11,9.74,11.69,14.22,3.69,24.09,8.33,9.42,7.53,15.49-3.05,23,3,13.77.1,18.74-12.25,21,.89,9.6-3.9,18.08-18,15-4.53,10.27-13,14.2-23.27,5.44-10.37,7.81-17.5,6.16-23.21-5.37-13.51,1.43-17.55-1.71-18.4-14.3-13.67-6.46-15.79-10.5-11.87-19.72-3.19-4.62-7.32-8.18-8.06-12.34S189.59,463,191.09,457.65Zm57.9-10.9c-1.19-1.57-2.1-2.82-3.05-4-7.9-10.16-21-9-26.89,2.47-3.83,7.45-3.16,14.91,1.09,21.72,6.61,10.6,14.61,20.09,26,25.83,1.88.95,5.26,1,6.93-.05A71.54,71.54,0,0,0,280,462.11c3.81-8.29-.14-20.25-8.06-24.66-7.63-4.24-15.45-1.63-21.34,7.12C250.18,445.19,249.71,445.77,249,446.75ZM230.92,404.2l15.7-4.07c-2.27-6.06-5.6-8.12-10.32-6.7C231.4,394.91,229.46,398.65,230.92,404.2Zm53.43,12.71c3.38-5.91,2.88-10.06-1.46-12.83s-8.17-2.14-11.37,2.17Zm-33.16-16.66,16.17,3.83c.71-6.24-1.52-10.19-6.52-10.92S252.65,395,251.19,400.25Zm48.44,56.65c5.63-2.09,8.48-5.24,7.49-10.3s-4.49-7.57-10.23-7.09C297.82,445.38,298.68,450.82,299.63,456.9Zm-73-50.76c-5.24-4.56-9.17-4.81-12.84-.91-3.49,3.7-3.52,7.54-.19,11.58ZM198.33,456.7l2.77-17.18c-5.52-.44-9.08,1.59-10.1,6.62C189.94,451.39,192.25,455,198.33,456.7Zm15.61,44.64c-3.63,4.8-3.39,8.65.59,11.81s7.65,2.63,11.89-2Zm-3.27-80.93c-6.6-2.09-10.29-.86-12.29,4s-.27,8.23,4.19,10.8Zm73.63,80.26-13,11.13c4.71,4.22,9,4.42,12.86.67C287.81,508.93,288,504.82,284.3,500.67ZM251,517.5c2,5.52,5.34,8,10.71,6.6,5-1.3,6.64-4.76,5.36-10.58Zm-4.4-.15-16.1-3.83c-.58,6.48,1.75,10.25,6.85,10.84S245.61,522.71,246.59,517.35Zm-44.3-34.91c-3.42,3.56-7,6.38-3.37,11.47,2.88,4,6.22,5.79,11.63,3.14C207.79,492.17,205.2,487.6,202.29,482.44Zm94.52-4.18c6.1.47,9.74-2.45,10.33-7.32.58-4.7-2.1-8.54-7.16-9.83Zm-98.42-17c-6.11,1.62-8.45,4.69-7.31,9.83,1.07,4.85,3.67,7.7,9.41,6.72C199.76,472.06,199.08,466.65,198.39,461.24Zm88.83,36.33c6.54,1.36,11.58-.55,12.84-4.94s-.34-7.57-4.46-9.58Zm-.14-77.5,8.47,15.36c4.38-3.05,6.15-6.64,3.88-11.39C297,419,292.87,418.1,287.08,420.07Z" fill="#654198"/><path d="M386,299c-.94,9.43.65,17.43-5.82,23.73l23.24,19.9-23.09,19.79c6.21,6.22,4.86,14.37,5.55,22.67-8-.85-16.11,1.08-22.59-5.63L343.44,402.6l-18.55-21.5-23.81,5.07c.41-9.11-.93-17.08,5.48-23.69l-23.15-19.86L305,324.08c-1.71-8.08-3.29-15.55-5-23.85,9.3.27,17.22-.59,23.71,5.4l19.76-23.1,18.55,21.62ZM398,342.51c-5.86-5.11-11.05-10.39-17-14.62-8.48-6-21.49-7.14-29.37,3,8.23,9.82,8.22,12.61,0,23.91,9.95,9.2,22.07,9.43,32.32.5C388.46,351.26,392.91,347.08,398,342.51Zm-109,.13c5,4.52,9.74,9,14.68,13.14,10.24,8.67,23.62,8,31.08-.91-2.1-4.09-5.7-7.95-5.6-11.71.12-4.36,3.49-8.63,5.6-13.25-8.86-10.25-23.57-7.2-31.88.08C298.25,334,293.82,338.19,289,342.64Zm35.47-23.26,15.31,9.41c1.74-.76,5.9-.3,7.39-.08l15.39-9.36c.42-14.56-11.74-21.38-19.22-31.67C335.78,298.31,323.47,305.18,324.43,319.38Zm19,78.14c7.64-10.61,19.87-17.48,18.9-32.14-2.51-1.27-5.15-2.16-7.24-3.77-4.08-3.16-8.37-5.33-13.64-5a7.6,7.6,0,0,0-3.41.62c-4.53,2.8-8.95,5.79-13.67,8.88C323.68,380.16,335.77,387,343.44,397.52Zm10.65-54.73c.11-5.53-4.93-10.7-10.52-10.79a11,11,0,0,0-10.84,10.48c-.21,5.51,4.82,10.61,10.53,10.68A10.76,10.76,0,0,0,354.09,342.79ZM382,304.13c-14.74-1.59-19,2.88-15.48,15.73C379.77,322.69,382.82,319.66,382,304.13Zm-77.08,0c-1.15,15.29,3.38,19.61,15.68,15.3C323.34,306.59,319.26,302.5,304.89,304.14Zm61.4,61.37c-3,13,2.49,18.13,15.71,15.13C382.62,365.32,380.08,362.8,366.29,365.51Zm-45.79,0c-13.32-2.55-17.58,1.9-15.33,15.52C320,382.32,323.43,378.89,320.5,365.5Z" fill="#c23790"/><path d="M313.83,414.88a5.56,5.56,0,0,1,5.67-5.68,5.83,5.83,0,0,1,5.68,5.75,5.68,5.68,0,0,1-5.74,5.66A5.6,5.6,0,0,1,313.83,414.88Z" fill="#7c68ad"/><path d="M271.16,141.35a3.32,3.32,0,0,1,3.4-3.4,3.49,3.49,0,0,1,3.41,3.44,3.42,3.42,0,0,1-3.45,3.4A3.36,3.36,0,0,1,271.16,141.35Z" fill="#7c68ad"/><path d="M369.2,414.85a5.66,5.66,0,1,1-11.31.17,5.66,5.66,0,1,1,11.31-.17Z" fill="#7c68ad"/><path d="M218.26,153.09a4.52,4.52,0,1,1-9,.14,4.52,4.52,0,1,1,9-.14Z" fill="#7c68ad"/><path d="M504.81,348.71a5.65,5.65,0,1,1-11.3.18,5.67,5.67,0,0,1,5.3-5.78A5.61,5.61,0,0,1,504.81,348.71Z" fill="#7c68ad"/><path d="M178.21,348.73a5.66,5.66,0,1,0,11.31.18,5.68,5.68,0,0,0-5.31-5.78A5.62,5.62,0,0,0,178.21,348.73Z" fill="#7c68ad"/><path d="M237.83,269.23a9.43,9.43,0,1,0-.75,18.85,9.19,9.19,0,0,0,9.55-9.3A9.37,9.37,0,0,0,237.83,269.23Zm-.67,13a3.46,3.46,0,0,1-3.4-3.57,3.51,3.51,0,0,1,3.73-3.49,3.6,3.6,0,0,1,3.24,3.57A3.53,3.53,0,0,1,237.16,282.19Z" fill="#7c68ad"/><path d="M347.11,441.37a5.6,5.6,0,1,1-11.19,0,5.6,5.6,0,1,1,11.19,0Z" fill="#7c68ad"/><path d="M336.23,136.7a2.24,2.24,0,1,1-4.47,0,2.24,2.24,0,1,1,4.47,0Z" fill="#7c68ad"/><path d="M247.2,143.55a3.92,3.92,0,1,1-7.84,0,3.92,3.92,0,1,1,7.84,0Z" fill="#7c68ad"/><path d="M341.49,466.55c2.94,0,5.57,2.45,5.6,5.15S344,478,341.81,478c-3,0-5.95-3.15-5.88-6.25A5.56,5.56,0,0,1,341.49,466.55Z" fill="#7c68ad"/><path d="M304.85,138.51a2.81,2.81,0,0,1,2.8,2.58c0,1.29-1.54,3.13-2.64,3.14a3.24,3.24,0,0,1-2.94-3.13A2.79,2.79,0,0,1,304.85,138.51Z" fill="#7c68ad"/><path d="M313.55,543.92c.23-4.42,2-9.19,4.35-13.66,4.94-9.33,10.17-18.51,15.25-27.77,1.74-3.17,3.33-6.43,5.09-9.59s4.83-3.06,6.53,0c6.25,11.28,12.66,22.49,18.61,33.94a80.25,80.25,0,0,1,5.63,15,12,12,0,0,1-.54,7.24c-2.94,7.28-8.22,9-15.1,5.1a79,79,0,0,1-8-5.48c-3.37-2.51-4.31-2.51-7.76,0a71.29,71.29,0,0,1-8.61,5.8C321.11,558.6,313.47,553.64,313.55,543.92Zm49.85-4.3c-.7-2.45-1-5.1-2.17-7.32-5.68-11-11.54-21.89-17.44-32.77-1.14-2.09-3.63-1.82-4.87.42-4.88,8.77-9.81,17.52-14.53,26.38-2.3,4.33-4.47,8.81-4.46,13.89,0,6.48,5.93,10.25,11.63,7.33a48.17,48.17,0,0,0,7.32-4.9c1.88-1.44,3.42-1.44,5.26,0a50.16,50.16,0,0,0,6.51,4.53C357,550.76,363.09,547,363.4,539.62Z" fill="#c23790"/><path d="M169.49,518.74a5.81,5.81,0,1,1-11.31-2.66,5.81,5.81,0,0,1,11.31,2.66Z" fill="#7c68ad"/><path d="M156.87,505.47a3.75,3.75,0,0,1-3-4.57,3.7,3.7,0,0,1,4.49-3,3.82,3.82,0,0,1,3.09,4.69A3.89,3.89,0,0,1,156.87,505.47Z" fill="#7c68ad"/><path d="M155,489.79a2.58,2.58,0,0,1-2-3.14,2.53,2.53,0,0,1,3.09-2.07,2.61,2.61,0,0,1,2.11,3.21A2.67,2.67,0,0,1,155,489.79Z" fill="#7c68ad"/><path d="M252.15,553.36a1.82,1.82,0,0,1-1.43-2.21,1.78,1.78,0,0,1,2.17-1.46,1.83,1.83,0,0,1,1.49,2.26A1.87,1.87,0,0,1,252.15,553.36Z" fill="#7c68ad"/><path d="M268,546.66a1.49,1.49,0,0,1,.6-2.92,1.47,1.47,0,0,1,1.18,1.8A1.5,1.5,0,0,1,268,546.66Z" fill="#7c68ad"/><path d="M198.38,587.21a5.81,5.81,0,0,1-7,4.43,5.86,5.86,0,1,1,7-4.43Z" fill="#7c68ad"/><path d="M210,584.37a2.56,2.56,0,0,1-2-3.14,2.53,2.53,0,0,1,3.08-2.07,2.62,2.62,0,0,1,2.12,3.22A2.68,2.68,0,0,1,210,584.37Z" fill="#7c68ad"/><path d="M514.72,518.74a5.81,5.81,0,0,0,7,4.43,5.86,5.86,0,1,0-7-4.43Z" fill="#7c68ad"/><path d="M527.35,505.47a3.75,3.75,0,0,0,2.94-4.57,3.69,3.69,0,0,0-4.49-3,3.81,3.81,0,0,0-3.08,4.69A3.89,3.89,0,0,0,527.35,505.47Z" fill="#7c68ad"/><path d="M529.21,489.79a2.58,2.58,0,0,0,2-3.14,2.52,2.52,0,0,0-3.08-2.07,2.62,2.62,0,0,0-2.12,3.21A2.68,2.68,0,0,0,529.21,489.79Z" fill="#7c68ad"/><path d="M432.07,553.36a1.81,1.81,0,0,0,1.42-2.21,1.77,1.77,0,0,0-2.17-1.46,1.84,1.84,0,0,0-1.49,2.26A1.88,1.88,0,0,0,432.07,553.36Z" fill="#7c68ad"/><path d="M416.2,546.66a1.44,1.44,0,0,0,1.13-1.76,1.41,1.41,0,0,0-1.72-1.16,1.46,1.46,0,0,0-1.18,1.8A1.49,1.49,0,0,0,416.2,546.66Z" fill="#7c68ad"/><path d="M485.84,587.21a5.81,5.81,0,1,0,11.31-2.66,5.81,5.81,0,0,0-11.31,2.66Z" fill="#7c68ad"/><path d="M474.25,584.37a2.57,2.57,0,0,0,2-3.14,2.53,2.53,0,0,0-3.08-2.07,2.62,2.62,0,0,0-2.12,3.22A2.67,2.67,0,0,0,474.25,584.37Z" fill="#7c68ad"/><path d="M341.72,682.29a23.21,23.21,0,0,1-1.62,2.81,6.13,6.13,0,0,1-10.21-.51,8.72,8.72,0,0,1-.41-9,29.62,29.62,0,0,1,11.58-12.06,1.05,1.05,0,0,1,.9,0,29.81,29.81,0,0,1,11.73,11.68,8.75,8.75,0,0,1,0,8.91c-2.61,4.57-8.49,4.54-11.12,0C342.24,683.46,342,682.83,341.72,682.29Z" fill="#c23790"/><path d="M261,327.59a2.3,2.3,0,0,0,2.2-2.55,2.39,2.39,0,0,0-2.78-2.33,2.44,2.44,0,0,0-2.23,2.74A2.39,2.39,0,0,0,261,327.59Z" fill="#7c68ad"/><path d="M422.57,327.59a2.3,2.3,0,0,0,2.2-2.55,2.38,2.38,0,0,0-2.78-2.33,2.44,2.44,0,0,0-2.22,2.74A2.37,2.37,0,0,0,422.57,327.59Z" fill="#7c68ad"/><path d="M195.86,199.68c2.94,0,5.57,2.45,5.6,5.15s-3.08,6.28-5.28,6.28c-3,0-6-3.15-5.88-6.25A5.56,5.56,0,0,1,195.86,199.68Z" fill="#7c68ad"/><path d="M192.1,174.87a5,5,0,0,1,5.09-5.11,5.25,5.25,0,0,1,5.12,5.17,5.12,5.12,0,0,1-5.17,5.1A5,5,0,0,1,192.1,174.87Z" fill="#7c68ad"/><path d="M347.63,131.16a9.67,9.67,0,0,0,7.06-3.58,21.81,21.81,0,0,0,3.49-6.36c.49-1.26,1-2.52,1.44-3.79a13,13,0,0,1,6.65-7.13,10.27,10.27,0,0,0,1.83-1.19,3.15,3.15,0,0,0-.79-5.38,6.16,6.16,0,0,0-6.63,1,12.2,12.2,0,0,0-4,6.66c-1,3.67-1.75,7.37-2.71,11a24.15,24.15,0,0,1-1.58,4.28A7.81,7.81,0,0,1,347.63,131.16Z" fill="#d95b2a"/><path d="M347.39,138.55a13.71,13.71,0,0,1,9.05-2.72,108.45,108.45,0,0,1,15.16,2c7.21,1.6,13.88.95,20.19-3a17.13,17.13,0,0,1,3-1.4,4.68,4.68,0,0,1,5.08,1.08c1.29,1.21,1.33,2.77.89,4.41-1.28,4.87-5.43,7.86-11.49,8.14-4.65.21-9-1.19-13.35-2.64-5.36-1.79-10.69-3.69-16.06-5.48A20.7,20.7,0,0,0,347.39,138.55Z" fill="#d95b2a"/><path d="M357.56,131.9c9.32-1.31,18-4,25.64-9.33,4.35-3,8.12-6.91,12.1-10.46,1.47-1.31,2.72-2.85,4.19-4.15a6,6,0,0,1,2.82-1.61,6.63,6.63,0,0,1,4.09.63c.48.31.21,2.53-.34,3.55-2.8,5.2-7.14,8.92-12.11,12-10,6.21-20.73,10.21-32.75,9.75C360,132.22,358.77,132,357.56,131.9Z" fill="#d95b2a"/><path d="M347.11,140.5a15.68,15.68,0,0,1,4,8.24,18.2,18.2,0,0,1-1,9,9.46,9.46,0,0,1-3.51,4.5c-1,.7-1.86.72-2.48.15a1.86,1.86,0,0,1-.26-2.63c.71-1.19,1.59-2.27,2.33-3.43a15.12,15.12,0,0,0,1.17-15A8.34,8.34,0,0,1,347.11,140.5Z" fill="#d95b2a"/><path d="M344.5,128.88a15.78,15.78,0,0,0,1.54-9,18.05,18.05,0,0,0-3.45-8.41A9.4,9.4,0,0,0,338,108.1c-1.14-.4-2-.18-2.42.55a1.85,1.85,0,0,0,.48,2.6c1,.94,2.16,1.73,3.2,2.64a15.11,15.11,0,0,1,5.3,14.12A8.7,8.7,0,0,0,344.5,128.88Z" fill="#d95b2a"/><path d="M341.48,651.3c-7.36,10-23.33,9.47-29.37-3.38a16.62,16.62,0,0,1-15.28,3.58c-5.72-1.39-9.55-5-12-10.65A16.7,16.7,0,0,1,269,643.7c-5.57-1.73-9.18-5.67-11.4-11-11.08,6-22.78,2-26.4-9a21.11,21.11,0,0,1-.78-6.83c.19-11.69.53-23.37.79-35,.17-7.33,5.17-12.45,12.53-12.65a18.49,18.49,0,0,1,15,6.65c3-5,7.25-7.7,13-7.73,5.45,0,10,2.07,14,6.17,2.78-5,6.76-8,12.48-8.39a17.84,17.84,0,0,1,14.49,5.44c3-5.66,7.45-8.86,13.81-9.14,6.16-.27,11,2.09,14.93,7.13,3.87-5,8.8-7.5,15-7.11s10.75,3.23,13.62,9.15a18.13,18.13,0,0,1,14.41-5.48A14.25,14.25,0,0,1,397,574.11c9.54-8.8,21.29-7.65,27.19,1.52a18.92,18.92,0,0,1,14.15-6.47c8,0,13.18,5.09,13.35,13.14.25,11.47.21,23,.91,34.41.78,12.81-10.9,20.58-20.33,18.82-2.32-.43-4.51-1.54-7.11-2.46a17.65,17.65,0,0,1-11.42,10.65,16,16,0,0,1-15.44-2.82c-5.94,12.62-19.38,13.78-27.61,7.05-2.67,5.91-7.17,9.48-13.63,10.22S345.52,656.54,341.48,651.3Zm3.38-39.65h20.79c0-12.17.15-23.83-.07-35.48-.1-5.17-4.7-8.84-10.1-8.8s-10.47,3.84-10.55,8.48C344.72,587.82,344.86,599.8,344.86,611.65Zm-27.64.14H338c0-11.94.12-23.81-.07-35.67-.08-5-5.22-8.8-11-8.73a9.55,9.55,0,0,0-9.77,9.15c-.14,3.47,0,6.94,0,10.41ZM392.46,610c0-10.92.21-21.44-.18-31.92-.08-1.94-2.17-4.39-4-5.55-6.68-4.21-16.9,1.25-16.47,9.5.42,8,.19,16,.23,24,0,5.29,0,5.32,5.28,5S387.55,610.31,392.46,610Zm-81.52,1.46c0-10.62.2-20.69-.07-30.76-.17-6.41-7.19-10.92-13.73-9.28-4,1-6.63,3.41-6.71,7.3-.22,10.28-.08,20.56-.08,31.26Zm33.87,6.9c0,8.4,0,16.26,0,24.13,0,6.42,4,10.65,10.27,10.54,6.09-.11,11.34-4.64,10.81-10.61-.22-2.5,0-5,0-7.56v-16.5Zm-27.75,0c0,8.74-.15,17.35.06,26,.11,4.85,5.51,8.92,11,8.77s9.84-4.1,9.91-9.34c.09-6.2,0-12.4,0-18.6v-6.79Zm102.42-11.42c0-9.3.12-18.13-.06-26.94-.06-3.08-2.95-5.7-6.19-6.31-7-1.34-14.73,3.71-14.32,11.48.28,5.57.21,11.15.28,16.73,0,2.37,0,4.74,0,7.45Zm-135.64,2.43c0-8.23,0-16,0-23.74a22,22,0,0,0-.13-3.15c-1.06-7.28-11.52-11.73-17.33-7.18-1.47,1.15-2.22,3.38-2.95,5.26a10.82,10.82,0,0,0-.21,3.75c0,7.44,0,14.87,0,22.62Zm88.27,8.43c0,6.34,0,12.42,0,18.5s2.59,9.44,8.21,10.41c4.91.85,11-2.52,12.33-7.2a23.37,23.37,0,0,0,.46-6.22c.05-5.63,0-11.26,0-17Zm-61.37,0-21.05-1.49c0,6.55.14,12.83-.05,19.1a10.3,10.3,0,0,0,5.8,10c6.67,3.69,14.86.12,15.22-6.76S310.74,625,310.74,617.75Zm115.1-11.69c7.11-1.23,13.31-2.26,19.48-3.44a2.45,2.45,0,0,0,1.44-1.82c0-6.41-.09-12.82-.33-19.23a6.87,6.87,0,0,0-4.95-6.62c-6.54-2.24-15.09,2.91-15.54,9.8S425.84,598.57,425.84,606.06Zm-169.61-.13a6.08,6.08,0,0,0,.43-1.27c.15-5.77.35-11.55.4-17.32.07-6.87-3.85-11.46-10.64-12.67-5.93-1.06-9.88,2.11-10,8.12s-.27,11.76-.24,17.65a2.9,2.9,0,0,0,1.66,2.19C243.87,603.83,250,604.83,256.23,605.93Zm164.32,7.28c-7.18.8-13.53,1.45-19.86,2.33-.58.09-1.35,1.67-1.36,2.57-.07,4.21,0,8.42.2,12.63.18,4.76,2.74,7.65,7.33,8.47,6.52,1.16,13.59-4.63,13.67-11.26C420.6,623.23,420.55,618.51,420.55,613.21Zm-158.18,0v13.08c0,.52,0,1.05,0,1.57A12.07,12.07,0,0,0,275,639.3c4.69-.24,8-3.23,8.28-7.87s.31-9.26.26-13.89a2.67,2.67,0,0,0-1.58-2.06C275.71,614.64,269.44,614,262.37,613.21Zm164-.9v9a20.14,20.14,0,0,0,.06,2.2,7.8,7.8,0,0,0,6.75,6.89c5.85.93,12.89-3.61,13.77-9.48.58-3.85.11-7.87.11-12.07Zm-190.74-3.48c0,3.31,0,6.22,0,9.13a12.44,12.44,0,0,0,10.68,12.44c5.14.77,9.55-1.95,10-6.66.37-3.72.07-7.5.07-11.41Z" fill="#654198"/><path d="M206.12,357.21a18.47,18.47,0,0,1,12.22-3.66,144.84,144.84,0,0,1,20.46,2.69c9.73,2.17,18.74,1.28,27.26-4a22.55,22.55,0,0,1,4-1.88,6.28,6.28,0,0,1,6.85,1.45c1.74,1.64,1.79,3.74,1.21,6-1.74,6.57-7.34,10.6-15.51,11-6.29.29-12.18-1.6-18-3.56-7.24-2.43-14.43-5-21.67-7.41A28.14,28.14,0,0,0,206.12,357.21Z" fill="#dd6faa"/><path d="M476.9,357.19c-8.18-2.49-15.78,0-23.38,2.54-8.26,2.75-16.49,5.59-24.82,8.13a23.79,23.79,0,0,1-13.88-.07,13.73,13.73,0,0,1-10-10.21c-1.28-4.8,2.49-8.62,7.32-7.44a12.7,12.7,0,0,1,3.86,1.59c9.47,6.19,19.55,6.65,30.32,4.14,6.19-1.44,12.65-1.88,19-2.31C469.47,353.28,473.35,354.88,476.9,357.19Z" fill="#dd6faa"/><path d="M413.17,292.85c10.39.07,18.46,5.24,26,11.63a61.63,61.63,0,0,1,17.59,25.21,5.13,5.13,0,0,1,.52,1.64,11.68,11.68,0,0,1-.35,2.17,8,8,0,0,1-1.58-1.2c-2.31-3-4.38-6.18-6.87-9-8.48-9.59-19.39-14.93-31.67-17.85a55.94,55.94,0,0,1-9.11-2.94c-2.93-1.25-3.77-3.11-3.23-5.92s2.79-3.18,5-3.51C410.7,292.9,411.94,292.92,413.17,292.85Z" fill="#dd6faa"/><path d="M270.7,292.73c1.54.24,3.1.38,4.6.75a3.78,3.78,0,0,1,3.24,3.28c.24,2.09-.05,4.21-2.13,5.1a62,62,0,0,1-10.17,3.57c-16.38,3.79-29.46,12.22-38.5,26.6-.39.62-1.23,1-1.86,1.43a6.86,6.86,0,0,1-.08-2.46c5.85-16.26,16.49-28.35,32.14-35.64,3.84-1.79,8.41-2,12.64-2.94Z" fill="#dd6faa"/><path d="M534,467.92c-.58-8.38-.33-17.45-2-26.16-3.62-19-14.56-33.48-30.2-44.58a94.78,94.78,0,0,1-11.23-8.87c-4.06-3.93-4.32-7.57-1.79-11.71,1.89-3.08,6-4.18,10.93-2.54,7.64,2.54,14.76,6.22,19.92,12.5,19.38,23.6,25.85,49.81,15.25,79.25C534.54,466.76,534.09,467.68,534,467.92Z" fill="#dd6faa"/><path d="M151.52,468.75c-6.18-14.21-8.09-27.85-5.79-42.14s8.41-27.09,17.28-38.52c5.7-7.34,13.24-12.07,22-14.84,5.36-1.7,9.24-.52,11.15,2.92,2.4,4.33,1.87,8.1-2.61,12-4.85,4.2-10.3,7.71-15.26,11.79-20.4,16.8-29.45,38.35-26.77,64.73C151.61,465.66,151.52,466.66,151.52,468.75Z" fill="#dd6faa"/><path d="M243.46,554.2c-9.78,5.74-19.52,8.33-30.11,7.91a61.43,61.43,0,0,1-29.5-9.17,32,32,0,0,1-12.72-14.68c-1.7-3.74-1.19-6.66,1.15-8.35,2.93-2.12,5.71-2.07,8.94.84,3.48,3.16,6.5,6.81,9.91,10.06,14,13.34,30.45,18,49.38,13.76C241.21,554.41,242,554.38,243.46,554.2Z" fill="#dd6faa"/><path d="M160.14,563a16.49,16.49,0,0,1,11.32,7.44,36.82,36.82,0,0,1,4.71,11.48c.6,2.24,1.18,4.48,1.72,6.74,1.41,5.88,5.05,10.09,9.94,13.4a16.82,16.82,0,0,1,2.88,2.37,5.4,5.4,0,0,1-2.38,9,10.56,10.56,0,0,1-11.08-3,21,21,0,0,1-5.57-12.11c-.94-6.41-1.55-12.87-2.48-19.28a42.39,42.39,0,0,0-1.87-7.6C166.07,567.73,163.88,564.68,160.14,563Z" fill="#dd6faa"/><path d="M440.75,554.2c9.78,5.74,19.53,8.33,30.11,7.91a61.44,61.44,0,0,0,29.51-9.17,32,32,0,0,0,12.71-14.68c1.71-3.74,1.19-6.66-1.14-8.35-2.93-2.12-5.72-2.07-8.94.84-3.48,3.16-6.51,6.81-9.91,10.06-14,13.34-30.45,18-49.39,13.76C443,554.41,442.27,554.38,440.75,554.2Z" fill="#dd6faa"/><path d="M524.08,563a16.49,16.49,0,0,0-11.32,7.44A37.09,37.09,0,0,0,508,581.94c-.59,2.24-1.18,4.48-1.72,6.74-1.41,5.88-5.05,10.09-9.94,13.4a16.82,16.82,0,0,0-2.88,2.37,5.4,5.4,0,0,0,2.38,9,10.55,10.55,0,0,0,11.08-3,20.9,20.9,0,0,0,5.57-12.11c.94-6.41,1.56-12.87,2.48-19.28a43.26,43.26,0,0,1,1.87-7.6C518.15,567.73,520.34,564.68,524.08,563Z" fill="#dd6faa"/><path d="M228.6,263.84c-4.56-4-9.26-7.82-13.65-12-4.86-4.61-9.54-9.45-12.9-15.34-1.84-3.21-3.58-6.47-3.72-10.33a5.33,5.33,0,0,1,7.6-5.17,16.15,16.15,0,0,1,7.87,7.55c3.49,6.86,6.71,13.87,9.83,20.91,2,4.56,3.69,9.28,5.52,13.93Z" fill="#dd6faa"/><path d="M220,279.6c-5-.6-9.75-1.56-14.54-1.66-6.87-.15-13.76.36-20.64.5a27.56,27.56,0,0,1-5.95-.44c-2.17-.44-4-1.6-4.37-4.07a6,6,0,0,1,2.8-6c4-2.82,8.6-3.28,13.28-3.27,11,0,19.9,4.87,27.48,12.51.49.49.95,1,1.4,1.52A8.73,8.73,0,0,1,220,279.6Z" fill="#dd6faa"/><path d="M247,263.56c-3.64-9.47-4.79-18.87-1.49-28.38,2.08-6,5-11.54,10.88-14.81a8.2,8.2,0,0,1,4.11-.93c2.89.09,4.8,2.06,4.46,4.91a15,15,0,0,1-2,6.52,111.77,111.77,0,0,0-15.52,32.05A4.46,4.46,0,0,1,247,263.56Z" fill="#dd6faa"/><path d="M222.22,268.46c-2.46-1.2-4.94-2.36-7.38-3.6-4.86-2.46-10.2-3-15.45-3.84a15.81,15.81,0,0,1-8.17-4c-2.33-2.08-2-4.53.74-6.1a9.52,9.52,0,0,1,8.19-.52c7.61,2.6,14.35,6.61,19.49,12.92a40,40,0,0,1,3,4.83Z" fill="#dd6faa"/><path d="M236.14,260.63a24.86,24.86,0,0,1-5.39-12c-1.24-6.43-1.65-12.89.59-19.14a10.24,10.24,0,0,1,3.76-4.46c2.5-1.75,4.77-.56,5.44,2.45a16.14,16.14,0,0,1-.69,10c-3.09,7.1-3.7,14.54-3.67,22.12C236.18,259.83,236.17,260,236.14,260.63Z" fill="#dd6faa"/><path d="M254.89,269.19a6.56,6.56,0,0,1,0-1.25c1.91-9.52,6.91-16.66,16-20.56,2.74-1.17,5.19-.82,6.65.79a4.72,4.72,0,0,1-1.15,7.29A75.94,75.94,0,0,1,268,260a35.21,35.21,0,0,0-12.34,8.67A6.66,6.66,0,0,1,254.89,269.19Z" fill="#dd6faa"/><path d="M221.31,289.55a33.89,33.89,0,0,0-12.68,5.87c-3.07,2.15-6.06,4.43-9.23,6.42a4.74,4.74,0,0,1-7.22-2.79c-.6-2.38.63-4.22,2.33-5.57,5.14-4.09,10.87-6.75,17.64-6.1,3.07.29,6.12.85,9.17,1.29Z" fill="#dd6faa"/><path d="M305.77,673.93a57.2,57.2,0,0,1-22.85,2.13,87.06,87.06,0,0,1-40.72-14.35c-3.94-2.66-7.18-6.46-10.34-10.09-1-1.14-1.53-4.3-.8-5,1.19-1.14,4-1.91,5.41-1.27a38.44,38.44,0,0,1,10.18,6.37q24.46,22.56,57.59,21.93A12.36,12.36,0,0,1,305.77,673.93Z" fill="#dd6faa"/><path d="M378.35,673.93a57.2,57.2,0,0,0,22.85,2.13,87,87,0,0,0,40.72-14.35c3.94-2.66,7.18-6.46,10.34-10.09,1-1.14,1.53-4.3.81-5-1.2-1.14-4-1.91-5.41-1.27a38.12,38.12,0,0,0-10.18,6.37c-16.32,15-35.47,22.31-57.6,21.93A13.08,13.08,0,0,0,378.35,673.93Z" fill="#dd6faa"/><path d="M211.13,619.73a9.43,9.43,0,1,0-.75,18.84,9.18,9.18,0,0,0,9.55-9.3A9.35,9.35,0,0,0,211.13,619.73Zm-.66,12.95a3.46,3.46,0,0,1-3.41-3.57,3.52,3.52,0,0,1,3.74-3.49,3.61,3.61,0,0,1,3.24,3.57A3.54,3.54,0,0,1,210.47,632.68Z" fill="#7c68ad"/><path d="M474.25,619.73a9.43,9.43,0,1,0-.75,18.84,9.18,9.18,0,0,0,9.55-9.3A9.35,9.35,0,0,0,474.25,619.73Zm-.67,12.95a3.45,3.45,0,0,1-3.4-3.57,3.52,3.52,0,0,1,3.74-3.49,3.6,3.6,0,0,1,3.23,3.57A3.52,3.52,0,0,1,473.58,632.68Z" fill="#7c68ad"/><rect x="683" width="683" height="768" fill="#654198"/><path d="M1041.5,231.83c-5.74-.4-11.55-.6-17.26-.6a238.84,238.84,0,0,0-34.12,2.44s-11.28-21.17-15-28.26c-7.09-13.68-35.11-25.38-55.69-17.81-3.32,1.22-12.63,6.43-12.63,6.43-6.17-13.51,10.93-25.29,41.81-25.29,1.29,0,2.62,0,4,.07,8.15.28,17.39.59,26.52.59,4.7,0,14.16-1.49,18.36-1.68-2.44,5.39-8.88,7.62-3.42,15.21a18.25,18.25,0,0,0,24.62,6.78l37-16.63,15.95,22.12a18.18,18.18,0,0,0,14.81,7.66c9.76-.89,17.19-17,16.56-22.19L1100,159l40.28-1.71.25,0,.26,0c8.58-1.33,16.28-8.58,16.69-17.25.42-5.59-6.52-14.21-14.9-16.34l-30.95-8,17.51-32.38a17.84,17.84,0,0,0,.18-18.38c-5.69-9.17-23.35-4.58-26.58-2.13-7.85,5.94-29.39,22.34-29.39,22.34l-5-22.14c-1.86-8.3-10.51-12-15.46-12.83-6.88-1.11-14.18,6.1-16.71,13.8-2.6,7.93-11.36,29.7-11.36,29.7s-22.71-2.21-31.53-3.26c-12.42-1.48-23.19,3.54-17.38,12.83,5.27,8.43,9.76,9.46,9.15,10.62-5.69-.09-23.9-.18-29.52-.37-2.12-.07-4.22-.11-6.34-.11-60.29,0-99,30.22-104.28,68.12-.82,11.69,1.74,25.19,7.62,40.27l-9.21,4.7c-15.55,8.25-28.58,30.91-18.09,55.76,3.47,8.22,16.67,31.57,16.67,31.57a243.27,243.27,0,0,0-60.2,143.87C772.34,591.48,873.62,708,1007.49,717.4c5.73.4,11.54.6,17.26.6,127.1,0,233.63-99.44,242.53-226.38A243.31,243.31,0,0,0,1041.5,231.83Z" fill="#fff" stroke="#fff" stroke-miterlimit="10" stroke-width="13.26"/><path d="M1051.4,63.91a1.64,1.64,0,0,1,1.63,1.31l10.77,38a1.62,1.62,0,0,0,1.58,1.3,1.66,1.66,0,0,0,1-.37l49-31a1.58,1.58,0,0,1,1-.37,1.68,1.68,0,0,1,1.42,2.54l-25.54,45a1.67,1.67,0,0,0,1,2.49l47,15.11a1.69,1.69,0,0,1-.23,3.31l-53.67,8.55a1.7,1.7,0,0,0-1.46,1.9l2.07,33.48a1.74,1.74,0,0,1-1.72,2,1.53,1.53,0,0,1-1.28-.68l-23.91-30.91a1.56,1.56,0,0,0-1.33-.67,1.69,1.69,0,0,0-.8.19l-48,23.16a1.67,1.67,0,0,1-2.25-2.32l11.57-27.67c-12.71,3-21.43,6.73-35.94,6.73-8.59,0-20.3-.12-28.94-.42-1.54-.05-3.05-.07-4.53-.07-40.68,0-56.69,15.25-57.61,28.35-.58,8.29.12,21.84,6.16,34.16l28.75-14.63c3.61-1.87,7.47-4.26,11.28-4.26,9,0,18.19,1.83,22.57,10.45l19.42,42.08a226.3,226.3,0,0,1,43.85-4.21q8,0,16.1.57c125,8.76,217.49,121.91,208.73,246.9-8.37,119.59-106.26,207.51-224.32,207.51-5.34,0-10.7-.19-16.11-.56-125-8.76-221.16-117.07-212.4-242.06,3.9-55.75,29.64-105.28,65.87-142.36L838,276c-6.22-12.26.76-28.53,12.94-34.75l22.35-13.62c-7.73-15.52-12.76-30.74-11.76-45,2.83-40.33,47-55.2,87.63-55.2,1.93,0,3.84,0,5.75.1,8,.26,16.26.53,24.39.53,14.46,0,28.43-.85,39.37-4.14l-27.2-17.6a1.68,1.68,0,0,1,.83-3.1h.14l41.08,1.21h.1a1.68,1.68,0,0,0,1.56-1.22l14.65-38a1.62,1.62,0,0,1,1.61-1.25m1.49-13.8c-6.88-1.11-14.17,6.1-16.7,13.8-2.6,7.93-11.37,29.7-11.37,29.7s-22.71-2.21-31.53-3.26c-12.41-1.48-23.18,3.54-17.37,12.83,5.26,8.43,9.76,9.45,9.15,10.62-5.69-.09-23.9-.19-29.52-.37-2.12-.07-4.22-.11-6.34-.11-60.29,0-99,30.22-104.28,68.11-.82,11.7,1.74,25.2,7.62,40.28l-9.21,4.7c-15.55,8.24-28.58,30.9-18.09,55.75,3.47,8.23,16.67,31.58,16.67,31.58a243.24,243.24,0,0,0-60.2,143.86c-9.38,133.86,91.9,250.4,225.76,259.78,5.74.4,11.54.61,17.27.61,127.1,0,233.62-99.44,242.52-226.38A243.29,243.29,0,0,0,1041.5,231.83c-5.75-.4-11.55-.61-17.26-.61a238.84,238.84,0,0,0-34.12,2.44s-11.28-21.16-15-28.26c-7.08-13.67-35.1-25.37-55.68-17.81-3.33,1.23-12.63,6.44-12.63,6.44-6.17-13.52,10.92-25.29,41.81-25.29,1.29,0,2.62,0,4,.07,8.15.27,17.39.59,26.52.59,4.7,0,14.16-1.5,18.36-1.68-2.45,5.39-8.88,7.62-3.42,15.21a18.27,18.27,0,0,0,24.62,6.78l36.94-16.63,16,22.12a18.15,18.15,0,0,0,14.81,7.65c9.75-.88,17.18-17,16.56-22.19L1100,159l40.27-1.71.25,0,.26,0c8.58-1.32,16.28-8.58,16.69-17.24.42-5.59-6.52-14.21-14.9-16.34l-31-8,17.52-32.38a17.84,17.84,0,0,0,.17-18.38c-5.68-9.17-23.34-4.58-26.57-2.13-7.86,5.94-29.4,22.34-29.4,22.34l-5-22.14C1066.49,54.64,1057.85,50.92,1052.89,50.11Z" fill="#654198"/><path d="M1048,277.42a5.34,5.34,0,0,1-5.48-5.2,5.36,5.36,0,1,1,10.71-.25A5.32,5.32,0,0,1,1048,277.42Z" fill="#654198"/><path d="M1006.4,272.18a5.36,5.36,0,0,1-5.45,5.24,5.29,5.29,0,0,1-5.26-5.41,5.36,5.36,0,1,1,10.71.17Z" fill="#654198"/><path d="M1122.68,337.53a5.27,5.27,0,1,1-5-5.61A5.25,5.25,0,0,1,1122.68,337.53Z" fill="#654198"/><path d="M931.64,342.56a5.33,5.33,0,0,1-.19-10.65,5.27,5.27,0,0,1,5.36,5.25A5.16,5.16,0,0,1,931.64,342.56Z" fill="#654198"/><path d="M1174,459c8.21,10.07,6.74,18.57-3.92,22.65,3.93,13.21,1.74,17.42-11.19,21.51-.27,11.45-5.61,17.56-18.55,14.67-3.77,10.4-13.87,14.24-23,5.52-10.83,7.71-17.24,6.29-23.34-5.17-14,.82-17.62-2.12-18.41-15-12.57-3.27-15.68-8.89-11.56-20.86-11.34-8.09-12.28-14.15-3.57-23-8-11.5-7.21-16.33,3.72-24.07-4.65-11.69-1.32-17.59,11.55-20.42-.08-12.77,6-17.92,17.79-15,7.63-12.14,13.57-13.6,23.1-5.67,11.79-7.71,17.64-6.36,23.69,5.49,11.79-2.83,18.73,2.88,18.37,14.82,12.83,4,15.15,8.16,11.68,20.9C1180.91,442.86,1181.83,448.9,1174,459Zm-56.82-12.3c-.86-1.16-1.44-1.9-2-2.67-5.72-8.26-13.89-10.85-21-6.66-7.72,4.53-11.79,16.32-8.27,24.1,5.73,12.67,14.1,23,26,30.46,3.88,2.43,7,2.77,10.2-.14,6.86-6.34,14.13-12.39,20.05-19.53,6.42-7.75,10.26-16.83,5-27.15-5.75-11.24-19.37-12.51-27-2.49C1119.24,443.86,1118.33,445.1,1117.14,446.71Zm-46.54,35.37c-4.71,3.38-6.48,7.22-3.67,12.07,2.65,4.54,6.59,5.36,11.64,2.82Zm64.76-78c1.11-6.24-1.56-10.45-6.81-11.13-4.46-.57-7.77,2.28-8.55,7.38Zm-53.58,12.76,13-10.87c-3.9-4.13-8-4.84-12.16-1.42S1078.14,412.22,1081.78,416.88ZM1099,404.14l16-4c-1.86-5.5-5.09-8.11-10.52-6.75C1099.65,394.61,1097.81,398.45,1099,404.14Zm-29.8,35.54c-6.42.11-10.46,3-10.47,7.75s2.37,8.13,7.76,8.91C1067.4,450.74,1068.25,445.47,1069.19,439.68Zm70.29,71.59c5,4.79,8.64,5.08,12.65,1.33,3.65-3.43,3.62-6.94-.19-11.07Zm15.74-91.13,8.45,15.22c4.44-3.15,6.29-6.8,3.84-11.46S1161,418,1155.22,420.14Zm-40.63,97.08c-2.7-.56-5.39-1.05-8-1.69s-5.17-1.4-8-2.19c-1.1,6,1.06,9.43,6.26,10.88C1109.52,525.54,1112.74,523.21,1114.59,517.22Zm5.14.06-1,1.6c2.41,1.81,4.7,4.85,7.25,5.08,2.77.25,6.27-1.56,8.51-3.54,1.41-1.25,1.09-4.45,1.62-7.16Zm45.32-39.36c6.17,1.09,8.84-2.15,9.82-7.1,1.08-5.42-1-8-7.23-9.23C1166.79,467,1165.94,472.34,1165.05,477.92Zm-.09-38.27c1,5.9,1.88,11.27,2.81,16.81,6.19-1.24,8.26-5,7.33-10.12C1174.22,441.49,1170.89,438.93,1165,439.65Zm-9.24,57.48c6.24,1.9,10.29.32,12.34-4.41,2.17-5-.77-7.51-4.49-9.91C1160.85,487.76,1158.39,492.27,1155.72,497.13Zm-16.18-90.95,13.12,10.71c3.13-4.86,3.18-9-1.23-12.45C1147.34,401.29,1143.43,401.72,1139.54,406.18Zm-44.87,105.07-12.62-9.75c-4.62,3.79-3.22,7.62-.18,11C1085.32,516.36,1089.73,515.88,1094.67,511.25Zm-25.32-33.36c-1.16-5.92-2.2-11.25-3.32-16.95-5.08,2.22-8.16,5.61-6.77,11.05C1060.39,476.45,1063.74,478.71,1069.35,477.89ZM1079,420c-6-1.79-10.4-.8-12.61,4.66-1.85,4.55-.14,8,4.26,10.62Z" fill="#654198"/><path d="M874.09,457.64c-6.67-8.59-5.59-15.55,4.57-22-3.22-13.57-.7-18.12,11.56-20.84,1.56-14.06,5.81-17.49,18.73-15.12,5.33-11.7,12.79-13.5,23.06-5.59,10.83-7.87,17-6.37,23.17,5.58,10.15-3,19.36,2,18.08,14.68,13.6,4.79,16.35,9.6,11.72,20.5,11,9.73,11.69,14.21,3.69,24.08,8.33,9.42,7.52,15.49-3,23,3,13.76.09,18.73-12.26,21,.89,9.6-3.89,18.07-18,15-4.54,10.27-13,14.2-23.27,5.44-10.38,7.81-17.5,6.17-23.21-5.37-13.51,1.43-17.55-1.71-18.4-14.3-13.67-6.46-15.79-10.5-11.87-19.72-3.2-4.62-7.32-8.18-8.06-12.34S872.59,463,874.09,457.64Zm57.9-10.9c-1.19-1.57-2.1-2.81-3-4-7.9-10.17-21-9-26.89,2.46-3.83,7.45-3.16,14.91,1.09,21.72,6.61,10.6,14.6,20.09,26,25.83,1.89.95,5.26,1,6.94-.05A71.55,71.55,0,0,0,963,462.1c3.81-8.28-.15-20.25-8.06-24.65-7.63-4.25-15.45-1.64-21.34,7.12C933.18,445.18,932.71,445.76,932,446.74Zm-18.07-42.55,15.69-4.07c-2.26-6.06-5.59-8.12-10.31-6.7C914.4,394.9,912.46,398.64,913.92,404.19Zm53.43,12.71c3.38-5.91,2.88-10.06-1.46-12.83s-8.18-2.13-11.37,2.17Zm-33.17-16.66,16.17,3.83c.72-6.24-1.51-10.19-6.51-10.92S935.64,395,934.18,400.24Zm48.45,56.65c5.62-2.09,8.47-5.24,7.49-10.29s-4.5-7.57-10.23-7.1C980.81,445.37,981.67,450.82,982.63,456.89Zm-73-50.76c-5.25-4.56-9.17-4.8-12.85-.9-3.48,3.69-3.52,7.54-.19,11.57Zm-28.28,50.56,2.77-17.18c-5.52-.44-9.08,1.59-10.1,6.62C872.94,451.39,875.25,455,881.33,456.69Zm15.61,44.64c-3.63,4.8-3.39,8.65.59,11.81s7.64,2.64,11.89-2Zm-3.27-80.93c-6.6-2.08-10.29-.85-12.3,4s-.26,8.23,4.19,10.8Zm73.63,80.26-13,11.13c4.71,4.22,9,4.42,12.85.67C970.81,508.92,971,504.81,967.3,500.66ZM934,517.49c2,5.53,5.34,8,10.71,6.6,5-1.3,6.63-4.76,5.36-10.58Zm-4.4-.15-16.1-3.83c-.58,6.48,1.75,10.25,6.85,10.84S928.61,522.7,929.59,517.34Zm-44.3-34.91c-3.42,3.56-7,6.38-3.37,11.47,2.88,4,6.22,5.8,11.63,3.14C890.79,492.16,888.2,487.59,885.29,482.43Zm94.51-4.17c6.11.46,9.74-2.46,10.34-7.32.57-4.71-2.1-8.55-7.16-9.84C981.9,466.94,980.87,472.47,979.8,478.26Zm-98.41-17c-6.11,1.62-8.45,4.69-7.31,9.84,1.07,4.84,3.67,7.69,9.4,6.71C882.76,472.05,882.07,466.64,881.39,461.23Zm88.83,36.33c6.53,1.37,11.58-.55,12.84-4.94s-.34-7.57-4.46-9.58C975.76,488,973.11,492.55,970.22,497.56Zm-.14-77.49,8.46,15.36c4.38-3.06,6.16-6.64,3.89-11.39C980,419,975.86,418.09,970.08,420.07Z" fill="#654198"/><path d="M1069,299c-.94,9.43.64,17.44-5.82,23.73l23.24,19.91-23.1,19.78c6.21,6.23,4.86,14.37,5.56,22.67-8-.85-16.12,1.08-22.59-5.63l-19.88,23.18-18.54-21.51-23.81,5.07c.4-9.11-.93-17.08,5.48-23.69l-23.15-19.85,21.53-18.55c-1.71-8.08-3.28-15.54-5-23.84,9.3.27,17.21-.6,23.71,5.4l19.75-23.1,18.55,21.61ZM1081,342.51c-5.87-5.11-11-10.4-17-14.62-8.49-6-21.49-7.14-29.37,3,8.22,9.82,8.22,12.6,0,23.9,10,9.21,22.07,9.43,32.32.5C1071.46,351.25,1075.91,347.08,1081,342.51Zm-109,.13c5,4.51,9.73,9,14.67,13.14,10.25,8.66,23.62,8,31.09-.92-2.1-4.08-5.7-7.95-5.6-11.71.12-4.36,3.49-8.63,5.59-13.25-8.85-10.24-23.56-7.19-31.88.08C981.24,334,976.82,338.19,972,342.64Zm35.47-23.26,15.31,9.41c1.74-.76,5.89-.31,7.38-.09l15.39-9.35c.42-14.56-11.74-21.38-19.21-31.67C1018.78,298.31,1006.46,305.17,1007.43,319.38Zm19,78.14c7.65-10.61,19.87-17.48,18.91-32.14-2.51-1.28-5.16-2.16-7.24-3.78-4.08-3.15-8.38-5.33-13.64-5a7.56,7.56,0,0,0-3.41.63c-4.53,2.8-8.95,5.78-13.68,8.88C1006.68,380.15,1018.76,387,1026.43,397.52Zm10.66-54.73a10.69,10.69,0,0,0-21.37-.31c-.21,5.51,4.82,10.6,10.54,10.67A10.77,10.77,0,0,0,1037.09,342.79ZM1065,304.12c-14.74-1.59-19,2.89-15.48,15.74C1062.77,322.68,1065.81,319.65,1065,304.12Zm-77.08,0c-1.15,15.3,3.38,19.62,15.68,15.3C1006.34,306.58,1002.25,302.49,987.89,304.13Zm61.4,61.37c-3,13,2.48,18.13,15.7,15.13C1065.62,365.31,1063.08,362.79,1049.29,365.5Zm-45.79,0C990.17,363,985.91,367.4,988.17,381,1003,382.32,1006.42,378.88,1003.5,365.49Z" fill="#654198"/><path d="M996.83,414.87a5.55,5.55,0,0,1,5.66-5.67,5.82,5.82,0,0,1,5.69,5.74,5.7,5.7,0,0,1-5.74,5.67A5.61,5.61,0,0,1,996.83,414.87Z" fill="#654198"/><path d="M954.15,141.35a3.34,3.34,0,0,1,3.4-3.41,3.51,3.51,0,0,1,3.42,3.45,3.42,3.42,0,0,1-3.45,3.4A3.37,3.37,0,0,1,954.15,141.35Z" fill="#654198"/><path d="M1052.19,414.84a5.65,5.65,0,1,1-11.3.17,5.65,5.65,0,1,1,11.3-.17Z" fill="#654198"/><path d="M901.26,153.09a4.52,4.52,0,1,1-9,.14,4.52,4.52,0,1,1,9-.14Z" fill="#654198"/><path d="M1187.81,348.71a5.66,5.66,0,1,1-11.31.17,5.66,5.66,0,1,1,11.31-.17Z" fill="#654198"/><path d="M861.21,348.73a5.65,5.65,0,1,0,11.3.17,5.65,5.65,0,1,0-11.3-.17Z" fill="#654198"/><path d="M920.82,269.23a9.43,9.43,0,1,0-.74,18.85,9.18,9.18,0,0,0,9.54-9.3A9.35,9.35,0,0,0,920.82,269.23Zm-.66,12.95a3.46,3.46,0,0,1-3.41-3.57,3.53,3.53,0,0,1,3.74-3.49,3.62,3.62,0,0,1,3.24,3.58A3.52,3.52,0,0,1,920.16,282.18Z" fill="#654198"/><path d="M1030.1,441.36a5.6,5.6,0,1,1-11.19,0,5.6,5.6,0,1,1,11.19,0Z" fill="#654198"/><path d="M1019.23,136.7a2.24,2.24,0,1,1-4.48,0,2.24,2.24,0,1,1,4.48,0Z" fill="#654198"/><path d="M930.19,143.55a3.92,3.92,0,1,1-7.83,0,3.92,3.92,0,1,1,7.83,0Z" fill="#654198"/><path d="M1024.49,466.54c2.93,0,5.57,2.45,5.59,5.15S1027,478,1024.8,478c-3,0-5.94-3.15-5.87-6.25A5.56,5.56,0,0,1,1024.49,466.54Z" fill="#654198"/><path d="M987.85,138.51a2.81,2.81,0,0,1,2.8,2.57c0,1.3-1.54,3.14-2.64,3.14a3.21,3.21,0,0,1-2.94-3.12A2.77,2.77,0,0,1,987.85,138.51Z" fill="#654198"/><path d="M996.55,543.91c.23-4.41,2-9.19,4.35-13.65,4.94-9.34,10.17-18.52,15.25-27.78,1.74-3.17,3.33-6.43,5.09-9.59s4.82-3.06,6.53,0c6.25,11.29,12.66,22.49,18.6,33.94a79.59,79.59,0,0,1,5.64,15,11.92,11.92,0,0,1-.55,7.24c-2.94,7.28-8.22,9-15.1,5.1a79,79,0,0,1-8-5.48c-3.37-2.5-4.31-2.51-7.76,0a71.29,71.29,0,0,1-8.61,5.8C1004.1,558.59,996.46,553.63,996.55,543.91Zm49.84-4.3c-.7-2.45-1-5.1-2.16-7.31-5.68-11-11.55-21.9-17.45-32.77-1.13-2.1-3.62-1.83-4.87.41-4.87,8.78-9.8,17.53-14.52,26.39-2.31,4.32-4.47,8.8-4.46,13.88,0,6.48,5.92,10.25,11.63,7.33a48.67,48.67,0,0,0,7.32-4.9c1.87-1.44,3.42-1.44,5.26,0a51.7,51.7,0,0,0,6.5,4.52C1040,550.76,1046.09,547,1046.39,539.61Z" fill="#654198"/><path d="M852.49,518.73a5.81,5.81,0,1,1-11.31-2.66,5.81,5.81,0,0,1,11.31,2.66Z" fill="#654198"/><path d="M839.86,505.46a3.75,3.75,0,0,1-2.94-4.57,3.68,3.68,0,0,1,4.49-3,3.82,3.82,0,0,1,3.09,4.68A3.89,3.89,0,0,1,839.86,505.46Z" fill="#654198"/><path d="M838,489.78a2.57,2.57,0,0,1-2-3.14,2.53,2.53,0,0,1,3.09-2.07,2.62,2.62,0,0,1,2.11,3.21A2.66,2.66,0,0,1,838,489.78Z" fill="#654198"/><path d="M935.14,553.35a1.82,1.82,0,0,1-1.42-2.21,1.78,1.78,0,0,1,2.17-1.46,1.84,1.84,0,0,1,1.49,2.26A1.87,1.87,0,0,1,935.14,553.35Z" fill="#654198"/><path d="M951,546.65a1.44,1.44,0,0,1-1.13-1.76,1.41,1.41,0,0,1,1.72-1.16,1.47,1.47,0,0,1,1.19,1.8A1.5,1.5,0,0,1,951,546.65Z" fill="#654198"/><path d="M881.37,587.2a5.81,5.81,0,1,1-11.31-2.66,5.81,5.81,0,0,1,11.31,2.66Z" fill="#654198"/><path d="M893,584.36a2.57,2.57,0,0,1-2-3.14,2.54,2.54,0,0,1,3.09-2.07,2.62,2.62,0,0,1,2.11,3.22A2.67,2.67,0,0,1,893,584.36Z" fill="#654198"/><path d="M1197.72,518.73a5.81,5.81,0,1,0,11.31-2.66,5.81,5.81,0,0,0-11.31,2.66Z" fill="#654198"/><path d="M1210.34,505.46a3.75,3.75,0,0,0,2.94-4.57,3.68,3.68,0,0,0-4.49-3,3.8,3.8,0,0,0-3.08,4.68A3.88,3.88,0,0,0,1210.34,505.46Z" fill="#654198"/><path d="M1212.2,489.78a2.57,2.57,0,0,0,2-3.14,2.52,2.52,0,0,0-3.08-2.07,2.62,2.62,0,0,0-2.12,3.21A2.67,2.67,0,0,0,1212.2,489.78Z" fill="#654198"/><path d="M1115.06,553.35a1.81,1.81,0,0,0,1.42-2.21,1.77,1.77,0,0,0-2.17-1.46,1.85,1.85,0,0,0-1.49,2.26A1.88,1.88,0,0,0,1115.06,553.35Z" fill="#654198"/><path d="M1099.2,546.65a1.45,1.45,0,0,0,1.13-1.76,1.43,1.43,0,0,0-1.73-1.16,1.47,1.47,0,0,0-1.18,1.8A1.5,1.5,0,0,0,1099.2,546.65Z" fill="#654198"/><path d="M1168.83,587.2a5.81,5.81,0,0,0,7,4.43,5.86,5.86,0,1,0-7-4.43Z" fill="#654198"/><path d="M1157.24,584.36a2.57,2.57,0,0,0,2-3.14,2.53,2.53,0,0,0-3.08-2.07,2.62,2.62,0,0,0-2.12,3.22A2.67,2.67,0,0,0,1157.24,584.36Z" fill="#654198"/><path d="M1024.72,682.28a21.26,21.26,0,0,1-1.63,2.8,6.12,6.12,0,0,1-10.21-.5,8.72,8.72,0,0,1-.4-9,29.56,29.56,0,0,1,11.58-12.06,1,1,0,0,1,.89,0,29.75,29.75,0,0,1,11.73,11.68,8.71,8.71,0,0,1,0,8.91c-2.61,4.57-8.48,4.54-11.12,0C1025.23,683.45,1025,682.82,1024.72,682.28Z" fill="#654198"/><path d="M944,327.58a2.31,2.31,0,0,0,2.2-2.54,2.39,2.39,0,0,0-2.78-2.34,2.45,2.45,0,0,0-2.23,2.75A2.38,2.38,0,0,0,944,327.58Z" fill="#654198"/><path d="M1105.57,327.58a2.31,2.31,0,0,0,2.2-2.54,2.39,2.39,0,0,0-2.78-2.34,2.45,2.45,0,0,0-2.23,2.75A2.38,2.38,0,0,0,1105.57,327.58Z" fill="#654198"/><path d="M878.86,199.68c2.94,0,5.57,2.45,5.59,5.15s-3.07,6.27-5.27,6.28c-3,0-5.95-3.15-5.88-6.25A5.56,5.56,0,0,1,878.86,199.68Z" fill="#654198"/><path d="M875.09,174.87a5,5,0,0,1,5.1-5.11,5.25,5.25,0,0,1,5.12,5.17,5.12,5.12,0,0,1-5.17,5.1A5,5,0,0,1,875.09,174.87Z" fill="#654198"/><path d="M1030.62,131.15a9.61,9.61,0,0,0,7.06-3.57,21.35,21.35,0,0,0,3.49-6.36c.5-1.26,1-2.52,1.45-3.8a13,13,0,0,1,6.65-7.13,10,10,0,0,0,1.83-1.18,3.16,3.16,0,0,0-.79-5.38,6.15,6.15,0,0,0-6.64,1,12.32,12.32,0,0,0-4,6.66c-1,3.66-1.74,7.37-2.7,11a25.31,25.31,0,0,1-1.59,4.28A7.79,7.79,0,0,1,1030.62,131.15Z" fill="#654198"/><path d="M1030.39,138.55a13.68,13.68,0,0,1,9-2.72,108.45,108.45,0,0,1,15.16,2c7.21,1.6,13.89.94,20.2-3a15.82,15.82,0,0,1,3-1.4,4.64,4.64,0,0,1,5.07,1.08c1.29,1.21,1.33,2.77.9,4.41-1.29,4.87-5.44,7.86-11.49,8.14-4.66.21-9-1.19-13.35-2.64-5.37-1.8-10.7-3.69-16.06-5.49A20.78,20.78,0,0,0,1030.39,138.55Z" fill="#654198"/><path d="M1040.55,131.9c9.32-1.31,18-4,25.65-9.33,4.34-3,8.12-6.91,12.09-10.46,1.47-1.31,2.73-2.86,4.2-4.16a5.85,5.85,0,0,1,2.81-1.6,6.6,6.6,0,0,1,4.09.63c.48.31.21,2.53-.33,3.55-2.81,5.19-7.15,8.91-12.11,12-10,6.21-20.74,10.2-32.75,9.75C1043,132.22,1041.77,132,1040.55,131.9Z" fill="#654198"/><path d="M1030.11,140.5a15.74,15.74,0,0,1,4,8.24,17.92,17.92,0,0,1-1,9,9.32,9.32,0,0,1-3.51,4.51c-1,.7-1.86.72-2.47.14a1.84,1.84,0,0,1-.27-2.62c.71-1.19,1.6-2.27,2.34-3.44a15.1,15.1,0,0,0,1.16-15C1030.3,141.13,1030.25,140.92,1030.11,140.5Z" fill="#654198"/><path d="M1027.49,128.88a15.78,15.78,0,0,0,1.55-9,18.05,18.05,0,0,0-3.45-8.41,9.39,9.39,0,0,0-4.63-3.35c-1.14-.41-2-.18-2.42.55a1.86,1.86,0,0,0,.48,2.6c1,.93,2.16,1.73,3.2,2.64a15.09,15.09,0,0,1,5.3,14.12C1027.49,128.22,1027.51,128.43,1027.49,128.88Z" fill="#654198"/><path d="M1024.48,651.29c-7.37,10-23.33,9.47-29.37-3.38a16.65,16.65,0,0,1-15.29,3.58c-5.71-1.39-9.55-5-12-10.65A16.71,16.71,0,0,1,952,643.69c-5.58-1.73-9.19-5.67-11.4-11-11.09,6-22.78,2-26.4-9a21.12,21.12,0,0,1-.79-6.83c.19-11.69.54-23.37.8-35,.16-7.33,5.17-12.45,12.53-12.65a18.53,18.53,0,0,1,15,6.65c3-5,7.25-7.7,13-7.73a18.58,18.58,0,0,1,14,6.17c2.79-5,6.77-8,12.48-8.39a17.86,17.86,0,0,1,14.5,5.44c3-5.66,7.44-8.86,13.8-9.14,6.16-.27,11,2.09,14.93,7.13,3.88-5,8.8-7.5,15-7.11s10.74,3.23,13.62,9.15a18.09,18.09,0,0,1,14.4-5.48A14.24,14.24,0,0,1,1080,574.1c9.54-8.8,21.3-7.65,27.2,1.52a18.91,18.91,0,0,1,14.14-6.47c8,0,13.18,5.09,13.35,13.14.25,11.47.22,23,.91,34.4.78,12.82-10.9,20.59-20.33,18.83-2.32-.43-4.51-1.54-7.11-2.46a17.67,17.67,0,0,1-11.42,10.65,16,16,0,0,1-15.43-2.82c-5.94,12.62-19.38,13.78-27.61,7.05-2.68,5.9-7.18,9.48-13.63,10.22S1028.51,656.53,1024.48,651.29Zm3.37-39.65h20.79c0-12.17.15-23.83-.07-35.48-.1-5.17-4.69-8.84-10.09-8.8s-10.47,3.84-10.56,8.48C1027.71,587.81,1027.85,599.79,1027.85,611.64Zm-27.64.14H1021c0-11.94.13-23.81-.06-35.67-.08-5-5.23-8.8-11-8.73a9.55,9.55,0,0,0-9.76,9.15c-.14,3.47,0,6.94,0,10.41Zm75.25-1.81c0-10.92.2-21.44-.19-31.92-.07-1.94-2.17-4.39-4-5.55-6.68-4.21-16.9,1.25-16.46,9.5.41,8,.18,16,.22,24,0,5.29,0,5.32,5.28,5S1070.54,610.3,1075.46,610Zm-81.52,1.46c0-10.62.19-20.69-.07-30.76-.17-6.41-7.2-10.92-13.73-9.28-4,1-6.63,3.41-6.72,7.3-.21,10.28-.07,20.56-.07,31.26Zm33.87,6.9v24.12c0,6.43,4,10.66,10.27,10.55,6.1-.11,11.34-4.64,10.82-10.61-.22-2.5-.05-5-.05-7.57V618.33Zm-27.76,0c0,8.74-.15,17.35.06,25.95.12,4.86,5.52,8.93,11,8.78s9.85-4.1,9.92-9.34c.08-6.2,0-12.4,0-18.61v-6.78Zm102.43-11.42c0-9.3.11-18.13-.07-26.94-.06-3.08-3-5.7-6.18-6.31-7-1.34-14.73,3.71-14.33,11.48.29,5.57.21,11.15.28,16.73,0,2.37,0,4.74,0,7.45Zm-135.64,2.43c0-8.23,0-16,0-23.74a22.07,22.07,0,0,0-.12-3.15c-1.07-7.28-11.53-11.73-17.33-7.18-1.47,1.15-2.23,3.38-3,5.26a11.06,11.06,0,0,0-.22,3.75c0,7.44,0,14.87,0,22.62Zm88.26,8.43c0,6.34,0,12.42,0,18.5s2.59,9.43,8.21,10.41c4.92.85,11-2.52,12.33-7.21a23.26,23.26,0,0,0,.46-6.21c.06-5.63,0-11.26,0-17Zm-61.37,0-21.05-1.49c0,6.55.15,12.83,0,19.1a10.3,10.3,0,0,0,5.79,10c6.67,3.69,14.86.12,15.23-6.76S993.73,625,993.73,617.74Zm115.1-11.69c7.11-1.23,13.31-2.26,19.48-3.44a2.41,2.41,0,0,0,1.44-1.82c0-6.41-.09-12.82-.32-19.23a6.89,6.89,0,0,0-5-6.62c-6.53-2.24-15.09,2.92-15.54,9.8S1108.83,598.56,1108.83,606.05Zm-169.6-.13a6.78,6.78,0,0,0,.43-1.27c.15-5.77.34-11.55.4-17.32.06-6.87-3.85-11.46-10.64-12.67-5.93-1.06-9.88,2.11-10,8.12s-.28,11.76-.24,17.65a2.9,2.9,0,0,0,1.66,2.19C926.86,603.82,933,604.82,939.23,605.92Zm164.31,7.28c-7.17.8-13.53,1.45-19.85,2.33-.59.09-1.36,1.67-1.37,2.57-.07,4.21,0,8.42.2,12.63.18,4.76,2.74,7.65,7.33,8.47,6.52,1.16,13.59-4.63,13.68-11.26C1103.59,623.22,1103.54,618.5,1103.54,613.2Zm-158.17,0v13.08c0,.52,0,1.05,0,1.57A12.08,12.08,0,0,0,958,639.29c4.68-.24,8-3.24,8.28-7.87s.31-9.26.26-13.89a2.71,2.71,0,0,0-1.58-2.06C958.7,614.63,952.44,614,945.37,613.2Zm164-.9c0,3.17,0,6.1,0,9a18,18,0,0,0,0,2.2,7.81,7.81,0,0,0,6.75,6.89c5.85.93,12.89-3.61,13.77-9.48.59-3.85.11-7.87.11-12.07Zm-190.74-3.48c0,3.31,0,6.22,0,9.13a12.43,12.43,0,0,0,10.67,12.44c5.15.77,9.55-2,10-6.66.37-3.72.07-7.5.07-11.41Z" fill="#654198"/><path d="M889.12,357.21a18.38,18.38,0,0,1,12.21-3.67,144.81,144.81,0,0,1,20.47,2.7c9.73,2.16,18.74,1.27,27.26-4a22.14,22.14,0,0,1,4-1.88,6.31,6.31,0,0,1,6.86,1.45c1.74,1.64,1.79,3.75,1.2,6-1.73,6.58-7.33,10.61-15.51,11-6.28.29-12.17-1.6-18-3.56-7.24-2.42-14.43-5-21.67-7.4A28,28,0,0,0,889.12,357.21Z" fill="#654198"/><path d="M1159.9,357.18c-8.19-2.49-15.79,0-23.39,2.54-8.26,2.75-16.49,5.59-24.81,8.13a23.87,23.87,0,0,1-13.88-.06,13.79,13.79,0,0,1-10-10.21c-1.27-4.81,2.49-8.62,7.33-7.44a12.39,12.39,0,0,1,3.85,1.59c9.48,6.18,19.56,6.65,30.33,4.14a119.66,119.66,0,0,1,19-2.32C1152.47,353.27,1156.34,354.87,1159.9,357.18Z" fill="#654198"/><path d="M1096.17,292.85c10.38.07,18.45,5.23,26,11.63a61.53,61.53,0,0,1,17.59,25.2,5.13,5.13,0,0,1,.52,1.64,11.68,11.68,0,0,1-.35,2.17,7.25,7.25,0,0,1-1.57-1.2c-2.32-3-4.38-6.18-6.88-9-8.47-9.59-19.39-14.92-31.67-17.84a56.52,56.52,0,0,1-9.1-2.95c-2.93-1.24-3.77-3.1-3.24-5.92s2.79-3.18,5-3.5C1093.7,292.9,1094.94,292.92,1096.17,292.85Z" fill="#654198"/><path d="M953.7,292.73c1.54.24,3.1.38,4.6.75a3.75,3.75,0,0,1,3.23,3.28c.24,2.09,0,4.2-2.12,5.09a60.87,60.87,0,0,1-10.18,3.57c-16.37,3.79-29.45,12.23-38.49,26.6-.39.63-1.23,1-1.87,1.44a7.14,7.14,0,0,1-.07-2.47c5.85-16.26,16.49-28.34,32.14-35.63,3.84-1.79,8.41-2,12.64-2.95Z" fill="#654198"/><path d="M1217,467.91c-.58-8.37-.33-17.45-2-26.15-3.62-19-14.55-33.48-30.2-44.59a93.76,93.76,0,0,1-11.23-8.87c-4.06-3.93-4.32-7.56-1.78-11.7,1.89-3.08,6-4.18,10.93-2.55,7.63,2.54,14.75,6.22,19.91,12.5,19.38,23.6,25.85,49.82,15.25,79.25C1217.53,466.75,1217.09,467.67,1217,467.91Z" fill="#654198"/><path d="M834.52,468.74c-6.18-14.21-8.09-27.85-5.79-42.14s8.41-27.08,17.28-38.52c5.7-7.34,13.23-12.07,22-14.84,5.35-1.69,9.24-.52,11.15,2.92,2.39,4.33,1.87,8.1-2.62,12-4.85,4.2-10.29,7.71-15.26,11.8-20.39,16.79-29.44,38.34-26.76,64.72C834.61,465.65,834.52,466.65,834.52,468.74Z" fill="#654198"/><path d="M926.46,554.19c-9.78,5.74-19.52,8.33-30.11,7.91a61.37,61.37,0,0,1-29.5-9.17,32,32,0,0,1-12.72-14.67c-1.7-3.75-1.19-6.67,1.14-8.36,2.94-2.12,5.72-2.07,8.94.84,3.49,3.16,6.51,6.81,9.92,10.06,14,13.34,30.44,18,49.38,13.76C924.21,554.4,924.94,554.38,926.46,554.19Z" fill="#654198"/><path d="M843.13,563a16.48,16.48,0,0,1,11.32,7.44,36.61,36.61,0,0,1,4.72,11.48c.59,2.24,1.18,4.48,1.72,6.74,1.41,5.88,5.05,10.09,9.94,13.4a16.82,16.82,0,0,1,2.88,2.37,5.4,5.4,0,0,1-2.38,9,10.56,10.56,0,0,1-11.08-3,21,21,0,0,1-5.57-12.11c-.94-6.41-1.55-12.87-2.48-19.28a42.39,42.39,0,0,0-1.87-7.6C849.06,567.72,846.88,564.67,843.13,563Z" fill="#654198"/><path d="M1123.74,554.19c9.79,5.74,19.53,8.33,30.11,7.91a61.44,61.44,0,0,0,29.51-9.17,32.07,32.07,0,0,0,12.72-14.67c1.7-3.75,1.19-6.67-1.15-8.36-2.93-2.12-5.72-2.07-8.94.84-3.48,3.16-6.51,6.81-9.91,10.06-14,13.34-30.45,18-49.38,13.76C1126,554.4,1125.26,554.38,1123.74,554.19Z" fill="#654198"/><path d="M1207.07,563a16.52,16.52,0,0,0-11.32,7.44,36.82,36.82,0,0,0-4.71,11.48c-.6,2.24-1.19,4.48-1.73,6.74-1.41,5.88-5,10.09-9.94,13.4a17.21,17.21,0,0,0-2.88,2.37,5.4,5.4,0,0,0,2.38,9,10.57,10.57,0,0,0,11.09-3,21,21,0,0,0,5.56-12.11c.94-6.41,1.56-12.87,2.49-19.28a42.37,42.37,0,0,1,1.86-7.6C1201.14,567.72,1203.33,564.67,1207.07,563Z" fill="#654198"/><path d="M911.6,263.84c-4.56-4-9.26-7.82-13.65-12-4.87-4.61-9.54-9.46-12.91-15.34-1.83-3.21-3.57-6.47-3.71-10.33a5.33,5.33,0,0,1,7.6-5.17,16.15,16.15,0,0,1,7.87,7.55c3.49,6.86,6.7,13.87,9.83,20.91,2,4.56,3.69,9.28,5.51,13.93Z" fill="#654198"/><path d="M903,279.6c-5-.61-9.75-1.56-14.53-1.67-6.88-.15-13.76.37-20.64.5a27.51,27.51,0,0,1-5.95-.43c-2.17-.44-4-1.61-4.37-4.08a6,6,0,0,1,2.79-6c4-2.83,8.61-3.28,13.29-3.27,11,0,19.9,4.87,27.48,12.51.48.48,1,1,1.4,1.52A7.81,7.81,0,0,1,903,279.6Z" fill="#654198"/><path d="M930,263.55c-3.63-9.46-4.79-18.86-1.49-28.37,2.08-6,5-11.55,10.88-14.81a8.26,8.26,0,0,1,4.12-.93c2.89.08,4.8,2.06,4.46,4.91a14.83,14.83,0,0,1-2.05,6.52,111.81,111.81,0,0,0-15.51,32A3.23,3.23,0,0,1,930,263.55Z" fill="#654198"/><path d="M905.22,268.46c-2.46-1.2-4.94-2.36-7.38-3.6-4.86-2.47-10.2-3-15.45-3.84a16,16,0,0,1-8.18-4c-2.32-2.08-2-4.53.75-6.11a9.51,9.51,0,0,1,8.19-.51c7.61,2.6,14.35,6.6,19.49,12.92a41.29,41.29,0,0,1,3,4.83Z" fill="#654198"/><path d="M919.14,260.63a24.76,24.76,0,0,1-5.39-12c-1.25-6.42-1.65-12.88.59-19.14a10.16,10.16,0,0,1,3.76-4.45c2.5-1.75,4.76-.56,5.43,2.44a16.09,16.09,0,0,1-.68,10c-3.09,7.1-3.7,14.54-3.67,22.12C919.18,259.82,919.17,260,919.14,260.63Z" fill="#654198"/><path d="M937.88,269.18a7.4,7.4,0,0,1,0-1.24c1.91-9.53,6.91-16.67,16-20.56,2.74-1.17,5.19-.82,6.65.78a4.73,4.73,0,0,1-1.16,7.3A77.5,77.5,0,0,1,951,260a35.21,35.21,0,0,0-12.34,8.67A6,6,0,0,1,937.88,269.18Z" fill="#654198"/><path d="M904.31,289.54a34.32,34.32,0,0,0-12.69,5.87c-3.06,2.16-6,4.44-9.23,6.42a4.73,4.73,0,0,1-7.22-2.78c-.59-2.38.64-4.22,2.34-5.58,5.14-4.09,10.86-6.74,17.64-6.1,3.07.29,6.12.86,9.17,1.3Z" fill="#654198"/><path d="M988.77,673.92a57.23,57.23,0,0,1-22.86,2.13A87,87,0,0,1,925.2,661.7c-3.94-2.66-7.18-6.46-10.34-10.09-1-1.15-1.53-4.3-.8-5,1.19-1.14,4-1.91,5.4-1.27a38.12,38.12,0,0,1,10.18,6.37c16.32,15,35.47,22.31,57.6,21.93A13.08,13.08,0,0,1,988.77,673.92Z" fill="#654198"/><path d="M1061.35,673.92a57.2,57.2,0,0,0,22.85,2.13,87.06,87.06,0,0,0,40.72-14.35c3.93-2.66,7.18-6.46,10.34-10.09,1-1.15,1.53-4.3.8-5-1.2-1.14-4-1.91-5.41-1.27a38.44,38.44,0,0,0-10.18,6.37c-16.32,15-35.47,22.31-57.59,21.93A12.36,12.36,0,0,0,1061.35,673.92Z" fill="#654198"/><path d="M894.13,619.72a9.43,9.43,0,1,0-.75,18.84,9.19,9.19,0,0,0,9.55-9.3A9.35,9.35,0,0,0,894.13,619.72Zm-.67,12.95a3.45,3.45,0,0,1-3.4-3.57,3.52,3.52,0,0,1,3.74-3.49,3.6,3.6,0,0,1,3.23,3.57A3.52,3.52,0,0,1,893.46,632.67Z" fill="#654198"/><path d="M1157.24,619.72a9.43,9.43,0,1,0-.75,18.84,9.18,9.18,0,0,0,9.55-9.3A9.35,9.35,0,0,0,1157.24,619.72Zm-.66,12.95a3.46,3.46,0,0,1-3.41-3.57,3.52,3.52,0,0,1,3.74-3.49,3.6,3.6,0,0,1,3.24,3.57A3.54,3.54,0,0,1,1156.58,632.67Z" fill="#654198"/></svg>