<svg id="Layer_1" data-name="Layer 1" xmlns="http://www.w3.org/2000/svg" viewBox="0 0 1066 768"><rect width="1066" height="768" fill="#fff"/><path d="M172.79,579.81c0-19.88-1.12-21.95-8.28-21.95H157.2c-8.44,0-14,5.09-17.66,7.16l-1.75-1.12,5.09-23.38c17.18,2.39,23.7,2.55,40.88,2.55s22.27-.16,39.45-2.55l4.93,23.38L226.39,565c-3.5-2.23-7.79-7.16-16.22-7.16h-7.32c-7.16,0-8.11,2.07-8.11,21.95v17.66c0,18,2.38,43.27,7,53.61l-.32,2.06a116.59,116.59,0,0,0-17.82-1.27A113.78,113.78,0,0,0,166,653.14l-.48-2.06c4.61-10.34,7.32-35,7.32-53.61Z" fill="#654198"/><path d="M273.16,640.26c-5.73,8.43-13.84,15.91-28.31,15.91-15.27,0-21.48-10.5-21.48-22.43,0-19.41,16.86-23.86,28.32-25.93,12.72-2.07,20.52-2.87,20.52-6.52,0-7.48-5.41-12.09-15.75-12.09-8.43,0-17.34,2.38-23.39,7.95l-1.9-.32-2.71-16.06c-.32-1.28.48-2.07,2.23-3.19,5.09-2.86,17.18-5.88,27.84-5.88,21.47,0,34.67,11.29,35,35.15,0,26.57.16,32.3,5.41,44.38l-.64,1.91a70.8,70.8,0,0,0-13.2-1.27,60.52,60.52,0,0,0-12.57,1.27l-1.27-1.59C272.05,648.05,272.68,644.08,273.16,640.26Zm-1.27-21.32v-3.82c-.95.8-7.95,2.39-16.86,5.25-6.37,1.91-9.71,5.25-9.71,11.62,0,5.72,2.55,9.7,9.07,9.7C262.18,641.69,270,634.37,271.89,618.94Z" fill="#654198"/><path d="M351,655.21c-26.25,0-40.73-17.5-40.73-41.67,0-25,15.43-42.32,42.64-42.32,12.88,0,27.51,4.3,27.51,8.11L377,597.63l-1.59.32c-4.45-8.28-8.9-13.05-20-13.05-13.2,0-20.36,10.82-20.36,27.84,0,15.59,6.36,26.57,21,26.57,9.06,0,15.9-2.87,23.22-10l1.75.8c-2.07,6.84-2.39,13.68-4.77,16.7C371.79,652,360.33,655.21,351,655.21Z" fill="#654198"/><path d="M431,655.37c-25.29,0-39.61-17.82-39.61-41.68,0-24.18,14.16-42.47,39.61-42.47s39.45,18.45,39.45,42.47C470.41,637.24,456.41,655.37,431,655.37Zm0-68.08c-11,0-15.27,11.61-15.27,26.4,0,14.32,4,25.62,15.27,25.62,11.13,0,15-11.3,15-25.62C445.91,598.74,441.78,587.29,431,587.29Z" fill="#654198"/><path d="M519.4,653.14l-.64-2.06c4.62-8.91,6.84-35.64,6.84-53.45,0-18.77-2.38-43.91-6.84-53.77l1.12-2.07a86.93,86.93,0,0,0,15.43,1.28c14.47,0,26.4-1.91,34.2-1.91,20.2,0,30.22,10.65,30.22,26.88,0,15.27-8.75,22.91-21.31,25.29,17.34.64,29.74,11.46,29.74,29.59,0,18.61-13.36,32.45-37.22,32.45-11.29,0-24.18-3.5-35.16-3.5C530.69,651.87,525.92,652.51,519.4,653.14Zm41.68-96.24c-12.09,0-14.48,2.23-14.48,12.25v18.14H555c11.46,0,22.27-3.34,22.27-16.23C577.3,561.36,571.89,556.9,561.08,556.9Zm-6.37,44.54H546.6v21.8c0,12.09,4.46,15.59,17,15.59,12.89,0,20.21-5.73,20.21-18.14C583.83,608.76,577.94,601.44,554.71,601.44Z" fill="#654198"/><path d="M658.75,655.37c-25.3,0-39.61-17.82-39.61-41.68,0-24.18,14.15-42.47,39.61-42.47s39.44,18.45,39.44,42.47C698.19,637.24,684.2,655.37,658.75,655.37Zm0-68.08c-11,0-15.28,11.61-15.28,26.4,0,14.32,4,25.62,15.28,25.62,11.13,0,15-11.3,15-25.62C673.7,598.74,669.56,587.29,658.75,587.29Z" fill="#654198"/><path d="M782.18,590.79c6.21-12.57,15.43-18.93,25-18.93,14.47,0,22.9,14,23.22,32.77.48,22.74.48,29.11,5.41,46.6l-.48,1.91a85.9,85.9,0,0,0-14.79-1.27,72.47,72.47,0,0,0-14.79,1.27l-.48-1.91a176,176,0,0,0,4.45-39c0-15.11-3.81-21.15-10.5-21.15-7.79,0-13.52,7.95-14.79,20.52.32,17.34.8,24,5.09,39.6l-.32,1.91a87.34,87.34,0,0,0-14.79-1.27,73.06,73.06,0,0,0-14.95,1.27l-.32-1.91a177.15,177.15,0,0,0,4.29-39c0-15.11-3.66-21.15-10.5-21.15-8.11,0-13.84,8.43-14.95,21.63v.64c0,15,1.27,29.74,4.3,37.85l-.32,1.91a92.42,92.42,0,0,0-15-1.27,76.68,76.68,0,0,0-14.79,1.27l-.48-1.91c3-6.83,4.93-22.74,4.93-35.63,0-12.25-1.43-27.36-5.08-36.74l.47-2.07c8.59-1.12,18.46-4.3,26.25-7.64l1.27,1.75c-1.91,5.57-2.7,13.37-2.7,18.61,6-11.77,14.79-17.65,24.18-17.65C771.53,571.86,779,579.33,782.18,590.79Z" fill="#654198"/><path d="M848.2,651.23c3.18-12.24,4.77-36,4.77-53.92,0-19.09-1.12-42.63-4.77-55.36l.47-2.07c7.64-1,20.37-3.18,28-7l1.43,1.58C875.71,547,874.28,570,873.81,589c5.25-9.71,11.61-17.66,24.33-17.66,17.82,0,30.07,15.91,30.07,41.2,0,27.2-13.84,43.11-32.61,43.11-7.64,0-12.89-2.71-18.45-8.91a19.87,19.87,0,0,0,1.11,4.45l-.32,1.91a91.48,91.48,0,0,0-14.63-1.27,88.59,88.59,0,0,0-14.64,1.27ZM874,612.1a35.9,35.9,0,0,1,.16,4.14l.31.16c0,14.79,5.09,23.54,14.32,23.54,10,0,15.11-8.27,15.11-25.45,0-13.84-3.66-25.29-14.63-25.29-10.5,0-14.8,10.18-14.8,23.22Z" fill="#654198"/><path d="M407.51,703.36a37.37,37.37,0,0,0-6.05-.45,28,28,0,0,0-4.19.25l-.28.73a15,15,0,0,0-1.22,4.29,2.37,2.37,0,0,0,.17,1.09l-.1.21a8,8,0,0,0-1.75-.18,7.52,7.52,0,0,0-1.78.18l-.1-.21c.52-.56,1.46-2.94,2.82-6L402.68,685H403l8.49,20.75a21.1,21.1,0,0,0,1.88,3.49l-.1.21a11.83,11.83,0,0,0-2.17-.18,10.06,10.06,0,0,0-2.06.18l-.1-.21a1.92,1.92,0,0,0,.24-1,9.64,9.64,0,0,0-.84-2.73ZM398,701.3h8.66l-4.33-10.89Z" fill="#c33891"/><path d="M416.86,709.27a100.59,100.59,0,0,0,.56-12c0-5.76-.07-10-.6-12.75l.07-.24a9.39,9.39,0,0,0,3.18-.88l.18.18a128.54,128.54,0,0,0-.52,13.73,105.56,105.56,0,0,0,.41,12l0,.21a8,8,0,0,0-1.61-.18,7.49,7.49,0,0,0-1.61.18Z" fill="#c33891"/><path d="M425.59,709.27a100.59,100.59,0,0,0,.56-12c0-5.76-.07-10-.6-12.75l.07-.24a9.39,9.39,0,0,0,3.18-.88l.18.18a113.84,113.84,0,0,0-.53,11.91,6.35,6.35,0,0,1,6.15-3.91c4.72,0,7.34,3.49,7.34,9.08,0,6.46-3.46,9.4-7.86,9.4a5.82,5.82,0,0,1-5.45-3c.07.94.14,1.71.24,2.24l0,.21a8,8,0,0,0-1.61-.18,7.49,7.49,0,0,0-1.61.18Zm2.86-9.29v2.09h0c0,3.71,1.92,6.15,5.2,6.15s5.66-2.27,5.66-7.37c0-4.3-1.78-7.34-5.34-7.34-3.29,0-5.52,2.52-5.52,6.5Z" fill="#c33891"/><path d="M459.08,709.27a20.49,20.49,0,0,0,.35-3C458,708.53,456.25,710,453,710c-4.64,0-6-3-6-8.67,0-3.35,0-7-.77-8.83l.1-.25a9.1,9.1,0,0,0,3.46-.77l.18.21a62.49,62.49,0,0,0-.67,9.61c0,4.15.88,6.81,4.19,6.81,2.94,0,5.28-1.68,6-5.8v-1.12c0-3,0-6.81-.73-8.73l.07-.24a9.16,9.16,0,0,0,3.46-.77l.14.21a61.83,61.83,0,0,0-.6,9.43,50,50,0,0,0,.46,8.14l0,.21a8.57,8.57,0,0,0-1.64-.18,6.49,6.49,0,0,0-1.5.18Z" fill="#c33891"/><path d="M484,692.22a93.4,93.4,0,0,0-.59,12c0,5.76.07,9.85.63,12.64l-.11.25a8,8,0,0,0-3.17.87l-.18-.21a102.61,102.61,0,0,0,.56-11.53,6.58,6.58,0,0,1-6.36,3.67c-4.89,0-7.61-3.49-7.61-9.08,0-6.46,3.56-9.4,8.14-9.4a6,6,0,0,1,5.62,3.08c-.07-.95-.17-1.75-.24-2.31l0-.21a8,8,0,0,0,1.61.18A7.32,7.32,0,0,0,484,692Zm-2.89,9.26,0,0c0-.83,0-1.67-.07-2.51-.14-3.46-2-5.73-5.34-5.73s-6,2.27-6,7.37c0,4.3,1.86,7.33,5.63,7.33C478.91,708,481.15,705.46,481.15,701.48Z" fill="#c33891"/><path d="M501.78,709.27a20.49,20.49,0,0,0,.35-3c-1.43,2.27-3.18,3.78-6.39,3.78-4.65,0-6-3-6-8.67,0-3.35,0-7-.77-8.83l.11-.25a9.14,9.14,0,0,0,3.46-.77l.17.21a63.83,63.83,0,0,0-.66,9.61c0,4.15.87,6.81,4.19,6.81,2.93,0,5.27-1.68,6-5.8v-1.12c0-3,0-6.81-.74-8.73l.07-.24a9.08,9.08,0,0,0,3.46-.77l.14.21a62,62,0,0,0-.59,9.43,51.52,51.52,0,0,0,.45,8.14l0,.21a8.76,8.76,0,0,0-1.65-.18,6.56,6.56,0,0,0-1.5.18Z" fill="#c33891"/><path d="M512.64,701c0,3.92,1.92,7.24,6.43,7.24a8.76,8.76,0,0,0,6-2.17l.24.14a7.33,7.33,0,0,1-.83,2.2c-1,1.05-3.29,1.61-5.66,1.61-6.11,0-8.87-3.81-8.87-9.36,0-5.17,2.9-9.19,8.17-9.19,5.48,0,7.65,4.33,7.65,9.53Zm0-1.53h10.61c-.1-3.43-1.78-6.32-5.13-6.32C515,693.17,512.89,695.78,512.61,699.49Z" fill="#c33891"/><path d="M530.31,709.27a46.69,46.69,0,0,0,.59-8c0-3,0-6.81-.77-8.69l.11-.25a11.18,11.18,0,0,0,3.32-.91l.17.18a18.7,18.7,0,0,0-.38,4v1.36c1.71-3.22,3.63-5.35,6.32-5.35,1.29,0,2.2.42,2.09.67l-.34,2.44-.32.07a2,2,0,0,0-2-1c-2.75,0-5.44,4.16-5.9,6.78v.59a50,50,0,0,0,.46,8.14l0,.21a8.57,8.57,0,0,0-1.64-.18,7.77,7.77,0,0,0-1.64.18Z" fill="#c33891"/><path d="M560.31,692.22a91.23,91.23,0,0,0-.6,12c0,5.76.07,9.85.63,12.64l-.1.25a8,8,0,0,0-3.18.87l-.18-.21a102.61,102.61,0,0,0,.56-11.53,6.57,6.57,0,0,1-6.35,3.67c-4.89,0-7.62-3.49-7.62-9.08,0-6.46,3.56-9.4,8.14-9.4a5.93,5.93,0,0,1,5.62,3.08c-.07-.95-.17-1.75-.24-2.31l0-.21a8,8,0,0,0,1.61.18,7.49,7.49,0,0,0,1.61-.18Zm-2.9,9.26,0,0c0-.83,0-1.67-.07-2.51-.14-3.46-2-5.73-5.34-5.73s-6,2.27-6,7.37c0,4.3,1.85,7.33,5.62,7.33C555.17,708,557.41,705.46,557.41,701.48Z" fill="#c33891"/><path d="M578,709.27a18,18,0,0,0,.35-3C577,708.53,575.22,710,572,710c-4.64,0-6-3-6-8.67,0-3.35,0-7-.76-8.83l.1-.25a9.1,9.1,0,0,0,3.46-.77l.17.21a63.83,63.83,0,0,0-.66,9.61c0,4.15.87,6.81,4.19,6.81,2.93,0,5.27-1.68,6-5.8v-1.12c0-3,0-6.81-.74-8.73l.07-.24a9.08,9.08,0,0,0,3.46-.77l.14.21a62,62,0,0,0-.59,9.43,51.52,51.52,0,0,0,.45,8.14l0,.21a8.57,8.57,0,0,0-1.64-.18,6.42,6.42,0,0,0-1.5.18Z" fill="#c33891"/><path d="M588.9,701c0,3.92,1.92,7.24,6.43,7.24a8.76,8.76,0,0,0,6-2.17l.25.14a7.57,7.57,0,0,1-.84,2.2c-1,1.05-3.29,1.61-5.66,1.61-6.11,0-8.87-3.81-8.87-9.36,0-5.17,2.9-9.19,8.17-9.19,5.48,0,7.65,4.33,7.65,9.53Zm0-1.53h10.61c-.1-3.43-1.78-6.32-5.13-6.32C591.21,693.17,589.15,695.78,588.87,699.49Z" fill="#c33891"/><path d="M608.11,712.73a22.55,22.55,0,0,1-3.08,2.58l-.77-.87,1.09-1c1.36-1.29,2-2.34,2-3.7a4,4,0,0,0-1.05-2.48V707l1.43-.73c.77-.42,2.06,1.36,2.06,2.93A5.2,5.2,0,0,1,608.11,712.73Z" fill="#c33891"/><path d="M643.34,685.27c-.59,1.92-.77,8.1-.77,12s.28,10.41.77,12l-.14.25a5.42,5.42,0,0,0-1.57-.18,8.43,8.43,0,0,0-1.67.18s0,0,0-.07L627.45,689c-.21,2.66-.24,5.56-.24,8.21,0,4,.31,10.79.8,12l-.14.21a7.27,7.27,0,0,0-1.71-.18,7.83,7.83,0,0,0-1.57.18l-.11-.21c.46-1.19.77-8,.77-12s-.31-10.93-.77-12l.11-.24a10.49,10.49,0,0,0,1.57.17,15.44,15.44,0,0,0,1.74-.17l12.47,20.39c.18-2.55.25-5.79.25-8.17,0-3.88-.32-10.76-.81-12l.11-.24a8.11,8.11,0,0,0,1.64.17,7,7,0,0,0,1.64-.17Z" fill="#c33891"/><path d="M673.79,709.27l0,.21a8.63,8.63,0,0,0-1.75-.18,12.16,12.16,0,0,0-1.88.18l-.11-.25a67,67,0,0,0,.63-10.62v-1.36c0-2.58,0-5.66-.14-8.21l-8.84,20.44h-.38l-8.17-18.38-.56-1.36c-.11,2.45-.18,5.1-.21,7.51,0,2.24-.07,4.44-.07,6.46a38.08,38.08,0,0,0,.28,5.56l-.11.21a4.22,4.22,0,0,0-1.29-.18,5.8,5.8,0,0,0-1.36.18l-.07-.21a98.67,98.67,0,0,0,.7-12v-1.78a55.56,55.56,0,0,0-.67-10.2l.11-.24a9,9,0,0,0,1.57.14c.63,0,1.43-.14,1.71-.14l8.7,19.73c2.93-6.53,5.94-13.87,8.17-19.73a13,13,0,0,0,1.75.17,7.66,7.66,0,0,0,1.71-.17l.11.24c-.5,2.1-.63,6.81-.63,10.62v1.36A80,80,0,0,0,673.79,709.27Z" fill="#c33891"/><circle cx="359.35" cy="697.08" r="5.63" fill="#7c68ad"/><circle cx="331.62" cy="697.08" r="4.5" fill="#7c68ad"/><circle cx="303.89" cy="697.08" r="3.38" fill="#7c68ad"/><circle cx="708.52" cy="697.08" r="5.63" fill="#7c68ad"/><circle cx="736.25" cy="697.08" r="4.5" fill="#7c68ad"/><circle cx="763.98" cy="697.08" r="3.38" fill="#7c68ad"/><path d="M551.85,59.75a1.15,1.15,0,0,1,1.15.92l7.55,26.61a1.11,1.11,0,0,0,1.1.9,1.17,1.17,0,0,0,.72-.25l34.32-21.74a1.11,1.11,0,0,1,.7-.26,1.18,1.18,0,0,1,1,1.78l-17.9,31.57a1.17,1.17,0,0,0,.69,1.74l33,10.59a1.19,1.19,0,0,1-.16,2.33l-37.62,6a1.19,1.19,0,0,0-1,1.33l1.45,23.47a1.21,1.21,0,0,1-1.2,1.37,1.06,1.06,0,0,1-.9-.47L557.93,124a1.09,1.09,0,0,0-.93-.48,1.22,1.22,0,0,0-.56.14l-33.66,16.23a1.13,1.13,0,0,1-.57.15,1.18,1.18,0,0,1-1-1.78l8.11-19.39c-8.91,2.12-15,4.72-25.19,4.72-6,0-14.23-.09-20.28-.29q-1.62-.06-3.18-.06c-28.51,0-39.73,10.69-40.37,19.88-.41,5.8.08,15.3,4.31,23.94l20.15-10.26c2.53-1.31,5.24-3,7.91-3,6.31,0,12.75,1.28,15.81,7.32l13.62,29.5a158.51,158.51,0,0,1,30.73-3q5.61,0,11.28.39c87.61,6.14,152.44,85.45,146.3,173.06-5.87,83.82-74.48,145.43-157.22,145.43q-5.61,0-11.29-.39c-87.61-6.14-155-82-148.87-169.66,2.73-39.07,20.78-73.78,46.17-99.77l-16.93-28.36c-4.36-8.59.53-20,9.07-24.35L427,174.46c-5.43-10.88-8.95-21.54-8.25-31.53,2-28.26,32.94-38.69,61.42-38.69,1.35,0,2.69,0,4,.07,5.59.18,11.4.37,17.09.37,10.14,0,19.93-.6,27.6-2.9L509.83,89.45a1.17,1.17,0,0,1,.58-2.17h.09l28.79.85h.07a1.17,1.17,0,0,0,1.1-.85l10.27-26.65a1.14,1.14,0,0,1,1.12-.88m1-9.67c-4.82-.78-9.93,4.27-11.7,9.67-1.83,5.56-8,20.82-8,20.82s-15.92-1.55-22.1-2.29c-8.7-1-16.25,2.48-12.18,9,3.69,5.9,6.84,6.62,6.42,7.44-4-.07-16.76-.13-20.69-.26-1.49,0-3-.08-4.45-.08-42.25,0-69.37,21.18-73.09,47.74-.57,8.2,1.22,17.66,5.35,28.23L406,173.64c-10.9,5.78-20,21.66-12.68,39.08,2.44,5.76,11.69,22.13,11.69,22.13a170.48,170.48,0,0,0-42.2,100.83c-6.57,93.83,64.41,175.51,158.24,182.08,4,.28,8.08.42,12.1.42,89.08,0,163.74-69.69,170-158.66A170.55,170.55,0,0,0,544.92,177.44c-4-.28-8.1-.42-12.1-.42a166.81,166.81,0,0,0-23.92,1.71s-7.9-14.84-10.48-19.81c-5-9.59-24.6-17.78-39-12.48-2.33.85-8.86,4.51-8.86,4.51-4.32-9.47,7.66-17.73,29.3-17.73.91,0,1.84,0,2.79.05,5.71.2,12.19.42,18.59.42,3.29,0,9.92-1.05,12.87-1.18-1.72,3.77-6.23,5.34-2.4,10.66a12.8,12.8,0,0,0,17.25,4.75l25.9-11.65L566,151.77a12.72,12.72,0,0,0,10.38,5.36c6.84-.62,12-11.89,11.61-15.55l-2.09-15.16,28.22-1.2.18,0,.18,0c6-.93,11.41-6,11.7-12.08.29-3.92-4.57-10-10.44-11.46L594.07,96l12.27-22.69a12.53,12.53,0,0,0,.13-12.89c-4-6.42-16.37-3.21-18.63-1.49-5.51,4.16-20.6,15.66-20.6,15.66l-3.5-15.52C562.43,53.25,556.38,50.64,552.9,50.08Z" fill="#654198"/><path d="M549.5,209.4a3.76,3.76,0,0,1-3.84-3.65,3.76,3.76,0,1,1,7.51-.17A3.74,3.74,0,0,1,549.5,209.4Z" fill="#7c68ad"/><path d="M520.31,205.72a3.76,3.76,0,0,1-3.82,3.68,3.71,3.71,0,0,1-3.68-3.79,3.75,3.75,0,1,1,7.5.11Z" fill="#7c68ad"/><path d="M601.81,251.52a3.7,3.7,0,1,1-3.5-3.93A3.67,3.67,0,0,1,601.81,251.52Z" fill="#7c68ad"/><path d="M467.92,255.05a3.73,3.73,0,0,1-.14-7.46,3.7,3.7,0,0,1,3.77,3.68A3.62,3.62,0,0,1,467.92,255.05Z" fill="#7c68ad"/><path d="M637.76,336.67c5.76,7.05,4.72,13-2.75,15.88,2.75,9.25,1.22,12.21-7.84,15.07-.19,8-3.93,12.31-13,10.28-2.65,7.29-9.72,10-16.1,3.87-7.59,5.4-12.09,4.41-16.36-3.62-9.82.57-12.36-1.49-12.9-10.5-8.81-2.29-11-6.23-8.11-14.62-7.94-5.67-8.6-9.92-2.5-16.15-5.57-8.06-5.05-11.44,2.61-16.87-3.26-8.19-.92-12.33,8.09-14.31,0-9,4.23-12.56,12.47-10.49,5.35-8.51,9.51-9.54,16.19-4,8.27-5.41,12.37-4.46,16.61,3.85,8.26-2,13.12,2,12.87,10.39,9,2.81,10.62,5.71,8.19,14.64C642.63,325.35,643.28,329.58,637.76,336.67Zm-39.83-8.62c-.6-.81-1-1.33-1.38-1.88-4-5.78-9.73-7.6-14.74-4.66-5.41,3.18-8.26,11.44-5.8,16.89a47.45,47.45,0,0,0,18.26,21.35c2.72,1.7,4.93,1.94,7.14-.1,4.81-4.44,9.91-8.68,14.06-13.69,4.5-5.43,7.19-11.79,3.49-19-4-7.88-13.57-8.76-18.9-1.74C599.41,326.05,598.77,326.92,597.93,328.05Zm-32.62,24.79c-3.3,2.37-4.54,5.06-2.57,8.46,1.86,3.18,4.62,3.75,8.16,2Zm45.4-54.65c.77-4.36-1.1-7.32-4.78-7.79-3.13-.4-5.44,1.6-6,5.17Zm-37.56,8.95,9.07-7.62c-2.72-2.89-5.59-3.39-8.52-1S570.6,303.87,573.15,307.14Zm12.06-8.93,11.2-2.79c-1.3-3.86-3.57-5.69-7.37-4.74C585.67,291.53,584.39,294.22,585.21,298.21Zm-20.88,24.91c-4.5.08-7.33,2.09-7.34,5.43s1.66,5.7,5.44,6.25C563.07,330.88,563.67,327.18,564.33,323.12Zm49.26,50.18c3.5,3.36,6.06,3.56,8.87.93,2.56-2.4,2.53-4.86-.14-7.76Zm11-63.87,5.92,10.66c3.12-2.2,4.42-4.76,2.7-8S628.65,308,624.62,309.43Zm-28.48,68c-1.89-.4-3.77-.74-5.64-1.19s-3.62-1-5.62-1.53c-.78,4.18.74,6.61,4.39,7.62C592.6,383.3,594.85,381.67,596.14,377.47Zm3.61,0-.68,1.12c1.69,1.27,3.29,3.4,5.08,3.57,1.94.17,4.4-1.1,6-2.49,1-.87.76-3.12,1.13-5Zm31.76-27.58c4.32.75,6.2-1.51,6.89-5,.75-3.8-.73-5.6-5.07-6.47C632.73,342.25,632.13,346,631.51,349.93Zm-.06-26.83c.69,4.14,1.32,7.9,2,11.78,4.34-.87,5.79-3.54,5.14-7.09S635.61,322.6,631.45,323.1ZM625,363.39c4.38,1.33,7.22.22,8.65-3.09,1.52-3.52-.54-5.26-3.14-6.95C628.57,356.82,626.84,360,625,363.39Zm-11.34-63.75,9.2,7.51c2.19-3.41,2.23-6.34-.86-8.73C619.1,296.21,616.36,296.52,613.63,299.64Zm-31.44,73.64-8.85-6.83c-3.24,2.66-2.26,5.34-.13,7.71C575.63,376.87,578.72,376.53,582.19,373.28ZM564.44,349.9c-.81-4.15-1.55-7.89-2.33-11.88-3.56,1.56-5.71,3.93-4.75,7.75C558.16,348.89,560.51,350.48,564.44,349.9Zm6.77-40.6c-4.24-1.25-7.29-.56-8.84,3.27-1.29,3.18-.1,5.62,3,7.44C567.31,316.43,569.16,313.06,571.21,309.3Z" fill="#654198"/><path d="M427.58,335.71c-4.67-6-3.92-10.9,3.2-15.39-2.25-9.52-.49-12.7,8.11-14.61,1.09-9.85,4.07-12.26,13.13-10.6,3.73-8.2,9-9.46,16.16-3.91,7.59-5.52,11.94-4.47,16.24,3.91,7.11-2.14,13.57,1.38,12.67,10.28,9.53,3.36,11.46,6.73,8.21,14.37,7.71,6.82,8.19,10,2.59,16.88,5.84,6.6,5.27,10.86-2.14,16.1,2.1,9.65.07,13.14-8.59,14.7.63,6.73-2.73,12.67-12.62,10.51-3.18,7.2-9.1,10-16.32,3.82C461,387.24,456,386.09,452,378c-9.47,1-12.3-1.2-12.89-10-9.59-4.53-11.07-7.36-8.32-13.82-2.25-3.24-5.14-5.74-5.66-8.65S426.53,339.43,427.58,335.71Zm40.58-7.64c-.83-1.1-1.47-2-2.13-2.83-5.54-7.12-14.72-6.28-18.85,1.73a14.72,14.72,0,0,0,.76,15.23c4.63,7.43,10.24,14.08,18.25,18.1a5.8,5.8,0,0,0,4.86,0,50.07,50.07,0,0,0,18.84-21.42c2.67-5.81-.1-14.19-5.65-17.28-5.35-3-10.83-1.15-14.95,5C469,327,468.67,327.38,468.16,328.07ZM455.5,298.25l11-2.85c-1.59-4.25-3.92-5.7-7.23-4.7S454.48,294.36,455.5,298.25ZM493,307.16c2.37-4.15,2-7.06-1-9s-5.73-1.5-8,1.51ZM469.7,295.48,481,298.17c.5-4.38-1.07-7.15-4.57-7.66S470.72,291.79,469.7,295.48Zm34,39.7c3.94-1.46,5.94-3.67,5.25-7.21s-3.15-5.31-7.18-5C502.38,327.11,503,330.93,503.66,335.18Zm-51.18-35.57c-3.68-3.2-6.43-3.37-9-.64s-2.46,5.29-.13,8.11ZM432.66,335c.68-4.25,1.29-8,1.94-12-3.87-.3-6.37,1.12-7.08,4.64C426.78,331.33,428.4,333.84,432.66,335Zm10.94,31.29c-2.55,3.37-2.38,6.07.41,8.28s5.36,1.85,8.33-1.4Zm-2.3-56.72c-4.62-1.46-7.21-.6-8.61,2.78s-.19,5.77,2.94,7.57Zm51.61,56.25-9.1,7.8c3.3,3,6.3,3.1,9,.47C495.37,371.65,495.47,368.77,492.91,365.86Zm-23.35,11.8c1.44,3.87,3.75,5.61,7.51,4.63,3.49-.92,4.65-3.34,3.76-7.42Zm-3.08-.11-11.28-2.68c-.41,4.54,1.22,7.18,4.8,7.6S465.8,381.31,466.48,377.55Zm-31.05-24.46c-2.39,2.49-4.94,4.46-2.36,8,2,2.79,4.36,4.07,8.15,2.21Zm66.25-2.93c4.27.33,6.82-1.72,7.24-5.13s-1.47-6-5-6.9C503.14,342.23,502.43,346.11,501.68,350.16Zm-69-11.94c-4.29,1.14-5.92,3.29-5.13,6.9.75,3.39,2.58,5.39,6.6,4.71ZM495,363.69c4.58,1,8.11-.38,9-3.46s-.24-5.31-3.13-6.72C498.85,357,497,360.18,495,363.69Zm-.1-54.31,5.93,10.76c3.07-2.14,4.32-4.65,2.73-8C501.83,308.63,498.92,308,494.86,309.38Z" fill="#654198"/><path d="M564.2,224.5c-.65,6.6.46,12.21-4.08,16.63,5.41,4.62,10.7,9.16,16.29,14L560.23,269c4.35,4.36,3.4,10.06,3.89,15.88-5.58-.59-11.29.76-15.83-3.94l-13.93,16.24-13-15.07-16.69,3.55c.29-6.39-.65-12,3.84-16.6l-16.22-13.92,15.09-13c-1.2-5.66-2.3-10.89-3.53-16.71,6.52.19,12.07-.42,16.62,3.78L534.32,213l13,15.16ZM572.57,255c-4.11-3.58-7.75-7.28-11.91-10.24-5.95-4.23-15.06-5-20.59,2.08,5.77,6.88,5.76,8.83,0,16.75,7,6.45,15.47,6.61,22.65.35C565.91,261.15,569,258.22,572.57,255Zm-76.39.09c3.52,3.17,6.82,6.29,10.28,9.21,7.18,6.08,16.56,5.59,21.79-.64-1.47-2.86-4-5.57-3.93-8.21.09-3.05,2.45-6,3.93-9.28-6.21-7.18-16.52-5-22.35.06C502.69,249.05,499.58,252,496.18,255.1ZM521,238.8l10.73,6.6c1.22-.53,4.13-.22,5.18-.06l10.78-6.56c.3-10.2-8.23-15-13.46-22.19C529,224,520.36,228.85,521,238.8Zm13.32,54.77c5.36-7.44,13.92-12.25,13.25-22.53a31.15,31.15,0,0,1-5.08-2.64c-2.86-2.21-5.87-3.74-9.56-3.53a5.34,5.34,0,0,0-2.39.44c-3.17,2-6.27,4.05-9.58,6.23C520.51,281.4,529,286.21,534.36,293.57Zm7.46-38.36a7.49,7.49,0,0,0-15-.22,7.49,7.49,0,0,0,15,.22Zm19.55-27.1c-10.33-1.11-13.34,2-10.85,11C559.82,241.12,562,239,561.37,228.11Zm-54,0c-.81,10.72,2.37,13.75,11,10.72C520.27,229.84,517.41,227,507.34,228.12Zm43,43c-2.08,9.1,1.75,12.71,11,10.6C561.82,271,560,269.23,550.37,271.13Zm-32.09,0c-9.34-1.79-12.32,1.33-10.74,10.87C517.91,282.92,520.33,280.51,518.28,271.13Z" fill="#c23790"/><path d="M513.61,305.73a3.89,3.89,0,0,1,4-4,4.08,4.08,0,0,1,4,4,4,4,0,0,1-4,4A3.91,3.91,0,0,1,513.61,305.73Z" fill="#7c68ad"/><path d="M483.7,114a2.34,2.34,0,0,1,2.38-2.38,2.44,2.44,0,0,1,2.39,2.41,2.39,2.39,0,0,1-2.41,2.39A2.36,2.36,0,0,1,483.7,114Z" fill="#7c68ad"/><path d="M552.41,305.71a4,4,0,1,1-7.92.12,4,4,0,0,1,3.72-4.05A3.94,3.94,0,0,1,552.41,305.71Z" fill="#7c68ad"/><path d="M446.62,122.25a3.17,3.17,0,1,1-6.33.1,3.17,3.17,0,1,1,6.33-.1Z" fill="#7c68ad"/><path d="M647.46,259.36a4,4,0,1,1-7.92.12,4,4,0,0,1,3.72-4.05A3.94,3.94,0,0,1,647.46,259.36Z" fill="#7c68ad"/><path d="M418.56,259.38a4,4,0,1,0,7.92.12,4,4,0,0,0-3.72-4.05A3.93,3.93,0,0,0,418.56,259.38Z" fill="#7c68ad"/><path d="M460.34,203.66a6.61,6.61,0,1,0,6.17,6.69A6.51,6.51,0,0,0,460.34,203.66Zm-.47,9.07a2.41,2.41,0,0,1-2.38-2.5,2.45,2.45,0,0,1,2.61-2.44,2.52,2.52,0,0,1,2.27,2.5A2.46,2.46,0,0,1,459.87,212.73Z" fill="#7c68ad"/><path d="M536.93,324.3a3.92,3.92,0,1,1-7.84,0,3.92,3.92,0,1,1,7.84,0Z" fill="#7c68ad"/><path d="M529.31,110.77a1.57,1.57,0,1,1-3.14,0,1.57,1.57,0,1,1,3.14,0Z" fill="#7c68ad"/><path d="M466.9,115.57a2.75,2.75,0,1,1-5.49,0,2.75,2.75,0,1,1,5.49,0Z" fill="#7c68ad"/><path d="M533,342a4,4,0,0,1,3.93,3.61c0,1.81-2.16,4.4-3.7,4.4a4.52,4.52,0,0,1-4.12-4.38A3.88,3.88,0,0,1,533,342Z" fill="#7c68ad"/><path d="M507.32,112a2,2,0,0,1,2,1.81c0,.9-1.08,2.2-1.85,2.2a2.25,2.25,0,0,1-2.06-2.19A2,2,0,0,1,507.32,112Z" fill="#7c68ad"/><path d="M513.41,396.17a24,24,0,0,1,3.05-9.57c3.46-6.54,7.13-13,10.69-19.46,1.22-2.23,2.33-4.51,3.57-6.72s3.38-2.15,4.57,0c4.39,7.91,8.87,15.77,13,23.79a55.19,55.19,0,0,1,3.95,10.49,8.44,8.44,0,0,1-.38,5.08c-2.06,5.1-5.76,6.29-10.58,3.57a54.8,54.8,0,0,1-5.63-3.84c-2.36-1.76-3-1.76-5.44,0a50.68,50.68,0,0,1-6,4.07C518.71,406.46,513.35,403,513.41,396.17Zm34.94-3a27.37,27.37,0,0,0-1.52-5.13c-4-7.7-8.09-15.34-12.23-23-.79-1.47-2.54-1.28-3.41.29-3.42,6.15-6.87,12.28-10.18,18.49-1.62,3-3.14,6.17-3.13,9.73,0,4.54,4.16,7.19,8.16,5.14a33.64,33.64,0,0,0,5.12-3.43,2.62,2.62,0,0,1,3.69,0,34.72,34.72,0,0,0,4.56,3.17C543.86,401,548.13,398.36,548.35,393.16Z" fill="#c23790"/><path d="M412.44,378.52a4.07,4.07,0,1,1-7.92-1.86,4.07,4.07,0,0,1,7.92,1.86Z" fill="#7c68ad"/><path d="M403.59,369.23a2.64,2.64,0,0,1-2.06-3.2,2.59,2.59,0,0,1,3.15-2.12,2.67,2.67,0,0,1,2.16,3.28A2.73,2.73,0,0,1,403.59,369.23Z" fill="#7c68ad"/><path d="M402.29,358.23a1.86,1.86,0,0,1,.74-3.65,1.84,1.84,0,0,1,1.49,2.26A1.86,1.86,0,0,1,402.29,358.23Z" fill="#7c68ad"/><path d="M470.37,402.79a1.27,1.27,0,0,1-1-1.55,1.25,1.25,0,0,1,1.52-1,1.28,1.28,0,0,1,1,1.58A1.32,1.32,0,0,1,470.37,402.79Z" fill="#7c68ad"/><path d="M481.49,398.09a1,1,0,0,1,.42-2,1,1,0,1,1-.42,2Z" fill="#7c68ad"/><path d="M432.69,426.52a4.07,4.07,0,0,1-4.92,3.1,4.1,4.1,0,1,1,4.92-3.1Z" fill="#7c68ad"/><path d="M440.81,424.53a1.87,1.87,0,0,1,.75-3.66,1.84,1.84,0,0,1,1.48,2.26A1.87,1.87,0,0,1,440.81,424.53Z" fill="#7c68ad"/><path d="M654.41,378.52a4.07,4.07,0,1,0,3.11-4.9A4.06,4.06,0,0,0,654.41,378.52Z" fill="#7c68ad"/><path d="M663.26,369.23a2.62,2.62,0,0,0,2.06-3.2,2.59,2.59,0,0,0-3.15-2.12,2.67,2.67,0,0,0-2.16,3.28A2.73,2.73,0,0,0,663.26,369.23Z" fill="#7c68ad"/><path d="M664.56,358.23a1.86,1.86,0,0,0-.74-3.65,1.84,1.84,0,0,0-1.49,2.26A1.87,1.87,0,0,0,664.56,358.23Z" fill="#7c68ad"/><path d="M596.48,402.79a1.27,1.27,0,0,0,1-1.55,1.24,1.24,0,0,0-1.52-1,1.28,1.28,0,0,0-1,1.58A1.32,1.32,0,0,0,596.48,402.79Z" fill="#7c68ad"/><path d="M585.36,398.09a1,1,0,0,0-.42-2,1,1,0,1,0,.42,2Z" fill="#7c68ad"/><path d="M634.16,426.52a4.07,4.07,0,0,0,4.92,3.1,4.1,4.1,0,1,0-4.92-3.1Z" fill="#7c68ad"/><path d="M626,424.53a1.81,1.81,0,0,0,1.42-2.2,1.78,1.78,0,0,0-2.16-1.46,1.84,1.84,0,0,0-1.49,2.26A1.87,1.87,0,0,0,626,424.53Z" fill="#7c68ad"/><path d="M533.16,493.16a17.52,17.52,0,0,1-1.14,2,4.3,4.3,0,0,1-7.16-.35,6.1,6.1,0,0,1-.28-6.34,20.75,20.75,0,0,1,8.11-8.45.73.73,0,0,1,.63,0,20.89,20.89,0,0,1,8.22,8.19,6.12,6.12,0,0,1,0,6.24,4.37,4.37,0,0,1-7.8,0C533.52,494,533.34,493.53,533.16,493.16Z" fill="#c23790"/><path d="M476.57,244.55a1.61,1.61,0,0,0,1.55-1.78,1.69,1.69,0,0,0-1.95-1.64,1.71,1.71,0,0,0-1.56,1.93A1.66,1.66,0,0,0,476.57,244.55Z" fill="#7c68ad"/><path d="M589.82,244.55a1.6,1.6,0,0,0,1.54-1.78,1.67,1.67,0,0,0-1.94-1.64,1.73,1.73,0,0,0-1.57,1.93A1.67,1.67,0,0,0,589.82,244.55Z" fill="#7c68ad"/><path d="M430.93,154.91a4,4,0,0,1,3.92,3.61c0,1.81-2.16,4.39-3.7,4.4a4.52,4.52,0,0,1-4.12-4.38A3.88,3.88,0,0,1,430.93,154.91Z" fill="#7c68ad"/><path d="M428.29,137.52a3.5,3.5,0,0,1,3.57-3.58,3.68,3.68,0,0,1,3.59,3.62,3.61,3.61,0,0,1-3.63,3.58A3.53,3.53,0,0,1,428.29,137.52Z" fill="#7c68ad"/><path d="M537.29,106.88a6.75,6.75,0,0,0,5-2.51,14.89,14.89,0,0,0,2.45-4.45c.34-.89.69-1.77,1-2.66a9.14,9.14,0,0,1,4.66-5,7.39,7.39,0,0,0,1.28-.83,2.21,2.21,0,0,0-.55-3.77,4.31,4.31,0,0,0-4.65.72,8.53,8.53,0,0,0-2.82,4.67c-.68,2.57-1.23,5.17-1.9,7.73a17.8,17.8,0,0,1-1.11,3A5.46,5.46,0,0,1,537.29,106.88Z" fill="#d95b2a"/><path d="M537.13,112.06a9.58,9.58,0,0,1,6.34-1.9,75.8,75.8,0,0,1,10.63,1.4c5,1.12,9.73.66,14.15-2.08a10.68,10.68,0,0,1,2.08-1,3.27,3.27,0,0,1,3.56.75,2.92,2.92,0,0,1,.63,3.09c-.9,3.42-3.81,5.51-8.06,5.71-3.26.15-6.32-.84-9.36-1.85-3.76-1.26-7.49-2.59-11.25-3.85A14.65,14.65,0,0,0,537.13,112.06Z" fill="#d95b2a"/><path d="M544.25,107.4c6.54-.92,12.64-2.81,18-6.54a96.17,96.17,0,0,0,8.48-7.33c1-.92,1.9-2,2.94-2.91a4,4,0,0,1,2-1.12,4.63,4.63,0,0,1,2.87.44c.33.21.14,1.77-.24,2.48a22.74,22.74,0,0,1-8.49,8.4c-7,4.35-14.53,7.15-23,6.84C546,107.62,545.11,107.49,544.25,107.4Z" fill="#d95b2a"/><path d="M536.93,113.43a10.94,10.94,0,0,1,2.8,5.77,12.68,12.68,0,0,1-.68,6.34,6.49,6.49,0,0,1-2.46,3.15c-.69.5-1.3.51-1.73.11a1.31,1.31,0,0,1-.19-1.85c.5-.83,1.12-1.58,1.64-2.4a10.61,10.61,0,0,0,.82-10.54C537.07,113.87,537,113.73,536.93,113.43Z" fill="#d95b2a"/><path d="M535.1,105.29A11,11,0,0,0,536.18,99a12.69,12.69,0,0,0-2.41-5.89,6.6,6.6,0,0,0-3.25-2.35c-.8-.28-1.39-.12-1.69.39a1.31,1.31,0,0,0,.33,1.82c.71.65,1.52,1.21,2.25,1.85a10.58,10.58,0,0,1,3.71,9.9C535.1,104.82,535.11,105,535.1,105.29Z" fill="#d95b2a"/><path d="M533,471.44a11.93,11.93,0,0,1-20.59-2.37,11.64,11.64,0,0,1-10.71,2.51c-4-1-6.69-3.53-8.43-7.47a11.72,11.72,0,0,1-11.07,2,12.6,12.6,0,0,1-8-7.68c-7.77,4.19-16,1.38-18.51-6.33a15,15,0,0,1-.55-4.78c.14-8.19.38-16.38.56-24.57a8.65,8.65,0,0,1,8.78-8.87A13,13,0,0,1,475,418.54c2.13-3.48,5.08-5.39,9.09-5.41a13.07,13.07,0,0,1,9.8,4.32c2-3.53,4.74-5.62,8.74-5.87a12.47,12.47,0,0,1,10.16,3.8c2.11-4,5.22-6.2,9.68-6.4a11.85,11.85,0,0,1,10.46,5,11.82,11.82,0,0,1,10.55-5,10.62,10.62,0,0,1,9.54,6.42,12.66,12.66,0,0,1,10.1-3.84,10,10,0,0,1,8.75,5.76c6.69-6.16,14.93-5.35,19.06,1.07a13.24,13.24,0,0,1,9.92-4.53c5.62,0,9.23,3.56,9.36,9.2.17,8,.15,16.1.63,24.12a12.46,12.46,0,0,1-14.25,13.19,36.12,36.12,0,0,1-5-1.72,12.35,12.35,0,0,1-8,7.46,11.21,11.21,0,0,1-10.81-2c-4.17,8.84-13.59,9.65-19.35,4.94a11.44,11.44,0,0,1-9.56,7.16C539.42,476.76,535.82,475.11,533,471.44Zm2.36-27.79h14.57c0-8.53.11-16.71,0-24.87-.07-3.62-3.29-6.2-7.08-6.17s-7.34,2.69-7.4,5.95C535.25,427,535.35,435.34,535.35,443.65Zm-19.37.09h14.59c0-8.36.09-16.68,0-25-.06-3.48-3.66-6.16-7.68-6.12A6.71,6.71,0,0,0,516,419c-.09,2.43,0,4.86,0,7.29Zm52.74-1.27c0-7.65.14-15-.13-22.37-.05-1.35-1.52-3.08-2.8-3.89-4.69-2.95-11.85.88-11.55,6.66.3,5.59.13,11.21.16,16.82,0,3.71,0,3.73,3.7,3.5S565.27,442.71,568.72,442.47Zm-57.14,1c0-7.44.14-14.5-.05-21.56-.11-4.49-5-7.65-9.62-6.51-2.81.71-4.65,2.39-4.71,5.12-.15,7.2-.05,14.41-.05,21.91Zm23.74,4.83v16.91c0,4.51,2.8,7.47,7.2,7.39s8-3.25,7.58-7.43c-.15-1.76,0-3.54,0-5.3V448.33Zm-19.45,0c0,6.13-.11,12.16,0,18.19.08,3.4,3.87,6.25,7.7,6.15s6.9-2.87,6.95-6.55c.06-4.34,0-8.69,0-13v-4.75Zm71.79-8c0-6.52.08-12.7,0-18.88,0-2.15-2.07-4-4.33-4.42-4.92-.94-10.33,2.6-10,8.05.21,3.9.15,7.81.2,11.72,0,1.66,0,3.32,0,5.22ZM492.59,442V425.39a18.07,18.07,0,0,0-.09-2.21c-.75-5.1-8.08-8.22-12.15-5-1,.81-1.56,2.37-2.07,3.68a7.89,7.89,0,0,0-.15,2.63c0,5.21,0,10.42,0,15.85Zm61.86,5.91c0,4.45,0,8.71,0,13s1.82,6.61,5.75,7.29c3.45.6,7.69-1.76,8.65-5a16.18,16.18,0,0,0,.32-4.36c0-3.94,0-7.89,0-11.91Zm-43,0-14.75-1c0,4.59.1,9,0,13.38a7.23,7.23,0,0,0,4.07,7c4.67,2.58,10.41.09,10.66-4.74S511.44,453,511.44,447.92Zm80.67-8.19c5-.86,9.33-1.59,13.65-2.42a1.67,1.67,0,0,0,1-1.27c0-4.49-.06-9-.23-13.47a4.83,4.83,0,0,0-3.47-4.65c-4.58-1.57-10.57,2.05-10.89,6.87S592.11,434.48,592.11,439.73Zm-118.87-.1a5,5,0,0,0,.3-.88c.1-4.05.24-8.1.28-12.14,0-4.82-2.7-8-7.46-8.88-4.16-.75-6.92,1.48-7,5.69s-.19,8.24-.16,12.37a2,2,0,0,0,1.16,1.53C464.57,438.17,468.85,438.87,473.24,439.63Zm115.16,5.11c-5,.56-9.48,1-13.91,1.64-.41.05-1,1.16-1,1.79,0,2.95,0,5.91.14,8.85a5.73,5.73,0,0,0,5.14,5.94c4.57.81,9.52-3.24,9.58-7.89C588.44,451.76,588.4,448.45,588.4,444.74Zm-110.86,0v9.16c0,.37,0,.74,0,1.11a8.46,8.46,0,0,0,8.85,8,5.72,5.72,0,0,0,5.8-5.52c.2-3.24.22-6.49.19-9.74a1.92,1.92,0,0,0-1.11-1.44C486.89,445.74,482.5,445.29,477.54,444.74Zm115-.63v6.32a11.42,11.42,0,0,0,0,1.55,5.47,5.47,0,0,0,4.73,4.83c4.1.65,9-2.53,9.65-6.64.41-2.71.08-5.52.08-8.46Zm-133.69-2.44v6.4a8.73,8.73,0,0,0,7.48,8.72c3.61.54,6.7-1.37,7-4.67.26-2.61.06-5.26.06-8Z" fill="#654198"/><path d="M438.12,265.32a12.9,12.9,0,0,1,8.56-2.57A101.41,101.41,0,0,1,461,264.64c6.82,1.51,13.13.89,19.11-2.81a15.23,15.23,0,0,1,2.8-1.32,4.41,4.41,0,0,1,4.81,1c1.22,1.15,1.25,2.63.84,4.18-1.21,4.61-5.14,7.43-10.87,7.7-4.4.2-8.53-1.13-12.63-2.5-5.07-1.7-10.11-3.49-15.19-5.19A19.61,19.61,0,0,0,438.12,265.32Z" fill="#dd6faa"/><path d="M627.9,265.3c-5.74-1.74-11.06,0-16.39,1.78-5.79,1.93-11.56,3.92-17.39,5.7a16.72,16.72,0,0,1-9.73,0,9.64,9.64,0,0,1-7-7.15,4.11,4.11,0,0,1,5.14-5.22,8.77,8.77,0,0,1,2.7,1.12c6.64,4.33,13.71,4.66,21.25,2.9a83.68,83.68,0,0,1,13.34-1.62A13.29,13.29,0,0,1,627.9,265.3Z" fill="#dd6faa"/><path d="M583.23,220.21c7.28,0,12.94,3.67,18.22,8.15A43.08,43.08,0,0,1,613.78,246a3.27,3.27,0,0,1,.36,1.15,8.14,8.14,0,0,1-.24,1.52,5.51,5.51,0,0,1-1.1-.84c-1.62-2.1-3.07-4.34-4.82-6.31-5.94-6.72-13.59-10.46-22.2-12.51A39.56,39.56,0,0,1,579.4,227c-2-.88-2.64-2.18-2.27-4.15s2-2.23,3.52-2.46C581.5,220.25,582.37,220.26,583.23,220.21Z" fill="#dd6faa"/><path d="M483.38,220.12c1.08.17,2.17.27,3.22.53a2.63,2.63,0,0,1,2.27,2.3c.17,1.46,0,3-1.49,3.57a42.48,42.48,0,0,1-7.13,2.5c-11.48,2.66-20.64,8.57-27,18.65-.27.43-.86.67-1.31,1a5.08,5.08,0,0,1,0-1.73c4.1-11.39,11.56-19.86,22.53-25,2.69-1.26,5.89-1.41,8.86-2.06Z" fill="#dd6faa"/><path d="M667.91,342.91c-.41-5.87-.23-12.23-1.4-18.33-2.53-13.33-10.2-23.47-21.16-31.25a66,66,0,0,1-7.87-6.22c-2.85-2.75-3-5.3-1.25-8.2,1.32-2.16,4.21-2.93,7.66-1.79,5.35,1.78,10.34,4.36,14,8.77,13.58,16.54,18.11,34.91,10.69,55.54C668.3,342.1,668,342.74,667.91,342.91Z" fill="#dd6faa"/><path d="M399.85,343.49c-4.33-10-5.67-19.52-4.06-29.54a58.78,58.78,0,0,1,12.11-27,30.63,30.63,0,0,1,15.41-10.4c3.76-1.19,6.48-.37,7.82,2,1.68,3,1.31,5.68-1.83,8.4-3.4,2.95-7.22,5.41-10.7,8.27C404.31,307,398,322.15,399.84,340.64,399.91,341.33,399.85,342,399.85,343.49Z" fill="#dd6faa"/><path d="M464.29,403.38a37.54,37.54,0,0,1-21.1,5.55,43.12,43.12,0,0,1-20.68-6.43,22.49,22.49,0,0,1-8.92-10.29c-1.19-2.62-.83-4.67.81-5.86,2.05-1.48,4-1.45,6.26.6,2.44,2.21,4.56,4.77,6.95,7,9.81,9.36,21.34,12.64,34.61,9.65C462.71,403.53,463.23,403.51,464.29,403.38Z" fill="#dd6faa"/><path d="M405.89,409.56a11.58,11.58,0,0,1,7.93,5.21,26,26,0,0,1,3.3,8.05c.42,1.57.83,3.14,1.21,4.72,1,4.13,3.54,7.08,7,9.4a11.9,11.9,0,0,1,2,1.66,3.79,3.79,0,0,1-1.67,6.31,7.43,7.43,0,0,1-7.77-2.12,14.73,14.73,0,0,1-3.9-8.5c-.66-4.49-1.09-9-1.74-13.51a29.53,29.53,0,0,0-1.31-5.32A9.39,9.39,0,0,0,405.89,409.56Z" fill="#dd6faa"/><path d="M602.56,403.38a37.56,37.56,0,0,0,21.11,5.55,43.09,43.09,0,0,0,20.67-6.43,22.43,22.43,0,0,0,8.92-10.29c1.19-2.62.83-4.67-.8-5.86-2.06-1.48-4-1.45-6.27.6-2.44,2.21-4.56,4.77-7,7-9.8,9.36-21.34,12.64-34.61,9.65C604.14,403.53,603.63,403.51,602.56,403.38Z" fill="#dd6faa"/><path d="M661,409.56a11.58,11.58,0,0,0-7.93,5.21,26,26,0,0,0-3.3,8.05c-.42,1.57-.83,3.14-1.21,4.72-1,4.13-3.54,7.08-7,9.4a11.9,11.9,0,0,0-2,1.66,3.79,3.79,0,0,0,1.67,6.31,7.43,7.43,0,0,0,7.77-2.12,14.73,14.73,0,0,0,3.9-8.5c.66-4.49,1.09-9,1.74-13.51a29.53,29.53,0,0,1,1.31-5.32A9.39,9.39,0,0,1,661,409.56Z" fill="#dd6faa"/><path d="M453.87,199.88c-3.2-2.79-6.49-5.49-9.56-8.4a47.82,47.82,0,0,1-9.05-10.75c-1.29-2.25-2.5-4.54-2.6-7.24a3.73,3.73,0,0,1,5.32-3.62,11.32,11.32,0,0,1,5.52,5.29c2.44,4.81,4.7,9.72,6.89,14.65,1.42,3.2,2.58,6.51,3.86,9.76Z" fill="#dd6faa"/><path d="M447.83,210.92c-3.49-.42-6.83-1.09-10.19-1.17-4.81-.1-9.64.26-14.46.35a19.39,19.39,0,0,1-4.17-.3,3.41,3.41,0,0,1-3.06-2.86,4.18,4.18,0,0,1,2-4.18c2.8-2,6-2.29,9.31-2.29,7.73,0,13.95,3.41,19.26,8.77.34.34.66.7,1,1.07A4.08,4.08,0,0,1,447.83,210.92Z" fill="#dd6faa"/><path d="M466.76,199.68c-2.54-6.64-3.35-13.23-1-19.89,1.46-4.2,3.54-8.09,7.63-10.38a5.72,5.72,0,0,1,2.88-.65,3,3,0,0,1,3.13,3.44,10.5,10.5,0,0,1-1.44,4.57,78.48,78.48,0,0,0-10.87,22.46A2,2,0,0,1,466.76,199.68Z" fill="#dd6faa"/><path d="M449.4,203.11c-1.73-.84-3.46-1.65-5.17-2.52-3.41-1.73-7.15-2.08-10.83-2.69a11.2,11.2,0,0,1-5.73-2.79c-1.63-1.47-1.39-3.18.52-4.29a6.7,6.7,0,0,1,5.74-.36,29.19,29.19,0,0,1,13.66,9.06,28.18,28.18,0,0,1,2.08,3.39Z" fill="#dd6faa"/><path d="M459.16,197.63a17.35,17.35,0,0,1-3.78-8.4c-.87-4.5-1.16-9,.41-13.41a7.25,7.25,0,0,1,2.64-3.13c1.75-1.22,3.34-.39,3.81,1.72a11.29,11.29,0,0,1-.48,7c-2.17,5-2.6,10.19-2.58,15.5C459.18,197.06,459.18,197.19,459.16,197.63Z" fill="#dd6faa"/><path d="M472.29,203.62a5,5,0,0,1,0-.87c1.34-6.68,4.84-11.68,11.23-14.41,1.92-.82,3.64-.57,4.66.55a3.31,3.31,0,0,1-.81,5.11,56,56,0,0,1-5.91,3.17,24.55,24.55,0,0,0-8.65,6.07A3.34,3.34,0,0,1,472.29,203.62Z" fill="#dd6faa"/><path d="M448.76,217.89a23.94,23.94,0,0,0-8.89,4.12c-2.15,1.51-4.24,3.11-6.47,4.5a3.32,3.32,0,0,1-5.06-2,3.72,3.72,0,0,1,1.64-3.9c3.6-2.87,7.61-4.73,12.36-4.28,2.16.2,4.29.6,6.43.91Z" fill="#dd6faa"/><path d="M508,487.3a40.25,40.25,0,0,1-16,1.49,61,61,0,0,1-28.54-10.06,39.69,39.69,0,0,1-7.24-7.07c-.71-.8-1.08-3-.57-3.5a4.31,4.31,0,0,1,3.79-.9,26.92,26.92,0,0,1,7.14,4.47,56,56,0,0,0,40.37,15.37A8.47,8.47,0,0,1,508,487.3Z" fill="#dd6faa"/><path d="M558.83,487.3a40.23,40.23,0,0,0,16,1.49,61,61,0,0,0,28.53-10.06,39.74,39.74,0,0,0,7.25-7.07c.7-.8,1.07-3,.56-3.5a4.3,4.3,0,0,0-3.79-.9,26.87,26.87,0,0,0-7.13,4.47A56,56,0,0,1,559.9,487.1,8.47,8.47,0,0,0,558.83,487.3Z" fill="#dd6faa"/><path d="M441.63,449.31A6.61,6.61,0,1,0,447.8,456,6.51,6.51,0,0,0,441.63,449.31Zm-.47,9.07a2.41,2.41,0,0,1-2.38-2.5,2.45,2.45,0,0,1,2.61-2.44,2.52,2.52,0,0,1,2.27,2.5A2.46,2.46,0,0,1,441.16,458.38Z" fill="#7c68ad"/><path d="M626,449.31a6.61,6.61,0,1,0,6.17,6.69A6.5,6.5,0,0,0,626,449.31Zm-.47,9.07a2.41,2.41,0,0,1-2.38-2.5,2.46,2.46,0,0,1,2.62-2.44,2.53,2.53,0,0,1,2.27,2.5A2.47,2.47,0,0,1,625.57,458.38Z" fill="#7c68ad"/></svg>