<?xml version="1.0" encoding="utf-8"?>
<!-- Generator: Adobe Illustrator 28.1.0, SVG Export Plug-In . SVG Version: 6.00 Build 0)  -->
<svg version="1.1" id="Layer_1" xmlns="http://www.w3.org/2000/svg" xmlns:xlink="http://www.w3.org/1999/xlink" x="0px" y="0px"
	 viewBox="0 0 683 384" style="enable-background:new 0 0 683 384;" xml:space="preserve">
<style type="text/css">
	.st0{fill:#0E3159;}
	.st1{fill:#F4EDED;}
	.st2{fill:#D26E3C;}
</style>
<rect class="st0" width="683" height="384"/>
<g>
	<g>
		<g>
			<path class="st1" d="M121.6,120.2l-3.2-7.5h3.2h16c7.5,0,12.8,1.6,15.8,4.9c3,3.3,4.5,8.4,4.5,15.4c0,3.8-0.7,7.1-2.1,9.8
				c-1.4,2.7-3.2,5-5.2,6.8c2.1,1.8,3.8,4.1,5.2,6.8c1.4,2.7,2.1,5.9,2.1,9.7c0,7-1.5,12.3-4.5,15.9c-3,3.6-8.3,5.5-15.8,5.5h-19.3
				l3.2-7.5V120.2z M134.5,124.5v19.3h3.2c1.3,0,2.5-0.3,3.4-0.9c1-0.6,1.7-1.4,2.3-2.4c0.6-1,1-2.2,1.3-3.4
				c0.3-1.3,0.4-2.6,0.4-3.9c0-2.7-0.6-4.8-1.7-6.3c-1.2-1.5-3.1-2.3-5.8-2.3H134.5z M145.2,166.2c0-2.6-0.6-5-1.7-7.3
				c-1.1-2.2-2.9-3.4-5.5-3.4h-0.4h-3.2v20.3h3.2c2.7,0,4.6-0.9,5.8-2.8C144.6,171.2,145.2,168.9,145.2,166.2z"/>
		</g>
		<g>
			<path class="st1" d="M164.4,187.6v-67.4l-3.2-7.5h16h3.2l-3.2,7.5v55.6H189l7.5-3.2v15H164.4z"/>
		</g>
		<g>
			<path class="st1" d="M214.6,170.5c0,1.6,0.5,2.9,1.5,3.9c1,1,2.3,1.5,3.9,1.5c1.6,0,2.9-0.5,3.9-1.5c1-1,1.5-2.3,1.5-3.9v-50.3
				l-3.2-7.5h19.3l-3.2,7.5v49.2c0,6.4-1.5,11.1-4.6,13.9c-3.1,2.9-7.6,4.3-13.5,4.3s-10.5-1.4-13.5-4.3c-3.1-2.9-4.6-7.5-4.6-13.9
				v-49.2l-3.2-7.5h3.2h12.8h3.2l-3.2,7.5V170.5z"/>
		</g>
		<g>
			<path class="st1" d="M260.8,124.5v20.3h9.6l7.5-3.2v18.2l-7.5-3.2h-9.6v19.3h13.9l7.5-3.2v15h-37.4l3.2-7.5v-59.9l-3.2-7.5h3.2
				h34.2v15l-7.5-3.2H260.8z"/>
		</g>
		<g>
			<path class="st1" d="M337.8,129.8c0-1.6-0.5-2.9-1.5-3.9c-1-1-2.3-1.5-3.9-1.5c-1.6,0-2.9,0.5-3.9,1.5c-1,1-1.5,2.3-1.5,3.9v40.7
				c0,1.6,0.5,2.9,1.5,3.9c1,1,2.3,1.5,3.9,1.5c1.6,0,2.9-0.5,3.9-1.5c1-1,1.5-2.3,1.5-3.9V163h12.8v6.4c0,6.4-1.5,11.1-4.6,13.9
				s-7.6,4.3-13.5,4.3s-10.5-1.4-13.6-4.3c-3.1-2.9-4.6-7.5-4.6-13.9v-38.5c0-6.4,1.5-11.1,4.6-13.9c3.1-2.9,7.6-4.3,13.6-4.3
				s10.5,1.4,13.5,4.3s4.6,7.5,4.6,13.9v6.4h-16L337.8,129.8z M337.8,170.5l-3.2-7.5h3.2V170.5z"/>
		</g>
		<g>
			<path class="st1" d="M375.6,112.7c5.9,0,10.5,1.4,13.5,4.3c3.1,2.9,4.6,7.5,4.6,13.9v38.5c0,6.4-1.5,11.1-4.6,13.9
				c-3.1,2.9-7.6,4.3-13.5,4.3h-1c-5.9,0-10.5-1.4-13.5-4.3s-4.6-7.5-4.6-13.9v-38.5c0-6.4,1.5-11.1,4.6-13.9s7.6-4.3,13.5-4.3
				H375.6z M381,129.8c0-1.6-0.5-2.9-1.5-3.9c-1-1-2.3-1.5-3.9-1.5h-1c-1.6,0-2.9,0.5-3.9,1.5c-1,1-1.5,2.3-1.5,3.9v40.7
				c0,1.6,0.5,2.9,1.5,3.9c1,1,2.3,1.5,3.9,1.5h1c1.6,0,2.9-0.5,3.9-1.5c1-1,1.5-2.3,1.5-3.9V129.8z"/>
		</g>
		<g>
			<path class="st1" d="M415.1,112.7c7.5,0,12.8,1.7,15.8,5.2s4.5,9.2,4.5,17.2v3.2c0,8-1.5,13.7-4.5,17.2s-8.3,5.2-15.8,5.2H413
				v19.3l3.2,7.5h-19.3l3.2-7.5v-59.9l-3.2-7.5h3.2H415.1z M413,124.5v24.6h2.1c2.7,0,4.6-0.9,5.8-2.8c1.1-1.9,1.7-4.1,1.7-6.8v-5.3
				c0-2.7-0.6-5-1.7-6.8c-1.2-1.9-3.1-2.8-5.8-2.8H413z"/>
		</g>
		<g>
			<path class="st1" d="M456.2,112.7c7.5,0,12.8,1.7,15.8,5.2c3,3.5,4.5,9.2,4.5,17.2v3.2c0,8-1.5,13.7-4.5,17.2
				c-3,3.5-8.3,5.2-15.8,5.2h-2.1v19.3l3.2,7.5H438l3.2-7.5v-59.9l-3.2-7.5h3.2H456.2z M454.1,124.5v24.6h2.1c2.7,0,4.6-0.9,5.8-2.8
				c1.1-1.9,1.7-4.1,1.7-6.8v-5.3c0-2.7-0.6-5-1.7-6.8c-1.2-1.9-3.1-2.8-5.8-2.8H454.1z"/>
		</g>
		<g>
			<path class="st1" d="M495.2,124.5v20.3h9.6l7.5-3.2v18.2l-7.5-3.2h-9.6v19.3h13.9l7.5-3.2v15h-37.4l3.2-7.5v-59.9l-3.2-7.5h3.2
				h34.2v15l-7.5-3.2H495.2z"/>
		</g>
		<g>
			<path class="st1" d="M540.7,112.7c7.5,0,12.8,1.7,15.8,5.2c3,3.5,4.5,9.2,4.5,17.2v3.2c0,5.7-0.7,10.2-2.2,13.5
				c-1.5,3.3-3.9,5.7-7.3,7.1l7.8,21.3l5.2,7.3h-19l-0.1-7.4l-7.3-19.4h-0.7v19.3l3.2,7.5h-19.3l3.2-7.5v-59.9l-3.2-7.5H540.7z
				 M537.5,124.5v24.6h3.2c2.7,0,4.6-0.9,5.8-2.8c1.1-1.9,1.7-4.1,1.7-6.8v-5.3c0-2.7-0.6-5-1.7-6.8c-1.1-1.9-3.1-2.8-5.8-2.8H537.5
				z"/>
		</g>
	</g>
	<g>
		<rect x="107.5" y="93.2" class="st2" width="468" height="6.2"/>
	</g>
	<g>
		<rect x="107.5" y="101.8" class="st1" width="468" height="3.1"/>
	</g>
	<g>
		<g>
			<path class="st2" d="M306.1,205.6v3.6h1.7l1.3-0.6v3.2l-1.3-0.6h-1.7v3.4h2.4l1.3-0.6v2.6h-6.6l0.6-1.3v-10.5l-0.6-1.3h0.6h6v2.6
				l-1.3-0.6H306.1z"/>
		</g>
		<g>
			<path class="st2" d="M315.5,213.6c0,0.3,0.1,0.5,0.3,0.7c0.2,0.2,0.4,0.3,0.7,0.3h0.1c0.4,0,0.6-0.1,0.7-0.3
				c0.1-0.2,0.2-0.5,0.2-0.8c0-0.4-0.1-0.7-0.3-1c-0.2-0.3-0.5-0.6-0.8-0.9s-0.6-0.6-1-0.9c-0.4-0.3-0.7-0.6-1-1s-0.6-0.8-0.8-1.2
				c-0.2-0.4-0.3-0.9-0.3-1.4c0-1.1,0.3-2,0.9-2.5c0.6-0.6,1.4-0.8,2.4-0.8c1.1,0,1.9,0.3,2.4,0.8c0.5,0.5,0.7,1.4,0.7,2.6v0.9h-2.8
				l0.6-1.3c0-0.3-0.1-0.6-0.2-0.7c-0.1-0.2-0.4-0.2-0.7-0.2c-0.4,0-0.6,0.1-0.8,0.3c-0.2,0.2-0.2,0.5-0.2,0.8c0,0.4,0.1,0.7,0.3,1
				c0.2,0.3,0.5,0.6,0.8,0.9s0.6,0.6,1,0.9c0.4,0.3,0.7,0.6,1,1c0.3,0.4,0.6,0.8,0.8,1.2c0.2,0.5,0.3,1,0.3,1.6c0,1.1-0.3,2-0.8,2.5
				c-0.5,0.6-1.3,0.8-2.4,0.8h-0.1c-1,0-1.8-0.2-2.4-0.7c-0.5-0.5-0.8-1.3-0.8-2.4v-1.1h2.8L315.5,213.6z"/>
		</g>
		<g>
			<path class="st2" d="M329,203.5v2.6l-1.3-0.6h-0.6v9.7l0.6,1.3h-3.4l0.6-1.3v-9.7h-0.6l-1.3,0.6v-2.6H329z"/>
		</g>
		<g>
			<path class="st2" d="M334.3,215.5c0,0.4-0.1,0.7-0.4,0.9c-0.3,0.3-0.6,0.4-0.9,0.4c-0.4,0-0.7-0.1-0.9-0.4
				c-0.3-0.3-0.4-0.6-0.4-0.9s0.1-0.7,0.4-0.9c0.3-0.3,0.6-0.4,0.9-0.4c0.4,0,0.7,0.1,0.9,0.4C334.2,214.8,334.3,215.2,334.3,215.5z
				"/>
		</g>
		<g>
			<path class="st2" d="M343.9,216.6v-1.1c0-0.6,0.1-1.2,0.3-1.7c0.2-0.5,0.5-1,0.8-1.5c0.3-0.5,0.6-0.9,1-1.4
				c0.4-0.4,0.7-0.9,1-1.3c0.3-0.4,0.6-0.8,0.8-1.2c0.2-0.4,0.3-0.8,0.3-1.1c0-0.6-0.1-1-0.2-1.3s-0.4-0.4-0.7-0.4
				c-0.3,0-0.6,0.1-0.7,0.4c-0.2,0.2-0.2,0.6-0.2,0.9l0.6,1.3h-2.8v-1.1c0-1.2,0.3-2.1,0.8-2.7c0.5-0.6,1.3-0.9,2.4-0.9
				c1,0,1.8,0.3,2.4,1c0.5,0.7,0.8,1.6,0.8,3c0,0.7-0.2,1.3-0.5,2c-0.3,0.6-0.7,1.3-1.1,1.8c-0.4,0.6-0.9,1.2-1.3,1.7
				c-0.4,0.6-0.8,1.1-1,1.6h2.5l1.3-0.6v2.6H343.9z"/>
		</g>
		<g>
			<path class="st2" d="M357.1,203.5c1,0,1.8,0.2,2.4,0.7c0.5,0.5,0.8,1.3,0.8,2.4v6.7c0,1.1-0.3,1.9-0.8,2.4
				c-0.5,0.5-1.3,0.7-2.4,0.7h-0.2c-1,0-1.8-0.2-2.4-0.7c-0.5-0.5-0.8-1.3-0.8-2.4v-6.7c0-1.1,0.3-1.9,0.8-2.4
				c0.5-0.5,1.3-0.7,2.4-0.7H357.1z M358,206.5c0-0.3-0.1-0.5-0.3-0.7c-0.2-0.2-0.4-0.3-0.7-0.3h-0.2c-0.3,0-0.5,0.1-0.7,0.3
				c-0.2,0.2-0.3,0.4-0.3,0.7v7.1c0,0.3,0.1,0.5,0.3,0.7c0.2,0.2,0.4,0.3,0.7,0.3h0.2c0.3,0,0.5-0.1,0.7-0.3
				c0.2-0.2,0.3-0.4,0.3-0.7V206.5z"/>
		</g>
		<g>
			<path class="st2" d="M363.6,216.6v-1.1c0-0.6,0.1-1.2,0.3-1.7c0.2-0.5,0.5-1,0.8-1.5c0.3-0.5,0.6-0.9,1-1.4s0.7-0.9,1-1.3
				c0.3-0.4,0.6-0.8,0.8-1.2c0.2-0.4,0.3-0.8,0.3-1.1c0-0.6-0.1-1-0.2-1.3s-0.4-0.4-0.7-0.4c-0.3,0-0.6,0.1-0.7,0.4
				c-0.2,0.2-0.2,0.6-0.2,0.9l0.6,1.3h-2.8v-1.1c0-1.2,0.3-2.1,0.8-2.7c0.5-0.6,1.3-0.9,2.4-0.9c1,0,1.8,0.3,2.4,1
				c0.5,0.7,0.8,1.6,0.8,3c0,0.7-0.2,1.3-0.5,2c-0.3,0.6-0.7,1.3-1.1,1.8c-0.4,0.6-0.9,1.2-1.3,1.7c-0.4,0.6-0.8,1.1-1,1.6h2.5
				l1.3-0.6v2.6H363.6z"/>
		</g>
		<g>
			<path class="st2" d="M373.3,212h2.2h0.6l-0.6,1.3c0,0.4,0.1,0.7,0.3,1c0.2,0.2,0.4,0.4,0.7,0.4c0.3,0,0.6-0.2,0.7-0.5
				c0.1-0.3,0.2-0.7,0.2-1.2c0-0.2,0-0.5,0-0.7s0-0.4-0.1-0.6c-0.1-0.2-0.1-0.3-0.3-0.4c-0.1-0.1-0.3-0.2-0.5-0.2h-0.1H376V209h0.6
				c0.2,0,0.4-0.1,0.5-0.2c0.1-0.1,0.2-0.2,0.3-0.4c0.1-0.2,0.1-0.4,0.1-0.6c0-0.2,0-0.5,0-0.7c0-0.5-0.1-0.8-0.2-1.1
				c-0.1-0.3-0.4-0.4-0.7-0.4s-0.6,0.1-0.7,0.4c-0.1,0.3-0.2,0.6-0.2,1.1l0.4,0.9h-2.6v-0.9c0-1.2,0.2-2.1,0.7-2.7
				c0.5-0.6,1.3-0.9,2.5-0.9c1.2,0,2,0.3,2.5,0.9c0.5,0.6,0.7,1.5,0.7,2.7c0,0.7-0.1,1.2-0.3,1.7c-0.2,0.5-0.5,0.9-0.8,1.2
				c0.3,0.3,0.6,0.7,0.8,1.2c0.2,0.5,0.3,1,0.3,1.7c0,1.2-0.2,2.1-0.7,2.8c-0.5,0.6-1.3,1-2.5,1c-1.2,0-2-0.3-2.5-1
				c-0.5-0.6-0.7-1.6-0.7-2.8V212z"/>
		</g>
	</g>
	<g>
		<g>
			<path class="st1" d="M457.5,214.5l7.3-5.2l6.1,8.5c1.8,2.6,2.5,4.9,2.1,6.9c-0.4,2-1.8,3.9-4.2,5.6l-0.4,0.3
				c-2.4,1.7-4.6,2.4-6.6,2.1c-2-0.3-4-1.7-5.8-4.2L445,213.2c-1.8-2.6-2.5-4.9-2.1-6.9c0.4-2,1.8-3.9,4.2-5.6l0.4-0.3
				c2.4-1.7,4.6-2.4,6.6-2.1c2,0.3,4,1.7,5.8,4.2l1.8,2.6l-6.4,4.6l-0.8-3.9c-0.4-0.6-1-1-1.7-1.1c-0.7-0.1-1.3,0.1-2,0.5l-0.4,0.3
				c-0.6,0.5-1,1-1.1,1.7c-0.1,0.7,0.1,1.3,0.5,2l11.5,16.2c0.4,0.6,1,1,1.7,1.1c0.7,0.1,1.3-0.1,2-0.5l0.4-0.3c0.6-0.5,1-1,1.1-1.7
				c0.1-0.7-0.1-1.3-0.5-2l-3-4.3l-1.2,2.8l-0.9-1.3L457.5,214.5z"/>
		</g>
		<g>
			<path class="st1" d="M453.4,236.9l2.7,2.1l-6.4,3.5l-13.5-13.1L443,242l3.1,2.5l-8.3,4.5l-0.4-4l-14.1-25.7l-3.1-2.5l1.4-0.8
				l5.3-2.9l13.5,13.1l-6.9-12.6l-3.1-2.5l6.9-3.8L453.4,236.9z M437.2,207.5l1.4-0.8l0.4,4L437.2,207.5z"/>
		</g>
		<g>
			<path class="st1" d="M412.5,223.9l-2.9-2.7l8.7-3.7l0,4l11.6,26.9l2.9,2.7l-8.7,3.7l0-4L412.5,223.9z"/>
		</g>
		<g>
			<path class="st1" d="M407.1,242.3l9.2,12l3.5,2.6l-9,2.9l-1.1-3.5l-7.2-9.5l3.5,10.6l2.6,3l-9,2.9l0.4-4l-9.1-27.9l-2.6-3l9-2.9
				l-0.4,4l3.7,11.5l0.1-12.7l-1.2-3.5l1.3-0.4l6.5-2.1l1.2-0.4l-1.2,4.3L407.1,242.3z"/>
		</g>
		<g>
			<path class="st1" d="M375.3,231.1c3.6-0.7,6.3-0.3,8.1,1.1c1.8,1.4,3,4,3.8,7.9l0.3,1.5c0.5,2.7,0.6,5,0.2,6.7
				c-0.4,1.7-1.4,3.1-2.9,4.1l5.7,9.5l3.2,3l-9.2,1.8l-0.7-3.5l-5.3-8.7l-0.3,0.1l1.8,9.3l2.2,3.3l-9.3,1.8l0.9-3.9l-5.5-28.8
				l-2.2-3.3L375.3,231.1z M374.9,237.1l2.3,11.8l1.5-0.3c1.3-0.2,2.1-0.9,2.5-1.9c0.4-1,0.4-2.2,0.2-3.4l-0.5-2.6
				c-0.2-1.3-0.7-2.3-1.5-3.1c-0.7-0.8-1.7-1.1-3-0.8L374.9,237.1z"/>
		</g>
		<g>
			<path class="st1" d="M355.6,233.7c2.9-0.2,5.2,0.3,6.8,1.6c1.6,1.3,2.5,3.5,2.8,6.6l1.4,18.8c0.2,3.1-0.4,5.5-1.8,7
				c-1.4,1.5-3.6,2.4-6.5,2.6l-0.5,0c-2.9,0.2-5.2-0.3-6.8-1.6c-1.6-1.3-2.5-3.5-2.8-6.6l-1.4-18.8c-0.2-3.1,0.4-5.5,1.8-7
				c1.4-1.5,3.6-2.4,6.5-2.6L355.6,233.7z M358.8,241.9c-0.1-0.8-0.3-1.4-0.9-1.8c-0.5-0.4-1.2-0.6-1.9-0.6l-0.5,0
				c-0.8,0.1-1.4,0.3-1.8,0.9c-0.4,0.5-0.6,1.2-0.6,1.9l1.5,19.9c0.1,0.8,0.3,1.4,0.9,1.8c0.5,0.4,1.2,0.6,1.9,0.6l0.5,0
				c0.8-0.1,1.4-0.3,1.8-0.9c0.4-0.5,0.6-1.2,0.6-1.9L358.8,241.9z"/>
		</g>
		<g>
			<path class="st1" d="M316.7,269.8l1.1-3.5l-1.3-29.7L315,233l7.6,0.5l0.7,22l3.5-18.1l-0.6-3.7l7,0.4l1.5,22l3.3-21.7l7.6,0.5
				l-1.9,3.5l-4.9,29.3l0.7,3.6l-8.7-0.5l-1.5-19.7l-3.9,19.4L316.7,269.8z"/>
		</g>
		<g>
			<path class="st1" d="M303.2,230.2c3.6,0.8,6,2.1,7.1,4.1c1.1,2,1.2,4.9,0.4,8.7l-3,14.4c-0.8,3.8-2.1,6.4-3.9,7.8
				c-1.8,1.4-4.5,1.7-8.1,0.9l-9.7-2l2.2-3.1l6.1-29l-0.8-3.8L303.2,230.2z M299.9,235.4l-5.2,24.6l2.1,0.4c1.3,0.3,2.3,0,3-0.8
				c0.7-0.8,1.2-1.8,1.5-3.1l3.2-15.4c0.3-1.3,0.2-2.4-0.1-3.5c-0.4-1-1.2-1.6-2.5-1.9L299.9,235.4z"/>
		</g>
		<g>
			<path class="st1" d="M283.3,224.8c2.8,0.9,4.6,2.3,5.6,4.1c1,1.8,1,4.2,0,7.2l-6,17.9c-1,3-2.4,4.9-4.3,5.7
				c-1.9,0.8-4.2,0.8-7-0.1l-0.4-0.1c-2.8-0.9-4.6-2.3-5.6-4.1c-1-1.8-1-4.2,0-7.2l6-17.9c1-3,2.4-4.9,4.3-5.7
				c1.9-0.8,4.2-0.8,7,0.1L283.3,224.8z M283.1,233.6c0.2-0.7,0.2-1.4-0.1-2c-0.3-0.6-0.8-1-1.6-1.3l-0.4-0.1
				c-0.7-0.2-1.4-0.2-2,0.1c-0.6,0.3-1,0.8-1.3,1.6l-6.4,18.9c-0.2,0.7-0.2,1.4,0.1,2c0.3,0.6,0.8,1,1.6,1.3l0.4,0.1
				c0.7,0.2,1.4,0.2,2-0.1c0.6-0.3,1-0.8,1.3-1.6L283.1,233.6z"/>
		</g>
		<g>
			<path class="st1" d="M263.8,217c2.6,1.2,4.3,2.8,5.1,4.7c0.8,1.9,0.5,4.3-0.8,7.1l-8,17.1c-1.3,2.8-3,4.6-5,5.2s-4.3,0.3-6.9-0.9
				l-0.4-0.2c-2.6-1.2-4.3-2.8-5.1-4.7c-0.8-1.9-0.5-4.3,0.8-7.1l8-17.1c1.3-2.8,3-4.6,5-5.2c2-0.6,4.3-0.3,6.9,0.9L263.8,217z
				 M262.6,225.7c0.3-0.7,0.4-1.4,0.1-2c-0.2-0.6-0.7-1.1-1.4-1.5L261,222c-0.7-0.3-1.4-0.4-2-0.1c-0.6,0.2-1.1,0.7-1.5,1.4l-8.5,18
				c-0.3,0.7-0.4,1.4-0.1,2c0.2,0.6,0.7,1.1,1.4,1.5l0.4,0.2c0.7,0.3,1.4,0.4,2,0.1c0.6-0.2,1.1-0.7,1.5-1.4L262.6,225.7z"/>
		</g>
		<g>
			<path class="st1" d="M212.2,229.2l2.7-2.5l13.5-26.4l0.6-3.9l6.3,4.1L225,219.9l12-14l1.3-3.5l5.9,3.8l-9.6,19.9l13.6-17.3
				l6.3,4.1l-3.4,2.1l-18.7,23.1l-1.2,3.5l-7.3-4.7l8.4-17.9l-13,14.9L212.2,229.2z"/>
		</g>
	</g>
	<g>
		<path class="st2" d="M341.5,290.8c-53.6,0-104.3-17.3-146.6-50.1l-3.9-3v-30.6h-83.5v-6.2h89.7v33.7l1.5,1.2
			c41.2,31.9,90.6,48.8,142.8,48.8c52.2,0,103.4-17.7,144.3-50v-33.7h89.7v6.2H492v30.5l-1.2,0.9
			C448.7,272.2,395.6,290.8,341.5,290.8z"/>
	</g>
	<g>
		<path class="st1" d="M341.5,282.2c-51.7,0-100.6-16.7-141.4-48.3l-0.6-0.5v-34.9h-92v-3.1h95.2v36.5
			c40.1,30.9,88.1,47.2,138.8,47.2c50.8,0,98.8-16.3,138.8-47.2v-36.5h95.2v3.1h-92v34.9l-0.6,0.5
			C442.1,265.5,393.2,282.2,341.5,282.2z"/>
	</g>
</g>
</svg>
