<?xml version="1.0" encoding="utf-8"?>
<!-- Generator: Adobe Illustrator 25.2.3, SVG Export Plug-In . SVG Version: 6.00 Build 0)  -->
<svg version="1.1" id="Layer_1" xmlns="http://www.w3.org/2000/svg" xmlns:xlink="http://www.w3.org/1999/xlink" x="0px" y="0px"
	 viewBox="0 0 683 384" style="enable-background:new 0 0 683 384;" xml:space="preserve">
<style type="text/css">
	.st0{fill:#163158;}
	.st1{fill:#FFFFFF;}
</style>
<rect class="st0" width="683" height="384"/>
<g>
	<g>
		<path class="st1" d="M238,145.3c6.3,1.8,8.3,6.7,6.1,14.8l-5,17.7c-0.1,0.3-0.3,0.6-0.6,0.7c-0.3,0.2-0.6,0.2-0.9,0.1l-27.8-7.8
			c-0.3-0.1-0.6-0.3-0.7-0.6s-0.2-0.6-0.1-0.9l4.9-17.3c1.1-4.1,2.7-6.9,4.7-8.4c2-1.5,4.5-1.9,7.5-1l0.1,0c1.4,0.4,2.4,1.1,3.2,2.1
			c0.8,1,1.2,2,1.2,2.8c0.7-1,1.7-1.8,3.1-2.2C235.1,144.9,236.5,144.9,238,145.3z M224.5,155.3c-0.3-0.4-0.8-0.7-1.3-0.8
			c-0.5-0.1-1-0.1-1.5,0.1c-0.5,0.2-0.8,0.6-0.9,1.2l-1.6,5.8l3.9,1.1l1.6-5.8C224.9,156.2,224.8,155.7,224.5,155.3z M230.3,164.5
			l4.2,1.2l1.8-6.2c0.2-0.7,0.1-1.2-0.3-1.7c-0.4-0.5-0.8-0.8-1.3-0.9l0,0c-0.5-0.2-1.1-0.1-1.6,0.1c-0.5,0.2-0.8,0.7-1,1.3
			L230.3,164.5z"/>
		<path class="st1" d="M269.2,115.6c0.1,0,0.3,0.1,0.4,0.2c0.2,0.1,0.3,0.3,0.3,0.6c0,0.3,0,0.5-0.2,0.7l-6.1,8.1
			c-0.5,0.7-1.2,1-2,0.8l-9.4-2.2l-2.3,3l7,5.3c0.3,0.2,0.4,0.5,0.5,0.8c0,0.3,0,0.6-0.2,0.9l-5.8,7.7c-0.2,0.3-0.5,0.4-0.8,0.5
			c-0.3,0-0.6,0-0.9-0.2l-23.1-17.4c-0.3-0.2-0.4-0.5-0.5-0.8s0-0.6,0.2-0.9l10.4-13.9c2.5-3.3,5.2-5.3,8.2-6c3-0.7,5.8-0.1,8.5,1.9
			c3.2,2.4,4.6,5.4,4.2,9L269.2,115.6z M239.5,119.1l3.8,2.8l3.4-4.5c0.4-0.5,0.5-1.1,0.4-1.6s-0.5-1-1-1.4
			c-0.5-0.4-1.1-0.6-1.7-0.6c-0.6,0-1.1,0.2-1.5,0.8L239.5,119.1z"/>
		<path class="st1" d="M287.9,78.7L281,83l6.8,11l6.9-4.3c0.3-0.2,0.6-0.2,0.9-0.1c0.3,0.1,0.6,0.3,0.8,0.5l3.6,5.7
			c0.2,0.3,0.2,0.6,0.1,0.9c-0.1,0.3-0.3,0.6-0.5,0.8l-24.1,15c-0.3,0.2-0.6,0.2-0.9,0.1c-0.3-0.1-0.6-0.3-0.8-0.5l-3.6-5.7
			c-0.2-0.3-0.2-0.6-0.1-0.9c0.1-0.3,0.3-0.6,0.5-0.8l6.9-4.3l-6.8-11l-6.9,4.3c-0.3,0.2-0.6,0.2-0.9,0.1c-0.3-0.1-0.6-0.3-0.8-0.5
			l-3.6-5.7c-0.2-0.3-0.2-0.6-0.1-0.9s0.3-0.6,0.5-0.8l24.1-15c0.3-0.2,0.6-0.2,0.9-0.1c0.3,0.1,0.6,0.3,0.8,0.5l3.6,5.7
			c0.2,0.3,0.2,0.6,0.1,0.9C288.3,78.3,288.2,78.6,287.9,78.7z"/>
		<path class="st1" d="M321.2,72l12.7-2.5c0.3-0.1,0.6,0,0.9,0.2c0.3,0.2,0.5,0.4,0.5,0.8l0.9,4.7c0.9,4.4,0,8-2.6,10.8
			c-2.6,2.7-6.4,4.6-11.4,5.6c-5,1-9.2,0.7-12.6-0.8c-3.4-1.5-5.6-4.5-6.4-8.8l-1-5c-0.4-2.2-0.4-4.2,0.2-6.1
			c0.5-1.9,1.5-3.4,2.8-4.8c2.7-2.6,6.3-4.3,11-5.3c2.3-0.5,4.5-0.6,6.6-0.5c2,0.1,3.7,0.5,5,1c1.3,0.5,2.5,1.2,3.5,1.9
			c1.7,1.3,2.7,2.5,3,3.8c0,0.3,0,0.5-0.2,0.7c-0.2,0.2-0.4,0.4-0.6,0.4l-9.9,1.9c-0.6,0.1-1,0.1-1.3-0.1c-1.1-0.7-2.4-1-4-0.7
			c-1.6,0.3-2.7,0.8-3.5,1.6c-0.8,0.8-1.1,1.6-0.9,2.5l1.4,7.1c0.2,1.1,0.8,1.9,1.8,2.3c1,0.5,2.3,0.5,3.9,0.2
			c1.6-0.3,2.8-0.9,3.5-1.7c0.7-0.8,1-1.6,0.9-2.5l-2.7,0.5c-0.3,0.1-0.6,0-0.9-0.2c-0.3-0.2-0.5-0.4-0.5-0.8l-0.9-4.9
			c-0.1-0.3,0-0.6,0.2-0.9C320.6,72.3,320.9,72.1,321.2,72z"/>
		<path class="st1" d="M371.5,61.6l9.1,1.7c0.3,0.1,0.6,0.2,0.8,0.5c0.2,0.3,0.3,0.6,0.2,0.9l-5.3,28.4c-0.1,0.3-0.2,0.6-0.5,0.8
			c-0.3,0.2-0.6,0.3-0.9,0.2l-9.1-1.7c-0.3-0.1-0.6-0.2-0.8-0.5c-0.2-0.3-0.3-0.6-0.2-0.9l1.7-9.4l-8.8-1.6l-1.7,9.4
			c-0.1,0.3-0.2,0.6-0.5,0.8c-0.3,0.2-0.6,0.3-0.9,0.2l-9.1-1.7c-0.3-0.1-0.6-0.2-0.8-0.5c-0.2-0.3-0.3-0.6-0.2-0.9l5.3-28.4
			c0.1-0.3,0.2-0.6,0.5-0.8c0.3-0.2,0.6-0.3,0.9-0.2l9.1,1.7c0.3,0.1,0.6,0.2,0.8,0.5c0.2,0.3,0.3,0.6,0.2,0.9l-1.7,9l8.8,1.6l1.7-9
			c0.1-0.3,0.2-0.6,0.5-0.8C370.9,61.6,371.2,61.6,371.5,61.6z"/>
		<path class="st1" d="M398.7,70.2l26.2,16.2c0.3,0.2,0.5,0.4,0.5,0.8c0.1,0.3,0,0.6-0.1,0.9l-3.8,6.1c-0.2,0.3-0.4,0.5-0.8,0.5
			c-0.3,0.1-0.6,0-0.9-0.1l-8.2-5.1l-10.8,17.4c-0.2,0.3-0.4,0.5-0.8,0.5c-0.3,0.1-0.6,0-0.9-0.1l-7.8-4.8c-0.3-0.2-0.5-0.4-0.5-0.8
			c-0.1-0.3,0-0.6,0.1-0.9l10.8-17.4l-8.2-5.1c-0.3-0.2-0.5-0.4-0.5-0.8c-0.1-0.3,0-0.6,0.1-0.9l3.8-6.1c0.2-0.3,0.4-0.5,0.8-0.5
			C398.1,70,398.4,70,398.7,70.2z"/>
		<path class="st1" d="M447.8,132.5l-4.2,3.2c-2.4,1.8-4.8,2.7-7.3,2.7c-2.5,0-4.8-0.7-6.9-2.1c-2.1-1.4-4.2-3.4-6.2-6
			c-2-2.6-3.4-5.1-4.1-7.6s-0.8-4.8-0.1-7.2c0.7-2.4,2.3-4.5,4.7-6.4l4.1-3.1c3.5-2.6,7-3.4,10.6-2.3c3.6,1.1,6.9,3.7,9.9,7.6
			c3,3.9,4.5,7.8,4.6,11.5C452.9,126.7,451.3,129.8,447.8,132.5z M435.6,115.1l-5.4,4.1c-0.9,0.7-1.4,1.6-1.4,2.6
			c0,1,0.4,2.1,1.3,3.2s1.8,1.8,2.8,2.1c1,0.3,2,0.1,2.9-0.6l5.3-4c0.9-0.7,1.4-1.6,1.4-2.6c0-1-0.4-2.1-1.3-3.2
			c-0.8-1.1-1.8-1.8-2.8-2.1C437.5,114.2,436.5,114.4,435.6,115.1z"/>
		<path class="st1" d="M471.7,161l2.3,8c0.1,0.3,0.1,0.6-0.1,0.9c-0.2,0.3-0.4,0.5-0.7,0.6l-27.8,7.9c-0.3,0.1-0.6,0.1-0.9-0.1
			c-0.3-0.2-0.5-0.4-0.6-0.7l-2-6.9c-0.2-0.7-0.1-1.3,0.4-2l9.3-12.8l-11.7,3.3c-0.3,0.1-0.6,0.1-0.9-0.1c-0.3-0.2-0.5-0.4-0.6-0.7
			l-2.3-8c-0.1-0.3-0.1-0.6,0.1-0.9c0.2-0.3,0.4-0.5,0.7-0.6l27.8-7.9c0.3-0.1,0.6-0.1,0.9,0.1c0.3,0.2,0.5,0.4,0.6,0.7l2,7
			c0.2,0.7,0.1,1.3-0.4,1.9l-10.3,13l12.6-3.6c0.3-0.1,0.6-0.1,0.9,0.1C471.4,160.5,471.6,160.7,471.7,161z"/>
	</g>
	<g>
		<path class="st1" d="M401.7,276.2l7-4.5c0.3-0.2,0.6-0.2,0.9-0.2c0.3,0.1,0.6,0.2,0.8,0.5l15.5,24.4c0.2,0.3,0.2,0.6,0.2,0.9
			c-0.1,0.3-0.2,0.6-0.5,0.8l-6.1,3.9c-0.6,0.4-1.3,0.4-2,0.2l-14.9-5.3l6.5,10.3c0.2,0.3,0.2,0.6,0.2,0.9c-0.1,0.3-0.2,0.6-0.5,0.8
			l-7,4.5c-0.3,0.2-0.6,0.2-0.9,0.2c-0.3-0.1-0.6-0.2-0.8-0.5l-15.5-24.4c-0.2-0.3-0.2-0.6-0.2-0.9s0.2-0.6,0.5-0.8l6.1-3.9
			c0.6-0.4,1.3-0.4,2-0.2l15.4,6.1l-7.1-11.1c-0.2-0.3-0.2-0.6-0.2-0.9C401.3,276.6,401.4,276.4,401.7,276.2z"/>
		<path class="st1" d="M361.2,325.3l-6.1,1.2c-0.6,0.1-1,0-1.5-0.2c-0.4-0.3-0.7-0.6-0.9-1l-9.2-27.2l0-0.1c-0.1-0.3,0-0.5,0.2-0.7
			c0.2-0.2,0.4-0.4,0.6-0.4l7.5-1.4c0.6-0.1,1.1,0,1.5,0.3c0.4,0.3,0.7,0.7,0.9,1.2l4,13.2l1.2-7.5c0-0.3,0.2-0.6,0.5-1
			c0.3-0.3,0.7-0.6,1.2-0.7l3-0.6c0.5-0.1,1,0,1.4,0.2c0.4,0.2,0.7,0.5,0.8,0.7l3.9,6.5l-1.2-13.7c0-0.5,0.1-1,0.4-1.4
			c0.3-0.4,0.7-0.7,1.3-0.8l7.6-1.4c0.3-0.1,0.5,0,0.7,0.2c0.2,0.2,0.4,0.4,0.4,0.6l0,0.1l1.5,28.7c0,0.4-0.1,0.9-0.4,1.3
			c-0.3,0.4-0.7,0.7-1.3,0.8l-6.1,1.2c-0.5,0.1-1,0.1-1.4-0.1c-0.4-0.2-0.6-0.4-0.8-0.7l-5.8-8.5l-2.3,10c0,0.3-0.2,0.6-0.5,0.9
			C362.1,325,361.7,325.2,361.2,325.3z"/>
		<path class="st1" d="M336.6,309.4l-1,5.2c-0.5,2.9-1.7,5.3-3.6,7c-1.8,1.7-4,2.7-6.5,3.1c-2.5,0.4-5.4,0.3-8.6-0.3
			s-5.9-1.5-8.2-2.8c-2.2-1.3-3.9-3-5-5.3c-1.1-2.2-1.4-4.9-0.8-7.9l0.9-5.1c0.8-4.3,2.9-7.3,6.3-8.8c3.4-1.6,7.6-1.9,12.4-1
			c4.8,0.9,8.6,2.7,11.2,5.4C336.5,301.7,337.4,305.2,336.6,309.4z M315.9,304.8l-1.2,6.6c-0.2,1.1,0,2.1,0.7,2.8
			c0.7,0.8,1.7,1.3,3.1,1.5c1.4,0.3,2.5,0.1,3.4-0.3c0.9-0.5,1.5-1.3,1.7-2.4l1.2-6.6c0.2-1.1,0-2.1-0.7-2.9
			c-0.7-0.8-1.7-1.3-3.1-1.5c-1.4-0.3-2.5-0.2-3.4,0.3C316.7,302.9,316.1,303.7,315.9,304.8z"/>
		<path class="st1" d="M274,271.8l26.2,16.2c0.3,0.2,0.5,0.4,0.5,0.8c0.1,0.3,0,0.6-0.1,0.9l-3.8,6.1c-0.2,0.3-0.4,0.5-0.8,0.5
			c-0.3,0.1-0.6,0-0.9-0.1l-8.2-5.1l-10.8,17.4c-0.2,0.3-0.4,0.5-0.8,0.5c-0.3,0.1-0.6,0-0.9-0.1l-7.8-4.8c-0.3-0.2-0.5-0.4-0.5-0.8
			c-0.1-0.3,0-0.6,0.1-0.9l10.8-17.4L269,280c-0.3-0.2-0.5-0.4-0.5-0.8c-0.1-0.3,0-0.6,0.1-0.9l3.8-6.1c0.2-0.3,0.4-0.5,0.8-0.5
			C273.4,271.6,273.8,271.6,274,271.8z"/>
	</g>
	<g>
		<path class="st1" d="M250.2,258.7l2.2,3.1c0.1,0.1,0.1,0.2,0.1,0.4c0,0.1-0.1,0.2-0.2,0.3l-9.9,6.9c-0.1,0.1-0.2,0.1-0.4,0.1
			c-0.1,0-0.2-0.1-0.3-0.2l-2.2-3.1c-0.1-0.1-0.1-0.2-0.1-0.4c0-0.1,0.1-0.2,0.2-0.3l3.3-2.3l-2.1-3.1l-3.3,2.3
			c-0.1,0.1-0.2,0.1-0.4,0.1c-0.1,0-0.2-0.1-0.3-0.2l-2.2-3.1c-0.1-0.1-0.1-0.2-0.1-0.4c0-0.1,0.1-0.2,0.2-0.3l9.9-6.9
			c0.1-0.1,0.2-0.1,0.4-0.1c0.1,0,0.2,0.1,0.3,0.2l2.2,3.1c0.1,0.1,0.1,0.2,0.1,0.4c0,0.1-0.1,0.2-0.2,0.3l-3.1,2.2l2.1,3.1l3.1-2.2
			c0.1-0.1,0.2-0.1,0.4-0.1C250,258.5,250.1,258.6,250.2,258.7z"/>
		<path class="st1" d="M226.2,243l-1.5-3.2c0-0.1-0.1-0.2,0-0.3c0-0.1,0.1-0.2,0.2-0.2c0.1,0,0.1-0.1,0.2-0.1l12.5-1.4
			c0.4-0.1,0.7,0.1,0.9,0.5l2.2,4.7c0.2,0.4,0.1,0.7-0.2,1l-9,8.8c0,0-0.1,0.1-0.1,0.1c-0.1,0-0.2,0-0.3,0c-0.1,0-0.2-0.1-0.2-0.2
			l-1.5-3.2c-0.2-0.4-0.1-0.7,0.2-1l1-1l-1.9-4.1l-1.4,0.1C226.7,243.6,226.4,243.4,226.2,243z M233.3,245.1l2.9-2.9l-4.1,0.5
			L233.3,245.1z"/>
		<path class="st1" d="M231.5,218.5l3.7,12.3c0,0.1,0,0.3,0,0.4c-0.1,0.1-0.2,0.2-0.3,0.2l-2.9,0.9c-0.1,0-0.3,0-0.4,0
			c-0.1-0.1-0.2-0.2-0.2-0.3l-1.2-3.8l-8.2,2.5c-0.1,0-0.3,0-0.4,0c-0.1-0.1-0.2-0.2-0.2-0.3l-1.1-3.7c0-0.1,0-0.3,0-0.4
			c0.1-0.1,0.2-0.2,0.3-0.2l8.2-2.5l-1.2-3.8c0-0.1,0-0.3,0-0.4c0.1-0.1,0.2-0.2,0.3-0.2l2.9-0.9c0.1,0,0.3,0,0.4,0
			C231.3,218.3,231.4,218.4,231.5,218.5z"/>
		<path class="st1" d="M218.5,213.1c-1-1.1-1.7-2.7-2-4.7c-0.3-2.1,0-3.8,0.7-5.1s2-2.1,3.9-2.4l7-0.9c0.1,0,0.3,0,0.4,0.1
			c0.1,0.1,0.2,0.2,0.2,0.3l0.5,3.9c0,0.1,0,0.3-0.1,0.4c-0.1,0.1-0.2,0.2-0.3,0.2l-7.2,0.9c-0.5,0.1-0.9,0.3-1.1,0.7
			c-0.2,0.4-0.3,0.8-0.2,1.4c0.1,0.6,0.3,1,0.6,1.3c0.3,0.3,0.7,0.4,1.2,0.4l7.2-0.9c0.1,0,0.3,0,0.4,0.1c0.1,0.1,0.2,0.2,0.2,0.3
			l0.5,3.9c0,0.1,0,0.3-0.1,0.4c-0.1,0.1-0.2,0.2-0.3,0.2l-7,0.9C221,214.6,219.5,214.2,218.5,213.1z"/>
	</g>
	<g>
		<path class="st1" d="M459.1,200.6l3.3,0.4c1.6,0.2,2.7,0.9,3.4,2.2c0.7,1.2,0.9,2.8,0.7,4.6c-0.2,1.9-0.8,3.3-1.8,4.3
			c-1,1-2.3,1.4-3.9,1.2l-3.2-0.4c-1.6-0.2-2.7-0.9-3.4-2.2c-0.7-1.3-0.9-2.8-0.7-4.6c0.2-1.8,0.8-3.2,1.8-4.3
			C456.3,200.9,457.6,200.4,459.1,200.6z M458.1,208l3.5,0.4c0.3,0,0.6,0,0.9-0.2c0.2-0.2,0.4-0.5,0.4-0.8c0-0.3,0-0.6-0.2-0.9
			c-0.2-0.3-0.4-0.4-0.8-0.5l-3.5-0.4c-0.3,0-0.6,0-0.9,0.2c-0.2,0.2-0.4,0.5-0.4,0.8s0,0.6,0.2,0.9
			C457.5,207.8,457.8,208,458.1,208z"/>
		<path class="st1" d="M460.5,220.3c0-0.1,0.1-0.2,0.2-0.3s0.3-0.1,0.4,0l2.7,0.8c0.1,0,0.2,0.1,0.3,0.2s0.1,0.2,0,0.4l-3.1,10.8
			c0,0.1-0.1,0.2-0.2,0.3s-0.2,0.1-0.4,0l-2.2-0.6c-0.4-0.1-0.7-0.4-0.8-0.7c-0.7-2.4-1.2-4.2-1.7-5.4c-0.5-1.2-0.9-1.9-1.3-2
			c-0.1,0-0.3-0.1-0.4-0.1c-0.1,0-0.2,0-0.3,0.1c-0.1,0.1-0.2,0.2-0.2,0.4c-0.1,0.2-0.1,0.4,0,0.6c0.1,0.2,0.1,0.3,0.2,0.4
			s0.2,0.2,0.3,0.3c0.2,0.1,0.2,0.2,0.3,0.2c0.1,0.1,0.1,0.3,0,0.6l-1,3.6c0,0.1-0.1,0.2-0.2,0.3c-0.1,0.1-0.2,0.1-0.4,0
			c-1.3-0.4-2.2-1.2-2.7-2.5c-0.5-1.3-0.5-2.8,0-4.5c0.5-1.8,1.2-3,2.2-3.7c0.9-0.7,2-0.9,3.3-0.5c0.6,0.2,1.1,0.6,1.5,1.1
			c0.2,0.3,0.4,0.6,0.6,0.9c0.2,0.3,0.3,0.6,0.5,1.1c0.4,1.1,0.7,2.2,1,3L460.5,220.3z"/>
		<path class="st1" d="M450.9,236.1l3,1.4c1.5,0.7,2.3,1.7,2.6,3.1c0.3,1.4,0,2.9-0.8,4.6c-0.8,1.7-1.8,2.9-3,3.6
			c-1.2,0.7-2.6,0.7-4.1,0l-2.9-1.4c-1.5-0.7-2.3-1.7-2.6-3.2c-0.3-1.4,0-2.9,0.7-4.6c0.8-1.6,1.8-2.8,3-3.5
			C448.1,235.5,449.5,235.4,450.9,236.1z M447.6,242.8l3.2,1.5c0.3,0.1,0.6,0.1,0.9,0c0.3-0.1,0.5-0.3,0.7-0.6
			c0.1-0.3,0.2-0.6,0.1-0.9s-0.3-0.5-0.6-0.7l-3.2-1.5c-0.3-0.1-0.6-0.1-0.9,0c-0.3,0.1-0.5,0.3-0.7,0.6c-0.1,0.3-0.2,0.6-0.1,0.9
			C447.2,242.5,447.3,242.7,447.6,242.8z"/>
		<path class="st1" d="M446.2,255.3c0.1-0.1,0.2-0.2,0.3-0.2c0.1,0,0.3,0,0.4,0.1l2.3,1.6c0.1,0.1,0.2,0.2,0.2,0.3
			c0,0.1,0,0.3-0.1,0.4l-6.2,9.3c-0.1,0.1-0.2,0.2-0.3,0.2c-0.1,0-0.3,0-0.4-0.1l-1.9-1.3c-0.4-0.3-0.6-0.6-0.6-1
			c0.1-2.5,0.1-4.4,0-5.7c-0.1-1.3-0.3-2.1-0.6-2.3c-0.1-0.1-0.2-0.1-0.3-0.2c-0.1,0-0.2,0-0.3,0c-0.1,0-0.3,0.2-0.4,0.3
			c-0.1,0.2-0.2,0.4-0.2,0.5c0,0.2,0,0.3,0.1,0.4c0.1,0.1,0.1,0.2,0.3,0.3c0.1,0.1,0.2,0.2,0.2,0.2c0.1,0.1,0,0.3-0.1,0.5l-2.1,3.1
			c-0.1,0.1-0.2,0.2-0.3,0.2c-0.1,0-0.2,0-0.4-0.1c-1.1-0.8-1.8-1.8-1.8-3.2c-0.1-1.4,0.4-2.8,1.4-4.3c1-1.5,2.1-2.5,3.2-2.8
			c1.1-0.4,2.2-0.2,3.3,0.5c0.5,0.4,0.9,0.9,1.1,1.5c0.1,0.4,0.2,0.7,0.3,1c0.1,0.3,0.1,0.7,0.1,1.2c0.1,1.2,0.1,2.3,0,3.2
			L446.2,255.3z"/>
	</g>
	<g>
		<path class="st1" d="M341.5,342c-82.7,0-150-67.3-150-150c0-82.7,67.3-150,150-150c82.7,0,150,67.3,150,150
			C491.5,274.7,424.2,342,341.5,342z M341.5,47.6c-79.6,0-144.4,64.8-144.4,144.4c0,79.6,64.8,144.4,144.4,144.4
			c79.6,0,144.4-64.8,144.4-144.4C485.9,112.4,421.1,47.6,341.5,47.6z"/>
	</g>
	<g>
		<path class="st1" d="M341.5,96.1c-53,0-95.9,42.9-95.9,95.9c0,53,42.9,95.9,95.9,95.9c53,0,95.9-42.9,95.9-95.9
			C437.4,139,394.5,96.1,341.5,96.1z M341.5,285.1c-41.6,0-76.9-27.3-88.8-65c20.4,1.6,42,11.1,59.4,23
			c27.5,18.8,52.1,31.5,79.3,27.5C377,279.8,359.9,285.1,341.5,285.1z M419.2,243.4c-1.7,1.1-3.3,2.1-5,3
			c-36.2,19.2-61.5,4-97.7-16.5c-20-11.3-43.7-18.9-66.2-19.5c-0.6-2.8-1-5.7-1.3-8.7c21.2,0.3,43.2,5.6,63.2,13.7
			c38.8,15.6,66.9,28.8,106,11.6c3.9-1.7,7.8-3.7,11.8-5.7C427.3,229.2,423.7,236.6,419.2,243.4z M414.2,215.8
			c-34.5,11.4-62.5,2.6-97.8-9.8c-21.5-7.6-45.7-13.6-68.1-13.8c0-0.1,0-0.2,0-0.3c0-51.4,41.7-93.1,93.1-93.1
			c51.4,0,93.1,41.7,93.1,93.1c0,5.5-0.5,10.9-1.4,16.1C426.7,210.9,420.3,213.8,414.2,215.8z"/>
		<path class="st1" d="M397.7,186.2c-14.7-2.2-14.9,0.7-20.8,0.4c-6-0.3-25.7-4-36.4-12.8c-3.5-2.8-6.6,3-13.7,3.4
			c-8.6,0.6-12.4-4-10.5-5.9c3.5-3.5,10.3-10.3,8.6-16.8c-1.7-6.5,1.8-9,4.5-13.4c2.7-4.5,10.9-12.2,12-12.2c1.5-0.1,6,3.5,10.2,6.7
			c4.2,3.2,28.1,27.5,35.7,31.5c5.3,2.8,3.2,3.7,2.4,6.5C389,176.4,401.7,186.8,397.7,186.2z"/>
		<path class="st1" d="M423.1,184.8c-9.9-9.4-19.9-20.4-23-22.6c-8.2-5.6-54.6-38.8-60.8-38.8c-6.4,0-36.7,23.9-39.7,27
			c-3.1,3.1-13.1,8.9-15,9.3c-1,0.2-11.6,6.2-22.6,12.4c8.9-35.6,41.1-62.1,79.5-62.1C384.3,110.1,419.5,142.9,423.1,184.8z"/>
	</g>
</g>
</svg>
