<?xml version="1.0" encoding="utf-8"?>
<!-- Generator: Adobe Illustrator 26.2.1, SVG Export Plug-In . SVG Version: 6.00 Build 0)  -->
<svg version="1.1" id="Layer_1" xmlns="http://www.w3.org/2000/svg" xmlns:xlink="http://www.w3.org/1999/xlink" x="0px" y="0px"
	 viewBox="0 0 683 384" style="enable-background:new 0 0 683 384;" xml:space="preserve">
<style type="text/css">
	.st0{fill:#5E8039;}
	.st1{fill:#F5F9EA;}
</style>
<rect class="st0" width="683" height="384"/>
<g>
	<g>
		<path class="st1" d="M129.9,265.1v-54l-1.6-10.2h27.6c26,0,39.1,11.8,39.1,37.1s-13.1,37.3-39.1,37.3h-27.6L129.9,265.1
			L129.9,265.1z M156.2,268.8c19.6,0,29.7-9.3,29.7-30.8s-10-30.6-29.6-30.6h-17.8v61.4H156.2L156.2,268.8z"/>
		<path class="st1" d="M270.7,275.3h-13.8l-3.1-8.1l-18.3-22.9h-18v20.7l1.9,10.2h-12.2l1.6-10.2v-54l-1.6-10.2h33.2
			c17.3,0,25.7,7.7,25.7,21.5c0,11.5-7.5,19.2-21.3,20.7L270.7,275.3L270.7,275.3z M237.6,237.8c12.1,0,19.6-5.4,19.6-15.4
			s-5.9-15.4-18-15.4h-22v30.7L237.6,237.8L237.6,237.8z"/>
		<path class="st1" d="M348.4,275.3h-11.5l-1.9-9.6l-3.7-8.9H293l-3.8,8.9l-1.9,9.6h-10.3l29.7-69.6l-2.4-4.8h12.7L348.4,275.3
			L348.4,275.3z M328.5,250.3l-16.4-38.9l-16.5,38.9H328.5z"/>
		<path class="st1" d="M358.8,265.1v-54l-1.6-10.2h32.5c18.2,0,26.2,7.7,26.2,23.3s-8.3,23.3-27,23.3h-21.4v17.6l2.5,10.2h-12.8
			L358.8,265.1L358.8,265.1z M387.8,241.2c13.6,0,19.4-5.4,19.4-16.7s-5.6-17.1-18.6-17.1h-21.2v33.8H387.8L387.8,241.2z"/>
		<path class="st1" d="M481.4,266.6l-1.3,8.7h-54.6l1.6-10.2v-54l-1.6-10.2h54.1l1.3,8.7l-10.3-2.4h-35V234h26.2l8.9-1.1v8.5
			l-8.9-1.1h-26.2v28.7h35.4L481.4,266.6L481.4,266.6z"/>
		<path class="st1" d="M554.7,275.3h-13.8l-3.1-8.1l-18.3-22.9h-18v20.7l1.9,10.2h-12.2l1.6-10.2v-54l-1.6-10.2h33.2
			c17.3,0,25.7,7.7,25.7,21.5c0,11.5-7.5,19.2-21.3,20.7L554.7,275.3L554.7,275.3z M521.6,237.8c12.1,0,19.6-5.4,19.6-15.4
			s-5.9-15.4-18-15.4h-22v30.7L521.6,237.8L521.6,237.8z"/>
	</g>
	<g>
		<path class="st1" d="M169.1,340.9h-7.4l-0.8-4.8l-1.6-3.7h-18.3l-1.6,3.7l-0.8,4.8h-6.5l14.6-34.5l-1.2-2.7h7.9L169.1,340.9
			L169.1,340.9z M157.7,328.3l-7.5-17.7l-7.4,17.7H157.7L157.7,328.3z"/>
		<path class="st1" d="M208.1,340.9h-8.7l-1.3-4.2l-8.2-10.8h-8.3v9.8l1.1,5.2h-7.7l0.9-5.2v-26.8l-0.9-5.2h17.5
			c8.9,0,13.1,3.9,13.1,11c0,5.5-3.4,9.3-9.8,10.4L208.1,340.9L208.1,340.9z M190.7,321.8c5.6,0,9-2.4,9-7.1s-2.6-7.1-8.2-7.1h-10.1
			v14.1L190.7,321.8L190.7,321.8z"/>
		<path class="st1" d="M230,308v27.7l1.5,5.2h-8.7l1.5-5.2V308h-7.5l-5.3,1.2l0.8-5.5H242l0.8,5.5l-5.3-1.2H230L230,308z"/>
		<path class="st1" d="M249.2,339.6l-1-6.4l6.1,3.4c2.7,0.9,5.5,1.3,8.2,1.3c6.2,0,9.2-2.4,9.2-6.1c0-3.7-2.4-5.6-10.1-7.7
			c-9.5-2.5-13.1-5.7-13.1-11.5c0-5.8,5-9.9,14.2-9.9c4.4,0,8.2,0.6,12.7,2l0.9,6.2l-5.9-3.1c-2.5-0.7-4.8-1.1-7.3-1.1
			c-5.4,0-8.8,2.2-8.8,5.5c0,3.3,2,5.3,9.7,7.4c9.6,2.6,13.6,5.8,13.6,11.8c0,6.4-5.3,10.6-14.8,10.6
			C256.6,341.9,252.1,340.5,249.2,339.6L249.2,339.6z"/>
		<path class="st1" d="M296.7,322.2c0-12.7,7.7-19.4,18.2-19.4c4,0,7.8,0.7,11.7,2.1l1,6.3l-5.9-3.3c-2.2-0.6-4.4-0.8-6.2-0.8
			c-7.1,0-12.6,4.8-12.6,15c0,10.2,5.4,15.5,13.1,15.5c1.7,0,3.9-0.2,6.1-0.8l5.8-3.3l-1,6.4c-3.9,1.3-7.3,2.1-11.4,2.1
			C304.4,341.9,296.7,334.8,296.7,322.2L296.7,322.2z"/>
		<path class="st1" d="M333.4,322.3c0-12.3,7.4-19.6,18.7-19.6c11.3,0,18.7,7.2,18.7,19.6S363.3,342,352,342
			C340.8,342,333.4,334.7,333.4,322.3z M364.7,322.3c0-10.1-5.2-15.2-12.6-15.2c-7.4,0-12.7,5.2-12.7,15.2s5.2,15.4,12.6,15.4
			C359.4,337.6,364.7,332.4,364.7,322.3z"/>
		<path class="st1" d="M378.6,328.4v-19.5l-0.9-5.2h7.6l-0.9,5.2v19.8c0,6.1,3.8,9,10.6,9s10.8-2.9,10.8-9v-19.8l-0.9-5.2h6.9
			l-0.9,5.2v19.5c0,9.1-5.6,13.6-16.1,13.6C384.2,342,378.6,337.5,378.6,328.4L378.6,328.4z"/>
		<path class="st1" d="M454.3,303.7l-0.9,5.2v32h-8l-19.6-32.4v27.2l0.8,5.2H420l0.9-5.2v-26.8l-0.9-5.2h9l19.4,32.3v-27.1l-0.8-5.2
			L454.3,303.7L454.3,303.7z"/>
		<path class="st1" d="M461.7,322.2c0-12.7,7.7-19.4,18.2-19.4c4,0,7.8,0.7,11.7,2.1l1,6.3l-5.9-3.3c-2.2-0.6-4.4-0.8-6.2-0.8
			c-7.1,0-12.6,4.8-12.6,15c0,10.2,5.4,15.5,13.1,15.5c1.7,0,3.9-0.2,6.1-0.8l5.8-3.3l-1,6.4c-3.9,1.3-7.3,2.1-11.4,2.1
			C469.4,341.9,461.7,334.8,461.7,322.2L461.7,322.2z"/>
		<path class="st1" d="M501,335.7v-26.8l-0.9-5.2h7.6l-0.9,5.2v26.8l0.9,5.2h-7.6L501,335.7z"/>
		<path class="st1" d="M542.7,335.4l-0.8,5.5h-25.5l0.9-5.2v-26.8l-0.9-5.2h7.6l-0.9,5.2v27.7h14.5L542.7,335.4L542.7,335.4z"/>
	</g>
	<g>
		<path class="st1" d="M459.9,155.5c-1.6,0-3-1.3-3-3v-37.3H433c-1.6,0-3-1.3-3-3c0-1.7,1.3-3,3-3h26.9c1.6,0,3,1.3,3,3v40.3
			C462.9,154.2,461.6,155.5,459.9,155.5z"/>
		<path class="st1" d="M217.9,155.5c-1.6,0-3-1.3-3-3v-40.3c0-1.6,1.3-3,3-3h26.9c1.6,0,3,1.3,3,3c0,1.7-1.3,3-3,3h-23.9v37.3
			C220.9,154.2,219.6,155.5,217.9,155.5L217.9,155.5z"/>
		<path class="st1" d="M419.6,155.5c-1.6,0-3-1.3-3-3V74.9h-21.2c-0.9,0-1.7-0.4-2.3-1.1c-0.6-0.7-0.8-1.6-0.6-2.5l4-20.2
			c0.3-1.6,1.9-2.7,3.5-2.3c1.6,0.3,2.7,1.9,2.3,3.5L399,68.9h20.6c1.6,0,3,1.3,3,3v80.7C422.6,154.2,421.2,155.6,419.6,155.5
			L419.6,155.5z"/>
		<path class="st1" d="M392.7,155.5c-1.6,0-3-1.3-3-3v-50.8h-91.1c-1.6,0-3-1.3-3-3c0-1.7,1.3-3,3-3h94.1c1.6,0,3,1.3,3,3v53.8
			C395.7,154.2,394.4,155.5,392.7,155.5z"/>
		<path class="st1" d="M285.1,155.5c-1.6,0-3-1.3-3-3V85.3c0-1.6,1.3-3,3-3h107.6c1.6,0,3,1.3,3,3c0,1.7-1.3,3-3,3H288.1v64.2
			C288.1,154.2,286.8,155.5,285.1,155.5L285.1,155.5z"/>
		<path class="st1" d="M258.2,155.5c-1.6,0-3-1.3-3-3V71.9c0-1.6,1.3-3,3-3h20.6l-3.3-16.6c-0.3-1.6,0.7-3.1,2.2-3.5
			c1.1-0.3,27.6-6.8,61.2-6.8c19.4,0,36.5,2.2,47.5,4.1c1.6,0.3,2.7,1.8,2.4,3.4s-1.8,2.7-3.4,2.4c-10.8-1.8-27.6-4-46.5-4
			c-26.7,0-49.3,4.3-57,6l3.5,17.3c0.2,0.9-0.1,1.8-0.6,2.5c-0.6,0.7-1.4,1.1-2.3,1.1h-21.2v77.7
			C261.2,154.2,259.9,155.5,258.2,155.5L258.2,155.5z"/>
		<path class="st1" d="M473.4,170.5H204.5c-1.6,0-3-1.3-3-3c0-1.7,1.3-3,3-3h268.9c1.6,0,3,1.3,3,3
			C476.4,169.1,475,170.5,473.4,170.5L473.4,170.5z"/>
	</g>
</g>
</svg>
