<?xml version="1.0" encoding="utf-8"?>
<!-- Generator: Adobe Illustrator 25.2.3, SVG Export Plug-In . SVG Version: 6.00 Build 0)  -->
<svg version="1.1" id="Layer_1" xmlns="http://www.w3.org/2000/svg" xmlns:xlink="http://www.w3.org/1999/xlink" x="0px" y="0px"
	 viewBox="0 0 1366 768" style="enable-background:new 0 0 1366 768;" xml:space="preserve">
<style type="text/css">
	.st0{fill:#EAEAEA;}
	.st1{fill:#FFFFFF;}
	.st2{fill:#C7C5C5;}
	.st3{fill:#1763AF;}
	.st4{fill:#EF4438;}
	.st5{fill:#DEBDDA;}
	.st6{fill:#FEF9C4;}
	.st7{fill:none;stroke:#231F20;stroke-width:1.0758;stroke-miterlimit:10;}
</style>
<rect class="st0" width="1366" height="768"/>
<rect x="50" y="50" class="st1" width="1266" height="668"/>
<g>
	<path class="st2" d="M586.2,267.8v19.4c0,10.7-11.6,19.4-25.8,19.4h-12.9v6.5h-64.5L470,300.1V242l25.8-25.8h51.6l12.9,12.9v25.8
		h6.5C577.5,254.9,586.2,260.7,586.2,267.8z"/>
	<polygon class="st3" points="502.3,119.4 502.3,183.9 463.5,222.6 444.2,222.6 444.2,119.4 	"/>
	<rect x="173.1" y="409.8" class="st4" width="12.9" height="25.8"/>
	<rect x="244.1" y="435.6" class="st4" width="32.3" height="12.9"/>
	<rect x="205.4" y="338.8" class="st3" width="58.1" height="32.3"/>
	<rect x="205.4" y="242" class="st3" width="71" height="64.5"/>
	<rect x="205.4" y="209.7" class="st3" width="58.1" height="32.3"/>
	<rect x="205.4" y="177.5" class="st3" width="58.1" height="32.3"/>
	<rect x="205.4" y="164.5" class="st5" width="58.1" height="12.9"/>
	<rect x="205.4" y="151.6" class="st5" width="58.1" height="12.9"/>
	<rect x="244.1" y="138.7" class="st4" width="32.3" height="12.9"/>
	<polygon class="st2" points="244.1,138.7 244.1,151.6 205.4,151.6 205.4,158.1 186,158.1 186,138.7 	"/>
	<rect x="340.9" y="171" class="st2" width="12.9" height="32.3"/>
	<polygon class="st2" points="353.8,203.3 353.8,242 321.5,242 321.5,222.6 263.5,222.6 263.5,151.6 276.4,151.6 276.4,138.7 
		334.5,138.7 334.5,171 340.9,171 340.9,203.3 	"/>
	<polygon class="st2" points="321.5,222.6 321.5,293.6 276.4,293.6 276.4,242 263.5,242 263.5,222.6 	"/>
	<rect x="334.5" y="242" class="st6" width="19.4" height="12.9"/>
	<rect x="353.8" y="242" class="st2" width="6.5" height="19.4"/>
	<rect x="360.3" y="242" class="st2" width="12.9" height="19.4"/>
	<rect x="276.4" y="293.6" class="st2" width="12.9" height="12.9"/>
	<polygon class="st2" points="347.4,358.2 347.4,403.4 334.5,403.4 334.5,422.7 328,422.7 328,448.5 276.4,448.5 276.4,435.6 
		244.1,435.6 244.1,448.5 186,448.5 186,371.1 263.5,371.1 263.5,338.8 308.6,338.8 308.6,377.5 334.5,377.5 334.5,358.2 	"/>
	<rect x="334.5" y="403.4" class="st2" width="12.9" height="19.4"/>
	<rect x="347.4" y="371.1" class="st2" width="19.4" height="51.6"/>
	<rect x="347.4" y="358.2" class="st4" width="19.4" height="12.9"/>
	<rect x="308.6" y="332.4" class="st6" width="25.8" height="45.2"/>
	<rect x="334.5" y="345.3" class="st6" width="38.7" height="12.9"/>
	<rect x="386.1" y="332.4" class="st5" width="25.8" height="25.8"/>
	<rect x="411.9" y="332.4" class="st5" width="32.3" height="25.8"/>
	<rect x="399" y="332.4" class="st1" width="12.9" height="6.5"/>
	<rect x="411.9" y="332.4" class="st1" width="12.9" height="6.5"/>
	<rect x="399" y="332.4" class="st2" width="12.9" height="6.5"/>
	<rect x="411.9" y="332.4" class="st2" width="12.9" height="6.5"/>
	<rect x="463.5" y="358.2" class="st5" width="19.4" height="19.4"/>
	<rect x="482.9" y="358.2" class="st5" width="19.4" height="19.4"/>
	<polygon class="st1" points="463.5,358.2 463.5,377.5 502.3,377.5 502.3,396.9 476.5,396.9 476.5,409.8 418.4,409.8 418.4,358.2 
		444.2,358.2 444.2,332.4 489.4,332.4 502.3,345.3 502.3,358.2 	"/>
	<rect x="476.5" y="396.9" class="st1" width="25.8" height="12.9"/>
	<rect x="463.5" y="409.8" class="st2" width="38.7" height="38.7"/>
	<polygon class="st2" points="502.3,448.5 502.3,487.3 418.4,487.3 418.4,409.8 463.5,409.8 463.5,448.5 	"/>
	<rect x="515.2" y="461.5" class="st4" width="32.3" height="25.8"/>
	<polygon class="st2" points="612,416.3 612,487.3 547.5,487.3 547.5,461.5 515.2,461.5 515.2,429.2 579.7,429.2 579.7,416.3 	"/>
	<rect x="573.3" y="487.3" class="st4" width="38.7" height="12.9"/>
	<rect x="515.2" y="345.3" class="st6" width="12.9" height="19.4"/>
	<rect x="515.2" y="364.6" class="st2" width="12.9" height="12.9"/>
	<rect x="521.6" y="274.3" class="st6" width="25.8" height="38.7"/>
	<rect x="444.2" y="100" class="st2" width="32.3" height="19.4"/>
	<rect x="476.5" y="100" class="st2" width="25.8" height="19.4"/>
	<rect x="547.5" y="100" class="st2" width="12.9" height="19.4"/>
	<rect x="560.4" y="100" class="st2" width="12.9" height="19.4"/>
	<rect x="573.3" y="100" class="st2" width="12.9" height="19.4"/>
	<rect x="586.2" y="100" class="st2" width="12.9" height="19.4"/>
	<rect x="599.1" y="100" class="st2" width="12.9" height="19.4"/>
	<rect x="515.2" y="100" class="st4" width="32.3" height="19.4"/>
	<rect x="515.2" y="119.4" class="st2" width="32.3" height="12.9"/>
	<rect x="444.2" y="119.4" class="st2" width="19.4" height="19.4"/>
	<rect x="515.2" y="274.3" class="st1" width="6.5" height="38.7"/>
	<rect x="547.5" y="280.7" class="st1" width="6.5" height="25.8"/>
	<rect x="515.2" y="274.3" class="st2" width="6.5" height="38.7"/>
	<rect x="547.5" y="280.7" class="st2" width="6.5" height="25.8"/>
	<polygon class="st2" points="482.9,248.5 482.9,261.4 470,261.4 470,242 476.5,242 	"/>
	<polygon class="st2" points="482.9,293.6 482.9,280.7 470,280.7 470,300.1 476.5,300.1 	"/>
	<polygon class="st2" points="553.9,222.6 547.5,229.1 547.5,235.5 534.5,235.5 534.5,216.2 547.5,216.2 	"/>
	<rect x="612" y="242" class="st2" width="12.9" height="12.9"/>
	<rect x="612" y="254.9" class="st2" width="12.9" height="19.4"/>
	<rect x="612" y="313" class="st2" width="12.9" height="12.9"/>
	<rect x="612" y="325.9" class="st2" width="12.9" height="19.4"/>
	<rect x="624.9" y="242" class="st4" width="19.4" height="25.8"/>
	<polygon class="st4" points="676.5,229.1 676.5,248.5 657.2,248.5 657.2,261.4 644.3,261.4 644.3,229.1 	"/>
	<rect x="657.2" y="248.5" class="st6" width="19.4" height="19.4"/>
	<rect x="624.9" y="319.5" class="st4" width="19.4" height="25.8"/>
	<polygon class="st2" points="683,358.2 644.3,358.2 644.3,325.9 676.5,325.9 676.5,332.4 683,332.4 	"/>
	<rect x="644.3" y="313" class="st3" width="32.3" height="12.9"/>
	<polygon class="st2" points="721.7,351.7 721.7,358.2 683,358.2 683,332.4 702.4,332.4 	"/>
	<polygon class="st2" points="721.7,235.5 721.7,229.1 676.5,229.1 676.5,254.9 702.4,254.9 	"/>
	<polygon class="st2" points="805.6,229.1 805.6,358.2 760.5,358.2 760.5,325.9 754,332.4 728.2,332.4 702.4,306.5 779.8,306.5 
		779.8,280.7 702.4,280.7 728.2,254.9 754,254.9 760.5,261.4 760.5,229.1 	"/>
	<rect x="702.4" y="280.7" class="st6" width="77.5" height="25.8"/>
	<polygon class="st0" points="1192.9,190.4 1192.9,396.9 921.8,396.9 921.8,526 883.1,526 883.1,668 637.8,668 637.8,526 612,526 
		612,345.3 644.3,345.3 644.3,358.2 721.7,358.2 721.7,377.5 760.5,377.5 760.5,358.2 805.6,358.2 805.6,229.1 760.5,229.1 
		760.5,209.7 721.7,209.7 721.7,229.1 663.6,229.1 663.6,177.5 805.6,177.5 805.6,190.4 	"/>
	<polygon class="st1" points="386.1,332.4 386.1,358.2 373.2,358.2 373.2,345.3 334.5,345.3 334.5,332.4 	"/>
	<rect x="205.4" y="345.3" class="st2" width="6.5" height="16.1"/>
	<rect x="205.4" y="183.9" class="st2" width="6.5" height="19.4"/>
	<rect x="205.4" y="216.2" class="st2" width="6.5" height="19.4"/>
	<rect x="502.3" y="403.4" class="st2" width="12.9" height="83.9"/>
	<polyline class="st7" points="247.3,448.5 244.1,448.5 244.1,435.6 276.4,435.6 276.4,448.5 253.8,448.5 	"/>
	<line class="st7" x1="205.4" y1="364.6" x2="205.4" y2="345.3"/>
	<polyline class="st7" points="205.4,338.8 263.5,338.8 263.5,371.1 205.4,371.1 	"/>
	<polyline class="st7" points="269.9,306.5 205.4,306.5 205.4,296.9 	"/>
	<polyline class="st7" points="205.4,251.7 205.4,242 276.4,242 276.4,306.5 	"/>
	<line class="st7" x1="205.4" y1="290.4" x2="205.4" y2="258.1"/>
	<polyline class="st7" points="205.4,242 263.5,242 263.5,209.7 205.4,209.7 	"/>
	<line class="st7" x1="205.4" y1="216.2" x2="205.4" y2="235.5"/>
	<line class="st7" x1="205.4" y1="183.9" x2="205.4" y2="203.3"/>
	<polyline class="st7" points="205.4,209.7 263.5,209.7 263.5,177.5 205.4,177.5 205.4,177.5 	"/>
	<polyline class="st7" points="205.4,171 205.4,164.5 263.5,164.5 263.5,177.5 205.4,177.5 	"/>
	<polyline class="st7" points="205.4,158.1 205.4,151.6 263.5,151.6 263.5,164.5 205.4,164.5 	"/>
	<polyline class="st7" points="253.8,138.7 276.4,138.7 276.4,151.6 244.1,151.6 244.1,138.7 247.3,138.7 	"/>
	<polyline class="st7" points="192.5,158.1 186,158.1 186,138.7 244.1,138.7 244.1,151.6 205.4,151.6 205.4,158.1 198.9,158.1 	"/>
	<rect x="340.9" y="171" class="st7" width="12.9" height="32.3"/>
	<polyline class="st7" points="328,242 321.5,242 321.5,222.6 263.5,222.6 263.5,151.6 276.4,151.6 276.4,138.7 334.5,138.7 
		334.5,171 340.9,171 340.9,203.3 353.8,203.3 353.8,242 334.5,242 	"/>
	<polyline class="st7" points="321.5,293.6 276.4,293.6 276.4,242 263.5,242 263.5,222.6 321.5,222.6 321.5,287.2 	"/>
	<polyline class="st7" points="340.9,254.9 334.5,254.9 334.5,242 353.8,242 353.8,254.9 347.4,254.9 	"/>
	<polyline class="st7" points="357,261.4 360.3,261.4 360.3,242 353.8,242 353.8,261.4 334.5,261.4 	"/>
	<polyline class="st7" points="370,261.4 360.3,261.4 360.3,242 373.2,242 373.2,261.4 373.2,261.4 	"/>
	<polyline class="st7" points="282.8,306.5 276.4,306.5 276.4,293.6 289.3,293.6 289.3,306.5 286,306.5 	"/>
	<polyline class="st7" points="347.4,367.9 347.4,403.4 334.5,403.4 334.5,422.7 328,422.7 328,448.5 276.4,448.5 276.4,435.6 
		244.1,435.6 244.1,448.5 186,448.5 186,426 	"/>
	<polyline class="st7" points="344.1,358.2 347.4,358.2 347.4,361.4 	"/>
	<polyline class="st7" points="295.7,338.8 308.6,338.8 308.6,377.5 334.5,377.5 334.5,358.2 337.7,358.2 	"/>
	<polyline class="st7" points="186,419.5 186,371.1 263.5,371.1 263.5,338.8 289.3,338.8 	"/>
	<rect x="334.5" y="403.4" class="st7" width="12.9" height="19.4"/>
	<polyline class="st7" points="366.7,400.1 366.7,422.7 347.4,422.7 347.4,371.1 366.7,371.1 366.7,393.7 	"/>
	<polyline class="st7" points="366.7,367.9 366.7,371.1 347.4,371.1 347.4,367.9 	"/>
	<polyline class="st7" points="347.4,361.4 347.4,358.2 366.7,358.2 366.7,361.4 	"/>
	<polyline class="st7" points="334.5,345.3 334.5,377.5 308.6,377.5 308.6,332.4 311.9,332.4 	"/>
	<line class="st7" x1="331.2" y1="332.4" x2="334.5" y2="332.4"/>
	<line class="st7" x1="350.6" y1="345.3" x2="344.1" y2="345.3"/>
	<line class="st7" x1="363.5" y1="345.3" x2="357" y2="345.3"/>
	<polyline class="st7" points="344.1,358.2 373.2,358.2 373.2,345.3 370,345.3 	"/>
	<polyline class="st7" points="337.7,345.3 334.5,345.3 334.5,358.2 337.7,358.2 	"/>
	<polyline class="st7" points="399,332.4 411.9,332.4 411.9,358.2 386.1,358.2 386.1,332.4 392.5,332.4 	"/>
	<polyline class="st7" points="424.8,332.4 411.9,332.4 411.9,358.2 444.2,358.2 444.2,332.4 431.3,332.4 	"/>
	<polyline class="st7" points="399,332.4 411.9,332.4 411.9,338.8 399,338.8 399,335.6 	"/>
	<polyline class="st7" points="424.8,335.6 424.8,338.8 411.9,338.8 411.9,332.4 424.8,332.4 	"/>
	<polyline class="st7" points="476.5,377.5 463.5,377.5 463.5,358.2 482.9,358.2 482.9,377.5 	"/>
	<polyline class="st7" points="495.8,377.5 482.9,377.5 482.9,358.2 502.3,358.2 502.3,377.5 	"/>
	<polyline class="st7" points="482.9,396.9 476.5,396.9 476.5,409.8 418.4,409.8 418.4,358.2 444.2,358.2 444.2,332.4 489.4,332.4 
		492.6,335.6 	"/>
	<polyline class="st7" points="502.3,377.5 502.3,396.9 489.4,396.9 	"/>
	<line class="st7" x1="482.9" y1="377.5" x2="495.8" y2="377.5"/>
	<polyline class="st7" points="499,342 502.3,345.3 502.3,358.2 463.5,358.2 463.5,377.5 476.5,377.5 	"/>
	<polyline class="st7" points="482.9,396.9 476.5,396.9 476.5,409.8 502.3,409.8 502.3,396.9 489.4,396.9 	"/>
	<polyline class="st7" points="502.3,419.5 502.3,448.5 463.5,448.5 463.5,409.8 502.3,409.8 502.3,413 	"/>
	<polyline class="st7" points="502.3,458.2 502.3,487.3 418.4,487.3 418.4,409.8 463.5,409.8 463.5,448.5 502.3,448.5 502.3,451.8 	
		"/>
	<polyline class="st7" points="515.2,464.7 515.2,461.5 547.5,461.5 547.5,487.3 521.6,487.3 	"/>
	<polyline class="st7" points="557.1,487.3 547.5,487.3 547.5,461.5 515.2,461.5 515.2,438.9 	"/>
	<polyline class="st7" points="515.2,432.4 515.2,429.2 579.7,429.2 579.7,416.3 612,416.3 612,487.3 563.6,487.3 	"/>
	<polyline class="st7" points="573.3,487.3 612,487.3 612,500.2 573.3,500.2 573.3,493.7 	"/>
	<polyline class="st7" points="528.1,361.4 528.1,364.6 515.2,364.6 515.2,345.3 518.4,345.3 	"/>
	<polyline class="st7" points="524.9,345.3 528.1,345.3 528.1,355 	"/>
	<polyline class="st7" points="515.2,371.1 515.2,364.6 528.1,364.6 528.1,377.5 515.2,377.5 515.2,374.3 	"/>
	<polyline class="st7" points="544.2,313 547.5,313 547.5,274.3 521.6,274.3 521.6,313 524.9,313 	"/>
	<polyline class="st7" points="489.4,119.4 476.5,119.4 476.5,100 502.3,100 502.3,119.4 495.8,119.4 	"/>
	<polyline class="st7" points="553.9,119.4 547.5,119.4 547.5,100 560.4,100 560.4,119.4 	"/>
	<polyline class="st7" points="566.8,119.4 560.4,119.4 560.4,100 573.3,100 573.3,119.4 	"/>
	<polyline class="st7" points="579.7,119.4 573.3,119.4 573.3,100 586.2,100 586.2,119.4 	"/>
	<polyline class="st7" points="592.6,119.4 586.2,119.4 586.2,100 599.1,100 599.1,119.4 	"/>
	<polyline class="st7" points="605.5,119.4 599.1,119.4 599.1,100 612,100 612,119.4 	"/>
	<polyline class="st7" points="521.6,100 547.5,100 547.5,119.4 515.2,119.4 515.2,116.1 	"/>
	<rect x="515.2" y="119.4" class="st7" width="32.3" height="12.9"/>
	<polyline class="st7" points="463.5,135.5 463.5,138.7 444.2,138.7 444.2,119.4 463.5,119.4 463.5,129 	"/>
	<polyline class="st7" points="463.5,142 463.5,138.7 444.2,138.7 444.2,158.1 463.5,158.1 463.5,154.9 	"/>
	<polyline class="st7" points="463.5,161.3 463.5,158.1 444.2,158.1 444.2,196.8 463.5,196.8 463.5,193.6 	"/>
	<polyline class="st7" points="502.3,125.8 502.3,183.9 495.8,190.4 	"/>
	<line class="st7" x1="495.8" y1="119.4" x2="502.3" y2="119.4"/>
	<line class="st7" x1="473.2" y1="119.4" x2="489.4" y2="119.4"/>
	<polyline class="st7" points="479.7,206.5 463.5,222.6 444.2,222.6 444.2,119.4 466.8,119.4 	"/>
	<rect x="515.2" y="274.3" class="st7" width="6.5" height="38.7"/>
	<rect x="547.5" y="280.7" class="st7" width="6.5" height="25.8"/>
	<polyline class="st7" points="482.9,254.9 482.9,261.4 470,261.4 470,242 476.5,242 482.9,248.5 482.9,248.5 	"/>
	<polyline class="st7" points="482.9,280.7 482.9,280.7 470,280.7 470,300.1 476.5,300.1 482.9,293.6 482.9,287.2 	"/>
	<polyline class="st7" points="541,235.5 534.5,235.5 534.5,216.2 547.5,216.2 553.9,222.6 547.5,229.1 547.5,235.5 	"/>
	<polyline class="st7" points="553.9,306.5 547.5,306.5 547.5,313 544.2,313 	"/>
	<path class="st7" d="M560.4,254.9h6.5c10.7,0,19.4,5.8,19.4,12.9v19.4c0,10.7-11.6,19.4-25.8,19.4"/>
	<polyline class="st7" points="524.9,313 482.9,313 470,300.1 470,242 495.8,216.2 547.5,216.2 560.4,229.1 560.4,248.5 	"/>
	<polyline class="st7" points="624.9,245.2 624.9,242 612,242 612,254.9 624.9,254.9 624.9,251.7 	"/>
	<polyline class="st7" points="624.9,258.1 624.9,254.9 612,254.9 612,274.3 624.9,274.3 624.9,264.6 	"/>
	<rect x="612" y="313" class="st7" width="12.9" height="12.9"/>
	<polyline class="st7" points="624.9,345.3 624.9,325.9 612,325.9 612,345.3 618.5,345.3 	"/>
	<polyline class="st7" points="624.9,264.6 624.9,267.8 628.1,267.8 	"/>
	<line class="st7" x1="624.9" y1="251.7" x2="624.9" y2="258.1"/>
	<polyline class="st7" points="628.1,242 624.9,242 624.9,245.2 	"/>
	<polyline class="st7" points="641,267.8 644.3,267.8 644.3,242 641,242 	"/>
	<polyline class="st7" points="663.6,267.8 657.2,267.8 657.2,248.5 676.5,248.5 676.5,267.8 670.1,267.8 	"/>
	<polyline class="st7" points="647.5,261.4 644.3,261.4 644.3,238.8 	"/>
	<polyline class="st7" points="644.3,229.1 676.5,229.1 676.5,248.5 657.2,248.5 657.2,261.4 654,261.4 	"/>
	<polyline class="st7" points="644.3,335.6 644.3,345.3 634.6,345.3 	"/>
	<polyline class="st7" points="641,319.5 644.3,319.5 644.3,329.1 	"/>
	<polyline class="st7" points="628.1,345.3 624.9,345.3 624.9,319.5 628.1,319.5 	"/>
	<polyline class="st7" points="676.5,332.4 676.5,332.4 683,332.4 683,358.2 644.3,358.2 644.3,335.6 	"/>
	<polyline class="st7" points="644.3,329.1 644.3,325.9 676.5,325.9 	"/>
	<line class="st7" x1="650.7" y1="313" x2="676.5" y2="313"/>
	<polyline class="st7" points="676.5,319.5 676.5,325.9 644.3,325.9 644.3,316.2 	"/>
	<polygon class="st7" points="721.7,351.7 721.7,358.2 683,358.2 683,332.4 702.4,332.4 	"/>
	<polygon class="st7" points="721.7,235.5 721.7,229.1 676.5,229.1 676.5,254.9 702.4,254.9 	"/>
	<polygon class="st7" points="805.6,229.1 805.6,358.2 760.5,358.2 760.5,325.9 754,332.4 728.2,332.4 702.4,306.5 779.8,306.5 
		779.8,280.7 702.4,280.7 728.2,254.9 754,254.9 760.5,261.4 760.5,229.1 	"/>
	<polyline class="st7" points="702.4,280.7 779.8,280.7 779.8,306.5 702.4,306.5 	"/>
	<line class="st7" x1="624.9" y1="345.3" x2="628.1" y2="345.3"/>
	<polyline class="st7" points="247.3,448.5 186,448.5 186,435.6 173.1,435.6 173.1,426 	"/>
	<polyline class="st7" points="366.7,400.1 366.7,422.7 328,422.7 328,448.5 253.8,448.5 	"/>
	<line class="st7" x1="366.7" y1="367.9" x2="366.7" y2="393.7"/>
	<polyline class="st7" points="366.7,361.4 366.7,358.2 418.4,358.2 418.4,487.3 515.2,487.3 515.2,477.6 	"/>
	<line class="st7" x1="557.1" y1="487.3" x2="521.6" y2="487.3"/>
	<line class="st7" x1="573.3" y1="487.3" x2="563.6" y2="487.3"/>
	<polyline class="st7" points="618.5,345.3 612,345.3 612,500.2 573.3,500.2 573.3,493.7 	"/>
	<line class="st7" x1="628.1" y1="345.3" x2="624.9" y2="345.3"/>
	<polyline class="st7" points="644.3,229.1 721.7,229.1 721.7,209.7 760.5,209.7 760.5,229.1 805.6,229.1 805.6,358.2 760.5,358.2 
		760.5,377.5 721.7,377.5 721.7,358.2 644.3,358.2 644.3,345.3 634.6,345.3 	"/>
	<polyline class="st7" points="637.8,242 644.3,242 644.3,238.8 	"/>
	<polyline class="st7" points="521.6,100 612,100 612,242 628.1,242 	"/>
	<polyline class="st7" points="253.8,138.7 334.5,138.7 334.5,171 353.8,171 353.8,242 444.2,242 444.2,100 515.2,100 515.2,103.2 	
		"/>
	<polyline class="st7" points="186,161.3 186,138.7 247.3,138.7 	"/>
	<line class="st7" x1="186" y1="274.3" x2="186" y2="171"/>
	<line class="st7" x1="186" y1="300.1" x2="186" y2="290.4"/>
	<line class="st7" x1="186" y1="345.3" x2="186" y2="316.2"/>
	<polyline class="st7" points="173.1,419.5 173.1,409.8 186,409.8 186,351.7 	"/>
	<line class="st7" x1="337.7" y1="345.3" x2="334.5" y2="345.3"/>
	<line class="st7" x1="350.6" y1="345.3" x2="344.1" y2="345.3"/>
	<line class="st7" x1="363.5" y1="345.3" x2="357" y2="345.3"/>
	<line class="st7" x1="373.2" y1="345.3" x2="370" y2="345.3"/>
	<polyline class="st7" points="334.5,332.4 386.1,332.4 386.1,345.3 	"/>
	<line class="st7" x1="612" y1="148.4" x2="579.7" y2="148.4"/>
	<rect x="357" y="332.4" class="st7" width="29" height="6.5"/>
	<rect x="244.1" y="306.5" class="st7" width="22.6" height="12.9"/>
	<rect x="547.5" y="309.8" class="st7" width="22.6" height="12.9"/>
	<rect x="528.1" y="193.6" class="st7" width="22.6" height="12.9"/>
	<polyline class="st7" points="208.6,345.3 205.4,345.3 205.4,361.4 211.8,361.4 211.8,345.3 	"/>
	<line class="st7" x1="211.8" y1="338.8" x2="205.4" y2="338.8"/>
	<polyline class="st7" points="211.8,216.2 211.8,235.5 205.4,235.5 205.4,216.2 208.6,216.2 	"/>
	<polyline class="st7" points="208.6,203.3 205.4,203.3 205.4,183.9 211.8,183.9 211.8,203.3 	"/>
	<line class="st7" x1="515.2" y1="429.2" x2="515.2" y2="403.4"/>
	<polyline class="st7" points="466.8,119.4 444.2,119.4 444.2,100 476.5,100 476.5,119.4 473.2,119.4 	"/>
</g>
</svg>
