<?xml version="1.0" encoding="utf-8"?>
<!-- Generator: Adobe Illustrator 25.2.3, SVG Export Plug-In . SVG Version: 6.00 Build 0)  -->
<svg version="1.1" id="Layer_1" xmlns="http://www.w3.org/2000/svg" xmlns:xlink="http://www.w3.org/1999/xlink" x="0px" y="0px"
	 viewBox="0 0 683 384" style="enable-background:new 0 0 683 384;" xml:space="preserve">
<style type="text/css">
	.st0{fill:#302A34;}
	.st1{fill:#CFCBC9;}
	.st2{fill:#AE88A7;}
</style>
<rect class="st0" width="683" height="384"/>
<g>
	<g>
		<path class="st1" d="M441.9,244c0.2,0,0.6,0,1.4-0.1c0.7,0,1.6-0.1,2.5-0.1c0.9-0.1,1.9-0.1,2.9-0.1c1,0,1.7-0.1,2.4-0.1
			c0.7,0,1.5,0.1,2.2,0.4l8,3.7c0.5,0.2,1,0.3,1.4,0.1c0.4-0.2,0.7-0.5,0.8-0.8c0.2-0.4,0.2-0.7,0.1-1.2c-0.1-0.4-0.4-0.7-0.9-1
			l-8.1-3.7c-0.3-0.1-0.6-0.3-0.9-0.6c-0.3-0.3-0.6-0.5-0.8-0.8c-0.4-0.5-0.9-1.1-1.4-1.9c-0.6-0.8-1.2-1.5-1.7-2.2
			c-0.6-0.7-1.1-1.4-1.5-2c-0.4-0.6-0.7-0.9-0.8-1.1c-0.3-0.4-0.7-0.7-1.2-0.7c-0.4,0-0.8,0.1-1.1,0.4c-0.3,0.3-0.5,0.6-0.6,1
			c-0.1,0.4,0,0.8,0.4,1.3l3.2,4.1c0.5,0.7,0.6,1.2,0.4,1.5c-0.3,0.3-0.7,0.5-1.3,0.6l-5.2,0.2c-0.6,0-1,0.2-1.2,0.5
			c-0.3,0.3-0.4,0.7-0.4,1.1c0,0.4,0.2,0.8,0.5,1.1C440.9,243.9,441.3,244,441.9,244z"/>
		<path class="st1" d="M437.3,265.5l8.6,6.2c0.4,0.3,0.9,0.4,1.3,0.3c0.4-0.1,0.7-0.3,1-0.6c0.2-0.3,0.3-0.7,0.3-1.1
			c0-0.4-0.3-0.8-0.7-1.2l-5.3-3.8c-0.4-0.3-0.6-0.6-0.7-1c0-0.4,0-0.7,0.2-1l1.3-1.7c0.2-0.2,0.5-0.4,0.8-0.5
			c0.4-0.1,0.8,0,1.2,0.3l5.4,3.9c0.5,0.3,0.9,0.4,1.3,0.3c0.4-0.1,0.7-0.3,1-0.6c0.2-0.3,0.3-0.7,0.3-1.1c0-0.4-0.3-0.8-0.7-1.1
			l-8.6-6.2l-7.4-5.3c-0.4-0.3-0.9-0.4-1.3-0.3c-0.4,0.1-0.7,0.3-1,0.6c-0.2,0.3-0.3,0.7-0.3,1.1c0,0.4,0.3,0.8,0.8,1.1l5.1,3.7
			c0.4,0.3,0.6,0.6,0.7,1c0.1,0.4,0.1,0.7-0.1,1.1l-1.3,1.8c-0.2,0.3-0.6,0.5-1,0.5c-0.4,0-0.8-0.2-1.1-0.4l-5.1-3.7
			c-0.5-0.3-0.9-0.4-1.3-0.3c-0.4,0.1-0.8,0.3-1,0.6c-0.2,0.3-0.3,0.7-0.3,1.1s0.3,0.8,0.7,1.1L437.3,265.5z"/>
		<path class="st1" d="M416.1,274.5l6.6,6.9l6.8,7.1c0.4,0.4,0.8,0.6,1.3,0.6c0.4,0,0.8-0.2,1.1-0.5c0.3-0.3,0.4-0.6,0.5-1.1
			c0-0.4-0.1-0.8-0.5-1.2l-3.7-3.8c-0.3-0.4-0.5-0.8-0.5-1.3c0-0.5,0.1-0.8,0.4-1l1.2-1.2c0.9-0.9,1.4-1.8,1.5-2.9
			c0.1-1.1-0.1-2.1-0.6-3.1c-0.5-1-1.1-2-2-2.8c-0.9-0.9-1.8-1.5-2.8-2c-1-0.5-2-0.7-3-0.8c-1,0-1.9,0.3-2.6,1l-3.5,3.3
			c-0.2,0.1-0.3,0.3-0.4,0.5c-0.1,0.2-0.2,0.5-0.2,0.8c0,0.3,0,0.5,0.1,0.8C415.8,274.1,415.9,274.3,416.1,274.5z M420.4,272.1
			l0.7-0.7c0.5-0.4,1-0.7,1.5-0.7c0.6,0,1.1,0.1,1.7,0.4c0.5,0.3,1.1,0.6,1.5,1.1c0.5,0.5,0.8,1,1.1,1.5c0.3,0.5,0.4,1.1,0.4,1.6
			c0,0.5-0.2,1-0.6,1.4l-1,0.9c-0.3,0.4-0.7,0.5-1.1,0.5c-0.5,0-0.8-0.2-1.1-0.5l-3.2-3.3c-0.3-0.4-0.5-0.8-0.4-1.2
			C419.9,272.6,420.1,272.3,420.4,272.1z"/>
		<path class="st1" d="M408.1,302.9c0.2,0.5,0.5,0.8,0.8,1c0.4,0.1,0.7,0.1,1.1,0c0.4-0.1,0.6-0.3,0.9-0.7c0.2-0.3,0.3-0.7,0.1-1.1
			l-0.6-2c-0.2-0.5-0.1-0.9,0.1-1.2c0.2-0.3,0.4-0.5,0.7-0.7l2.8-1.8c0.4-0.3,0.7-0.3,1.1-0.2c0.4,0.1,0.6,0.3,0.9,0.5l1.1,1.1
			c0.4,0.4,0.8,0.6,1.2,0.6c0.4,0,0.8-0.2,1.1-0.4c0.3-0.3,0.5-0.6,0.5-1c0.1-0.4-0.1-0.8-0.4-1.1l-5.4-5.3l-8.7-8.5
			c-0.4-0.5-0.9-0.8-1.4-0.9c-0.5-0.1-1,0-1.4,0.2c-0.4,0.2-0.7,0.6-0.9,1.1c-0.2,0.5-0.2,1.1,0,1.9L408.1,302.9z M406.9,288.4
			c0.1-0.1,0.3-0.1,0.5,0c0.2,0,0.3,0.1,0.5,0.3l3.7,3.8c0.2,0.2,0.3,0.4,0.4,0.7c0,0.3-0.1,0.5-0.4,0.7l-1.6,1
			c-0.3,0.2-0.6,0.2-0.8,0.1c-0.2-0.1-0.4-0.4-0.5-0.7c-0.3-0.8-0.6-1.6-1-2.4c-0.3-0.8-0.7-1.6-1-2.5c-0.1-0.3-0.1-0.5,0-0.7
			C406.7,288.6,406.8,288.5,406.9,288.4z"/>
		<path class="st1" d="M382.2,303.5l3.5,9.1c0.2,0.5,0.5,0.9,0.9,1c0.4,0.1,0.8,0.1,1.2,0c0.4-0.1,0.7-0.4,0.9-0.8
			c0.2-0.4,0.2-0.8,0-1.3l-1.8-4.7c-0.2-0.4-0.2-0.8-0.1-1.1c0.1-0.3,0.3-0.5,0.5-0.7c0.3-0.2,0.5-0.2,0.9-0.2
			c0.3,0,0.6,0.2,0.9,0.4l5,4.8c0.4,0.4,0.8,0.6,1.3,0.5c0.4,0,0.8-0.2,1.1-0.5c0.3-0.3,0.4-0.6,0.5-1.1c0-0.4-0.2-0.8-0.5-1.2
			l-3.6-3.6c-0.3-0.3-0.5-0.5-0.7-0.8c-0.2-0.3-0.3-0.5-0.3-0.8c0-0.3-0.1-0.5,0-0.8c0-0.3,0.1-0.5,0.1-0.7c0.1-0.6,0.2-1.1,0.3-1.6
			c0.1-0.5,0.1-1,0.1-1.4c0-0.5-0.1-0.9-0.2-1.4c-0.1-0.5-0.3-1-0.5-1.6c-0.3-0.8-0.8-1.6-1.3-2.3c-0.5-0.7-1.1-1.3-1.7-1.8
			c-0.6-0.5-1.3-0.8-2-0.9c-0.7-0.2-1.4-0.1-2.1,0.1L380,292c-0.2,0.1-0.4,0.2-0.6,0.3c-0.2,0.2-0.3,0.4-0.5,0.6
			c-0.1,0.2-0.2,0.5-0.2,0.8c0,0.3,0,0.6,0.1,0.9L382.2,303.5z M382.8,294.7c0.2-0.4,0.5-0.6,0.8-0.8l1-0.4c0.4-0.2,0.8-0.2,1.3-0.1
			c0.4,0.1,0.8,0.2,1.1,0.5c0.3,0.2,0.6,0.6,0.9,0.9c0.3,0.4,0.5,0.8,0.7,1.2c0.2,0.5,0.3,0.9,0.4,1.4c0.1,0.5,0.1,0.9,0,1.3
			c-0.1,0.4-0.2,0.8-0.4,1.1c-0.2,0.3-0.5,0.6-0.9,0.7l-1.3,0.5c-0.4,0.2-0.8,0.2-1.2,0c-0.4-0.2-0.7-0.5-0.8-0.9l-1.7-4.4
			C382.6,295.5,382.6,295.1,382.8,294.7z"/>
		<path class="st1" d="M361.3,307.6l1,5.7c0.1,0.6,0.3,1.3,0.5,2c0.3,0.7,0.6,1.3,1.1,1.7c0.6,0.6,1.3,1,2.2,1.2
			c0.9,0.2,1.8,0.2,2.7,0c0.9-0.2,1.8-0.6,2.6-1.2c0.8-0.6,1.3-1.3,1.6-2.1c0.2-0.5,0.3-1,0.4-1.6c0-0.5,0-1.1-0.1-1.6l-0.7-3.7
			c-0.1-0.5-0.3-0.9-0.6-1.2c-0.3-0.3-0.8-0.4-1.5-0.3l-2.8,0.5c-0.5,0.1-0.8,0.3-1,0.7c-0.2,0.4-0.2,0.8-0.2,1.1
			c0.1,0.4,0.3,0.7,0.6,1c0.3,0.3,0.7,0.4,1.2,0.3l0.5-0.1c0.1,0,0.3,0,0.6,0.1c0.3,0.1,0.4,0.3,0.5,0.6l0.2,1.4
			c0.1,0.4,0.1,0.8,0,1.1c-0.1,0.3-0.2,0.5-0.4,0.7c-0.2,0.2-0.4,0.3-0.6,0.4c-0.2,0.1-0.5,0.2-0.8,0.3c-0.5,0.1-0.9,0.2-1.3,0.1
			c-0.3-0.1-0.6-0.3-0.8-0.5c-0.3-0.4-0.6-1-0.7-1.8l-1-5.5l-1.1-6c-0.1-0.6,0-1.2,0.4-1.6c0.4-0.4,0.9-0.6,1.5-0.7
			c0.6-0.1,1.1,0,1.6,0.3c0.5,0.3,0.8,0.8,1,1.4l0.3,1.6c0.1,0.6,0.3,0.9,0.7,1.1c0.4,0.2,0.8,0.2,1.2,0.1c0.4-0.1,0.7-0.3,1-0.6
			c0.3-0.3,0.4-0.7,0.3-1.2l-0.3-1.6c-0.1-0.5-0.2-1-0.5-1.5c-0.2-0.5-0.5-0.9-0.9-1.3c-0.6-0.7-1.4-1.2-2.4-1.4
			c-1-0.2-1.9-0.3-2.9-0.1c-0.9,0.2-1.7,0.5-2.4,0.9c-0.7,0.5-1.2,1.1-1.6,1.8c-0.3,0.6-0.4,1.3-0.4,2c0,0.8,0.1,1.4,0.2,2.1
			L361.3,307.6z"/>
		<path class="st1" d="M341.2,317.4c0.5,0.8,1.2,1.5,2,1.9c0.8,0.4,1.7,0.6,2.6,0.6c0.9,0,1.8-0.2,2.6-0.7c0.8-0.4,1.5-1.1,2-1.9
			c0.5-0.8,0.8-1.9,0.8-3.1l0-5.8l0-5.8c0-1.3-0.3-2.3-0.8-3.1c-0.5-0.8-1.2-1.5-2-1.9c-0.8-0.4-1.6-0.6-2.6-0.7
			c-0.9,0-1.8,0.2-2.6,0.6c-0.8,0.4-1.5,1-2,1.9c-0.5,0.8-0.8,1.9-0.8,3.1c0,1,0,2,0,3c0,1,0,2,0,3c0,1,0,2,0,2.9c0,1,0,1.9,0,2.9
			C340.3,315.6,340.6,316.6,341.2,317.4z M343.5,308.4l0-5.8c0-0.9,0.2-1.5,0.6-1.9c0.5-0.4,1-0.6,1.5-0.6c0.6,0,1.1,0.2,1.5,0.5
			c0.5,0.4,0.7,0.9,0.7,1.7l0,6l0,6.2c0,0.7-0.2,1.3-0.7,1.7c-0.5,0.4-1,0.6-1.5,0.5c-0.6,0-1.1-0.2-1.5-0.6
			c-0.4-0.4-0.7-1.1-0.6-1.9L343.5,308.4z"/>
		<path class="st1" d="M320.9,297.3l1.5,0.3c0.4,0.1,0.8,0.2,1,0.4c0.3,0.2,0.3,0.6,0.3,1.2l-1,5.6l-2,10.5c-0.1,0.6,0,1,0.2,1.3
			c0.3,0.3,0.6,0.5,1,0.6c0.4,0.1,0.8,0,1.1-0.2c0.4-0.2,0.6-0.6,0.7-1.1l2.1-10.7l1-5.5c0.1-0.5,0.3-0.9,0.5-1
			c0.2-0.1,0.6-0.2,1-0.1l1.8,0.3c0.5,0.1,1,0,1.3-0.3c0.3-0.3,0.5-0.7,0.6-1.1c0.1-0.4,0-0.8-0.2-1.3c-0.2-0.4-0.6-0.7-1.1-0.8
			l-9.2-1.8c-0.6-0.1-1,0-1.3,0.3c-0.3,0.3-0.5,0.7-0.6,1.1c-0.1,0.4,0,0.9,0.2,1.3C320,297,320.3,297.2,320.9,297.3z"/>
		<path class="st1" d="M296.4,308.6c0.6,0.7,1.3,1.2,2.2,1.5c0.9,0.3,1.7,0.5,2.6,0.3c0.9-0.1,1.7-0.4,2.6-1
			c0.8-0.6,1.4-1.5,1.9-2.6l2.1-5.4l2.2-5.4c0.5-1.2,0.6-2.2,0.4-3.2c-0.2-1-0.6-1.8-1.1-2.5c-0.6-0.7-1.3-1.2-2.2-1.6
			c-0.9-0.4-1.7-0.5-2.6-0.4c-0.9,0.1-1.7,0.4-2.6,1c-0.8,0.6-1.5,1.4-1.9,2.6c-0.4,0.9-0.8,1.9-1.1,2.8c-0.4,0.9-0.7,1.8-1.1,2.8
			c-0.4,0.9-0.7,1.8-1.1,2.7c-0.4,0.9-0.7,1.8-1.1,2.7c-0.5,1.2-0.6,2.3-0.4,3.2C295.4,307.1,295.8,308,296.4,308.6z M298.6,304
			l2.1-5.4l2.1-5.3c0.3-0.8,0.7-1.3,1.3-1.5c0.6-0.2,1.1-0.2,1.6,0c0.5,0.2,0.9,0.6,1.2,1.1c0.3,0.5,0.3,1.1,0,1.8l-2.2,5.6
			l-2.3,5.7c-0.3,0.7-0.7,1.1-1.3,1.3c-0.6,0.2-1.1,0.1-1.6-0.1c-0.5-0.2-0.9-0.6-1.2-1.2C298.2,305.4,298.3,304.8,298.6,304z"/>
		<path class="st1" d="M273.9,296.2c0.1,0.4,0.4,0.7,0.7,0.9c0.3,0.2,0.7,0.3,1.2,0.2c0.4-0.1,0.8-0.3,1.1-0.8l3.5-5.6
			c0.3-0.4,0.6-0.7,1-0.7c0.4-0.1,0.7,0,1,0.1l1.8,1.1c0.3,0.2,0.4,0.4,0.5,0.8c0.1,0.4,0,0.8-0.2,1.2l-3.5,5.6
			c-0.3,0.5-0.4,0.9-0.3,1.3c0.1,0.4,0.4,0.7,0.7,0.9c0.3,0.2,0.7,0.3,1.1,0.2c0.4-0.1,0.8-0.3,1.1-0.8l5.7-9l4.9-7.7
			c0.3-0.5,0.4-0.9,0.2-1.3c-0.1-0.4-0.4-0.7-0.7-0.9c-0.3-0.2-0.7-0.3-1.1-0.2c-0.4,0.1-0.8,0.3-1.1,0.8l-3.4,5.3
			c-0.2,0.4-0.5,0.6-0.9,0.8c-0.4,0.2-0.7,0.1-1.1-0.1l-1.9-1.2c-0.4-0.2-0.5-0.5-0.5-1c0-0.4,0.1-0.8,0.4-1.1l3.4-5.3
			c0.3-0.5,0.4-0.9,0.3-1.3c-0.1-0.4-0.4-0.7-0.7-0.9c-0.3-0.2-0.7-0.3-1.1-0.2c-0.4,0.1-0.8,0.3-1.1,0.8l-4.9,7.7l-5.7,9
			C273.8,295.4,273.7,295.8,273.9,296.2z"/>
		<path class="st1" d="M257.5,282.3c0.4,0,0.8-0.2,1.2-0.6l3.6-3.9c0.3-0.4,0.8-0.6,1.2-0.6c0.5,0,0.8,0.1,1.1,0.3l1.2,1.1
			c0.9,0.8,1.9,1.3,3,1.3c1.1,0,2.1-0.2,3.1-0.8c1-0.5,1.9-1.2,2.7-2.2c0.8-0.9,1.4-1.9,1.9-2.9c0.4-1,0.6-2,0.6-3
			c0-1-0.4-1.8-1.2-2.5l-3.5-3.3c-0.1-0.2-0.3-0.3-0.6-0.4c-0.2-0.1-0.5-0.1-0.8-0.1c-0.3,0-0.5,0.1-0.8,0.2
			c-0.3,0.1-0.5,0.3-0.7,0.5l-6.5,7l-6.6,7.2c-0.4,0.4-0.6,0.8-0.5,1.3c0.1,0.4,0.2,0.8,0.5,1.1
			C256.7,282.1,257.1,282.3,257.5,282.3z M266.8,272.9l3.1-3.4c0.4-0.4,0.8-0.5,1.2-0.5c0.4,0,0.8,0.2,1,0.4l0.7,0.7
			c0.5,0.4,0.7,0.9,0.8,1.5c0,0.6-0.1,1.1-0.3,1.7c-0.2,0.6-0.6,1.1-1,1.6c-0.5,0.5-0.9,0.9-1.5,1.2c-0.5,0.3-1,0.5-1.6,0.5
			c-0.5,0-1-0.1-1.4-0.5l-1-0.9c-0.4-0.3-0.6-0.7-0.6-1.1C266.4,273.6,266.5,273.2,266.8,272.9z"/>
	</g>
	<path class="st2" d="M210.2,143.1c7.9-22.1,21.1-42.2,38.7-58.5c27-24.8,62-38.5,98.7-38.5c49.7,0,96,25.7,122.6,66.9
		c0.7-1.3,1.6-2.4,2.8-3.2C445.7,68,398.4,42,347.7,42c-37.7,0-73.8,14-101.5,39.6c-20.2,18.5-34.6,41.9-42.3,67.7
		c1-1.1,2-2.2,3.1-3.2C208,145,209.1,144,210.2,143.1z"/>
	<path class="st2" d="M256.9,87.1c25.2-21.8,57.4-33.8,90.7-33.8c49.9,0,95,26.1,119.8,68.7c0.1-0.4,0.3-0.9,0.4-1.3
		c0.2-0.5,0.3-1,0.4-1.4c-25.4-42.3-70.6-68.1-120.6-68.1c-33.8,0-66.5,12.2-92.1,34.3c-16.6,14.3-29.4,32.2-37.7,52.1
		c0.9-0.6,1.9-1.1,2.9-1.5C229,117.4,241.3,100.6,256.9,87.1z"/>
	<path class="st2" d="M546.6,191.3l-315.4,55.6c-1.3,1.7-2.7,3.4-4.2,4.9l43-7.6l0.8,1.2c17.5,25.1,46.2,40.1,76.8,40.1
		c42.4,0,79.6-28.6,90.4-69.6l0.3-1.4l47.3-8.3l-0.1,0.6c-7.5,70.6-66.8,123.9-137.9,123.9c-52.7,0-99.9-29.1-123.7-76
		c-0.4,0.4-0.9,0.8-1.3,1.2c-0.1,0.1-0.2,0.1-0.3,0.2c24.2,47.3,72,76.7,125.3,76.7c72.2,0,132.4-54,140-125.7l0.1-1.2l5.2-0.9
		l0,0.5c-3.3,36.1-19.9,69.5-46.7,94.1c-27,24.7-62,38.4-98.6,38.4c-54.4,0-104.7-30.8-129.6-78.9c-1.2,0.7-2.4,1.3-3.7,1.8
		C240,310.3,291.7,342,347.7,342c37.7,0,73.7-14,101.4-39.5c27.6-25.3,44.6-59.6,48-96.8l0.1-1.6l50.2-8.9c1.1-0.2,1.9-1.3,1.7-2.4
		C548.8,191.8,547.7,191.1,546.6,191.3z M428.1,216.3l-0.1,0.4c-10.9,35.4-43.2,59.3-80.3,59.3c-26.5,0-50.9-12.1-66.9-33.2
		l-0.3-0.4L428.1,216.3z M436.1,215.4c-10.6,40.1-46.9,68-88.4,68c-29.9,0-58-14.7-75.1-39.2l-0.3-0.4l5.9-1l0.8,1.2
		c16.4,21.7,41.5,34.1,68.6,34.1c38,0,71.1-24.4,82.3-60.8l0.3-1.4l5.9-1L436.1,215.4z"/>
	<path class="st2" d="M135.7,263.7c-1.1,0.2-1.9,1.3-1.7,2.4c0.2,1,1,1.7,2,1.7c0.1,0,0.2,0,0.4,0l48.2-8.5c-1.6-1-3.1-2.1-4.5-3.4
		L135.7,263.7z"/>
	<path class="st2" d="M547.3,119.6c1.1-0.2,1.9-1.3,1.7-2.4c-0.2-1.1-1.3-1.9-2.4-1.7l-33.8,6c-0.4,1.3-0.8,2.8-1.3,4.4L547.3,119.6
		z"/>
	<path class="st2" d="M268.2,164.6c11.7-34,43.2-56.7,79.5-56.7c25.6,0,49.2,11.3,65.3,31.1l-14.1,2.5c-0.4,1.5-0.8,2.9-1.2,4.4
		l66.2-11.7c0.4-1.4,0.8-2.6,0.9-3.1c0.1-0.5,0.3-0.9,0.4-1.3l-41.7,7.4c-17.6-24.3-45.7-38.8-75.8-38.8c-41.9,0-78.6,27.9-89.9,68
		l-5,0.9c-0.7,1.6-1.5,3.1-2.4,4.6l125.8-22.2l1.3-4.4L268.2,164.6z M347.7,100.6c29,0,56.3,13.8,73.5,37.1l-5.9,1
		c-16.4-20.8-41-32.8-67.6-32.8c-37.5,0-70.1,23.7-81.8,59.1l-5.9,1C271.4,127.4,307,100.6,347.7,100.6z"/>
	<path class="st2" d="M164.8,182.9l-29.1,5.1c-1.1,0.2-1.9,1.3-1.7,2.4c0.2,1,1,1.7,2,1.7c0.1,0,0.2,0,0.4,0l31.5-5.5
		C166.7,185.3,165.7,184.1,164.8,182.9z"/>
	<g>
		<path class="st1" d="M205.6,257c4.8-0.9,9.2-2.9,13.2-6c3.9-3.1,7.1-6.8,9.6-11.1c2.5-4.3,4-8.9,4.7-13.8c0.6-4.9,0.1-9.5-1.7-14
			c-0.8-1.6-1.8-2.5-3-2.8c-0.4-0.1-0.7-0.1-1.1-0.1c0,0-0.1,0-0.1,0c-0.1,0-0.1,0-0.2,0c-0.3,0-0.5,0-0.7,0.1c-0.1,0-0.2,0-0.3,0.1
			c-0.3,0.1-0.6,0.2-0.9,0.4c-1,0.6-1.7,1.5-2.1,2.7c-0.4,1.2-0.2,2.5,0.7,4c1.6,2.7,2.1,5.8,1.7,9.3c-0.4,3.6-1.6,7-3.4,10.3
			c-1.8,3.3-4.2,6.2-7.2,8.7c-3,2.5-6.2,4-9.8,4.6c-0.9,0.1-1.8,0.2-2.7,0.2c-0.1,0-0.2,0-0.3,0c-0.7,0-1.4-0.1-2.2-0.2
			c-0.3,0-0.5-0.1-0.8-0.1c-0.6-0.1-1.2-0.2-1.8-0.4c-0.2-0.1-0.5-0.1-0.7-0.2c-0.8-0.3-1.6-0.5-2.4-0.9c-3.5-1.6-6.2-4.4-8.2-8.6
			c-1.4-3-2.2-6.1-2.4-9.5c-0.2-3.4,0-6.8,0.6-10.2c0.6-3.4,1.5-6.8,2.6-10.1s2.3-6.3,3.5-9.1c1.5-3.9,4.4-6.2,8.7-6.7
			c0.2,0,0.5,0,0.7,0c0.7,0,1.3-0.1,2-0.1c0.6,0,1.2,0,1.8-0.1c0.8-0.1,1.7-0.2,2.5-0.3c0.6-0.1,1.1-0.1,1.7-0.2
			c0.9-0.2,1.8-0.4,2.8-0.6c0.5-0.1,0.9-0.2,1.4-0.3c1.4-0.4,2.8-0.8,4.2-1.4c5.8-2.1,11-4.8,15.6-7.9c4.4-3.1,8.2-6.7,11.4-10.8
			c3.2-4.1,5.2-8.6,6.2-13.5c0.8-4.1,0.4-8-1.2-11.5c-1.6-3.6-4.4-6-8.6-7.2c-0.9-0.3-1.7-0.5-2.6-0.6c-0.3,0-0.6-0.1-0.8-0.1
			c-0.6-0.1-1.1-0.1-1.7-0.1c-0.1,0-0.2,0-0.3,0c-0.4,0-0.8,0-1.3,0.1c-0.3,0-0.5,0-0.8,0c-0.8,0.1-1.5,0.2-2.3,0.4
			c-3.2,0.8-6.4,2.1-9.5,4.1c-3.1,1.9-6.1,4.3-9,7.1c-2.9,2.8-5.5,5.7-8,8.8c-2.5,3.1-4.7,6.1-6.7,9.2c-2,3.1-3.7,5.8-5,8.3
			c-0.7,1.2-0.8,2.3-0.3,3.3c0.5,1,1.2,1.8,2.2,2.2c0.3,0.1,0.5,0.2,0.8,0.3c0.1,0,0.2,0,0.3,0c0.2,0,0.4,0.1,0.6,0.1
			c0,0,0.1,0,0.1,0c0,0,0.1,0,0.1,0c0.4,0,0.9-0.1,1.4-0.2c1.2-0.3,2.1-1.3,2.8-2.9c1.5-2.7,3.6-5.9,6.2-9.8c2.7-3.9,5.7-7.6,9-11.1
			c3.4-3.5,6.9-6.3,10.6-8.5c0.6-0.4,1.2-0.7,1.8-0.9c0.2-0.1,0.3-0.1,0.5-0.2c0.5-0.2,1.1-0.4,1.6-0.6c0.1,0,0.1,0,0.2-0.1
			c0.6-0.2,1.2-0.3,1.8-0.4c0.2,0,0.3,0,0.5-0.1c0.5-0.1,1-0.1,1.5-0.1c0.1,0,0.2,0,0.3,0c0.3,0,0.6,0,0.9,0.1c0.2,0,0.3,0,0.5,0
			c0.5,0.1,0.9,0.1,1.4,0.2c2.7,0.6,4.4,2,5.2,4.1c0.8,2.1,0.8,4.4,0,6.9c-1,3.5-2.7,6.7-5.2,9.7c-2.5,3-5.4,5.6-8.9,7.9
			c-2.9,2-5.9,3.6-9.1,4.9c-3.2,1.3-6.4,2.3-9.5,3.1c-3,0.6-6,0.9-9.2,0.9c-3.2,0-6.3-0.4-9.3-1.3c-3-0.8-5.8-2.1-8.4-3.8
			c-2.6-1.7-4.8-3.8-6.6-6.5c-1.4-2.3-2.4-4.7-3.2-7.3c-0.7-2.6-1-5.3-0.8-7.9c0.1-0.2,0.1-0.4,0.1-0.7c-0.2-0.8-0.6-1.4-1.3-1.9
			c-0.6-0.4-1.3-0.7-2-0.8c-0.1,0-0.2,0-0.4,0c-0.1,0-0.2,0-0.3,0c-0.1,0-0.2,0-0.3,0c-0.2,0-0.3,0.1-0.4,0.1
			c-0.1,0-0.2,0.1-0.3,0.1c-0.2,0.1-0.3,0.1-0.4,0.2c-0.1,0-0.1,0.1-0.2,0.1c-0.2,0.1-0.4,0.3-0.6,0.5c-0.7,0.8-1.1,1.8-1.1,2.9
			c0,5.5,1,10.6,3,15.2c2,4.6,5.2,8.5,9.8,11.6c2.2,1.7,3.7,3.5,4.7,5.5c0.9,2,0.9,4.3-0.2,6.9c-1.2,3.3-2.3,6.7-3.4,10.4
			c-1.1,3.7-1.9,7.4-2.4,11.2c-0.5,3.8-0.6,7.6-0.3,11.3c0.3,3.8,1.1,7.3,2.5,10.7c1.3,3.2,3,5.8,5,8c2.1,2.2,4.3,3.8,6.8,5
			c2.5,1.2,5.1,1.9,7.8,2.3c1,0.1,2,0.2,3.1,0.2c0.1,0,0.2,0,0.4,0c0.1,0,0.2,0,0.3,0c0.5,0,1,0,1.5-0.1c0.2,0,0.5,0,0.7,0
			C204.1,257.3,204.9,257.2,205.6,257z"/>
		<path class="st1" d="M476.3,138.4c0.8-2.6,1.6-5.2,1.7-5.4c1.1-3.6,2-6.5,2.7-8.9c0.7-2.4,1.1-3.8,1.3-4.3
			c0.6-1.6,0.6-2.8,0.1-3.8c-0.5-0.9-1.2-1.5-2.1-1.8c-0.3-0.1-0.6-0.1-0.9-0.1c0,0-0.1,0-0.1,0c0,0-0.1,0-0.1,0
			c-0.2,0-0.4,0-0.6,0.1c-0.1,0-0.2,0-0.3,0c-0.3,0.1-0.5,0.1-0.8,0.3c-1,0.4-1.6,1.2-1.9,2.4c-0.2,0.9-0.7,2.8-1.6,5.7
			c-0.9,2.9-1.9,6.4-3.1,10.4c-0.1,0.4-1.2,3.9-2,6.8l-6.8,1.2l-2.4,0.4c-1.8,0.3-3,2-2.7,3.8c0.3,1.5,1.6,2.6,3.1,2.7
			c0.1,0,0.1,0,0.2,0c0.2,0,0.4,0,0.6-0.1l6-1.1c0,0.1-0.1,0.3-0.1,0.4c-0.3,1.2-0.6,2.4-1,3.6c-0.9,3.2-1.8,6.1-2.6,9
			c-0.8,2.8-1.6,5.3-2.3,7.6c-0.9,3.2-1.8,6.4-2.6,9.8c0,0.1,0,0.2-0.1,0.3c0,0.1-0.1,0.1-0.1,0.1c-1.2,2.1-2.6,4.3-4.2,6.8
			c-1.6,2.5-3.5,4.8-5.5,7c-2,2.2-4.3,4.1-6.7,5.6c-2.5,1.5-5.1,2.4-7.8,2.6c-0.4,0-0.9,0.1-1.3,0.1c-0.6,0-1.2-0.1-1.8-0.2
			c-0.1,0-0.3-0.1-0.4-0.1c-0.6-0.1-1.2-0.3-1.7-0.5c-1.6-0.7-2.8-1.9-3.7-3.7c-0.5-0.8-0.8-1.6-1-2.4c-0.1-0.8-0.3-1.7-0.4-2.8
			c0-1.1,0.5-2,1.4-2.7c0.9-0.7,1.6-1.2,2.1-1.3c2.7-0.5,5.3-1.2,7.8-2.1c2.6-0.9,4.9-2.1,7.1-3.6c2.2-1.5,4.1-3.3,5.7-5.3
			s2.9-4.5,3.8-7.2c1.3-3.9,1-7.3-0.9-10.1c-0.2-0.3-0.5-0.7-0.7-1c-0.1-0.1-0.2-0.2-0.3-0.3c-0.2-0.2-0.4-0.4-0.6-0.6
			c-0.1-0.1-0.2-0.2-0.4-0.3c-0.2-0.1-0.4-0.3-0.6-0.4c-0.1-0.1-0.3-0.2-0.4-0.2c-0.2-0.1-0.4-0.2-0.6-0.3c-0.2-0.1-0.3-0.1-0.5-0.2
			c-0.2-0.1-0.5-0.2-0.7-0.2c-0.2-0.1-0.4-0.1-0.6-0.1c-0.2-0.1-0.5-0.1-0.7-0.2c-0.2,0-0.4-0.1-0.6-0.1c-0.3,0-0.5-0.1-0.8-0.1
			c-0.2,0-0.5,0-0.7,0c-0.2,0-0.4,0-0.6,0c-0.1,0-0.3,0-0.4,0c-2.5,0-4.9,0.6-7.2,1.9c-2.3,1.3-4.4,3-6.4,5
			c-1.9,2.1-3.7,4.5-5.2,7.2c-1.5,2.7-2.8,5.5-3.8,8.4c-1.4,4.2-2.1,8.4-2.1,12.5c0,0.1,0,0.1,0,0.2c-0.1,0.1-0.1,0.2-0.2,0.3
			c-0.9,1.7-2,3.5-3.3,5.4c-3.3,5.1-6.4,8.5-9.3,10.2c-0.7,0.4-1.3,0.7-2,1c-0.2,0.1-0.4,0.2-0.6,0.2c-0.4,0.2-0.9,0.3-1.3,0.4
			c-0.2,0.1-0.4,0.1-0.6,0.2c-0.4,0.1-0.8,0.1-1.2,0.2c-0.2,0-0.4,0-0.6,0c-0.5,0-1.1,0-1.6-0.1c-1.5-0.3-2.8-0.9-3.8-1.7
			c-1.1-0.8-1.9-1.9-2.4-3c-0.5-1.2-0.7-2.4-0.6-3.6c0.1-1.2,0.8-2.4,1.8-3.5c1.7-1.6,3.4-2.9,5.2-4.1c1.8-1.1,3.5-2.3,5.1-3.5
			c1.6-1.2,3.1-2.6,4.5-4.1c1.4-1.6,2.5-3.6,3.3-6.1c0.9-2.8,1.1-5.5,0.6-8.3c-0.5-2.8-2-4.8-4.4-6.2c-0.5-0.3-1.1-0.6-1.6-0.8
			c-0.2-0.1-0.3-0.1-0.5-0.2c-0.4-0.1-0.8-0.3-1.1-0.4c-0.2-0.1-0.4-0.1-0.6-0.1c-0.4-0.1-0.8-0.1-1.1-0.2c-0.2,0-0.4,0-0.6,0
			c-0.1,0-0.2,0-0.3,0c-0.5,0-0.9,0-1.4,0.1c-2.6,0.3-5,1.1-7,2.4c-0.4,0.2-0.7,0.4-1,0.5c-0.1,0.1-0.3,0.1-0.5,0.1
			c-0.1,0-0.3,0-0.5,0c-1-0.2-1.5-0.9-1.4-2.1c0-1.2,0.2-2.1,0.4-2.7c1.3-4.6,2.5-9.2,3.8-13.6c1.2-4.4,2.5-9,3.8-13.6
			c0.4-1.1,0.3-2-0.2-2.8c-0.5-0.8-1.2-1.3-2.1-1.6c-0.8-0.2-1.7-0.2-2.7,0.1c-0.9,0.3-1.6,1.1-2,2.3l-19.2,66.7
			c-0.6,0.9-1.2,1.9-1.9,2.9c-1.6,2.5-3.5,4.8-5.5,7c-2,2.2-4.3,4.1-6.7,5.6c-2.5,1.5-5.1,2.4-7.8,2.6c-0.4,0-0.9,0.1-1.3,0.1
			c-0.6,0-1.2-0.1-1.8-0.2c-0.1,0-0.3-0.1-0.4-0.1c-0.6-0.1-1.2-0.3-1.7-0.5c-1.6-0.7-2.8-1.9-3.7-3.7c-1.1-2.1-1.5-4.7-1.3-7.8
			c0.2-3.2,1-6.4,2.1-9.8c0.7-2.2,1.6-4.3,2.7-6.3c1.1-2,2.4-3.8,3.8-5.5c1.4-1.6,2.9-3,4.5-4c1.6-1,3.3-1.7,5-1.9
			c0.4,0,0.7,0,1.1,0c0.1,0,0.2,0,0.3,0c0.4,0.1,0.7,0.1,1.1,0.3c0.8,0.3,1.4,0.9,1.8,1.9c0.5,1.2,0.5,2.4,0.1,3.7
			c-0.4,1.3-0.9,2.5-1.4,3.6c-0.6,1.1-0.7,2-0.3,2.7c0.4,0.7,1,1.2,1.7,1.4c0.3,0.1,0.5,0.1,0.8,0.1c0.1,0,0.1,0,0.2,0
			c0.1,0,0.2,0,0.2,0c0.4,0,0.7-0.1,1.1-0.3c0.8-0.3,1.5-1.1,1.9-2.1c2.5-4.8,2.8-9,0.9-12.4c-1-1.9-2.4-3.2-4.2-4.1
			c-0.4-0.2-0.9-0.4-1.3-0.5c-0.1,0-0.3-0.1-0.4-0.1c-0.3-0.1-0.6-0.2-0.9-0.2c-0.2,0-0.4-0.1-0.5-0.1c-0.3,0-0.6-0.1-0.8-0.1
			c-0.2,0-0.4,0-0.6,0c-0.2,0-0.3,0-0.5,0c-0.2,0-0.4,0-0.6,0c-2.5,0-4.9,0.6-7.2,1.9c-2.3,1.3-4.4,3-6.4,5
			c-1.9,2.1-3.7,4.5-5.2,7.2c-1.5,2.7-2.8,5.5-3.8,8.4c-1.3,4-2,8-2.1,11.8c-0.9,1.5-1.8,3-2.7,4.4c-1.1,1.8-2.6,3.2-4.4,4.1
			c-1.6,0.8-3.2,1.2-4.9,1.2c-1.1,0-1.8-0.6-2.1-1.8c-0.3-1.2-0.2-2.4,0.1-3.5c1.3-3.6,2.1-7.1,2.5-10.8c0.4-3.6,0.2-7-0.4-10
			c-0.7-3-1.9-5.5-3.8-7.6c-1.8-2.1-4.4-3.3-7.6-3.7c-0.5-0.1-1-0.1-1.5-0.1c0,0-0.1,0-0.1,0c-0.1,0-0.1,0-0.2,0
			c-0.7,0-1.3,0.1-2,0.2c-0.1,0-0.1,0-0.2,0c-0.7,0.1-1.3,0.3-2,0.5c-0.1,0-0.2,0.1-0.4,0.1c-0.6,0.2-1.3,0.5-1.9,0.8
			c-0.1,0.1-0.2,0.1-0.3,0.2c-0.6,0.3-1.3,0.7-1.9,1.2c-3.2,2.3-6,5.4-8.3,9.2c-2.3,3.8-4.1,8.1-5.3,12.7c-1,4.1-1.5,8-1.4,11.7
			c-0.4,0.7-0.9,1.5-1.5,2.5c-1.5,2.5-3.1,5-5,7.5c-1.8,2.5-3.7,4.7-5.5,6.4c-0.4,0.4-0.8,0.7-1.2,1c-0.1,0.1-0.2,0.2-0.4,0.2
			c-0.3,0.2-0.5,0.3-0.8,0.5c-0.1,0.1-0.3,0.1-0.4,0.2c-0.2,0.1-0.5,0.2-0.7,0.2c-0.1,0-0.2,0-0.3,0.1c-0.3,0-0.6,0-0.9-0.1
			c-1.4-0.5-2.1-1.5-2.1-3.1c0.1-1,0.4-2.2,0.8-3.5c0.4-1.4,1-2.9,1.6-4.4c0.6-1.6,1.4-3.2,2.1-5c0.8-1.7,1.5-3.5,2.2-5.3
			c0.7-1.9,1.3-3.5,1.8-4.8c0.5-1.3,0.8-2.5,0.8-3.6c0.1-1.1-0.2-2.1-0.7-3c-0.5-0.9-1.4-1.8-2.7-2.7c-1.2-0.9-2.8-1.8-4.8-2.9
			c-2-1-3.7-1.8-5.1-2.3c-1-0.4-1.5-0.9-1.4-1.6c0-0.6,0.1-1.2,0.2-1.6c0.3-1.1,0.6-2.2,0.9-3.3c0.3-1.1,0.4-2.1,0.4-2.9
			c-0.2-1.3-1.1-2.2-2.7-2.8c-0.4-0.1-0.7-0.2-1.1-0.2c-0.1,0-0.1,0-0.2,0c-0.1,0-0.1,0-0.2,0c-0.3,0-0.6,0-0.9,0.1
			c-0.1,0-0.1,0-0.2,0.1c-0.3,0.1-0.6,0.2-0.8,0.4c-0.1,0-0.2,0.1-0.3,0.2c-0.3,0.2-0.6,0.5-0.9,0.8c-0.7,0.7-1.3,1.6-1.9,2.7
			c-0.6,1.1-1.1,2.4-1.4,3.7c-0.3,1.3-0.5,2.6-0.5,3.9c0,1.3,0.2,2.4,0.7,3.4c0.5,0.8,0.8,1.3,0.8,1.4c0,0.1-0.2,0.8-0.7,2
			c-1.1,2.8-2.3,5.5-3.6,8.3c-1.3,2.8-2.6,5.2-3.9,7.4c-0.5,1-0.6,1.8-0.4,2.5c0.2,0.7,0.6,1.2,1.2,1.5c0.2,0.1,0.5,0.2,0.8,0.2
			c0.1,0,0.1,0,0.2,0s0.1,0,0.2,0c0.2,0,0.4,0,0.7-0.1c0.7-0.1,1.2-0.5,1.6-1.1c2.9-5,5.4-10.3,7.7-15.7c0.5-1.1,1.2-1.7,2-1.9
			c0.4-0.1,0.8-0.1,1.1-0.1s0.6,0,0.9,0.1c0.8,0.3,1.6,0.6,2.3,1c0.7,0.3,1.5,0.8,2.1,1.3c1,0.6,1.6,1.2,1.9,1.9
			c0.3,0.6,0.4,1.3,0.4,1.9c-0.1,0.6-0.2,1.3-0.4,2c-0.2,0.7-0.5,1.4-0.8,2.1c-0.7,1.7-1.5,3.5-2.3,5.4c-0.8,1.9-1.6,3.8-2.4,5.8
			c-0.7,1.9-1.4,3.8-1.9,5.6c-0.5,1.8-0.8,3.5-0.8,5c0.1,1.9,0.8,3.5,2,4.9c1.2,1.4,2.9,2.3,5.1,2.7c0.6,0.1,1.1,0.2,1.7,0.2
			c0.1,0,0.1,0,0.2,0c0.2,0,0.3,0,0.5,0c0.4,0,0.9-0.1,1.3-0.2c0.2,0,0.4-0.1,0.6-0.2c0.4-0.1,0.8-0.3,1.3-0.5
			c0.2-0.1,0.4-0.2,0.6-0.2c0.6-0.3,1.2-0.7,1.8-1.1c2.6-1.9,5-4.2,7.2-7c2-2.5,3.7-5.1,5.3-7.8c0.6,1.5,1.2,2.9,2.1,4.1
			c2,2.9,5.1,4.5,9.1,4.8c0.3,0,0.7,0,1,0c0.2,0,0.4,0,0.6,0c0.3,0,0.5,0,0.8-0.1c0.4,0,0.8-0.1,1.2-0.2c0.2,0,0.5-0.1,0.7-0.1
			c0.4-0.1,0.8-0.2,1.2-0.4c0.2-0.1,0.4-0.1,0.6-0.2c0.6-0.2,1.2-0.5,1.8-0.9c2.5-1.4,4.7-3.4,6.8-5.8c1-0.9,1.9-1.6,2.7-2
			c0.2-0.1,0.5-0.2,0.8-0.3c0.1,0,0.2,0,0.3-0.1c0.2,0,0.5-0.1,0.8-0.1c0.1,0,0.2,0,0.3,0c0.3,0,0.7,0,1,0.1
			c0.8,0.1,1.5,0.2,2.3,0.2c0,0,0,0,0,0c0.7,0,1.4-0.1,2.2-0.2c0.2,0,0.4-0.1,0.7-0.1c0.6-0.1,1.1-0.3,1.7-0.4
			c0.2-0.1,0.5-0.1,0.7-0.2c0.8-0.3,1.6-0.6,2.4-1c2.6-1.3,4.6-3,6.2-5.2c0.1-0.1,0.2-0.3,0.3-0.5c0.4,1,0.8,2,1.3,2.9
			c1.7,2.6,3.9,4.4,6.6,5.5c0.6,0.2,1.2,0.4,1.9,0.6c0.2,0.1,0.4,0.1,0.6,0.1c0.4,0.1,0.9,0.2,1.3,0.3c0.2,0,0.4,0.1,0.6,0.1
			c0.5,0.1,0.9,0.1,1.4,0.1c0.2,0,0.3,0,0.5,0c0.1,0,0.1,0,0.2,0c0.6,0,1.2,0,1.8-0.1c3.4-0.3,6.4-1.3,9.2-3
			c2.8-1.7,5.4-3.8,7.7-6.2c0.4-0.4,0.7-0.8,1-1.2c0.1,0.6,0.3,1.2,0.7,1.6c0.6,0.7,1.4,1.1,2.3,1.3c0.3,0.1,0.5,0.1,0.8,0.1
			c0,0,0,0,0.1,0c0,0,0.1,0,0.1,0c0.2,0,0.4,0,0.6-0.1c0.1,0,0.2,0,0.2-0.1c0.3-0.1,0.5-0.2,0.8-0.3c0.9-0.4,1.5-1.3,1.8-2.4
			l7.2-25.6c0.6-1.9,1.7-3.8,3.3-5.8c1.6-2,3.3-3.8,5.2-5.4c1.9-1.6,3.7-2.9,5.6-3.9c0.4-0.2,0.8-0.4,1.2-0.6
			c0.1-0.1,0.2-0.1,0.4-0.1c0.3-0.1,0.5-0.2,0.8-0.3c0.1,0,0.3-0.1,0.4-0.1c0.2-0.1,0.4-0.1,0.6-0.1c0.1,0,0.2,0,0.4,0
			c0.3,0,0.6,0,0.8,0c2,0.3,3.1,1.1,3.4,2.5c0.3,1.4,0.2,2.9-0.3,4.4c-0.6,1.8-1.5,3.3-2.7,4.7c-1.2,1.3-2.6,2.5-4,3.5
			c-1.4,1-2.9,2-4.5,3s-3,2-4.3,3.2c-2.5,2.1-4,4.4-4.5,7c-0.5,2.6-0.3,5.1,0.6,7.5c0.9,2.4,2.5,4.4,4.8,6.1c2.3,1.7,4.9,2.7,8,3
			c3.3,0.2,6.8-0.9,10.7-3.2c3.8-2.3,7.7-6.7,11.7-13.1c0.1-0.1,0.2-0.3,0.2-0.4c0.3,0.8,0.7,1.5,1.1,2.2c1.7,2.6,3.9,4.4,6.6,5.5
			c0.6,0.2,1.2,0.4,1.9,0.6c0.2,0.1,0.4,0.1,0.6,0.1c0.4,0.1,0.9,0.2,1.3,0.3c0.2,0,0.4,0.1,0.6,0.1c0.5,0.1,0.9,0.1,1.4,0.1
			c0.2,0,0.3,0,0.5,0c0.1,0,0.1,0,0.2,0c0.6,0,1.2,0,1.8-0.1c3.4-0.3,6.4-1.3,9.2-3c2.8-1.7,5.4-3.8,7.7-6.2c2.1-2.2,4-4.6,5.8-7.1
			c0,1.7,0.3,3.3,0.8,4.6c0.8,2.2,2.1,3.8,3.8,4.8s3.8,1.4,6.2,1c3.2-0.5,6-2.1,8.7-4.9c2.6-2.7,4.9-5.7,6.8-8.9
			c0.1,1.2,0.3,2.4,0.7,3.4c0.8,2.2,2.1,3.8,3.8,4.8c1.8,1,3.8,1.4,6.2,1c3.2-0.5,6-2.1,8.7-4.9c2.6-2.8,4.9-5.8,6.9-9
			c1.3-2,2.4-3.9,3.4-5.8c1-1.9,1.9-3.6,2.7-5c0.4-0.7,0.5-1.4,0.2-2c-0.2-0.6-0.6-1.1-1.2-1.4c-0.5-0.3-1.1-0.4-1.8-0.4
			c-0.6,0-1.2,0.3-1.6,0.9c-0.8,1.4-1.7,3.1-2.7,5.1c-1,2-2.2,4-3.6,6c-1.7,2.8-3.5,5.1-5.3,7.1c-1.9,2-3.8,3.1-5.8,3.3
			c-0.3,0-0.6,0-0.9,0c-0.1,0-0.3,0-0.4-0.1c-0.2,0-0.4-0.1-0.6-0.2c-0.1,0-0.2-0.1-0.3-0.2c-0.2-0.1-0.3-0.3-0.5-0.4
			c-0.1-0.1-0.2-0.1-0.2-0.2c-0.2-0.3-0.3-0.6-0.5-0.9c-0.3-0.9-0.4-2.2-0.4-3.8c0.2-3.5,0.7-6.8,1.6-10.1c0.9-3.3,1.8-6.6,2.7-9.8
			c0.7-2.3,1.4-4.8,2.2-7.5c0.8-2.7,1.6-5.5,2.5-8.4l1.9-6.3l6.7-1.2l3.2-0.6c1.8-0.3,3-2,2.7-3.8c-0.3-1.8-2-2.9-3.8-2.7
			c0,0,0,0,0,0l-6.8,1.2c0.8-2.6,1.6-5.2,1.7-5.4c1.1-3.6,2-6.5,2.7-8.9c0.7-2.4,1.1-3.8,1.3-4.3c0.6-1.6,0.6-2.8,0.1-3.8
			c-0.5-0.9-1.2-1.5-2.1-1.8c-0.3-0.1-0.6-0.1-0.9-0.1c0,0-0.1,0-0.1,0c0,0-0.1,0-0.1,0c-0.2,0-0.4,0-0.6,0.1c-0.1,0-0.2,0-0.3,0
			c-0.3,0.1-0.5,0.1-0.8,0.3c-1,0.4-1.6,1.2-1.9,2.4c-0.2,0.9-0.7,2.8-1.6,5.7c-0.9,2.9-1.9,6.4-3.1,10.4c-0.1,0.4-1.2,3.9-2,6.8
			l-6.8,1.2l-5,0.9L476.3,138.4z M310.2,203.7c-0.2,0.5-0.4,0.9-0.7,1.3c-0.1,0.1-0.2,0.2-0.4,0.3c0,0-0.1,0-0.1,0
			c-0.2,0.1-0.5,0.1-0.8,0.1c-0.2,0-0.4,0-0.6,0c-0.4-0.1-0.8-0.1-1.1-0.1l0,0c-0.3,0-0.7,0-1,0.1c-0.9,0.2-1.6,0.7-2,1.6
			c-0.4,0.8-0.7,1.7-0.8,2.4c0,1.2,0.4,2.5,1.2,3.8c0.2,0.5,0.4,1,0.6,1.5c0.2,0.5,0,1.1-0.4,1.8c-1.3,1.6-2.7,2.8-4.2,3.8
			c-1.5,0.9-3.1,1.4-4.8,1.4c-2.4,0-4-1-5-3.1c-1-2.1-1.5-4.6-1.4-7.7c0-0.3,0-0.7,0.1-1c0.2-0.5,0.2-1,0.1-1.5
			c0.2-2.3,0.7-4.8,1.4-7.4c1-3.6,2.3-6.8,4-9.7c1.7-2.9,3.6-5.3,5.8-7.1c0.5-0.4,1-0.8,1.5-1.1c0.2-0.1,0.3-0.2,0.5-0.2
			c0.4-0.2,0.7-0.3,1.1-0.5c0.2-0.1,0.4-0.1,0.6-0.2c0.4-0.1,0.7-0.2,1.1-0.2c0.2,0,0.4,0,0.6-0.1c0.5,0,1,0,1.5,0.1
			c1.5,0.2,2.6,1,3.5,2.3c0.8,1.3,1.4,3,1.6,5c0.2,2,0.1,4.3-0.1,6.8C311.4,198.7,310.9,201.2,310.2,203.7z M426.4,175
			c1.7-3.8,3.8-7.2,6.4-10.1c2.6-2.9,5.5-4.6,8.7-5c0.4,0,0.8,0,1.1,0c0.2,0,0.4,0,0.5,0.1c0.2,0,0.5,0.1,0.7,0.2
			c0.1,0,0.3,0.1,0.4,0.1c0.2,0.1,0.4,0.2,0.5,0.4c0.1,0.1,0.2,0.1,0.3,0.2c0.2,0.2,0.4,0.5,0.5,0.9c0.5,1.4,0.6,3,0.1,4.7
			c-1.1,3.8-3.2,6.7-6.4,8.7c-3.2,1.9-6.6,3.3-10.1,4.2c-0.4,0-0.7,0-1,0c-0.1,0-0.2,0-0.3,0c-0.2,0-0.4-0.1-0.5-0.1
			c-0.1,0-0.2-0.1-0.3-0.1c-0.1-0.1-0.3-0.2-0.4-0.2c-0.1,0-0.1-0.1-0.2-0.1c-0.1-0.2-0.3-0.3-0.3-0.6
			C425.8,177.3,425.9,176.2,426.4,175z M486.1,143.3l6.8-1.2c0,0.1-0.1,0.3-0.1,0.4c-0.3,1.2-0.6,2.4-1,3.6c-0.9,3.2-1.8,6.1-2.6,9
			c-0.8,2.8-1.6,5.3-2.3,7.6c-0.9,3.2-1.8,6.4-2.6,9.8c0,0.1,0,0.2-0.1,0.3c-0.7,1.2-1.4,2.6-2.2,4.2c-1,2-2.2,4-3.6,6
			c-1.7,2.8-3.5,5.1-5.3,7.1c-1.9,2-3.8,3.1-5.8,3.3c-0.3,0-0.6,0-0.9,0c-0.1,0-0.3,0-0.4-0.1c-0.2,0-0.4-0.1-0.6-0.2
			c-0.1,0-0.2-0.1-0.3-0.2c-0.2-0.1-0.3-0.3-0.5-0.4c-0.1-0.1-0.2-0.1-0.2-0.2c-0.2-0.3-0.3-0.6-0.5-0.9c-0.3-0.9-0.4-2.2-0.4-3.8
			c0.2-3.5,0.7-6.8,1.6-10.1c0.9-3.3,1.8-6.6,2.7-9.8c0.7-2.3,1.4-4.8,2.2-7.5c0.8-2.7,1.6-5.5,2.5-8.4l1.9-6.3l6.7-1.2L486.1,143.3
			z"/>
	</g>
	<g>
		<path class="st1" d="M269.6,124.3c0.5,0.5,1,0.8,1.6,0.7c0.5,0,1-0.2,1.3-0.6c0.4-0.3,0.6-0.8,0.6-1.3c0.1-0.5-0.1-1-0.6-1.5
			l-4.3-4.5c-0.4-0.4-0.6-0.8-0.6-1.2c0-0.4,0.1-0.8,0.3-1.1c0.2-0.3,0.5-0.5,0.9-0.6s0.8-0.1,1.3,0.1l8.1,3.1
			c0.7,0.2,1.2,0.2,1.7,0c0.5-0.3,0.8-0.6,1-1.1c0.2-0.5,0.2-1,0-1.5c-0.2-0.5-0.6-0.9-1.2-1.1l-5.9-2.5c-0.5-0.1-0.9-0.3-1.2-0.6
			c-0.3-0.2-0.6-0.5-0.8-0.8c-0.2-0.3-0.3-0.6-0.4-0.9c-0.1-0.3-0.2-0.6-0.2-0.9c-0.1-0.7-0.3-1.4-0.5-2c-0.2-0.6-0.4-1.1-0.6-1.7
			c-0.3-0.5-0.6-1-0.9-1.5c-0.4-0.5-0.8-1-1.4-1.6c-0.8-0.8-1.6-1.4-2.6-2c-0.9-0.6-1.9-1-2.8-1.2c-0.9-0.2-1.9-0.3-2.7-0.1
			c-0.9,0.1-1.7,0.5-2.3,1.2l-4.3,4.1c-0.2,0.2-0.4,0.4-0.5,0.7c-0.1,0.3-0.2,0.6-0.2,0.9c0,0.3,0,0.7,0.1,1
			c0.1,0.4,0.3,0.7,0.6,0.9l8.2,8.6L269.6,124.3z M257.6,105.1c0.1-0.5,0.3-1,0.6-1.3l0.9-0.9c0.4-0.4,0.9-0.6,1.4-0.8
			c0.5-0.1,1-0.1,1.5,0s1,0.3,1.5,0.6c0.5,0.3,1,0.7,1.4,1.1c0.5,0.4,0.8,0.9,1.2,1.4c0.3,0.5,0.5,1,0.7,1.5c0.1,0.5,0.2,1,0.1,1.5
			c-0.1,0.5-0.3,0.9-0.7,1.2l-1.2,1.2c-0.4,0.4-0.8,0.7-1.4,0.6c-0.6,0-1-0.2-1.4-0.6l-4-4.2C257.7,106.1,257.6,105.6,257.6,105.1z"
			/>
		<path class="st1" d="M279.9,90.5c0.9,1.6,1.9,3.2,2.8,4.9l6.2,10.8c0.2,0.3,0.4,0.6,0.6,0.9c0.2,0.3,0.4,0.5,0.7,0.6
			c0.3,0.2,0.6,0.2,1,0.2s0.8-0.2,1.3-0.5l6.7-3.9c0.5-0.3,0.8-0.7,0.8-1.3c0.1-0.5,0-1-0.3-1.4c-0.2-0.4-0.6-0.7-1-0.9
			c-0.4-0.2-0.9-0.2-1.5,0.1l-3.9,2.2c-0.7,0.4-1.2,0.4-1.7,0.1c-0.4-0.3-0.8-0.7-1-1.1c-0.4-0.7-0.8-1.4-1.1-2
			c-0.4-0.7-0.7-1.3-1.2-2c-0.3-0.5-0.4-1-0.3-1.4c0.1-0.4,0.3-0.6,0.7-0.8l3-1.7c0.5-0.3,0.8-0.7,0.8-1.2c0.1-0.5,0-1-0.3-1.4
			c-0.2-0.4-0.6-0.7-1.1-0.9c-0.5-0.2-0.9-0.1-1.5,0.2l-2.9,1.6c-0.4,0.3-0.9,0.3-1.2,0.1c-0.4-0.2-0.7-0.5-1-1l-2.3-4
			c-0.3-0.5-0.4-1-0.1-1.5c0.2-0.5,0.5-0.8,1-1l3.7-2.1c0.5-0.3,0.8-0.7,0.8-1.2c0.1-0.5,0-1-0.3-1.4c-0.2-0.4-0.6-0.7-1-0.9
			c-0.4-0.2-0.9-0.2-1.5,0.1l-6.7,3.9c-0.6,0.3-1.1,0.7-1.3,1.2c-0.3,0.5-0.1,1.1,0.3,2C278.1,87.3,279,88.9,279.9,90.5z"/>
		<path class="st1" d="M306.4,83l3.5,12c0.1,0.3,0.2,0.7,0.4,1c0.1,0.3,0.3,0.6,0.6,0.8c0.2,0.2,0.5,0.4,0.9,0.4
			c0.4,0.1,0.8,0,1.4-0.1c0.4-0.1,0.9-0.3,1.5-0.4c0.6-0.2,1.2-0.3,1.8-0.5c0.6-0.2,1.1-0.3,1.6-0.5c0.5-0.2,0.8-0.3,1-0.5
			c0.7-0.4,1.4-0.9,1.9-1.6c0.5-0.6,0.9-1.4,1.2-2.2c0.3-0.8,0.4-1.7,0.5-2.6c0-0.9,0-1.8-0.2-2.6c-0.2-0.9-0.6-1.8-1.1-2.8
			c-0.5-1-1.2-1.8-1.9-2.4c-0.5-0.4-0.9-0.7-1.3-0.9c-0.3-0.2-0.6-0.5-0.7-0.9c-0.2-0.4-0.2-0.9-0.2-1.4c0-0.5,0.1-1.1,0.1-1.7
			c0-0.8-0.1-1.5-0.2-2.1c-0.2-0.6-0.4-1.3-0.8-2c-0.7-1.3-1.6-2.3-2.8-3.1c-1.2-0.8-2.6-1-4.3-0.7c-0.5,0.1-0.9,0.3-1.2,0.4
			c-0.3,0.1-0.6,0.2-0.9,0.3c-0.3,0.1-0.5,0.2-0.8,0.2c-0.3,0.1-0.6,0.2-1.1,0.3c-0.7,0.2-1.2,0.5-1.6,0.9c-0.4,0.4-0.4,1.1-0.2,2
			L306.4,83z M315.8,83.8c0.5,0.3,1,0.6,1.4,1.1c0.4,0.5,0.7,1.1,0.9,1.8c0.2,0.7,0.3,1.3,0.2,1.9c-0.1,0.6-0.3,1.2-0.6,1.7
			c-0.3,0.5-0.9,0.9-1.6,1.1l-1.3,0.4c-0.4,0.1-0.7,0.1-1,0.1s-0.5-0.2-0.7-0.3c-0.2-0.2-0.3-0.4-0.4-0.6c-0.1-0.2-0.2-0.4-0.2-0.7
			c-0.2-0.6-0.4-1.3-0.6-2c-0.2-0.7-0.4-1.4-0.5-1.9c-0.1-0.5-0.1-1,0-1.4s0.5-0.7,1.1-0.9l1.5-0.4
			C314.7,83.5,315.3,83.6,315.8,83.8z M308.3,73.7c0.2-0.3,0.5-0.5,1-0.6l0.6-0.2c0.6-0.2,1.1-0.1,1.6,0.1c0.5,0.2,0.9,0.6,1.2,1
			c0.3,0.5,0.6,1,0.7,1.6c0.2,0.6,0.2,1.2,0.2,1.7c0,0.6-0.2,1.1-0.4,1.5c-0.3,0.4-0.6,0.7-1.1,0.9l-1.1,0.3
			c-0.5,0.1-0.8,0.1-1.1-0.2c-0.2-0.3-0.4-0.6-0.5-0.8c-0.2-0.7-0.4-1.4-0.6-2c-0.2-0.6-0.4-1.3-0.5-2
			C308.1,74.5,308.1,74,308.3,73.7z"/>
		<path class="st1" d="M334.3,76.4l0.5,12.4c0,0.4,0.1,0.7,0.1,1c0.1,0.3,0.2,0.6,0.3,0.9c0.2,0.3,0.4,0.5,0.8,0.6
			c0.3,0.2,0.8,0.2,1.4,0.2l7.8-0.3c0.6-0.1,1-0.3,1.3-0.7c0.3-0.4,0.4-0.9,0.4-1.4c0-0.5-0.2-0.9-0.5-1.3c-0.3-0.4-0.8-0.6-1.4-0.5
			l-4.4,0.2c-0.8,0-1.3-0.2-1.5-0.7c-0.2-0.5-0.4-1-0.4-1.5c0-0.8-0.1-1.6-0.1-2.3c0-0.8-0.1-1.5-0.1-2.3c-0.1-0.6,0.1-1.1,0.3-1.4
			c0.3-0.3,0.6-0.4,1-0.4l3.4-0.1c0.6,0,1-0.3,1.3-0.7c0.3-0.4,0.4-0.9,0.4-1.4c0-0.5-0.2-0.9-0.5-1.3c-0.3-0.4-0.8-0.6-1.4-0.5
			l-3.3,0.1c-0.5,0.1-0.9-0.1-1.2-0.4c-0.3-0.3-0.4-0.8-0.4-1.3l-0.2-4.6c0-0.6,0.2-1.1,0.6-1.4s0.8-0.5,1.3-0.5l4.3-0.2
			c0.6-0.1,1-0.3,1.3-0.7c0.3-0.4,0.4-0.9,0.4-1.4c0-0.5-0.2-0.9-0.5-1.3c-0.3-0.4-0.8-0.6-1.4-0.5l-7.8,0.3c-0.7,0-1.3,0.2-1.7,0.5
			c-0.5,0.3-0.7,0.9-0.6,1.9c0.1,1.9,0.1,3.7,0.2,5.6C334.2,72.6,334.3,74.5,334.3,76.4z"/>
		<path class="st1" d="M360.2,91.8c0.5,0.1,1,0,1.4-0.3c0.5-0.3,0.8-0.7,0.9-1.4l1.3-5.9c0.1-0.8,0.4-1.5,0.7-2
			c0.3-0.5,0.6-0.9,1-1.1c0.3-0.2,0.7-0.3,1-0.2c0.3,0.1,0.5,0.4,0.6,0.9l2.3,10.7c0.2,0.7,0.5,1.1,1,1.3c0.5,0.2,0.9,0.2,1.4,0.1
			s0.9-0.4,1.2-0.8c0.3-0.4,0.4-0.9,0.3-1.6l-2.7-13.1c-0.2-0.8-0.2-1.5,0-2.1c0.2-0.5,0.5-1.1,1.1-1.7l5.1-6.1
			c0.3-0.4,0.5-0.9,0.4-1.3c-0.1-0.5-0.3-0.9-0.7-1.2c-0.4-0.3-0.8-0.5-1.3-0.5c-0.5,0-1,0.2-1.5,0.8l-6.4,7.6
			c-0.2,0.2-0.4,0.4-0.5,0.4c-0.2,0.1-0.3,0-0.4,0c-0.1-0.1-0.2-0.2-0.2-0.3c-0.1-0.2-0.1-0.3,0-0.5l1.5-7.4c0.1-0.7,0-1.2-0.3-1.6
			c-0.3-0.4-0.7-0.7-1.2-0.8c-0.5-0.1-1,0-1.5,0.2c-0.5,0.3-0.8,0.7-0.9,1.4l-2.2,10.9l-2.7,13.2c-0.1,0.7,0,1.3,0.3,1.7
			C359.3,91.4,359.7,91.7,360.2,91.8z"/>
		<path class="st1" d="M386.2,98.5c0.5,0,0.9-0.2,1.3-0.6l1.8-1.9c0.5-0.5,0.9-0.7,1.4-0.7c0.5,0,0.9,0.1,1.2,0.3l3.7,1.9
			c0.5,0.2,0.8,0.6,0.9,1c0.1,0.4,0.1,0.9,0,1.3l-0.5,1.9c-0.2,0.7-0.2,1.2,0.1,1.7c0.3,0.4,0.7,0.7,1.2,0.9
			c0.5,0.1,0.9,0.1,1.4-0.1c0.5-0.2,0.8-0.6,0.9-1.1l2.3-9.2l3.6-14.8c0.2-0.8,0.2-1.5,0-2.1c-0.2-0.6-0.6-1.1-1.1-1.3
			c-0.5-0.3-1.1-0.4-1.8-0.2c-0.7,0.1-1.3,0.5-2,1.2l-15.8,18.7c-0.4,0.5-0.6,1-0.5,1.5c0.1,0.5,0.3,0.9,0.7,1.2
			C385.3,98.3,385.7,98.4,386.2,98.5z M394.3,90.2c0.7-0.9,1.3-1.7,2-2.6c0.7-0.9,1.3-1.7,2-2.6c0.2-0.3,0.5-0.4,0.7-0.5
			c0.2,0,0.4,0,0.6,0.1c0.1,0.1,0.3,0.3,0.3,0.5c0.1,0.2,0.1,0.4,0,0.7l-1.7,6.4c-0.1,0.4-0.3,0.6-0.5,0.9c-0.3,0.2-0.6,0.2-1.1,0
			l-2.1-1.1c-0.4-0.2-0.7-0.5-0.7-0.8C393.9,90.9,394,90.5,394.3,90.2z"/>
		<path class="st1" d="M410.7,112.6c0.6,0,1.1-0.2,1.5-0.8l5.5-6.1c0.4-0.5,0.9-0.7,1.4-0.7c0.5,0,0.9,0.1,1.2,0.4l2,1.8
			c0.3,0.3,0.5,0.6,0.5,1.1c0.1,0.5-0.1,1-0.5,1.4l-5.5,6.2c-0.5,0.5-0.7,1.1-0.6,1.6c0.1,0.5,0.3,1,0.7,1.3
			c0.4,0.3,0.8,0.5,1.4,0.5c0.5,0,1-0.2,1.5-0.7l8.9-9.9l7.6-8.5c0.5-0.5,0.6-1,0.6-1.6c-0.1-0.5-0.3-1-0.7-1.3
			c-0.4-0.3-0.8-0.5-1.4-0.5c-0.5,0-1.1,0.3-1.5,0.8l-5.2,5.9c-0.4,0.4-0.8,0.7-1.3,0.8c-0.5,0.1-0.9,0-1.3-0.3l-2.1-1.9
			c-0.4-0.3-0.5-0.8-0.5-1.3c0.1-0.5,0.3-1,0.7-1.3l5.2-5.9c0.5-0.5,0.7-1.1,0.6-1.6c-0.1-0.5-0.3-1-0.7-1.3
			c-0.4-0.3-0.8-0.5-1.4-0.5c-0.5,0-1,0.2-1.5,0.7l-7.6,8.5l-8.9,9.9c-0.5,0.5-0.6,1-0.6,1.6c0.1,0.5,0.3,1,0.7,1.3
			C409.7,112.4,410.2,112.6,410.7,112.6z"/>
	</g>
</g>
</svg>
