<?xml version="1.0" encoding="utf-8"?>
<!-- Generator: Adobe Illustrator 25.2.3, SVG Export Plug-In . SVG Version: 6.00 Build 0)  -->
<svg version="1.1" id="Layer_1" xmlns="http://www.w3.org/2000/svg" xmlns:xlink="http://www.w3.org/1999/xlink" x="0px" y="0px"
	 viewBox="0 0 683 384" style="enable-background:new 0 0 683 384;" xml:space="preserve">
<style type="text/css">
	.st0{fill:#654198;}
	.st1{fill:#FFFFFF;stroke:#FFFFFF;stroke-width:5.9573;stroke-miterlimit:10;}
</style>
<rect class="st0" width="683" height="384"/>
<g>
	<g>
		<path class="st1" d="M349.1,123.7c-2.6-0.2-5.2-0.3-7.8-0.3c-5.2,0-10.3,0.4-15.3,1.1c0,0-5.1-9.5-6.7-12.7
			c-3.2-6.1-15.8-11.4-25-8c-1.5,0.5-5.7,2.9-5.7,2.9c-2.8-6.1,4.9-11.4,18.8-11.4c0.6,0,1.2,0,1.8,0c3.7,0.1,7.8,0.3,11.9,0.3
			c2.1,0,6.4-0.7,8.2-0.8c-1.1,2.4-4,3.4-1.5,6.8c1.5,2.5,4.2,4.1,7.1,4.1c1.4,0,2.8-0.4,4-1l16.6-7.5l7.2,9.9
			c1.5,2.1,4,3.4,6.7,3.4c4.4-0.4,7.7-7.6,7.4-10l-1.3-9.7l18.1-0.8l0.1,0l0.1,0c3.9-0.6,7.3-3.9,7.5-7.7c0.2-2.5-2.9-6.4-6.7-7.3
			l-13.9-3.6l7.9-14.5c1.5-2.6,1.6-5.8,0.1-8.3c-2.6-4.1-10.5-2.1-11.9-1c-3.5,2.7-13.2,10-13.2,10l-2.2-9.9
			c-0.8-3.7-4.7-5.4-6.9-5.8c-3.1-0.5-6.4,2.7-7.5,6.2c-1.2,3.6-5.1,13.3-5.1,13.3s-10.2-1-14.2-1.5c-5.6-0.7-10.4,1.6-7.8,5.8
			c2.4,3.8,4.4,4.2,4.1,4.8c-2.6,0-10.7-0.1-13.3-0.2c-1,0-1.9,0-2.8,0c-27.1,0-44.4,13.6-46.8,30.6c-0.4,5.3,0.8,11.3,3.4,18.1
			l-4.1,2.1c-7,3.7-12.8,13.9-8.1,25c1.6,3.7,7.5,14.2,7.5,14.2c-15.8,17.9-25.4,40.6-27,64.6c-4.2,60.1,41.3,112.5,101.4,116.7
			c2.6,0.2,5.2,0.3,7.8,0.3c57.1,0,104.9-44.7,108.9-101.7c2-29.1-7.4-57.3-26.5-79.3C404.9,139,378.3,125.7,349.1,123.7z"/>
	</g>
	<g>
		<path class="st0" d="M353.6,48.2c0.3,0,0.6,0.2,0.7,0.6l4.8,17c0.1,0.4,0.4,0.6,0.7,0.6c0.2,0,0.3-0.1,0.5-0.2l22-13.9
			c0.1-0.1,0.3-0.2,0.5-0.2c0.5,0,1,0.6,0.6,1.1l-11.5,20.2c-0.3,0.4,0,1,0.4,1.1l21.1,6.8c0.8,0.2,0.7,1.4-0.1,1.5l-24.1,3.8
			c-0.4,0-0.7,0.4-0.7,0.9l0.9,15c0.1,0.5-0.4,0.9-0.8,0.9c-0.2,0-0.4-0.1-0.6-0.3l-10.7-13.9c-0.1-0.2-0.4-0.3-0.6-0.3
			c-0.1,0-0.3,0-0.4,0.1l-21.6,10.4c-0.1,0.1-0.2,0.1-0.4,0.1c-0.5,0-1-0.6-0.6-1.1l5.2-12.4c-5.7,1.4-9.6,3-16.1,3
			c-3.9,0-9.1-0.1-13-0.2c-0.7,0-1.4,0-2,0c-18.3,0-25.5,6.8-25.9,12.7c-0.3,3.7,0.1,9.8,2.8,15.3l12.9-6.6c1.6-0.8,3.4-1.9,5.1-1.9
			c4,0,8.2,0.8,10.1,4.7l8.7,18.9c6.3-1.3,13.1-1.9,19.7-1.9c2.4,0,4.8,0.1,7.2,0.3c56.1,3.9,97.7,54.8,93.7,110.9
			c-3.8,53.7-47.7,93.2-100.7,93.2c-2.4,0-4.8-0.1-7.2-0.3c-56.1-3.9-99.3-52.6-95.4-108.7c1.8-25,13.3-47.3,29.6-63.9l-10.8-18.2
			c-2.8-5.5,0.3-12.8,5.8-15.6l10-6.1c-3.5-7-5.7-13.8-5.3-20.2c1.3-18.1,21.1-24.8,39.4-24.8c0.9,0,1.7,0,2.6,0
			c3.6,0.1,7.3,0.2,11,0.2c6.5,0,12.8-0.4,17.7-1.9l-12.2-7.9c-0.6-0.4-0.4-1.4,0.4-1.4c0,0,0,0,0.1,0l18.4,0.5c0,0,0,0,0,0
			c0.3,0,0.6-0.2,0.7-0.5l6.6-17.1C353,48.4,353.3,48.2,353.6,48.2 M354.3,42.1c-3.1-0.5-6.4,2.7-7.5,6.2
			c-1.2,3.6-5.1,13.3-5.1,13.3s-10.2-1-14.2-1.5c-5.6-0.7-10.4,1.6-7.8,5.8c2.4,3.8,4.4,4.2,4.1,4.8c-2.6,0-10.7-0.1-13.3-0.2
			c-1,0-1.9,0-2.8,0c-27.1,0-44.4,13.6-46.8,30.6c-0.4,5.3,0.8,11.3,3.4,18.1l-4.1,2.1c-7,3.7-12.8,13.9-8.1,25
			c1.6,3.7,7.5,14.2,7.5,14.2c-15.8,17.9-25.4,40.6-27,64.6c-4.2,60.1,41.3,112.5,101.4,116.7c2.6,0.2,5.2,0.3,7.8,0.3
			c57.1,0,104.9-44.7,108.9-101.7c2-29.1-7.4-57.3-26.5-79.3c-19.1-22-45.7-35.3-74.9-37.3c-2.6-0.2-5.2-0.3-7.8-0.3
			c-5.2,0-10.3,0.4-15.3,1.1c0,0-5.1-9.5-6.7-12.7c-3.2-6.1-15.8-11.4-25-8c-1.5,0.5-5.7,2.9-5.7,2.9c-2.8-6.1,4.9-11.4,18.8-11.4
			c0.6,0,1.2,0,1.8,0c3.7,0.1,7.8,0.3,11.9,0.3c2.1,0,6.4-0.7,8.2-0.8c-1.1,2.4-4,3.4-1.5,6.8c1.5,2.5,4.2,4.1,7.1,4.1
			c1.4,0,2.8-0.4,4-1l16.6-7.5l7.2,9.9c1.5,2.1,4,3.4,6.7,3.4c4.4-0.4,7.7-7.6,7.4-10l-1.3-9.7l18.1-0.8l0.1,0l0.1,0
			c3.9-0.6,7.3-3.9,7.5-7.7c0.2-2.5-2.9-6.4-6.7-7.3l-13.9-3.6l7.9-14.5c1.5-2.6,1.6-5.8,0.1-8.3c-2.6-4.1-10.5-2.1-11.9-1
			c-3.5,2.7-13.2,10-13.2,10l-2.2-9.9C360.4,44.1,356.5,42.4,354.3,42.1z"/>
		<path class="st0" d="M352.1,144.1c-1.3,0-2.4-1-2.5-2.3c0-1.3,1-2.4,2.4-2.5c1.3-0.1,2.4,1.1,2.5,2.4
			C354.4,143,353.4,144.1,352.1,144.1z"/>
		<path class="st0" d="M333.4,141.8c0,1.3-1.1,2.4-2.4,2.4c-1.3,0-2.4-1.1-2.4-2.4c0-1.3,1.1-2.4,2.3-2.4
			C332.2,139.3,333.4,140.4,333.4,141.8z"/>
		<path class="st0" d="M385.6,171.1c-0.1,1.3-1.1,2.3-2.5,2.3c-1.4-0.1-2.3-1.1-2.2-2.5c0-1.3,1.2-2.3,2.5-2.3
			C384.7,168.7,385.6,169.8,385.6,171.1z"/>
		<path class="st0" d="M299.8,173.4c-1.4,0-2.4-1-2.4-2.3c0-1.4,1-2.4,2.3-2.4c1.3,0,2.4,1,2.4,2.4
			C302.1,172.3,301.1,173.4,299.8,173.4z"/>
		<path class="st0" d="M408.6,225.7c3.7,4.5,3,8.3-1.8,10.2c1.8,5.9,0.8,7.8-5,9.7c-0.1,5.1-2.5,7.9-8.3,6.6
			c-1.7,4.7-6.2,6.4-10.3,2.5c-4.9,3.5-7.7,2.8-10.5-2.3c-6.3,0.4-7.9-1-8.3-6.7c-5.6-1.5-7-4-5.2-9.4c-5.1-3.6-5.5-6.4-1.6-10.3
			c-3.6-5.2-3.2-7.3,1.7-10.8c-2.1-5.2-0.6-7.9,5.2-9.2c0-5.7,2.7-8,8-6.7c3.4-5.5,6.1-6.1,10.4-2.5c5.3-3.5,7.9-2.9,10.6,2.5
			c5.3-1.3,8.4,1.3,8.3,6.7c5.8,1.8,6.8,3.7,5.2,9.4C411.7,218.4,412.2,221.1,408.6,225.7z M383.1,220.2c-0.4-0.5-0.6-0.9-0.9-1.2
			c-2.6-3.7-6.2-4.9-9.4-3c-3.5,2-5.3,7.3-3.7,10.8c2.6,5.7,6.3,10.3,11.7,13.7c1.7,1.1,3.2,1.2,4.6-0.1c3.1-2.8,6.3-5.6,9-8.8
			c2.9-3.5,4.6-7.6,2.2-12.2c-2.6-5-8.7-5.6-12.1-1.1C384,218.9,383.6,219.4,383.1,220.2z M362.2,236c-2.1,1.5-2.9,3.2-1.6,5.4
			c1.2,2,3,2.4,5.2,1.3C364.6,240.5,363.5,238.4,362.2,236z M391.3,201c0.5-2.8-0.7-4.7-3.1-5c-2-0.3-3.5,1-3.8,3.3
			C386.7,199.9,389,200.5,391.3,201z M367.2,206.8c2-1.7,3.9-3.2,5.8-4.9c-1.7-1.9-3.6-2.2-5.5-0.6
			C365.7,202.8,365.6,204.7,367.2,206.8z M375,201c2.4-0.6,4.7-1.2,7.2-1.8c-0.8-2.5-2.3-3.6-4.7-3C375.2,196.8,374.4,198.5,375,201
			z M361.6,217c-2.9,0-4.7,1.3-4.7,3.5c0,2.2,1.1,3.7,3.5,4C360.8,222,361.1,219.6,361.6,217z M393.1,249.2c2.2,2.2,3.9,2.3,5.7,0.6
			c1.6-1.5,1.6-3.1-0.1-5C396.9,246.2,395.1,247.6,393.1,249.2z M400.2,208.2c1.4,2.4,2.5,4.6,3.8,6.8c2-1.4,2.8-3.1,1.7-5.1
			C404.6,207.8,402.8,207.3,400.2,208.2z M382,251.8c-1.2-0.3-2.4-0.5-3.6-0.8c-1.2-0.3-2.3-0.6-3.6-1c-0.5,2.7,0.5,4.2,2.8,4.9
			C379.7,255.6,381.1,254.5,382,251.8z M384.3,251.9c-0.1,0.2-0.3,0.5-0.4,0.7c1.1,0.8,2.1,2.2,3.3,2.3c1.2,0.1,2.8-0.7,3.8-1.6
			c0.6-0.6,0.5-2,0.7-3.2C388.7,250.8,386.5,251.3,384.3,251.9z M404.6,234.2c2.8,0.5,4-1,4.4-3.2c0.5-2.4-0.5-3.6-3.2-4.1
			C405.4,229.3,405,231.7,404.6,234.2z M404.6,217c0.4,2.7,0.8,5.1,1.3,7.5c2.8-0.6,3.7-2.3,3.3-4.5
			C408.7,217.8,407.2,216.7,404.6,217z M400.4,242.8c2.8,0.9,4.6,0.1,5.5-2c1-2.3-0.3-3.4-2-4.5
			C402.7,238.6,401.6,240.6,400.4,242.8z M393.2,202c2.1,1.7,4,3.2,5.9,4.8c1.4-2.2,1.4-4.1-0.6-5.6
			C396.7,199.8,394.9,200,393.2,202z M373,249.1c-2-1.6-3.8-3-5.7-4.4c-2.1,1.7-1.4,3.4-0.1,4.9C368.8,251.4,370.8,251.2,373,249.1z
			 M361.6,234.2c-0.5-2.7-1-5.1-1.5-7.6c-2.3,1-3.7,2.5-3,5C357.6,233.5,359.1,234.5,361.6,234.2z M366,208.2
			c-2.7-0.8-4.7-0.4-5.7,2.1c-0.8,2-0.1,3.6,1.9,4.8C363.5,212.7,364.7,210.6,366,208.2z"/>
		<path class="st0" d="M274,225.1c-3-3.9-2.5-7,2.1-9.9c-1.4-6.1-0.3-8.1,5.2-9.4c0.7-6.3,2.6-7.9,8.4-6.8c2.4-5.3,5.7-6.1,10.4-2.5
			c4.9-3.5,7.7-2.9,10.4,2.5c4.6-1.4,8.7,0.9,8.1,6.6c6.1,2.2,7.3,4.3,5.3,9.2c4.9,4.4,5.2,6.4,1.7,10.8c3.7,4.2,3.4,7-1.4,10.3
			c1.3,6.2,0,8.4-5.5,9.4c0.4,4.3-1.7,8.1-8.1,6.7c-2,4.6-5.8,6.4-10.5,2.4c-4.7,3.5-7.9,2.8-10.4-2.4c-6.1,0.6-7.9-0.8-8.3-6.4
			c-6.1-2.9-7.1-4.7-5.3-8.9c-1.4-2.1-3.3-3.7-3.6-5.5C272,229.5,273.3,227.5,274,225.1z M300,220.2c-0.5-0.7-0.9-1.3-1.4-1.8
			c-3.5-4.6-9.4-4-12.1,1.1c-1.7,3.3-1.4,6.7,0.5,9.8c3,4.8,6.6,9,11.7,11.6c0.8,0.4,2.4,0.5,3.1,0c5.3-3.4,9.4-8,12.1-13.7
			c1.7-3.7-0.1-9.1-3.6-11.1c-3.4-1.9-6.9-0.7-9.6,3.2C300.5,219.5,300.3,219.7,300,220.2z M291.8,201.1c2.5-0.6,4.8-1.2,7-1.8
			c-1-2.7-2.5-3.6-4.6-3C292.1,196.9,291.2,198.6,291.8,201.1z M315.8,206.8c1.5-2.7,1.3-4.5-0.7-5.8c-2-1.2-3.7-1-5.1,1
			C312,203.6,313.9,205.1,315.8,206.8z M300.9,199.3c2.6,0.6,4.9,1.2,7.3,1.7c0.3-2.8-0.7-4.6-2.9-4.9
			C303,195.8,301.6,196.9,300.9,199.3z M322.7,224.7c2.5-0.9,3.8-2.4,3.4-4.6c-0.4-2.3-2-3.4-4.6-3.2
			C321.9,219.6,322.3,222,322.7,224.7z M289.9,201.9c-2.4-2-4.1-2.2-5.8-0.4c-1.6,1.7-1.6,3.4-0.1,5.2
			C286.1,205.1,287.9,203.6,289.9,201.9z M277.2,224.6c0.4-2.7,0.8-5.2,1.2-7.7c-2.5-0.2-4.1,0.7-4.5,3
			C273.4,222.3,274.5,223.9,277.2,224.6z M284.2,244.7c-1.6,2.2-1.5,3.9,0.3,5.3c1.8,1.4,3.4,1.2,5.3-0.9
			C287.9,247.6,286.1,246.2,284.2,244.7z M282.7,208.3c-3-0.9-4.6-0.4-5.5,1.8c-0.9,2.1-0.1,3.7,1.9,4.8
			C280.3,212.7,281.5,210.6,282.7,208.3z M315.8,244.4c-2,1.7-3.9,3.4-5.8,5c2.1,1.9,4,2,5.8,0.3
			C317.4,248.1,317.4,246.3,315.8,244.4z M300.8,252c0.9,2.5,2.4,3.6,4.8,3c2.2-0.6,3-2.1,2.4-4.8
			C305.7,250.7,303.4,251.3,300.8,252z M298.9,251.9c-2.5-0.6-4.8-1.2-7.2-1.7c-0.3,2.9,0.8,4.6,3.1,4.9
			C297,255.3,298.4,254.3,298.9,251.9z M279,236.2c-1.5,1.6-3.2,2.9-1.5,5.1c1.3,1.8,2.8,2.6,5.2,1.4
			C281.4,240.6,280.3,238.5,279,236.2z M321.4,234.3c2.7,0.2,4.4-1.1,4.6-3.3c0.3-2.1-0.9-3.8-3.2-4.4
			C322.4,229.3,321.9,231.7,321.4,234.3z M277.2,226.7c-2.7,0.7-3.8,2.1-3.3,4.4c0.5,2.2,1.6,3.5,4.2,3
			C277.8,231.5,277.5,229.1,277.2,226.7z M317.1,243c2.9,0.6,5.2-0.2,5.8-2.2c0.6-1.9-0.2-3.4-2-4.3
			C319.6,238.7,318.4,240.7,317.1,243z M317.1,208.2c1.3,2.4,2.5,4.6,3.8,6.9c2-1.4,2.8-3,1.7-5.1
			C321.5,207.7,319.7,207.3,317.1,208.2z"/>
		<path class="st0" d="M361.5,153.8c-0.4,4.2,0.3,7.8-2.6,10.7c3.5,3,6.9,5.9,10.4,8.9c-3.5,3-6.9,5.9-10.4,8.9
			c2.8,2.8,2.2,6.5,2.5,10.2c-3.6-0.4-7.2,0.5-10.1-2.5c-3,3.5-5.9,6.9-8.9,10.4c-3-3.4-5.9-6.8-8.3-9.7c-3.6,0.8-6.9,1.5-10.7,2.3
			c0.2-4.1-0.4-7.7,2.5-10.6c-3.4-2.9-6.8-5.9-10.4-8.9c3.4-3,6.8-5.9,9.7-8.3c-0.8-3.6-1.5-7-2.3-10.7c4.2,0.1,7.7-0.3,10.6,2.4
			c3-3.5,5.8-6.8,8.9-10.4c2.9,3.4,5.8,6.8,8.3,9.7C354.2,155.4,357.6,154.7,361.5,153.8z M366.9,173.4c-2.6-2.3-5-4.7-7.6-6.6
			c-3.8-2.7-9.7-3.2-13.2,1.3c3.7,4.4,3.7,5.7,0,10.7c4.5,4.1,9.9,4.2,14.5,0.2C362.6,177.3,364.6,175.4,366.9,173.4z M317.9,173.4
			c2.3,2,4.4,4,6.6,5.9c4.6,3.9,10.6,3.6,14-0.4c-0.9-1.8-2.6-3.6-2.5-5.3c0.1-2,1.6-3.9,2.5-5.9c-4-4.6-10.6-3.2-14.3,0
			C322.1,169.5,320.1,171.4,317.9,173.4z M333.8,163c2.5,1.5,4.4,2.7,6.9,4.2c0.8-0.3,2.6-0.1,3.3,0c2.5-1.5,4.5-2.7,6.9-4.2
			c0.2-6.5-5.3-9.6-8.6-14.2C338.9,153.5,333.4,156.6,333.8,163z M342.4,198.1c3.4-4.8,8.9-7.8,8.5-14.4c-1.1-0.6-2.3-1-3.3-1.7
			c-1.8-1.4-3.8-2.4-6.1-2.3c-0.5,0-1.1,0-1.5,0.3c-2,1.3-4,2.6-6.1,4C333.5,190.3,338.9,193.4,342.4,198.1z M347.2,173.5
			c0-2.5-2.2-4.8-4.7-4.8c-2.5,0-4.8,2.1-4.9,4.7c-0.1,2.5,2.2,4.8,4.7,4.8C344.9,178.2,347.1,176.1,347.2,173.5z M359.7,156.1
			c-6.6-0.7-8.5,1.3-7,7.1C358.7,164.5,360.1,163.1,359.7,156.1z M325.1,156.1c-0.5,6.9,1.5,8.8,7,6.9
			C333.3,157.2,331.5,155.4,325.1,156.1z M352.6,183.7c-1.3,5.8,1.1,8.1,7.1,6.8C360,183.6,358.8,182.5,352.6,183.7z M332.1,183.7
			c-6-1.1-7.9,0.9-6.9,7C331.8,191.2,333.4,189.7,332.1,183.7z"/>
		<path class="st0" d="M329.1,205.9c0-1.5,1.1-2.5,2.5-2.5c1.4,0,2.6,1.2,2.6,2.6c0,1.4-1.1,2.5-2.6,2.5
			C330.2,208.4,329.1,207.3,329.1,205.9z"/>
		<path class="st0" d="M309.9,83c0-0.9,0.6-1.5,1.5-1.5c0.8,0,1.5,0.7,1.5,1.5c0,0.9-0.7,1.5-1.5,1.5
			C310.6,84.6,309.9,83.9,309.9,83z"/>
		<path class="st0" d="M353.9,205.9c0,1.4-1.1,2.6-2.5,2.6c-1.4,0-2.6-1.1-2.6-2.5c0-1.4,1.1-2.5,2.4-2.6
			C352.7,203.3,353.9,204.4,353.9,205.9z"/>
		<path class="st0" d="M286.2,88.3c0,1.2-0.8,2-2,2.1c-1.1,0-2-0.8-2.1-2c0-1.1,0.8-2,1.9-2.1C285.2,86.2,286.1,87.1,286.2,88.3z"/>
		<path class="st0" d="M414.8,176.2c0,1.4-1.1,2.6-2.5,2.6c-1.4,0-2.6-1.1-2.6-2.5c0-1.4,1.1-2.5,2.4-2.6
			C413.7,173.6,414.8,174.7,414.8,176.2z"/>
		<path class="st0" d="M268.2,176.2c0,1.4,1.1,2.6,2.5,2.6c1.4,0,2.6-1.1,2.6-2.5c0-1.4-1.1-2.5-2.4-2.6
			C269.4,173.6,268.2,174.7,268.2,176.2z"/>
		<path class="st0" d="M294.9,140.5c-2.5-0.1-4.4,1.7-4.5,4.2c0,2.4,1.8,4.3,4.1,4.3c2.4,0.1,4.3-1.8,4.3-4.2
			C298.9,142.5,297.1,140.5,294.9,140.5z M294.6,146.3c-0.9,0-1.5-0.7-1.5-1.6c0-0.9,0.7-1.6,1.7-1.6c0.8,0,1.5,0.8,1.5,1.6
			C296.2,145.6,295.5,146.3,294.6,146.3z"/>
		<path class="st0" d="M344,217.8c0,1.5-1,2.6-2.5,2.5c-1.5,0-2.5-1.1-2.5-2.5c0-1.5,1.1-2.6,2.5-2.6
			C342.9,215.2,344,216.3,344,217.8z"/>
		<path class="st0" d="M339.1,80.9c0,0.6-0.4,1-1,1c-0.6,0-1-0.4-1-1c0-0.6,0.4-1,1-1C338.7,79.9,339.1,80.4,339.1,80.9z"/>
		<path class="st0" d="M299.1,84c0,1-0.7,1.8-1.8,1.8c-1,0-1.8-0.7-1.8-1.8c0-1,0.7-1.8,1.8-1.8C298.4,82.2,299.1,83,299.1,84z"/>
		<path class="st0" d="M341.5,229.1c1.3,0,2.5,1.1,2.5,2.3c0,1.2-1.4,2.8-2.4,2.8c-1.3,0-2.7-1.4-2.6-2.8
			C339,230.1,340.2,229.1,341.5,229.1z"/>
		<path class="st0" d="M325,81.7c0.7,0,1.3,0.5,1.3,1.2c0,0.6-0.7,1.4-1.2,1.4c-0.7,0-1.3-0.7-1.3-1.4
			C323.8,82.3,324.4,81.7,325,81.7z"/>
		<path class="st0" d="M328.9,263.8c0.1-2,0.9-4.1,2-6.1c2.2-4.2,4.6-8.3,6.8-12.5c0.8-1.4,1.5-2.9,2.3-4.3c0.8-1.4,2.2-1.4,2.9,0
			c2.8,5.1,5.7,10.1,8.4,15.2c1.1,2.1,1.9,4.4,2.5,6.7c0.3,1,0.1,2.3-0.2,3.3c-1.3,3.3-3.7,4-6.8,2.3c-1.3-0.7-2.4-1.6-3.6-2.5
			c-1.5-1.1-1.9-1.1-3.5,0c-1.3,0.9-2.5,1.9-3.9,2.6C332.3,270.4,328.9,268.2,328.9,263.8z M351.3,261.9c-0.3-1.1-0.5-2.3-1-3.3
			c-2.6-4.9-5.2-9.8-7.8-14.7c-0.5-0.9-1.6-0.8-2.2,0.2c-2.2,3.9-4.4,7.9-6.5,11.9c-1,1.9-2,4-2,6.2c0,2.9,2.7,4.6,5.2,3.3
			c1.2-0.6,2.2-1.4,3.3-2.2c0.8-0.6,1.5-0.6,2.4,0c0.9,0.7,1.9,1.5,2.9,2C348.5,266.9,351.2,265.2,351.3,261.9z"/>
		<path class="st0" d="M264.3,252.5c-0.3,1.4-1.7,2.3-3.2,2c-1.4-0.3-2.3-1.7-1.9-3.2c0.3-1.4,1.7-2.3,3.1-2
			C263.7,249.7,264.6,251.1,264.3,252.5z"/>
		<path class="st0" d="M258.6,246.5c-1-0.2-1.5-1.1-1.3-2.1c0.2-1,1-1.6,2-1.4c1,0.2,1.6,1.1,1.4,2.1
			C260.5,246.2,259.5,246.8,258.6,246.5z"/>
		<path class="st0" d="M257.7,239.5c-0.7-0.1-1.1-0.7-0.9-1.4c0.1-0.7,0.7-1.1,1.4-0.9c0.7,0.1,1.1,0.8,1,1.4
			C259,239.2,258.4,239.6,257.7,239.5z"/>
		<path class="st0" d="M301.4,268.1c-0.5-0.1-0.7-0.5-0.6-1c0.1-0.5,0.5-0.8,1-0.7c0.5,0.1,0.8,0.5,0.7,1
			C302.3,267.9,301.8,268.2,301.4,268.1z"/>
		<path class="st0" d="M308.5,265c-0.4-0.1-0.6-0.4-0.5-0.8c0.1-0.4,0.4-0.6,0.8-0.5c0.4,0.1,0.6,0.4,0.5,0.8
			C309.2,264.9,308.9,265.1,308.5,265z"/>
		<path class="st0" d="M277.2,283.3c-0.3,1.4-1.7,2.3-3.2,2c-1.4-0.3-2.3-1.7-1.9-3.2c0.3-1.4,1.7-2.3,3.1-2
			C276.7,280.4,277.6,281.8,277.2,283.3z"/>
		<path class="st0" d="M282.4,282c-0.7-0.1-1.1-0.7-0.9-1.4c0.1-0.7,0.7-1.1,1.4-0.9c0.7,0.1,1.1,0.8,1,1.4
			C283.7,281.7,283.1,282.1,282.4,282z"/>
		<path class="st0" d="M419.3,252.5c0.3,1.4,1.7,2.3,3.2,2c1.4-0.3,2.3-1.7,1.9-3.2c-0.3-1.4-1.7-2.3-3.1-2
			C419.8,249.7,419,251.1,419.3,252.5z"/>
		<path class="st0" d="M425,246.5c1-0.2,1.5-1.1,1.3-2.1c-0.2-1-1-1.6-2-1.4c-1,0.2-1.6,1.1-1.4,2.1
			C423.1,246.2,424,246.8,425,246.5z"/>
		<path class="st0" d="M425.8,239.5c0.7-0.1,1.1-0.7,0.9-1.4c-0.1-0.7-0.7-1.1-1.4-0.9c-0.7,0.1-1.1,0.8-1,1.4
			C424.5,239.2,425.2,239.6,425.8,239.5z"/>
		<path class="st0" d="M382.2,268.1c0.5-0.1,0.7-0.5,0.6-1c-0.1-0.5-0.5-0.8-1-0.7c-0.5,0.1-0.8,0.5-0.7,1
			C381.3,267.9,381.7,268.2,382.2,268.1z"/>
		<path class="st0" d="M375,265c0.4-0.1,0.6-0.4,0.5-0.8c-0.1-0.4-0.4-0.6-0.8-0.5c-0.4,0.1-0.6,0.4-0.5,0.8
			C374.3,264.9,374.7,265.1,375,265z"/>
		<path class="st0" d="M406.3,283.3c0.3,1.4,1.7,2.3,3.2,2c1.4-0.3,2.3-1.7,1.9-3.2c-0.3-1.4-1.7-2.3-3.1-2
			C406.9,280.4,406,281.8,406.3,283.3z"/>
		<path class="st0" d="M401.1,282c0.7-0.1,1.1-0.7,0.9-1.4c-0.1-0.7-0.7-1.1-1.4-0.9c-0.7,0.1-1.1,0.8-1,1.4
			C399.8,281.7,400.5,282.1,401.1,282z"/>
		<g>
			<path class="st0" d="M341.6,326c-0.2,0.4-0.4,0.9-0.7,1.3c-1.2,1.6-3.5,1.5-4.6-0.2c-0.8-1.3-0.9-2.7-0.2-4.1
				c1.2-2.4,3-4.1,5.2-5.4c0.1-0.1,0.3-0.1,0.4,0c2.2,1.3,4,3,5.3,5.2c0.7,1.3,0.8,2.7,0,4c-1.2,2.1-3.8,2-5,0
				C341.8,326.5,341.7,326.2,341.6,326z"/>
		</g>
		<path class="st0" d="M305.3,166.7c0.6-0.1,1-0.5,1-1.1c0-0.7-0.6-1.1-1.2-1c-0.6,0.1-1.1,0.6-1,1.2
			C304.2,166.4,304.7,166.7,305.3,166.7z"/>
		<path class="st0" d="M377.9,166.7c0.6-0.1,1-0.5,1-1.1c0-0.7-0.6-1.1-1.2-1c-0.6,0.1-1.1,0.6-1,1.2
			C376.7,166.4,377.2,166.7,377.9,166.7z"/>
		<path class="st0" d="M276.1,109.2c1.3,0,2.5,1.1,2.5,2.3c0,1.2-1.4,2.8-2.4,2.8c-1.3,0-2.7-1.4-2.6-2.8
			C273.6,110.3,274.8,109.2,276.1,109.2z"/>
		<path class="st0" d="M274.4,98.1c0-1.3,1-2.3,2.3-2.3c1.2,0,2.3,1.1,2.3,2.3c0,1.3-1,2.3-2.3,2.3
			C275.4,100.4,274.4,99.4,274.4,98.1z"/>
		<g>
			<path class="st0" d="M344.2,78.4c1.3-0.1,2.3-0.6,3.2-1.6c0.7-0.8,1.2-1.8,1.6-2.9c0.2-0.6,0.4-1.1,0.6-1.7
				c0.5-1.5,1.6-2.5,3-3.2c0.3-0.2,0.6-0.3,0.8-0.5c0.8-0.7,0.6-2-0.4-2.4c-1.1-0.5-2.1-0.3-3,0.5c-1,0.8-1.5,1.8-1.8,3
				c-0.4,1.6-0.8,3.3-1.2,5c-0.2,0.7-0.4,1.3-0.7,1.9C345.9,77.4,345.3,78.1,344.2,78.4z"/>
		</g>
		<path class="st0" d="M344.1,81.8c1.2-0.9,2.6-1.3,4.1-1.2c2.3,0.2,4.6,0.4,6.8,0.9c3.2,0.7,6.2,0.4,9.1-1.3
			c0.4-0.3,0.9-0.5,1.3-0.6c0.8-0.3,1.6-0.1,2.3,0.5c0.6,0.5,0.6,1.2,0.4,2c-0.6,2.2-2.4,3.5-5.2,3.7c-2.1,0.1-4.1-0.5-6-1.2
			c-2.4-0.8-4.8-1.7-7.2-2.5C347.9,81.3,346,81.2,344.1,81.8z"/>
		<path class="st0" d="M348.7,78.8c4.2-0.6,8.1-1.8,11.5-4.2c2-1.4,3.6-3.1,5.4-4.7c0.7-0.6,1.2-1.3,1.9-1.9
			c0.4-0.3,0.8-0.7,1.3-0.7c0.6-0.1,1.4,0,1.8,0.3c0.2,0.1,0.1,1.1-0.2,1.6c-1.3,2.3-3.2,4-5.4,5.4c-4.5,2.8-9.3,4.6-14.7,4.4
			C349.8,78.9,349.3,78.8,348.7,78.8z"/>
		<path class="st0" d="M344,82.6c1,1.1,1.6,2.3,1.8,3.7c0.2,1.4,0,2.7-0.4,4.1c-0.3,0.8-0.9,1.5-1.6,2c-0.4,0.3-0.8,0.3-1.1,0.1
			c-0.3-0.3-0.4-0.7-0.1-1.2c0.3-0.5,0.7-1,1-1.5c1.4-2.2,1.6-4.4,0.5-6.8C344.1,82.9,344.1,82.8,344,82.6z"/>
		<path class="st0" d="M342.8,77.4c0.6-1.4,0.9-2.7,0.7-4.1c-0.2-1.4-0.7-2.6-1.5-3.8c-0.5-0.7-1.2-1.2-2.1-1.5
			c-0.5-0.2-0.9-0.1-1.1,0.2c-0.2,0.4-0.2,0.8,0.2,1.2c0.5,0.4,1,0.8,1.4,1.2c1.9,1.7,2.7,3.8,2.4,6.3
			C342.8,77.1,342.9,77.2,342.8,77.4z"/>
		<path class="st0" d="M341.5,312c-3.3,4.5-10.5,4.3-13.2-1.5c-2,1.7-4.3,2.2-6.9,1.6c-2.6-0.6-4.3-2.3-5.4-4.8
			c-2.2,1.7-4.6,2.1-7.1,1.3c-2.5-0.8-4.1-2.5-5.1-4.9c-5,2.7-10.2,0.9-11.9-4.1c-0.3-1-0.4-2-0.4-3.1c0.1-5.2,0.2-10.5,0.4-15.7
			c0.1-3.3,2.3-5.6,5.6-5.7c2.6-0.1,4.9,0.9,6.7,3c1.4-2.2,3.3-3.5,5.8-3.5c2.4,0,4.5,0.9,6.3,2.8c1.3-2.3,3-3.6,5.6-3.8
			c2.5-0.2,4.6,0.6,6.5,2.4c1.3-2.5,3.3-4,6.2-4.1c2.8-0.1,5,0.9,6.7,3.2c1.7-2.2,4-3.4,6.8-3.2c2.8,0.2,4.8,1.5,6.1,4.1
			c1.9-1.8,4-2.6,6.5-2.5c2.6,0.2,4.4,1.4,5.6,3.7c4.3-4,9.6-3.4,12.2,0.7c1.7-1.8,3.8-2.9,6.4-2.9c3.6,0,5.9,2.3,6,5.9
			c0.1,5.2,0.1,10.3,0.4,15.5c0.4,5.8-4.9,9.2-9.1,8.5c-1-0.2-2-0.7-3.2-1.1c-0.9,2.2-2.6,4-5.1,4.8c-2.5,0.8-4.8,0.4-6.9-1.3
			c-2.7,5.7-8.7,6.2-12.4,3.2c-1.2,2.7-3.2,4.3-6.1,4.6C345.6,315.5,343.3,314.4,341.5,312z M343,294.2c3.2,0,6.2,0,9.3,0
			c0-5.5,0.1-10.7,0-15.9c0-2.3-2.1-4-4.5-3.9c-2.4,0-4.7,1.7-4.7,3.8C342.9,283.5,343,288.9,343,294.2z M330.6,294.3
			c3.2,0,6.2,0,9.3,0c0-5.4,0.1-10.7,0-16c0-2.2-2.3-3.9-4.9-3.9c-2.4,0-4.3,1.8-4.4,4.1c-0.1,1.6,0,3.1,0,4.7
			C330.6,286.8,330.6,290.4,330.6,294.3z M364.4,293.5c0-4.9,0.1-9.6-0.1-14.3c0-0.9-1-2-1.8-2.5c-3-1.9-7.6,0.6-7.4,4.3
			c0.2,3.6,0.1,7.2,0.1,10.8c0,2.4,0,2.4,2.4,2.2C359.9,293.8,362.2,293.6,364.4,293.5z M327.8,294.1c0-4.8,0.1-9.3,0-13.8
			c-0.1-2.9-3.2-4.9-6.2-4.2c-1.8,0.5-3,1.5-3,3.3c-0.1,4.6,0,9.2,0,14C321.5,293.7,324.5,293.9,327.8,294.1z M343,297.2
			c0,3.8,0,7.3,0,10.8c0,2.9,1.8,4.8,4.6,4.7c2.7,0,5.1-2.1,4.9-4.8c-0.1-1.1,0-2.3,0-3.4c0-2.5,0-5,0-7.4
			C349.2,297.2,346.2,297.2,343,297.2z M330.5,297.2c0,3.9-0.1,7.8,0,11.7c0.1,2.2,2.5,4,4.9,3.9c2.5-0.1,4.4-1.8,4.5-4.2
			c0-2.8,0-5.6,0-8.4c0-1,0-1.9,0-3C336.7,297.2,333.7,297.2,330.5,297.2z M376.5,292.1c0-4.2,0.1-8.1,0-12.1c0-1.4-1.3-2.6-2.8-2.8
			c-3.2-0.6-6.6,1.7-6.4,5.2c0.1,2.5,0.1,5,0.1,7.5c0,1.1,0,2.1,0,3.3C370.6,292.8,373.6,292.4,376.5,292.1z M315.6,293.2
			c0-3.7,0-7.2,0-10.7c0-0.5,0-0.9-0.1-1.4c-0.5-3.3-5.2-5.3-7.8-3.2c-0.7,0.5-1,1.5-1.3,2.4c-0.2,0.5-0.1,1.1-0.1,1.7
			c0,3.3,0,6.7,0,10.2C309.3,292.5,312.3,292.8,315.6,293.2z M355.2,297c0,2.8,0,5.6,0,8.3c0,2.8,1.2,4.2,3.7,4.7
			c2.2,0.4,4.9-1.1,5.5-3.2c0.3-0.9,0.2-1.9,0.2-2.8c0-2.5,0-5.1,0-7.6C361.4,296.5,358.3,296.8,355.2,297z M327.7,297
			c-3.2-0.2-6.2-0.4-9.5-0.7c0,2.9,0.1,5.8,0,8.6c-0.1,2.1,0.9,3.5,2.6,4.5c3,1.7,6.7,0.1,6.8-3C327.8,303.3,327.7,300.2,327.7,297z
			 M379.4,291.7c3.2-0.6,6-1,8.7-1.5c0.3-0.1,0.6-0.5,0.6-0.8c0-2.9,0-5.8-0.1-8.6c-0.1-1.5-0.8-2.5-2.2-3c-2.9-1-6.8,1.3-7,4.4
			C379.2,285.2,379.4,288.4,379.4,291.7z M303.2,291.7c0.1-0.3,0.2-0.4,0.2-0.6c0.1-2.6,0.2-5.2,0.2-7.8c0-3.1-1.7-5.1-4.8-5.7
			c-2.7-0.5-4.4,0.9-4.5,3.6c-0.1,2.6-0.1,5.3-0.1,7.9c0,0.3,0.4,0.9,0.7,1C297.7,290.7,300.4,291.2,303.2,291.7z M377,294.9
			c-3.2,0.4-6.1,0.7-8.9,1.1c-0.3,0-0.6,0.7-0.6,1.2c0,1.9,0,3.8,0.1,5.7c0.1,2.1,1.2,3.4,3.3,3.8c2.9,0.5,6.1-2.1,6.1-5.1
			C377,299.4,377,297.3,377,294.9z M306,294.9c0,2.1,0,4,0,5.9c0,0.2,0,0.5,0,0.7c0.1,3,2.7,5.3,5.7,5.1c2.1-0.1,3.6-1.5,3.7-3.5
			c0.1-2.1,0.1-4.2,0.1-6.2c0-0.3-0.4-0.9-0.7-0.9C312,295.6,309.1,295.3,306,294.9z M379.6,294.5c0,1.4,0,2.7,0,4.1
			c0,0.3,0,0.7,0,1c0.2,1.6,1.4,2.8,3,3.1c2.6,0.4,5.8-1.6,6.2-4.3c0.3-1.7,0-3.5,0-5.4C385.7,293.5,382.8,294,379.6,294.5z
			 M294,293c0,1.5,0,2.8,0,4.1c0,2.8,2,5.2,4.8,5.6c2.3,0.3,4.3-0.9,4.5-3c0.2-1.7,0-3.4,0-5.1C300.2,294,297.2,293.5,294,293z"/>
		<g>
			<path class="st0" d="M280.7,180c1.6-1.2,3.5-1.8,5.5-1.6c3.1,0.2,6.2,0.5,9.2,1.2c4.4,1,8.4,0.6,12.2-1.8
				c0.6-0.3,1.2-0.6,1.8-0.8c1.1-0.4,2.2-0.2,3.1,0.7c0.8,0.7,0.8,1.7,0.5,2.7c-0.8,3-3.3,4.8-7,4.9c-2.8,0.1-5.5-0.7-8.1-1.6
				c-3.3-1.1-6.5-2.2-9.7-3.3C285.8,179.4,283.3,179.3,280.7,180z"/>
			<path class="st0" d="M402.3,180c-3.7-1.1-7.1,0-10.5,1.1c-3.7,1.2-7.4,2.5-11.1,3.6c-2,0.6-4.2,0.6-6.2,0
				c-2.4-0.7-3.9-2.2-4.5-4.6c-0.6-2.2,1.1-3.9,3.3-3.3c0.6,0.1,1.2,0.4,1.7,0.7c4.3,2.8,8.8,3,13.6,1.9c2.8-0.6,5.7-0.8,8.5-1
				C399,178.2,400.7,178.9,402.3,180z"/>
			<path class="st0" d="M373.7,151.1c4.7,0,8.3,2.4,11.7,5.2c3.6,3.1,6.2,6.9,7.9,11.3c0.1,0.2,0.2,0.5,0.2,0.7c0,0.3-0.1,0.7-0.2,1
				c-0.2-0.2-0.5-0.3-0.7-0.5c-1-1.3-2-2.8-3.1-4c-3.8-4.3-8.7-6.7-14.2-8c-1.4-0.3-2.8-0.8-4.1-1.3c-1.3-0.6-1.7-1.4-1.5-2.7
				c0.2-1.2,1.3-1.4,2.3-1.6C372.6,151.1,373.1,151.1,373.7,151.1z"/>
			<path class="st0" d="M309.7,151c0.7,0.1,1.4,0.2,2.1,0.3c0.8,0.2,1.4,0.6,1.5,1.5c0.1,0.9,0,1.9-1,2.3c-1.5,0.6-3,1.2-4.6,1.6
				c-7.4,1.7-13.2,5.5-17.3,11.9c-0.2,0.3-0.6,0.4-0.8,0.6c0-0.4-0.2-0.8,0-1.1c2.6-7.3,7.4-12.7,14.4-16c1.7-0.8,3.8-0.9,5.7-1.3
				C309.7,150.9,309.7,151,309.7,151z"/>
			<path class="st0" d="M427.9,229.7c-0.3-3.8-0.2-7.8-0.9-11.7c-1.6-8.5-6.5-15-13.6-20c-1.7-1.2-3.5-2.5-5-4
				c-1.8-1.8-1.9-3.4-0.8-5.3c0.8-1.4,2.7-1.9,4.9-1.1c3.4,1.1,6.6,2.8,8.9,5.6c8.7,10.6,11.6,22.4,6.8,35.6
				C428.2,229.2,428,229.6,427.9,229.7z"/>
			<path class="st0" d="M256.2,230.1c-2.8-6.4-3.6-12.5-2.6-18.9c1-6.5,3.8-12.2,7.8-17.3c2.6-3.3,5.9-5.4,9.9-6.7
				c2.4-0.8,4.1-0.2,5,1.3c1.1,1.9,0.8,3.6-1.2,5.4c-2.2,1.9-4.6,3.5-6.9,5.3c-9.2,7.5-13.2,17.2-12,29.1
				C256.2,228.7,256.2,229.1,256.2,230.1z"/>
			<path class="st0" d="M297.5,268.4c-4.4,2.6-8.8,3.7-13.5,3.6c-4.8-0.2-9.2-1.7-13.3-4.1c-2.6-1.6-4.5-3.8-5.7-6.6
				c-0.8-1.7-0.5-3,0.5-3.8c1.3-1,2.6-0.9,4,0.4c1.6,1.4,2.9,3.1,4.5,4.5c6.3,6,13.7,8.1,22.2,6.2
				C296.5,268.5,296.8,268.5,297.5,268.4z"/>
			<path class="st0" d="M260,272.4c2.2,0.4,3.8,1.5,5.1,3.3c1.1,1.6,1.6,3.3,2.1,5.2c0.3,1,0.5,2,0.8,3c0.6,2.6,2.3,4.5,4.5,6
				c0.5,0.3,0.9,0.7,1.3,1.1c1.3,1.4,0.7,3.5-1.1,4c-1.9,0.6-3.6,0-5-1.4c-1.5-1.5-2.2-3.4-2.5-5.4c-0.4-2.9-0.7-5.8-1.1-8.7
				c-0.2-1.2-0.5-2.3-0.8-3.4C262.7,274.5,261.7,273.1,260,272.4z"/>
			<path class="st0" d="M386.1,268.4c4.4,2.6,8.8,3.7,13.5,3.6c4.8-0.2,9.2-1.7,13.3-4.1c2.6-1.6,4.5-3.8,5.7-6.6
				c0.8-1.7,0.5-3-0.5-3.8c-1.3-1-2.6-0.9-4,0.4c-1.6,1.4-2.9,3.1-4.5,4.5c-6.3,6-13.7,8.1-22.2,6.2
				C387.1,268.5,386.8,268.5,386.1,268.4z"/>
			<path class="st0" d="M423.5,272.4c-2.2,0.4-3.8,1.5-5.1,3.3c-1.1,1.6-1.6,3.3-2.1,5.2c-0.3,1-0.5,2-0.8,3c-0.6,2.6-2.3,4.5-4.5,6
				c-0.5,0.3-0.9,0.7-1.3,1.1c-1.3,1.4-0.7,3.5,1.1,4c1.9,0.6,3.6,0,5-1.4c1.5-1.5,2.2-3.4,2.5-5.4c0.4-2.9,0.7-5.8,1.1-8.7
				c0.2-1.2,0.5-2.3,0.8-3.4C420.8,274.5,421.8,273.1,423.5,272.4z"/>
			<g>
				<path class="st0" d="M290.8,138c-2-1.8-4.2-3.5-6.1-5.4c-2.2-2.1-4.3-4.2-5.8-6.9c-0.8-1.4-1.6-2.9-1.7-4.6
					c-0.1-1.8,1.7-3.1,3.4-2.3c1.6,0.7,2.8,1.9,3.5,3.4c1.6,3.1,3,6.2,4.4,9.4c0.9,2,1.7,4.2,2.5,6.3C291,137.9,290.9,138,290.8,138
					z"/>
				<path class="st0" d="M286.9,145.1c-2.2-0.3-4.4-0.7-6.5-0.7c-3.1-0.1-6.2,0.2-9.3,0.2c-0.9,0-1.8,0-2.7-0.2
					c-1-0.2-1.8-0.7-2-1.8c-0.2-1.1,0.3-2,1.3-2.7c1.8-1.3,3.9-1.5,6-1.5c5,0,8.9,2.2,12.3,5.6c0.2,0.2,0.4,0.4,0.6,0.7
					C286.8,144.8,286.8,145,286.9,145.1z"/>
				<path class="st0" d="M299.1,137.9c-1.6-4.3-2.2-8.5-0.7-12.7c0.9-2.7,2.3-5.2,4.9-6.7c0.5-0.3,1.2-0.4,1.8-0.4
					c1.3,0,2.2,0.9,2,2.2c-0.1,1-0.4,2.1-0.9,2.9c-3,4.5-5.5,9.2-7,14.4C299.2,137.7,299.2,137.8,299.1,137.9z"/>
				<path class="st0" d="M287.9,140.1c-1.1-0.5-2.2-1.1-3.3-1.6c-2.2-1.1-4.6-1.3-6.9-1.7c-1.4-0.2-2.6-0.8-3.7-1.8
					c-1-0.9-0.9-2,0.3-2.7c1.2-0.7,2.5-0.7,3.7-0.2c3.4,1.2,6.4,3,8.8,5.8c0.5,0.7,0.9,1.4,1.3,2.2C288,140,288,140.1,287.9,140.1z"
					/>
				<path class="st0" d="M294.2,136.6c-1.4-1.7-2.1-3.5-2.4-5.4c-0.6-2.9-0.7-5.8,0.3-8.6c0.3-0.8,1-1.5,1.7-2
					c1.1-0.8,2.1-0.3,2.4,1.1c0.3,1.5,0.3,3.1-0.3,4.5c-1.4,3.2-1.7,6.5-1.6,9.9C294.2,136.2,294.2,136.3,294.2,136.6z"/>
				<path class="st0" d="M302.6,140.4c0-0.2,0-0.4,0-0.6c0.9-4.3,3.1-7.5,7.2-9.2c1.2-0.5,2.3-0.4,3,0.4c0.9,1,0.7,2.5-0.5,3.3
					c-1.2,0.7-2.5,1.4-3.8,2c-2.1,0.9-4,2.1-5.5,3.9C302.9,140.3,302.8,140.3,302.6,140.4z"/>
				<path class="st0" d="M287.5,149.6c-2.1,0.4-4,1.4-5.7,2.6c-1.4,1-2.7,2-4.1,2.9c-1.3,0.8-2.9,0.2-3.2-1.2
					c-0.3-1.1,0.3-1.9,1-2.5c2.3-1.8,4.9-3,7.9-2.7c1.4,0.1,2.7,0.4,4.1,0.6C287.5,149.3,287.5,149.4,287.5,149.6z"/>
			</g>
			<path class="st0" d="M325.5,322.2c-3.6,1.1-6.9,1.3-10.3,1c-6.6-0.7-12.8-2.7-18.3-6.4c-1.8-1.2-3.2-2.9-4.6-4.5
				c-0.4-0.5-0.7-1.9-0.4-2.2c0.5-0.5,1.8-0.9,2.4-0.6c1.6,0.7,3.3,1.7,4.6,2.9c7.3,6.8,15.9,10,25.9,9.8
				C324.9,322.1,325,322.1,325.5,322.2z"/>
			<path class="st0" d="M358,322.2c3.6,1.1,6.9,1.3,10.3,1c6.6-0.7,12.8-2.7,18.3-6.4c1.8-1.2,3.2-2.9,4.6-4.5
				c0.4-0.5,0.7-1.9,0.4-2.2c-0.5-0.5-1.8-0.9-2.4-0.6c-1.6,0.7-3.3,1.7-4.6,2.9c-7.3,6.8-15.9,10-25.9,9.8
				C358.6,322.1,358.5,322.1,358,322.2z"/>
		</g>
		<path class="st0" d="M282.9,297.9c-2.5-0.1-4.4,1.7-4.5,4.2c0,2.4,1.8,4.3,4.1,4.3c2.4,0.1,4.3-1.8,4.3-4.2
			C286.9,299.9,285.1,297.9,282.9,297.9z M282.7,303.7c-0.9,0-1.5-0.7-1.5-1.6c0-0.9,0.7-1.6,1.7-1.6c0.8,0,1.5,0.8,1.5,1.6
			C284.2,303,283.5,303.7,282.7,303.7z"/>
		<path class="st0" d="M401.1,297.9c-2.5-0.1-4.4,1.7-4.5,4.2c0,2.4,1.8,4.3,4.1,4.3c2.4,0.1,4.3-1.8,4.3-4.2
			C405.1,299.9,403.3,297.9,401.1,297.9z M400.8,303.7c-0.9,0-1.5-0.7-1.5-1.6c0-0.9,0.7-1.6,1.7-1.6c0.8,0,1.5,0.8,1.5,1.6
			C402.4,303,401.7,303.7,400.8,303.7z"/>
	</g>
</g>
</svg>
