<svg xmlns="http://www.w3.org/2000/svg" xmlns:xlink="http://www.w3.org/1999/xlink" width="360" height="202.37" viewBox="0 0 360 202.37">
  <defs>
    <clipPath id="clip-Meet_Someone">
      <rect width="360" height="202.37"/>
    </clipPath>
  </defs>
  <g id="Meet_Someone" data-name="Meet Someone" clip-path="url(#clip-Meet_Someone)">
    <rect width="360" height="202.37" fill="#fff"/>
    <g id="topAppBar_small" transform="translate(0 -24)">
      <rect id="Rectangle_2" data-name="Rectangle 2" width="360" height="80" fill="#1163ff"/>
      <path id="Path_490" data-name="Path 490" d="M-69.378-15.641l4.512,11.988,4.5-11.988h3.513V0H-59.56V-5.156l.269-6.9L-63.911,0h-1.944l-4.608-12.042.269,6.886V0H-72.9V-15.641ZM-48.775.215A5.4,5.4,0,0,1-52.8-1.348a5.67,5.67,0,0,1-1.542-4.163v-.322a6.974,6.974,0,0,1,.671-3.11,5.11,5.11,0,0,1,1.885-2.132,4.984,4.984,0,0,1,2.707-.763,4.562,4.562,0,0,1,3.668,1.515,6.4,6.4,0,0,1,1.294,4.286v1.053h-7.595a3.491,3.491,0,0,0,.961,2.277,2.886,2.886,0,0,0,2.122.838A3.535,3.535,0,0,0-45.7-3.319L-44.3-1.977A4.7,4.7,0,0,1-46.159-.36,5.835,5.835,0,0,1-48.775.215Zm-.312-9.958a2.2,2.2,0,0,0-1.735.752A3.9,3.9,0,0,0-51.665-6.9h4.974V-7.09a3.173,3.173,0,0,0-.7-1.982A2.181,2.181,0,0,0-49.086-9.743ZM-36.969.215a5.4,5.4,0,0,1-4.023-1.563,5.67,5.67,0,0,1-1.542-4.163v-.322a6.974,6.974,0,0,1,.671-3.11,5.11,5.11,0,0,1,1.885-2.132,4.984,4.984,0,0,1,2.707-.763A4.562,4.562,0,0,1-33.6-10.323a6.4,6.4,0,0,1,1.294,4.286v1.053H-39.9a3.491,3.491,0,0,0,.961,2.277,2.886,2.886,0,0,0,2.122.838A3.535,3.535,0,0,0-33.9-3.319l1.407,1.343A4.7,4.7,0,0,1-34.354-.36,5.835,5.835,0,0,1-36.969.215Zm-.312-9.958a2.2,2.2,0,0,0-1.735.752A3.9,3.9,0,0,0-39.859-6.9h4.974V-7.09a3.173,3.173,0,0,0-.7-1.982A2.181,2.181,0,0,0-37.281-9.743Zm10.27-4.705v2.825h2.052v1.934h-2.052V-3.2a1.429,1.429,0,0,0,.263.961,1.22,1.22,0,0,0,.94.3,4.021,4.021,0,0,0,.913-.107v2.02a6.429,6.429,0,0,1-1.719.247q-3.008,0-3.008-3.319V-9.689h-1.912v-1.934h1.912v-2.825Zm17.95,10.42a1.889,1.889,0,0,0-.725-1.59A8.724,8.724,0,0,0-12.4-6.746,12.631,12.631,0,0,1-15.41-8.014a4.014,4.014,0,0,1-2.138-3.5,3.811,3.811,0,0,1,1.542-3.115,6.239,6.239,0,0,1,4-1.225,6.759,6.759,0,0,1,2.911.6,4.778,4.778,0,0,1,2.009,1.713,4.395,4.395,0,0,1,.73,2.465H-9.061a2.451,2.451,0,0,0-.768-1.917,3.17,3.17,0,0,0-2.2-.693,3.311,3.311,0,0,0-2.068.569,1.9,1.9,0,0,0-.736,1.59,1.715,1.715,0,0,0,.795,1.434,9.158,9.158,0,0,0,2.621,1.117A12.057,12.057,0,0,1-8.481-7.74,4.665,4.665,0,0,1-6.859-6.15a4.14,4.14,0,0,1,.516,2.1,3.722,3.722,0,0,1-1.5,3.11A6.5,6.5,0,0,1-11.908.215a7.641,7.641,0,0,1-3.121-.628,5.242,5.242,0,0,1-2.213-1.735,4.323,4.323,0,0,1-.79-2.578h2.718a2.53,2.53,0,0,0,.881,2.063,3.857,3.857,0,0,0,2.524.73,3.352,3.352,0,0,0,2.132-.575A1.854,1.854,0,0,0-9.061-4.028ZM-4.7-5.919A6.854,6.854,0,0,1-4.023-9a4.943,4.943,0,0,1,1.9-2.105,5.357,5.357,0,0,1,2.814-.736,5.077,5.077,0,0,1,3.819,1.515A5.957,5.957,0,0,1,6.1-6.306l.011.612a6.915,6.915,0,0,1-.661,3.072A4.883,4.883,0,0,1,3.556-.526,5.4,5.4,0,0,1,.714.215,5.042,5.042,0,0,1-3.223-1.423,6.274,6.274,0,0,1-4.7-5.79Zm2.61.226a4.683,4.683,0,0,0,.741,2.809A2.41,2.41,0,0,0,.714-1.869,2.383,2.383,0,0,0,2.771-2.9a5.173,5.173,0,0,0,.736-3.019A4.623,4.623,0,0,0,2.75-8.712,2.418,2.418,0,0,0,.693-9.743a2.4,2.4,0,0,0-2.03,1.015A5.075,5.075,0,0,0-2.089-5.693Zm12.858-5.93.075,1.214A4.182,4.182,0,0,1,14.2-11.838a3.213,3.213,0,0,1,3.19,1.783,4.122,4.122,0,0,1,3.566-1.783,3.624,3.624,0,0,1,2.863,1.063,4.682,4.682,0,0,1,.961,3.137V0h-2.61V-7.562a2.312,2.312,0,0,0-.483-1.622,2.116,2.116,0,0,0-1.6-.516,2.173,2.173,0,0,0-1.456.478,2.521,2.521,0,0,0-.79,1.251L17.848,0h-2.61V-7.648A1.862,1.862,0,0,0,13.143-9.7a2.3,2.3,0,0,0-2.224,1.278V0H8.309V-11.623ZM32.576.215a5.4,5.4,0,0,1-4.023-1.563,5.67,5.67,0,0,1-1.542-4.163v-.322a6.974,6.974,0,0,1,.671-3.11,5.11,5.11,0,0,1,1.885-2.132,4.984,4.984,0,0,1,2.707-.763,4.562,4.562,0,0,1,3.668,1.515,6.4,6.4,0,0,1,1.294,4.286v1.053H29.643A3.491,3.491,0,0,0,30.6-2.707a2.886,2.886,0,0,0,2.122.838,3.535,3.535,0,0,0,2.922-1.45l1.407,1.343A4.7,4.7,0,0,1,35.191-.36,5.835,5.835,0,0,1,32.576.215Zm-.312-9.958a2.2,2.2,0,0,0-1.735.752A3.9,3.9,0,0,0,29.686-6.9H34.66V-7.09a3.173,3.173,0,0,0-.7-1.982A2.181,2.181,0,0,0,32.264-9.743Zm6.51,3.824A6.854,6.854,0,0,1,39.451-9a4.943,4.943,0,0,1,1.9-2.105,5.357,5.357,0,0,1,2.814-.736,5.077,5.077,0,0,1,3.819,1.515A5.957,5.957,0,0,1,49.57-6.306l.011.612a6.915,6.915,0,0,1-.661,3.072A4.883,4.883,0,0,1,47.029-.526a5.4,5.4,0,0,1-2.841.741,5.042,5.042,0,0,1-3.937-1.638A6.274,6.274,0,0,1,38.774-5.79Zm2.61.226a4.683,4.683,0,0,0,.741,2.809,2.41,2.41,0,0,0,2.063,1.015A2.383,2.383,0,0,0,46.245-2.9a5.173,5.173,0,0,0,.736-3.019,4.623,4.623,0,0,0-.757-2.793,2.418,2.418,0,0,0-2.057-1.031,2.4,2.4,0,0,0-2.03,1.015A5.075,5.075,0,0,0,41.384-5.693Zm12.826-5.93.075,1.343a4.179,4.179,0,0,1,3.384-1.558q3.631,0,3.7,4.157V0h-2.61V-7.53a2.394,2.394,0,0,0-.478-1.638A2.011,2.011,0,0,0,56.713-9.7a2.515,2.515,0,0,0-2.353,1.429V0H51.75V-11.623ZM69.142.215a5.4,5.4,0,0,1-4.023-1.563,5.67,5.67,0,0,1-1.542-4.163v-.322a6.974,6.974,0,0,1,.671-3.11,5.11,5.11,0,0,1,1.885-2.132,4.984,4.984,0,0,1,2.707-.763,4.562,4.562,0,0,1,3.668,1.515A6.4,6.4,0,0,1,73.8-6.037v1.053H66.209a3.491,3.491,0,0,0,.961,2.277,2.886,2.886,0,0,0,2.122.838,3.535,3.535,0,0,0,2.922-1.45l1.407,1.343A4.7,4.7,0,0,1,71.758-.36,5.835,5.835,0,0,1,69.142.215Zm-.312-9.958a2.2,2.2,0,0,0-1.735.752A3.9,3.9,0,0,0,66.252-6.9h4.974V-7.09a3.173,3.173,0,0,0-.7-1.982A2.181,2.181,0,0,0,68.831-9.743Z" transform="translate(180 59)" fill="#fff"/>
      <g id="icon_arrow-left" transform="translate(16 40)">
        <g id="Boundary" fill="#fff" stroke="rgba(0,0,0,0)" stroke-width="1" opacity="0">
          <rect width="24" height="24" stroke="none"/>
          <rect x="0.5" y="0.5" width="23" height="23" fill="none"/>
        </g>
        <path id="Path_arrow-left" data-name="Path / arrow-left" d="M20,11v2H8l5.5,5.5-1.42,1.42L4.16,12l7.92-7.92L13.5,5.5,8,11Z" transform="translate(-0.16 -0.08)" fill="#fff"/>
      </g>
      <g id="system_status-bar">
        <rect id="Rectangle_774" data-name="Rectangle 774" width="360" height="24" fill="#1b1b1b" opacity="0.2"/>
        <g id="Group_425" data-name="Group 425" transform="translate(-100 -519)" opacity="0.5">
          <rect id="Rectangle_773" data-name="Rectangle 773" width="12" height="12" transform="translate(402 525)" fill="#1b1b1b"/>
          <path id="Path_471" data-name="Path 471" d="M0,0H12L6,12Z" transform="translate(440 525)" fill="#1b1b1b"/>
          <circle id="Ellipse_8" data-name="Ellipse 8" cx="6" cy="6" r="6" transform="translate(422 525)" fill="#1b1b1b"/>
        </g>
        <text id="_9:41" data-name="9:41" transform="translate(20 16)" fill="#1b1b1b" font-size="12" font-family="Roboto-Regular, Roboto" opacity="0.5"><tspan x="-11.561" y="0">9:41</tspan></text>
      </g>
    </g>
    <path id="Path_491" data-name="Path 491" d="M7.8-5.078H3.133v3.5H8.594V0H1.156V-11.375H8.539v1.594H3.133v3.141H7.8ZM14.758-2.3a.861.861,0,0,0-.418-.773,4.445,4.445,0,0,0-1.387-.469,7.129,7.129,0,0,1-1.617-.516A2.158,2.158,0,0,1,9.914-6.047a2.25,2.25,0,0,1,.922-1.828,3.644,3.644,0,0,1,2.344-.734,3.792,3.792,0,0,1,2.449.75,2.38,2.38,0,0,1,.934,1.945h-1.9a1.17,1.17,0,0,0-.406-.91,1.557,1.557,0,0,0-1.078-.363,1.682,1.682,0,0,0-1.02.289.911.911,0,0,0-.395.773.769.769,0,0,0,.367.68,5.049,5.049,0,0,0,1.484.488,7.027,7.027,0,0,1,1.754.586,2.484,2.484,0,0,1,.945.816A2.082,2.082,0,0,1,16.625-2.4,2.2,2.2,0,0,1,15.68-.551,4.031,4.031,0,0,1,13.2.156a4.371,4.371,0,0,1-1.852-.375A3.047,3.047,0,0,1,10.086-1.25a2.441,2.441,0,0,1-.453-1.414h1.844a1.338,1.338,0,0,0,.508,1.035,1.973,1.973,0,0,0,1.242.363,1.92,1.92,0,0,0,1.141-.285A.883.883,0,0,0,14.758-2.3Zm8.258,0A.861.861,0,0,0,22.6-3.07a4.445,4.445,0,0,0-1.387-.469,7.129,7.129,0,0,1-1.617-.516,2.158,2.158,0,0,1-1.422-1.992,2.25,2.25,0,0,1,.922-1.828,3.644,3.644,0,0,1,2.344-.734,3.792,3.792,0,0,1,2.449.75,2.38,2.38,0,0,1,.934,1.945h-1.9a1.17,1.17,0,0,0-.406-.91,1.557,1.557,0,0,0-1.078-.363,1.682,1.682,0,0,0-1.02.289.911.911,0,0,0-.395.773.769.769,0,0,0,.367.68,5.049,5.049,0,0,0,1.484.488,7.027,7.027,0,0,1,1.754.586,2.484,2.484,0,0,1,.945.816A2.082,2.082,0,0,1,24.883-2.4a2.2,2.2,0,0,1-.945,1.848,4.031,4.031,0,0,1-2.477.707,4.371,4.371,0,0,1-1.852-.375A3.047,3.047,0,0,1,18.344-1.25a2.441,2.441,0,0,1-.453-1.414h1.844a1.338,1.338,0,0,0,.508,1.035,1.973,1.973,0,0,0,1.242.363,1.92,1.92,0,0,0,1.141-.285A.883.883,0,0,0,23.016-2.3ZM30.258.156A3.928,3.928,0,0,1,27.332-.98a4.124,4.124,0,0,1-1.121-3.027v-.234A5.072,5.072,0,0,1,26.7-6.5,3.716,3.716,0,0,1,28.07-8.055a3.625,3.625,0,0,1,1.969-.555,3.318,3.318,0,0,1,2.668,1.1,4.658,4.658,0,0,1,.941,3.117v.766H28.125a2.539,2.539,0,0,0,.7,1.656,2.1,2.1,0,0,0,1.543.609,2.571,2.571,0,0,0,2.125-1.055l1.023.977A3.418,3.418,0,0,1,32.16-.262,4.244,4.244,0,0,1,30.258.156Zm-.227-7.242a1.6,1.6,0,0,0-1.262.547,2.835,2.835,0,0,0-.613,1.523h3.617v-.141A2.307,2.307,0,0,0,31.266-6.6,1.586,1.586,0,0,0,30.031-7.086Zm6.852-1.367.055.977A3.039,3.039,0,0,1,39.4-8.609q2.641,0,2.688,3.023V0h-1.9V-5.477a1.741,1.741,0,0,0-.348-1.191A1.462,1.462,0,0,0,38.7-7.055a1.829,1.829,0,0,0-1.711,1.039V0h-1.9V-8.453ZM46.4-10.508v2.055h1.492v1.406H46.4v4.719a1.039,1.039,0,0,0,.191.7.888.888,0,0,0,.684.215,2.924,2.924,0,0,0,.664-.078V-.023a4.676,4.676,0,0,1-1.25.18Q44.5.156,44.5-2.258V-7.047H43.109V-8.453H44.5v-2.055ZM51.359,0h-1.9V-8.453h1.9ZM49.344-10.648a1.008,1.008,0,0,1,.277-.727,1.048,1.048,0,0,1,.793-.289,1.061,1.061,0,0,1,.8.289,1,1,0,0,1,.281.727.977.977,0,0,1-.281.715,1.069,1.069,0,0,1-.8.285,1.056,1.056,0,0,1-.793-.285A.984.984,0,0,1,49.344-10.648ZM58.477,0a2.93,2.93,0,0,1-.219-.789,2.955,2.955,0,0,1-2.219.945A2.982,2.982,0,0,1,53.961-.57a2.325,2.325,0,0,1-.8-1.8,2.4,2.4,0,0,1,1-2.074,4.865,4.865,0,0,1,2.871-.723H58.2v-.555a1.481,1.481,0,0,0-.367-1.051,1.456,1.456,0,0,0-1.117-.395,1.672,1.672,0,0,0-1.062.324,1,1,0,0,0-.414.824h-1.9a2.107,2.107,0,0,1,.461-1.3,3.071,3.071,0,0,1,1.254-.949,4.4,4.4,0,0,1,1.77-.344,3.547,3.547,0,0,1,2.367.746,2.661,2.661,0,0,1,.906,2.1v3.813a4.321,4.321,0,0,0,.32,1.82V0ZM56.391-1.367a2.16,2.16,0,0,0,1.059-.273,1.827,1.827,0,0,0,.746-.734V-3.969H57.172a2.8,2.8,0,0,0-1.586.367,1.189,1.189,0,0,0-.531,1.039,1.109,1.109,0,0,0,.363.871A1.407,1.407,0,0,0,56.391-1.367ZM64.1,0H62.2V-12h1.9Zm6.8-2.3a.861.861,0,0,0-.418-.773A4.445,4.445,0,0,0,69.1-3.539a7.129,7.129,0,0,1-1.617-.516,2.158,2.158,0,0,1-1.422-1.992,2.25,2.25,0,0,1,.922-1.828,3.644,3.644,0,0,1,2.344-.734,3.792,3.792,0,0,1,2.449.75,2.38,2.38,0,0,1,.934,1.945h-1.9a1.17,1.17,0,0,0-.406-.91,1.557,1.557,0,0,0-1.078-.363,1.682,1.682,0,0,0-1.02.289.911.911,0,0,0-.395.773.769.769,0,0,0,.367.68,5.049,5.049,0,0,0,1.484.488,7.027,7.027,0,0,1,1.754.586,2.484,2.484,0,0,1,.945.816A2.082,2.082,0,0,1,72.773-2.4a2.2,2.2,0,0,1-.945,1.848,4.031,4.031,0,0,1-2.477.707A4.371,4.371,0,0,1,67.5-.219,3.047,3.047,0,0,1,66.234-1.25a2.441,2.441,0,0,1-.453-1.414h1.844a1.338,1.338,0,0,0,.508,1.035,1.973,1.973,0,0,0,1.242.363,1.92,1.92,0,0,0,1.141-.285A.883.883,0,0,0,70.906-2.3Z" transform="translate(16 81)" fill="#1b1b1b"/>
    <g id="Group_433" data-name="Group 433" transform="translate(0 -117)">
      <g id="list_card" transform="translate(16 266)">
        <g id="Rectangle_86" data-name="Rectangle 86" fill="#fff" stroke="#c7c7c7" stroke-width="1">
          <rect width="328" height="44" rx="6" stroke="none"/>
          <rect x="0.5" y="0.5" width="327" height="43" rx="5.5" fill="none"/>
        </g>
        <g id="Group_432" data-name="Group 432">
          <path id="Path_489" data-name="Path 489" d="M2.82-4.453V0H1.32V-11.375h4.2a4.215,4.215,0,0,1,2.926.953A3.231,3.231,0,0,1,9.5-7.9,3.189,3.189,0,0,1,8.465-5.348,4.4,4.4,0,0,1,5.5-4.453Zm0-1.227h2.7a2.7,2.7,0,0,0,1.844-.566A2.069,2.069,0,0,0,8-7.883a2.138,2.138,0,0,0-.641-1.625A2.528,2.528,0,0,0,5.6-10.141H2.82Zm9.813-1.75a3.073,3.073,0,0,1,2.5-1.18q2.68,0,2.7,3.023V0H16.391V-5.594a1.946,1.946,0,0,0-.418-1.352A1.675,1.675,0,0,0,14.7-7.383a2.086,2.086,0,0,0-1.234.375,2.546,2.546,0,0,0-.828.984V0H11.188V-12h1.445Zm11.453.273a4.331,4.331,0,0,0-.711-.055A1.9,1.9,0,0,0,21.445-6V0H20V-8.453h1.406l.023.977a2.251,2.251,0,0,1,2.016-1.133,1.477,1.477,0,0,1,.641.109ZM30.32,0a3.036,3.036,0,0,1-.2-.891A3.225,3.225,0,0,1,27.711.156,2.984,2.984,0,0,1,25.66-.551a2.287,2.287,0,0,1-.8-1.793,2.39,2.39,0,0,1,1-2.051,4.733,4.733,0,0,1,2.824-.73h1.406v-.664A1.623,1.623,0,0,0,29.641-7,1.821,1.821,0,0,0,28.3-7.445a2.108,2.108,0,0,0-1.3.391,1.151,1.151,0,0,0-.523.945H25.031a2,2,0,0,1,.449-1.223A3.066,3.066,0,0,1,26.7-8.266a4.1,4.1,0,0,1,1.691-.344,3.342,3.342,0,0,1,2.289.73,2.635,2.635,0,0,1,.859,2.012v3.891a4.757,4.757,0,0,0,.3,1.852V0Zm-2.4-1.1a2.54,2.54,0,0,0,1.289-.352,2.127,2.127,0,0,0,.883-.914V-4.1H28.961Q26.3-4.1,26.3-2.547a1.316,1.316,0,0,0,.453,1.063A1.742,1.742,0,0,0,27.922-1.1Zm10.8-1.141a1.064,1.064,0,0,0-.441-.91,4.249,4.249,0,0,0-1.539-.559A7.277,7.277,0,0,1,35-4.273a2.479,2.479,0,0,1-.953-.781,1.869,1.869,0,0,1-.309-1.078,2.193,2.193,0,0,1,.879-1.758,3.432,3.432,0,0,1,2.246-.719,3.532,3.532,0,0,1,2.332.742,2.357,2.357,0,0,1,.895,1.9H38.641a1.3,1.3,0,0,0-.5-1.023,1.888,1.888,0,0,0-1.27-.43,1.976,1.976,0,0,0-1.234.344,1.082,1.082,0,0,0-.445.9.877.877,0,0,0,.414.789,5.1,5.1,0,0,0,1.5.508,7.8,7.8,0,0,1,1.754.578,2.558,2.558,0,0,1,1,.809,1.988,1.988,0,0,1,.324,1.152,2.163,2.163,0,0,1-.906,1.816,3.8,3.8,0,0,1-2.352.684,4.257,4.257,0,0,1-1.8-.359,2.922,2.922,0,0,1-1.223-1A2.42,2.42,0,0,1,33.453-2.6H34.9a1.5,1.5,0,0,0,.582,1.152,2.258,2.258,0,0,0,1.434.426,2.331,2.331,0,0,0,1.316-.332A1.02,1.02,0,0,0,38.727-2.242Zm6.836,2.4a3.693,3.693,0,0,1-2.8-1.129,4.19,4.19,0,0,1-1.078-3.02v-.266a5.073,5.073,0,0,1,.48-2.246,3.748,3.748,0,0,1,1.344-1.547,3.378,3.378,0,0,1,1.871-.559,3.166,3.166,0,0,1,2.563,1.086,4.7,4.7,0,0,1,.914,3.109v.6H43.133a3,3,0,0,0,.73,2.02,2.3,2.3,0,0,0,1.777.77,2.517,2.517,0,0,0,1.3-.312,3.259,3.259,0,0,0,.93-.828l.883.688A3.55,3.55,0,0,1,45.563.156Zm-.18-7.578a1.928,1.928,0,0,0-1.469.637A3.1,3.1,0,0,0,43.18-5h4.234v-.109a2.753,2.753,0,0,0-.594-1.707A1.815,1.815,0,0,0,45.383-7.422Zm10.07,5.18a1.064,1.064,0,0,0-.441-.91,4.249,4.249,0,0,0-1.539-.559,7.277,7.277,0,0,1-1.742-.562,2.479,2.479,0,0,1-.953-.781,1.869,1.869,0,0,1-.309-1.078,2.193,2.193,0,0,1,.879-1.758,3.432,3.432,0,0,1,2.246-.719,3.532,3.532,0,0,1,2.332.742,2.357,2.357,0,0,1,.895,1.9H55.367a1.3,1.3,0,0,0-.5-1.023,1.888,1.888,0,0,0-1.27-.43,1.976,1.976,0,0,0-1.234.344,1.082,1.082,0,0,0-.445.9.877.877,0,0,0,.414.789,5.1,5.1,0,0,0,1.5.508,7.8,7.8,0,0,1,1.754.578,2.558,2.558,0,0,1,1,.809A1.988,1.988,0,0,1,56.9-2.344a2.163,2.163,0,0,1-.906,1.816,3.8,3.8,0,0,1-2.352.684,4.257,4.257,0,0,1-1.8-.359,2.922,2.922,0,0,1-1.223-1A2.42,2.42,0,0,1,50.18-2.6h1.445a1.5,1.5,0,0,0,.582,1.152,2.258,2.258,0,0,0,1.434.426,2.331,2.331,0,0,0,1.316-.332A1.02,1.02,0,0,0,55.453-2.242Z" transform="translate(42.68 28)" fill="#1b1b1b"/>
          <g id="icon_message-outline" transform="translate(12 10)">
            <g id="Boundary-2" data-name="Boundary" fill="#1b1b1b" stroke="rgba(0,0,0,0)" stroke-width="1" opacity="0">
              <rect width="24" height="24" stroke="none"/>
              <rect x="0.5" y="0.5" width="23" height="23" fill="none"/>
            </g>
            <path id="Path_message-outline" data-name="Path / message-outline" d="M20,2H4A2.006,2.006,0,0,0,2,4V22l4-4H20a2.006,2.006,0,0,0,2-2V4a2.006,2.006,0,0,0-2-2m0,14H5.2L4,17.2V4H20Z" fill="#1b1b1b"/>
          </g>
        </g>
      </g>
      <g id="list_card-2" data-name="list_card" transform="translate(16 210)">
        <g id="Rectangle_86-2" data-name="Rectangle 86" fill="#fff" stroke="#c7c7c7" stroke-width="1">
          <rect width="328" height="44" rx="6" stroke="none"/>
          <rect x="0.5" y="0.5" width="327" height="43" rx="5.5" fill="none"/>
        </g>
        <g id="Group_432-2" data-name="Group 432">
          <path id="Path_488" data-name="Path 488" d="M5.086-1.992l3.25-9.383H9.977L5.758,0H4.43L.219-11.375H1.852ZM10.531-4.3a4.993,4.993,0,0,1,.488-2.234A3.643,3.643,0,0,1,12.379-8.07a3.7,3.7,0,0,1,1.988-.539,3.565,3.565,0,0,1,2.793,1.2,4.6,4.6,0,0,1,1.066,3.18v.1a5.036,5.036,0,0,1-.473,2.215A3.589,3.589,0,0,1,16.4-.391a3.743,3.743,0,0,1-2.02.547,3.556,3.556,0,0,1-2.785-1.2A4.575,4.575,0,0,1,10.531-4.2Zm1.453.172a3.616,3.616,0,0,0,.652,2.258,2.088,2.088,0,0,0,1.746.852,2.075,2.075,0,0,0,1.75-.863A3.955,3.955,0,0,0,16.781-4.3a3.61,3.61,0,0,0-.66-2.254,2.1,2.1,0,0,0-1.754-.863,2.075,2.075,0,0,0-1.727.852A3.925,3.925,0,0,0,11.984-4.133ZM23.43-1.023a2.082,2.082,0,0,0,1.352-.469,1.649,1.649,0,0,0,.641-1.172h1.367a2.621,2.621,0,0,1-.5,1.383,3.293,3.293,0,0,1-1.23,1.047A3.55,3.55,0,0,1,23.43.156,3.482,3.482,0,0,1,20.684-1a4.59,4.59,0,0,1-1.02-3.152v-.242a5.089,5.089,0,0,1,.453-2.2,3.451,3.451,0,0,1,1.3-1.492,3.7,3.7,0,0,1,2-.531,3.39,3.39,0,0,1,2.363.852,3.043,3.043,0,0,1,1,2.211H25.422A1.992,1.992,0,0,0,24.8-6.895a1.932,1.932,0,0,0-1.379-.527,2.023,2.023,0,0,0-1.707.793,3.724,3.724,0,0,0-.605,2.293v.273a3.65,3.65,0,0,0,.6,2.25A2.033,2.033,0,0,0,23.43-1.023ZM33.633,0a3.036,3.036,0,0,1-.2-.891A3.225,3.225,0,0,1,31.023.156a2.984,2.984,0,0,1-2.051-.707,2.287,2.287,0,0,1-.8-1.793,2.39,2.39,0,0,1,1-2.051A4.733,4.733,0,0,1,32-5.125h1.406v-.664A1.623,1.623,0,0,0,32.953-7a1.821,1.821,0,0,0-1.336-.449,2.108,2.108,0,0,0-1.3.391,1.151,1.151,0,0,0-.523.945H28.344a2,2,0,0,1,.449-1.223,3.066,3.066,0,0,1,1.219-.934A4.1,4.1,0,0,1,31.7-8.609a3.342,3.342,0,0,1,2.289.73,2.635,2.635,0,0,1,.859,2.012v3.891a4.757,4.757,0,0,0,.3,1.852V0Zm-2.4-1.1a2.54,2.54,0,0,0,1.289-.352,2.127,2.127,0,0,0,.883-.914V-4.1H32.273q-2.656,0-2.656,1.555a1.316,1.316,0,0,0,.453,1.063A1.742,1.742,0,0,0,31.234-1.1ZM44.273-4.133a5.026,5.026,0,0,1-.891,3.113A2.846,2.846,0,0,1,40.992.156,2.947,2.947,0,0,1,38.516-.977L38.445,0H37.117V-12h1.445v4.477a2.93,2.93,0,0,1,2.414-1.086,2.863,2.863,0,0,1,2.418,1.164,5.177,5.177,0,0,1,.879,3.188ZM42.828-4.3a3.906,3.906,0,0,0-.57-2.281,1.888,1.888,0,0,0-1.641-.8,2.122,2.122,0,0,0-2.055,1.328V-2.4a2.181,2.181,0,0,0,2.07,1.328,1.878,1.878,0,0,0,1.617-.8A4.153,4.153,0,0,0,42.828-4.3ZM51.313-.836a3.07,3.07,0,0,1-2.477.992,2.628,2.628,0,0,1-2.059-.785,3.4,3.4,0,0,1-.715-2.324v-5.5h1.445v5.461q0,1.922,1.563,1.922a2.163,2.163,0,0,0,2.2-1.234V-8.453h1.445V0H51.344ZM56.484,0H55.039V-12h1.445Zm7.531,0a3.036,3.036,0,0,1-.2-.891A3.225,3.225,0,0,1,61.406.156a2.984,2.984,0,0,1-2.051-.707,2.287,2.287,0,0,1-.8-1.793,2.39,2.39,0,0,1,1-2.051,4.733,4.733,0,0,1,2.824-.73h1.406v-.664A1.623,1.623,0,0,0,63.336-7,1.821,1.821,0,0,0,62-7.445a2.107,2.107,0,0,0-1.3.391,1.151,1.151,0,0,0-.523.945H58.727a2,2,0,0,1,.449-1.223,3.066,3.066,0,0,1,1.219-.934,4.1,4.1,0,0,1,1.691-.344,3.342,3.342,0,0,1,2.289.73,2.635,2.635,0,0,1,.859,2.012v3.891a4.757,4.757,0,0,0,.3,1.852V0Zm-2.4-1.1a2.54,2.54,0,0,0,1.289-.352,2.127,2.127,0,0,0,.883-.914V-4.1H62.656Q60-4.1,60-2.547a1.316,1.316,0,0,0,.453,1.063A1.742,1.742,0,0,0,61.617-1.1Zm9.969-6.055a4.331,4.331,0,0,0-.711-.055A1.9,1.9,0,0,0,68.945-6V0H67.5V-8.453h1.406l.023.977a2.251,2.251,0,0,1,2.016-1.133,1.477,1.477,0,0,1,.641.109ZM75.82-2.117l1.969-6.336h1.547L75.938,1.3q-.789,2.109-2.508,2.109l-.273-.023-.539-.1V2.117l.391.031a1.923,1.923,0,0,0,1.145-.3A2.149,2.149,0,0,0,74.828.766l.32-.859L72.133-8.453h1.578Z" transform="translate(44 28)" fill="#1b1b1b"/>
          <g id="icon_format-list-bulleted" transform="translate(12 10)">
            <g id="Boundary-3" data-name="Boundary" fill="#1b1b1b" stroke="rgba(0,0,0,0)" stroke-width="1" opacity="0">
              <rect width="24" height="24" stroke="none"/>
              <rect x="0.5" y="0.5" width="23" height="23" fill="none"/>
            </g>
            <path id="Path_format-list-bulleted" data-name="Path / format-list-bulleted" d="M7,5H21V7H7V5m0,8V11H21v2H7M4,4.5A1.5,1.5,0,1,1,2.5,6,1.5,1.5,0,0,1,4,4.5m0,6A1.5,1.5,0,1,1,2.5,12,1.5,1.5,0,0,1,4,10.5M7,19V17H21v2H7M4,16.5A1.5,1.5,0,1,1,2.5,18,1.5,1.5,0,0,1,4,16.5Z" transform="translate(0.5 0.5)" fill="#1b1b1b"/>
          </g>
        </g>
      </g>
    </g>
  </g>
</svg>
