<?xml version="1.0" encoding="utf-8"?>
<!-- Generator: Adobe Illustrator 28.1.0, SVG Export Plug-In . SVG Version: 6.00 Build 0)  -->
<svg version="1.1" id="Layer_1" xmlns="http://www.w3.org/2000/svg" xmlns:xlink="http://www.w3.org/1999/xlink" x="0px" y="0px"
	 viewBox="0 0 1000 500" style="enable-background:new 0 0 1000 500;" xml:space="preserve">
<style type="text/css">
	.st0{fill:#0E3159;}
	.st1{fill:#F4EDED;}
</style>
<g>
	<rect class="st0" width="1000" height="500"/>
</g>
<g>
	<g>
		<g>
			<path class="st1" d="M124.2,132.3l-5.5-12.8h5.5h27.4c12.9,0,21.9,2.8,27,8.4s7.7,14.4,7.7,26.3c0,6.5-1.2,12.1-3.7,16.8
				c-2.4,4.7-5.4,8.6-8.9,11.7c3.5,3.1,6.5,7,8.9,11.6s3.7,10.2,3.7,16.7c0,11.9-2.6,21-7.7,27.2c-5.1,6.2-14.2,9.3-27,9.3h-32.9
				l5.5-12.8C124.2,234.7,124.2,132.3,124.2,132.3z M146.1,139.6v32.9h5.5c2.3,0,4.3-0.5,5.9-1.5c1.6-1,2.9-2.4,4-4.2
				c1-1.8,1.8-3.7,2.2-5.9c0.5-2.2,0.7-4.4,0.7-6.7c0-4.6-1-8.2-2.9-10.8c-2-2.6-5.3-3.9-9.9-3.9L146.1,139.6L146.1,139.6z
				 M164.4,210.9c0-4.5-0.9-8.6-2.8-12.4c-1.9-3.8-5-5.8-9.3-5.9h-0.6h-5.5v34.7h5.5c4.6,0,7.9-1.6,9.9-4.8
				C163.4,219.4,164.4,215.5,164.4,210.9z"/>
		</g>
		<g>
			<path class="st1" d="M197.3,247.5V132.3l-5.5-12.8h27.4h5.5l-5.5,12.8v95.1h20.1l12.8-5.5v25.6H197.3z"/>
		</g>
		<g>
			<path class="st1" d="M283.1,218.2c0,2.7,0.8,4.9,2.5,6.6c1.7,1.7,3.9,2.5,6.6,2.5s4.9-0.8,6.6-2.5s2.5-3.9,2.5-6.6v-85.9
				l-5.5-12.8h32.9l-5.5,12.8v84.1c0,11-2.6,18.9-7.9,23.8c-5.3,4.9-13,7.3-23.2,7.3s-17.9-2.4-23.2-7.3c-5.3-4.9-7.9-12.8-7.9-23.8
				v-84.1l-5.5-12.8h5.5h21.9h5.5l-5.5,12.8v85.9H283.1z"/>
		</g>
		<g>
			<path class="st1" d="M362,139.6v34.7h16.5l12.8-5.5v31.1l-12.8-5.5H362v32.9h23.8l12.8-5.5v25.6h-64l5.5-12.8V132.3l-5.5-12.8
				h5.5h58.5v25.6l-12.8-5.5H362z"/>
		</g>
		<g>
			<path class="st1" d="M493.6,148.7c0-2.7-0.8-4.9-2.5-6.6c-1.7-1.7-3.9-2.5-6.6-2.5s-4.9,0.8-6.6,2.5s-2.5,3.9-2.5,6.6v69.5
				c0,2.7,0.8,4.9,2.5,6.6c1.7,1.7,3.9,2.5,6.6,2.5s4.9-0.8,6.6-2.5s2.5-3.9,2.5-6.6v-12.8h21.9v11c0,11-2.6,18.9-7.9,23.8
				c-5.3,4.9-13,7.3-23.2,7.3s-17.9-2.4-23.2-7.3c-5.3-4.9-7.9-12.8-7.9-23.8v-65.8c0-11,2.6-18.9,7.9-23.8c5.3-4.9,13-7.3,23.2-7.3
				s17.9,2.4,23.2,7.3c5.3,4.9,7.9,12.8,7.9,23.8v11h-27.4L493.6,148.7z M493.6,218.2l-5.5-12.8h5.5V218.2z"/>
		</g>
		<g>
			<path class="st1" d="M558.3,119.5c10.2,0,17.9,2.4,23.2,7.3c5.3,4.9,7.9,12.8,7.9,23.8v65.8c0,11-2.6,18.9-7.9,23.8
				s-13,7.3-23.2,7.3h-1.6c-10.2,0-17.9-2.4-23.2-7.3s-7.9-12.8-7.9-23.8v-65.8c0-11,2.6-18.9,7.9-23.8c5.3-4.9,13-7.3,23.2-7.3
				H558.3z M567.4,148.7c0-2.7-0.8-4.9-2.5-6.6c-1.7-1.7-3.9-2.5-6.6-2.5h-1.6c-2.7,0-4.9,0.8-6.6,2.5c-1.7,1.7-2.5,3.9-2.5,6.6
				v69.5c0,2.7,0.8,4.9,2.5,6.6c1.7,1.7,3.9,2.5,6.6,2.5h1.6c2.7,0,4.9-0.8,6.6-2.5c1.7-1.7,2.5-3.9,2.5-6.6V148.7z"/>
		</g>
		<g>
			<path class="st1" d="M625.8,119.5c12.9,0,21.9,3,27,8.9c5.1,6,7.7,15.8,7.7,29.5v5.5c0,13.7-2.6,23.5-7.7,29.5
				c-5.1,6-14.2,8.9-27,8.9h-3.7v32.9l5.5,12.8h-32.9l5.5-12.8V132.3l-5.5-12.8h5.5H625.8z M622.2,139.6v42.1h3.7
				c4.6,0,7.9-1.6,9.9-4.8s2.9-7.1,2.9-11.7V156c0-4.6-1-8.5-2.9-11.7c-2-3.2-5.3-4.8-9.9-4.8h-3.7V139.6z"/>
		</g>
		<g>
			<path class="st1" d="M696.1,119.5c12.9,0,21.9,3,27,8.9c5.1,6,7.7,15.8,7.7,29.5v5.5c0,13.7-2.6,23.5-7.7,29.5
				c-5.2,6-14.2,8.9-27,8.9h-3.7v32.9l5.5,12.8H665l5.5-12.8V132.3l-5.5-12.8h5.5H696.1z M692.4,139.6v42.1h3.7
				c4.6,0,7.9-1.6,9.9-4.8s2.9-7.1,2.9-11.7V156c0-4.6-1-8.5-2.9-11.7c-2-3.2-5.3-4.8-9.9-4.8h-3.7V139.6z"/>
		</g>
		<g>
			<path class="st1" d="M762.7,139.6v34.7h16.5l12.8-5.5v31.1l-12.8-5.5h-16.5v32.9h23.8l12.8-5.5v25.6h-64l5.5-12.8V132.3
				l-5.5-12.8h5.5h58.5v25.6l-12.8-5.5H762.7z"/>
		</g>
		<g>
			<path class="st1" d="M840.5,119.5c12.9,0,21.9,3,27,8.9c5.1,6,7.7,15.8,7.7,29.5v5.5c0,9.8-1.3,17.5-3.8,23.2s-6.7,9.8-12.5,12.2
				l13.4,36.4l8.9,12.4h-32.5l-0.2-12.6l-12.4-33.1H835v32.9l5.5,12.8h-32.9l5.5-12.8V132.3l-5.5-12.8H840.5z M835,139.6v42.1h5.5
				c4.6,0,7.9-1.6,9.9-4.8s2.9-7.1,2.9-11.7V156c0-4.6-1-8.5-2.9-11.7c-2-3.2-5.3-4.8-9.9-4.8H835V139.6z"/>
		</g>
	</g>
	<g>
		<rect x="100" y="86.1" class="st1" width="800" height="10.7"/>
	</g>
	<g>
		<rect x="100" y="100.8" class="st1" width="800" height="5.3"/>
	</g>
	<g>
		<g>
			<path class="st1" d="M439.5,278.2v6.1h2.9l2.2-1v5.4l-2.2-1h-2.9v5.8h4.2l2.2-1v4.5h-11.2l1-2.2V277l-1-2.2h1h10.2v4.5l-2.2-1
				L439.5,278.2L439.5,278.2z"/>
		</g>
		<g>
			<path class="st1" d="M455.6,292c0,0.5,0.1,0.9,0.4,1.2c0.3,0.3,0.7,0.4,1.2,0.4h0.1c0.6,0,1.1-0.2,1.3-0.5
				c0.2-0.3,0.3-0.8,0.3-1.4s-0.2-1.2-0.5-1.8c-0.4-0.5-0.8-1.1-1.3-1.6s-1.1-1.1-1.7-1.6s-1.2-1.1-1.7-1.7s-1-1.3-1.3-2
				c-0.4-0.7-0.5-1.6-0.5-2.5c0-1.9,0.5-3.4,1.5-4.3c1-1,2.4-1.4,4.1-1.4c1.9,0,3.3,0.4,4.1,1.3c0.9,0.9,1.3,2.4,1.3,4.5v1.6H458
				l1-2.2c0-0.5-0.2-1-0.4-1.2c-0.2-0.3-0.6-0.4-1.2-0.4s-1.1,0.2-1.4,0.5s-0.4,0.8-0.4,1.4s0.2,1.2,0.5,1.7c0.4,0.5,0.8,1,1.3,1.5
				s1.1,1,1.7,1.5s1.2,1.1,1.7,1.7s1,1.3,1.3,2.1c0.4,0.8,0.5,1.7,0.5,2.7c0,1.9-0.5,3.4-1.4,4.3c-0.9,1-2.3,1.4-4.1,1.4H457
				c-1.8,0-3.1-0.4-4.1-1.3c-0.9-0.9-1.4-2.2-1.4-4.2v-1.9h4.8L455.6,292z"/>
		</g>
		<g>
			<path class="st1" d="M478.7,274.7v4.5l-2.2-1h-1v16.6l1,2.2h-5.8l1-2.2v-16.6h-1l-2.2,1v-4.5H478.7z"/>
		</g>
		<g>
			<path class="st1" d="M487.7,295.2c0,0.6-0.2,1.1-0.7,1.6c-0.4,0.4-1,0.7-1.6,0.7s-1.1-0.2-1.6-0.7c-0.4-0.4-0.7-1-0.7-1.6
				s0.2-1.1,0.7-1.6c0.4-0.4,1-0.7,1.6-0.7s1.1,0.2,1.6,0.7S487.7,294.6,487.7,295.2z"/>
		</g>
		<g>
			<path class="st1" d="M504,297.1v-1.9c0-1,0.2-2,0.5-2.9s0.8-1.8,1.3-2.6c0.5-0.8,1.1-1.6,1.7-2.4s1.2-1.5,1.7-2.2s1-1.4,1.3-2
				c0.3-0.7,0.5-1.3,0.5-2c0-1-0.1-1.7-0.4-2.2s-0.7-0.7-1.2-0.7s-0.9,0.2-1.2,0.6c-0.3,0.4-0.4,1-0.4,1.6l1,2.2H504v-1.9
				c0-2.1,0.5-3.6,1.4-4.6s2.3-1.5,4.1-1.5c1.8,0,3.1,0.6,4.1,1.7c0.9,1.1,1.4,2.8,1.4,5c0,1.1-0.3,2.3-0.8,3.3
				c-0.5,1.1-1.2,2.1-1.9,3.1s-1.5,2-2.2,2.9s-1.3,1.9-1.7,2.7h4.3l2.2-1v4.5H504V297.1z"/>
		</g>
		<g>
			<path class="st1" d="M526.6,274.7c1.8,0,3.1,0.4,4.1,1.3c0.9,0.9,1.4,2.2,1.4,4.2v11.5c0,1.9-0.5,3.3-1.4,4.2
				c-0.9,0.9-2.3,1.3-4.1,1.3h-0.3c-1.8,0-3.1-0.4-4.1-1.3c-0.9-0.9-1.4-2.2-1.4-4.2v-11.5c0-1.9,0.5-3.3,1.4-4.2
				c0.9-0.9,2.3-1.3,4.1-1.3H526.6z M528.2,279.8c0-0.5-0.1-0.9-0.4-1.2c-0.3-0.3-0.7-0.4-1.2-0.4h-0.3c-0.5,0-0.9,0.1-1.2,0.4
				s-0.4,0.7-0.4,1.2V292c0,0.5,0.1,0.9,0.4,1.2c0.3,0.3,0.7,0.4,1.2,0.4h0.3c0.5,0,0.9-0.1,1.2-0.4s0.4-0.7,0.4-1.2V279.8z"/>
		</g>
		<g>
			<path class="st1" d="M537.8,297.1v-1.9c0-1,0.2-2,0.5-2.9s0.8-1.8,1.3-2.6c0.5-0.8,1.1-1.6,1.7-2.4c0.6-0.8,1.2-1.5,1.7-2.2
				s1-1.4,1.3-2c0.3-0.7,0.5-1.3,0.5-2c0-1-0.1-1.7-0.4-2.2c-0.3-0.5-0.7-0.7-1.2-0.7s-0.9,0.2-1.2,0.6s-0.4,1-0.4,1.6l1,2.2h-4.8
				v-1.9c0-2.1,0.5-3.6,1.4-4.6s2.3-1.5,4.1-1.5s3.1,0.6,4.1,1.7c0.9,1.1,1.4,2.8,1.4,5c0,1.1-0.3,2.3-0.8,3.3
				c-0.5,1.1-1.2,2.1-1.9,3.1s-1.5,2-2.2,2.9s-1.3,1.9-1.7,2.7h4.3l2.2-1v4.5h-10.9V297.1z"/>
		</g>
		<g>
			<path class="st1" d="M554.4,289.1h3.8h1l-1,2.2c0,0.7,0.2,1.2,0.5,1.6s0.6,0.6,1.1,0.6c0.6,0,1-0.3,1.2-0.8
				c0.2-0.6,0.4-1.2,0.4-2c0-0.4,0-0.8,0-1.2c0-0.4-0.1-0.7-0.2-1c-0.1-0.3-0.2-0.5-0.4-0.7s-0.5-0.3-0.9-0.3h-0.1h-1V284h1
				c0.4,0,0.7-0.1,0.9-0.3c0.2-0.2,0.4-0.4,0.5-0.7c0.1-0.3,0.2-0.7,0.2-1c0-0.4,0-0.8,0-1.2c0-0.8-0.1-1.4-0.4-1.9
				c-0.2-0.4-0.7-0.7-1.2-0.7c-0.6,0-1,0.2-1.2,0.7s-0.4,1.1-0.4,1.9l0.6,1.6h-4.5v-1.6c0-2.1,0.4-3.6,1.2-4.6s2.2-1.5,4.2-1.5
				s3.4,0.5,4.2,1.5s1.2,2.5,1.2,4.6c0,1.1-0.2,2.1-0.6,2.9s-0.8,1.5-1.4,2c0.5,0.5,1,1.2,1.4,2s0.6,1.8,0.6,2.9
				c0,2.1-0.4,3.7-1.2,4.8c-0.8,1.1-2.2,1.6-4.2,1.6s-3.4-0.5-4.2-1.6s-1.2-2.7-1.2-4.8v-1.5H554.4z"/>
		</g>
	</g>
	<g>
		<g>
			<path class="st1" d="M698.3,293.5l12.4-8.8l10.4,14.6c3.1,4.4,4.3,8.3,3.6,11.7c-0.7,3.4-3.1,6.6-7.2,9.5l-0.7,0.5
				c-4.1,2.9-7.8,4.1-11.3,3.6c-3.5-0.4-6.8-2.9-9.9-7.2l-18.7-26.3c-3.1-4.4-4.3-8.3-3.6-11.7c0.7-3.4,3.1-6.6,7.2-9.5l0.7-0.5
				c4.1-2.9,7.8-4.1,11.3-3.6c3.5,0.4,6.8,2.9,9.9,7.2l3.1,4.4l-11,7.8l-1.4-6.7c-0.8-1.1-1.7-1.7-2.9-1.9c-1.2-0.2-2.3,0.1-3.4,0.9
				l-0.7,0.5c-1.1,0.8-1.7,1.7-1.9,2.9c-0.2,1.2,0.1,2.3,0.9,3.4l19.7,27.8c0.8,1.1,1.7,1.7,2.9,1.9c1.2,0.2,2.3-0.1,3.4-0.9
				l0.7-0.5c1.1-0.8,1.7-1.7,1.9-2.9s-0.1-2.3-0.9-3.4l-5.2-7.3l-2.1,4.8l-1.6-2.2L698.3,293.5z"/>
		</g>
		<g>
			<path class="st1" d="M691.2,331.7l4.6,3.6l-11,6l-23-22.3l11.7,21.4l5.4,4.2l-14.1,7.8l-0.7-6.8l-24.2-44l-5.4-4.2l2.4-1.3l9-4.9
				l23.1,22.4l-11.8-21.5l-5.4-4.2l11.8-6.5L691.2,331.7z M663.6,281.5l2.4-1.3l0.7,6.8L663.6,281.5z"/>
		</g>
		<g>
			<path class="st1" d="M621.5,309.6l-5-4.7l14.8-6.4v6.8l19.9,46.1l5,4.7l-14.8,6.4v-6.8L621.5,309.6z"/>
		</g>
		<g>
			<path class="st1" d="M612.1,340.9l15.7,20.6l6,4.4l-15.3,5l-1.8-5.9l-12.4-16.2l5.9,18.2l4.5,5.1l-15.3,5l0.6-6.8l-15.5-47.7
				l-4.5-5.1l15.3-5l-0.6,6.8l6.4,19.6l0.2-21.7l-2.1-5.9l2.2-0.7l11.1-3.6l2.1-0.7l-2.1,7.3L612.1,340.9z"/>
		</g>
		<g>
			<path class="st1" d="M557.8,321.9c6.2-1.2,10.8-0.6,13.8,1.8s5.2,6.9,6.4,13.5l0.5,2.6c0.9,4.7,1,8.5,0.3,11.5s-2.3,5.3-4.9,7
				l9.8,16.3l5.4,5.1l-15.6,3l-1.3-6l-9-14.8l-0.6,0.1l3,15.8l3.8,5.7l-15.8,3l1.5-6.7l-9.5-49.3l-3.8-5.7L557.8,321.9z
				 M557.1,332.1l3.9,20.2l2.6-0.5c2.2-0.4,3.6-1.5,4.3-3.2s0.8-3.7,0.3-5.9l-0.8-4.4c-0.4-2.2-1.3-4-2.5-5.3
				c-1.2-1.4-3-1.8-5.2-1.4L557.1,332.1z"/>
		</g>
		<g>
			<path class="st1" d="M524.1,326.3c5-0.4,8.8,0.5,11.6,2.7s4.3,6,4.7,11.3l2.4,32.2c0.4,5.4-0.6,9.3-3,11.9s-6.1,4.1-11.1,4.4
				l-0.8,0.1c-5,0.4-8.8-0.5-11.6-2.7s-4.3-6-4.7-11.3l-2.4-32.2c-0.4-5.4,0.6-9.3,3-11.9s6.1-4.1,11.1-4.4L524.1,326.3z
				 M529.6,340.3c-0.1-1.3-0.6-2.4-1.5-3.1c-0.9-0.8-2-1.1-3.3-1l-0.8,0.1c-1.3,0.1-2.4,0.6-3.1,1.5s-1.1,2-1,3.3l2.5,34
				c0.1,1.3,0.6,2.4,1.5,3.1c0.9,0.8,2,1.1,3.3,1l0.8-0.1c1.3-0.1,2.4-0.6,3.1-1.5c0.8-0.9,1.1-2,1-3.3L529.6,340.3z"/>
		</g>
		<g>
			<path class="st1" d="M457.5,388.1l1.9-6l-2.2-50.7l-2.4-6.3l12.9,0.8l1.1,37.6l6-30.9l-1-6.3l11.9,0.7l2.6,37.7l5.6-37.2
				l12.9,0.8l-3.3,6l-8.3,50.1l1.2,6.2l-14.8-0.9L479,356l-6.7,33.1L457.5,388.1z"/>
		</g>
		<g>
			<path class="st1" d="M434.5,320.4c6.2,1.3,10.2,3.6,12.1,7s2.1,8.3,0.7,14.9l-5.2,24.5c-1.4,6.6-3.6,11-6.7,13.3
				s-7.7,2.9-13.9,1.6l-16.7-3.5l3.8-5.3l10.4-49.6l-1.3-6.5L434.5,320.4z M428.9,329.3l-8.9,42.1l3.6,0.8c2.2,0.5,3.9,0,5.2-1.3
				c1.3-1.3,2.1-3.1,2.6-5.3l5.5-26.3c0.5-2.2,0.4-4.2-0.2-5.9c-0.6-1.7-2-2.8-4.2-3.3L428.9,329.3z"/>
		</g>
		<g>
			<path class="st1" d="M400.5,311.1c4.7,1.6,7.9,3.9,9.6,7s1.7,7.2,0,12.3L399.8,361c-1.7,5.1-4.2,8.4-7.4,9.8
				c-3.2,1.4-7.2,1.4-11.9-0.2l-0.8-0.3c-4.7-1.6-7.9-3.9-9.6-7s-1.7-7.2,0-12.3l10.3-30.6c1.7-5.1,4.2-8.4,7.4-9.8
				c3.2-1.4,7.2-1.4,11.9,0.2L400.5,311.1z M400.2,326.1c0.4-1.3,0.4-2.4-0.1-3.5c-0.5-1-1.4-1.8-2.7-2.2l-0.8-0.3
				c-1.3-0.4-2.4-0.4-3.5,0.1s-1.8,1.4-2.2,2.7L380,355.2c-0.4,1.3-0.4,2.4,0.1,3.5s1.4,1.8,2.7,2.2l0.8,0.3
				c1.3,0.4,2.4,0.4,3.5-0.1s1.8-1.4,2.2-2.7L400.2,326.1z"/>
		</g>
		<g>
			<path class="st1" d="M367.3,297.7c4.5,2.1,7.4,4.8,8.7,8.1c1.3,3.3,0.8,7.3-1.5,12.2l-13.7,29.2c-2.3,4.9-5.1,7.8-8.5,8.9
				s-7.3,0.5-11.8-1.6l-0.7-0.3c-4.5-2.1-7.4-4.8-8.7-8.1c-1.3-3.3-0.8-7.3,1.5-12.2l13.7-29.2c2.3-4.9,5.1-7.8,8.5-8.9
				s7.3-0.5,11.8,1.6L367.3,297.7z M365.2,312.6c0.6-1.2,0.6-2.4,0.3-3.5c-0.4-1.1-1.2-1.9-2.4-2.5l-0.7-0.3
				c-1.2-0.6-2.4-0.6-3.5-0.3c-1.1,0.4-1.9,1.2-2.5,2.4l-14.5,30.8c-0.6,1.2-0.7,2.4-0.3,3.5c0.4,1.1,1.2,1.9,2.4,2.5l0.7,0.3
				c1.2,0.6,2.4,0.6,3.5,0.3c1.1-0.4,1.9-1.2,2.5-2.4L365.2,312.6z"/>
		</g>
		<g>
			<path class="st1" d="M278.9,318.6l4.6-4.3l23.1-45.2l1-6.7l10.8,7.1l-17.6,33.2l20.4-23.9l2.3-6l10,6.5l-16.4,34l23.3-29.5
				l10.8,7.1l-5.8,3.6l-32,39.4l-2,6l-12.4-8.1l14.3-30.6l-22.2,25.5L278.9,318.6z"/>
		</g>
	</g>
	<g>
		<path class="st1" d="M500,423.9c-91.7,0-178.3-29.6-250.6-85.7l-6.7-5.2v-52.2H100v-10.7h153.3v57.7l2.6,2
			c70.4,54.6,154.8,83.4,244.1,83.4c89.2,0,176.7-30.3,246.7-85.4v-57.6H900v10.7H757.3V333l-2,1.6
			C683.2,392.2,592.5,423.9,500,423.9z"/>
	</g>
	<g>
		<path class="st1" d="M500,409.2c-88.4,0-172-28.6-241.6-82.6l-1-0.8v-59.7H100v-5.3h162.7v62.4c68.5,52.8,150.6,80.7,237.3,80.7
			c86.8,0,168.8-27.9,237.3-80.7v-62.4H900v5.3H742.7v59.7l-1,0.8C672,380.7,588.4,409.2,500,409.2z"/>
	</g>
</g>
</svg>
