<?xml version="1.0" encoding="utf-8"?>
<!-- Generator: Adobe Illustrator 28.1.0, SVG Export Plug-In . SVG Version: 6.00 Build 0)  -->
<svg version="1.1" id="Layer_1" xmlns="http://www.w3.org/2000/svg" xmlns:xlink="http://www.w3.org/1999/xlink" x="0px" y="0px"
	 viewBox="0 0 318.2 500" style="enable-background:new 0 0 318.2 500;" xml:space="preserve">
<style type="text/css">
	.st0{fill:#D26E3C;}
	.st1{fill:#0E3159;}
	.st2{fill:#F4EDED;}
</style>
<rect class="st0" width="318.2" height="500"/>
<g>
	<g>
		<path class="st1" d="M81.5,83.4l-6.5-15.3h6.5h32.7c15.3,0,26.1,3.4,32.2,10.1c6.1,6.7,9.2,17.2,9.2,31.4c0,7.8-1.5,14.4-4.4,20
			c-2.9,5.6-6.5,10.2-10.7,13.9c4.2,3.7,7.8,8.3,10.7,13.8c2.9,5.5,4.4,12.1,4.4,19.9c0,14.2-3.1,25-9.2,32.5
			c-6.1,7.4-16.9,11.1-32.2,11.1H74.9l6.5-15.3V83.4z M107.6,92.2v39.2h6.5c2.7,0,5.1-0.6,7-1.8c1.9-1.2,3.5-2.9,4.7-5
			c1.2-2.1,2.1-4.4,2.7-7c0.6-2.6,0.8-5.2,0.8-8c0-5.5-1.2-9.8-3.5-12.8c-2.3-3.1-6.3-4.6-11.8-4.6H107.6z M129.4,177.2
			c0-5.3-1.1-10.3-3.4-14.8c-2.3-4.5-6-6.9-11.1-7h-0.7h-6.5v41.4h6.5c5.5,0,9.4-1.9,11.8-5.7C128.3,187.3,129.4,182.7,129.4,177.2z
			"/>
		<path class="st1" d="M215.5,103.1c0-3.2-1-5.9-3-7.9c-2-2-4.6-3-7.9-3c-3.2,0-5.9,1-7.9,3c-2,2-3,4.6-3,7.9v82.9
			c0,3.2,1,5.9,3,7.9c2,2,4.6,3,7.9,3c3.2,0,5.9-1,7.9-3c2-2,3-4.6,3-7.9v-15.3h26.2v13.1c0,13.1-3.1,22.5-9.4,28.3
			c-6.3,5.8-15.5,8.7-27.6,8.7s-21.3-2.9-27.6-8.7c-6.3-5.8-9.4-15.3-9.4-28.3v-78.5c0-13.1,3.1-22.5,9.4-28.3
			c6.3-5.8,15.5-8.7,27.6-8.7s21.3,2.9,27.6,8.7c6.3,5.8,9.4,15.3,9.4,28.3v13.1H209L215.5,103.1z M215.5,185.9l-6.5-15.3h6.5V185.9
			z"/>
	</g>
	<g>
		<path class="st2" d="M97.5,431.8l4.8-19.4L85.4,251.1l-8.9-19.7h41.4L128.7,351l13-99.6l-4.5-20h38.2L191.1,351l10.8-119.6h41.4
			l-9.2,19.7l-16.9,161.3l5.1,19.4h-47.4l-15-106.9l-15,106.9H97.5z"/>
	</g>
</g>
</svg>
