<?xml version="1.0" encoding="utf-8"?>
<!-- Generator: Adobe Illustrator 25.2.3, SVG Export Plug-In . SVG Version: 6.00 Build 0)  -->
<svg version="1.1" id="Layer_1" xmlns="http://www.w3.org/2000/svg" xmlns:xlink="http://www.w3.org/1999/xlink" x="0px" y="0px"
	 viewBox="0 0 1366 768" style="enable-background:new 0 0 1366 768;" xml:space="preserve">
<style type="text/css">
	.st0{fill:#FFFFFF;}
	.st1{fill:#EAEAEA;}
	.st2{fill:none;stroke:#231F20;stroke-width:1.2652;stroke-miterlimit:10;}
</style>
<rect class="st0" width="1366" height="768"/>
<g>
	<polygon class="st1" points="1282.7,156.3 1282.7,399.2 963.8,399.2 963.8,551 918.3,551 918.3,718 629.8,718 629.8,551 599.5,551 
		599.5,338.5 637.5,338.5 637.5,353.7 728.5,353.7 728.5,376.4 774.1,376.4 774.1,353.7 827.2,353.7 827.2,201.8 774.1,201.8 
		774.1,179 728.5,179 728.5,201.8 660.2,201.8 660.2,141.1 827.2,141.1 827.2,156.3 	"/>
	<polyline class="st2" points="170.6,459.9 166.8,459.9 166.8,444.7 204.8,444.7 204.8,459.9 178.2,459.9 	"/>
	<line class="st2" x1="121.3" y1="361.2" x2="121.3" y2="338.5"/>
	<polyline class="st2" points="121.3,330.8 189.6,330.8 189.6,368.8 121.3,368.8 	"/>
	<polyline class="st2" points="197.2,292.9 121.3,292.9 121.3,281.6 	"/>
	<polyline class="st2" points="121.3,228.4 121.3,217 204.8,217 204.8,292.9 	"/>
	<line class="st2" x1="121.3" y1="273.9" x2="121.3" y2="235.9"/>
	<polyline class="st2" points="121.3,217 189.6,217 189.6,179 121.3,179 	"/>
	<line class="st2" x1="121.3" y1="186.7" x2="121.3" y2="209.4"/>
	<line class="st2" x1="121.3" y1="148.7" x2="121.3" y2="171.5"/>
	<polyline class="st2" points="121.3,179 189.6,179 189.6,141.1 121.3,141.1 121.3,141.1 	"/>
	<polyline class="st2" points="121.3,133.5 121.3,125.9 189.6,125.9 189.6,141.1 121.3,141.1 	"/>
	<polyline class="st2" points="121.3,118.3 121.3,110.7 189.6,110.7 189.6,125.9 121.3,125.9 	"/>
	<polyline class="st2" points="178.2,95.5 204.8,95.5 204.8,110.7 166.8,110.7 166.8,95.5 170.6,95.5 	"/>
	<polyline class="st2" points="106.1,118.3 98.5,118.3 98.5,95.5 166.8,95.5 166.8,110.7 121.3,110.7 121.3,118.3 113.7,118.3 	"/>
	<rect x="280.7" y="133.5" class="st2" width="15.2" height="38"/>
	<polyline class="st2" points="265.5,217 257.9,217 257.9,194.2 189.6,194.2 189.6,110.7 204.8,110.7 204.8,95.5 273.1,95.5 
		273.1,133.5 280.7,133.5 280.7,171.5 295.8,171.5 295.8,217 273.1,217 	"/>
	<polyline class="st2" points="257.9,277.7 204.8,277.7 204.8,217 189.6,217 189.6,194.2 257.9,194.2 257.9,270.2 	"/>
	<polyline class="st2" points="280.7,232.2 273.1,232.2 273.1,217 295.8,217 295.8,232.2 288.3,232.2 	"/>
	<polyline class="st2" points="299.6,239.8 303.5,239.8 303.5,217 295.8,217 295.8,239.8 273.1,239.8 	"/>
	<polyline class="st2" points="314.9,239.8 303.5,239.8 303.5,217 318.7,217 318.7,239.8 318.7,239.8 	"/>
	<polyline class="st2" points="212.3,292.9 204.8,292.9 204.8,277.7 220,277.7 220,292.9 216.1,292.9 	"/>
	<polyline class="st2" points="288.3,365.1 288.3,406.8 273.1,406.8 273.1,429.5 265.5,429.5 265.5,459.9 204.8,459.9 204.8,444.7 
		166.8,444.7 166.8,459.9 98.5,459.9 98.5,433.4 	"/>
	<polyline class="st2" points="284.4,353.7 288.3,353.7 288.3,357.4 	"/>
	<polyline class="st2" points="227.5,330.8 242.7,330.8 242.7,376.4 273.1,376.4 273.1,353.7 276.9,353.7 	"/>
	<polyline class="st2" points="98.5,425.8 98.5,368.8 189.6,368.8 189.6,330.8 220,330.8 	"/>
	<rect x="273.1" y="406.8" class="st2" width="15.2" height="22.8"/>
	<polyline class="st2" points="311,402.9 311,429.5 288.3,429.5 288.3,368.8 311,368.8 311,395.4 	"/>
	<polyline class="st2" points="311,365.1 311,368.8 288.3,368.8 288.3,365.1 	"/>
	<polyline class="st2" points="288.3,357.4 288.3,353.7 311,353.7 311,357.4 	"/>
	<polyline class="st2" points="273.1,338.5 273.1,376.4 242.7,376.4 242.7,323.3 246.6,323.3 	"/>
	<line class="st2" x1="269.3" y1="323.3" x2="273.1" y2="323.3"/>
	<line class="st2" x1="292.1" y1="338.5" x2="284.4" y2="338.5"/>
	<line class="st2" x1="307.2" y1="338.5" x2="299.6" y2="338.5"/>
	<polyline class="st2" points="284.4,353.7 318.7,353.7 318.7,338.5 314.9,338.5 	"/>
	<polyline class="st2" points="276.9,338.5 273.1,338.5 273.1,353.7 276.9,353.7 	"/>
	<polyline class="st2" points="349,323.3 364.2,323.3 364.2,353.7 333.8,353.7 333.8,323.3 341.4,323.3 	"/>
	<polyline class="st2" points="379.3,323.3 364.2,323.3 364.2,353.7 402.2,353.7 402.2,323.3 387,323.3 	"/>
	<polyline class="st2" points="349,323.3 364.2,323.3 364.2,330.8 349,330.8 349,327.1 	"/>
	<polyline class="st2" points="379.3,327.1 379.3,330.8 364.2,330.8 364.2,323.3 379.3,323.3 	"/>
	<polyline class="st2" points="440.1,376.4 424.9,376.4 424.9,353.7 447.7,353.7 447.7,376.4 	"/>
	<polyline class="st2" points="462.8,376.4 447.7,376.4 447.7,353.7 470.5,353.7 470.5,376.4 	"/>
	<polyline class="st2" points="447.7,399.2 440.1,399.2 440.1,414.3 371.8,414.3 371.8,353.7 402.2,353.7 402.2,323.3 455.3,323.3 
		459.1,327.1 	"/>
	<polyline class="st2" points="470.5,376.4 470.5,399.2 455.3,399.2 	"/>
	<line class="st2" x1="447.7" y1="376.4" x2="462.8" y2="376.4"/>
	<polyline class="st2" points="466.6,334.6 470.5,338.5 470.5,353.7 424.9,353.7 424.9,376.4 440.1,376.4 	"/>
	<polyline class="st2" points="447.7,399.2 440.1,399.2 440.1,414.3 470.5,414.3 470.5,399.2 455.3,399.2 	"/>
	<polyline class="st2" points="470.5,425.8 470.5,459.9 424.9,459.9 424.9,414.3 470.5,414.3 470.5,418.1 	"/>
	<polyline class="st2" points="470.5,471.3 470.5,505.5 371.8,505.5 371.8,414.3 424.9,414.3 424.9,459.9 470.5,459.9 470.5,463.7 	
		"/>
	<polyline class="st2" points="485.7,478.9 485.7,475.1 523.6,475.1 523.6,505.5 493.2,505.5 	"/>
	<polyline class="st2" points="534.9,505.5 523.6,505.5 523.6,475.1 485.7,475.1 485.7,448.6 	"/>
	<polyline class="st2" points="485.7,440.9 485.7,437.2 561.5,437.2 561.5,422 599.5,422 599.5,505.5 542.6,505.5 	"/>
	<polyline class="st2" points="554,505.5 599.5,505.5 599.5,520.7 554,520.7 554,513 	"/>
	<polyline class="st2" points="500.8,357.4 500.8,361.2 485.7,361.2 485.7,338.5 489.4,338.5 	"/>
	<polyline class="st2" points="497.1,338.5 500.8,338.5 500.8,349.9 	"/>
	<polyline class="st2" points="485.7,368.8 485.7,361.2 500.8,361.2 500.8,376.4 485.7,376.4 485.7,372.6 	"/>
	<polyline class="st2" points="519.8,300.5 523.6,300.5 523.6,255 493.2,255 493.2,300.5 497.1,300.5 	"/>
	<polyline class="st2" points="455.3,72.8 440.1,72.8 440.1,50 470.5,50 470.5,72.8 462.8,72.8 	"/>
	<polyline class="st2" points="531.2,72.8 523.6,72.8 523.6,50 538.8,50 538.8,72.8 	"/>
	<polyline class="st2" points="546.3,72.8 538.8,72.8 538.8,50 554,50 554,72.8 	"/>
	<polyline class="st2" points="561.5,72.8 554,72.8 554,50 569.2,50 569.2,72.8 	"/>
	<polyline class="st2" points="576.7,72.8 569.2,72.8 569.2,50 584.3,50 584.3,72.8 	"/>
	<polyline class="st2" points="591.9,72.8 584.3,72.8 584.3,50 599.5,50 599.5,72.8 	"/>
	<polyline class="st2" points="493.2,50 523.6,50 523.6,72.8 485.7,72.8 485.7,68.9 	"/>
	<rect x="485.7" y="72.8" class="st2" width="38" height="15.2"/>
	<polyline class="st2" points="424.9,91.8 424.9,95.5 402.2,95.5 402.2,72.8 424.9,72.8 424.9,84.1 	"/>
	<polyline class="st2" points="424.9,99.4 424.9,95.5 402.2,95.5 402.2,118.3 424.9,118.3 424.9,114.6 	"/>
	<polyline class="st2" points="424.9,122.1 424.9,118.3 402.2,118.3 402.2,163.8 424.9,163.8 424.9,160.1 	"/>
	<polyline class="st2" points="470.5,80.3 470.5,148.7 462.8,156.3 	"/>
	<line class="st2" x1="462.8" y1="72.8" x2="470.5" y2="72.8"/>
	<line class="st2" x1="436.3" y1="72.8" x2="455.3" y2="72.8"/>
	<polyline class="st2" points="443.9,175.2 424.9,194.2 402.2,194.2 402.2,72.8 428.7,72.8 	"/>
	<rect x="485.7" y="255" class="st2" width="7.6" height="45.5"/>
	<rect x="523.6" y="262.5" class="st2" width="7.6" height="30.3"/>
	<polyline class="st2" points="447.7,232.2 447.7,239.8 432.5,239.8 432.5,217 440.1,217 447.7,224.6 447.7,224.6 	"/>
	<polyline class="st2" points="447.7,262.5 447.7,262.5 432.5,262.5 432.5,285.3 440.1,285.3 447.7,277.7 447.7,270.2 	"/>
	<polyline class="st2" points="516,209.4 508.4,209.4 508.4,186.7 523.6,186.7 531.2,194.2 523.6,201.8 523.6,209.4 	"/>
	<polyline class="st2" points="531.2,292.9 523.6,292.9 523.6,300.5 519.8,300.5 	"/>
	<path class="st2" d="M538.8,232.2h7.6c12.6,0,22.8,6.8,22.8,15.2v22.8c0,12.6-13.6,22.8-30.3,22.8"/>
	<polyline class="st2" points="497.1,300.5 447.7,300.5 432.5,285.3 432.5,217 462.8,186.7 523.6,186.7 538.8,201.8 538.8,224.6 	
		"/>
	<polyline class="st2" points="614.7,220.8 614.7,217 599.5,217 599.5,232.2 614.7,232.2 614.7,228.4 	"/>
	<polyline class="st2" points="614.7,235.9 614.7,232.2 599.5,232.2 599.5,255 614.7,255 614.7,243.6 	"/>
	<rect x="599.5" y="300.5" class="st2" width="15.2" height="15.2"/>
	<polyline class="st2" points="614.7,338.5 614.7,315.7 599.5,315.7 599.5,338.5 607.1,338.5 	"/>
	<polyline class="st2" points="614.7,243.6 614.7,247.3 618.4,247.3 	"/>
	<line class="st2" x1="614.7" y1="228.4" x2="614.7" y2="235.9"/>
	<polyline class="st2" points="618.4,217 614.7,217 614.7,220.8 	"/>
	<polyline class="st2" points="633.6,247.3 637.5,247.3 637.5,217 633.6,217 	"/>
	<polyline class="st2" points="660.2,247.3 652.7,247.3 652.7,224.6 675.4,224.6 675.4,247.3 667.8,247.3 	"/>
	<polyline class="st2" points="641.2,239.8 637.5,239.8 637.5,213.2 	"/>
	<polyline class="st2" points="637.5,201.8 675.4,201.8 675.4,224.6 652.7,224.6 652.7,239.8 648.9,239.8 	"/>
	<polyline class="st2" points="637.5,327.1 637.5,338.5 626.1,338.5 	"/>
	<polyline class="st2" points="633.6,308.1 637.5,308.1 637.5,319.4 	"/>
	<polyline class="st2" points="618.4,338.5 614.7,338.5 614.7,308.1 618.4,308.1 	"/>
	<polyline class="st2" points="675.4,323.3 675.4,323.3 683,323.3 683,353.7 637.5,353.7 637.5,327.1 	"/>
	<polyline class="st2" points="637.5,319.4 637.5,315.7 675.4,315.7 	"/>
	<line class="st2" x1="645" y1="300.5" x2="675.4" y2="300.5"/>
	<polyline class="st2" points="675.4,308.1 675.4,315.7 637.5,315.7 637.5,304.3 	"/>
	<polygon class="st2" points="728.5,346 728.5,353.7 683,353.7 683,323.3 705.8,323.3 	"/>
	<polygon class="st2" points="728.5,209.4 728.5,201.8 675.4,201.8 675.4,232.2 705.8,232.2 	"/>
	<polygon class="st2" points="827.2,201.8 827.2,353.7 774.1,353.7 774.1,315.7 766.5,323.3 736.2,323.3 705.8,292.9 796.8,292.9 
		796.8,262.5 705.8,262.5 736.2,232.2 766.5,232.2 774.1,239.8 774.1,201.8 	"/>
	<polyline class="st2" points="705.8,262.5 796.8,262.5 796.8,292.9 705.8,292.9 	"/>
	<line class="st2" x1="614.7" y1="338.5" x2="618.4" y2="338.5"/>
	<polyline class="st2" points="170.6,459.9 98.5,459.9 98.5,444.7 83.3,444.7 83.3,433.4 	"/>
	<polyline class="st2" points="311,402.9 311,429.5 265.5,429.5 265.5,459.9 178.2,459.9 	"/>
	<line class="st2" x1="311" y1="365.1" x2="311" y2="395.4"/>
	<polyline class="st2" points="311,357.4 311,353.7 371.8,353.7 371.8,505.5 485.7,505.5 485.7,494.1 	"/>
	<line class="st2" x1="534.9" y1="505.5" x2="493.2" y2="505.5"/>
	<line class="st2" x1="554" y1="505.5" x2="542.6" y2="505.5"/>
	<polyline class="st2" points="607.1,338.5 599.5,338.5 599.5,520.7 554,520.7 554,513 	"/>
	<line class="st2" x1="618.4" y1="338.5" x2="614.7" y2="338.5"/>
	<polyline class="st2" points="637.5,201.8 728.5,201.8 728.5,179 774.1,179 774.1,201.8 827.2,201.8 827.2,353.7 774.1,353.7 
		774.1,376.4 728.5,376.4 728.5,353.7 637.5,353.7 637.5,338.5 626.1,338.5 	"/>
	<polyline class="st2" points="629.8,217 637.5,217 637.5,213.2 	"/>
	<polyline class="st2" points="493.2,50 599.5,50 599.5,217 618.4,217 	"/>
	<polyline class="st2" points="178.2,95.5 273.1,95.5 273.1,133.5 295.8,133.5 295.8,217 402.2,217 402.2,50 485.7,50 485.7,53.8 	
		"/>
	<polyline class="st2" points="98.5,122.1 98.5,95.5 170.6,95.5 	"/>
	<line class="st2" x1="98.5" y1="255" x2="98.5" y2="133.5"/>
	<line class="st2" x1="98.5" y1="285.3" x2="98.5" y2="273.9"/>
	<line class="st2" x1="98.5" y1="338.5" x2="98.5" y2="304.3"/>
	<polyline class="st2" points="83.3,425.8 83.3,414.3 98.5,414.3 98.5,346 	"/>
	<line class="st2" x1="276.9" y1="338.5" x2="273.1" y2="338.5"/>
	<line class="st2" x1="292.1" y1="338.5" x2="284.4" y2="338.5"/>
	<line class="st2" x1="307.2" y1="338.5" x2="299.6" y2="338.5"/>
	<line class="st2" x1="318.7" y1="338.5" x2="314.9" y2="338.5"/>
	<polyline class="st2" points="273.1,323.3 333.8,323.3 333.8,338.5 	"/>
	<line class="st2" x1="599.5" y1="106.9" x2="561.5" y2="106.9"/>
	<rect x="299.6" y="323.3" class="st2" width="34.1" height="7.6"/>
	<rect x="166.8" y="292.9" class="st2" width="26.6" height="15.2"/>
	<rect x="523.6" y="296.7" class="st2" width="26.6" height="15.2"/>
	<rect x="500.8" y="160.1" class="st2" width="26.6" height="15.2"/>
	<polyline class="st2" points="125.1,338.5 121.3,338.5 121.3,357.4 128.8,357.4 128.8,338.5 	"/>
	<line class="st2" x1="128.8" y1="330.8" x2="121.3" y2="330.8"/>
	<polyline class="st2" points="128.8,186.7 128.8,209.4 121.3,209.4 121.3,186.7 125.1,186.7 	"/>
	<polyline class="st2" points="125.1,171.5 121.3,171.5 121.3,148.7 128.8,148.7 128.8,171.5 	"/>
	<line class="st2" x1="485.7" y1="437.2" x2="485.7" y2="406.8"/>
	<polyline class="st2" points="428.7,72.8 402.2,72.8 402.2,50 440.1,50 440.1,72.8 436.3,72.8 	"/>
</g>
</svg>
