<?xml version="1.0" encoding="utf-8"?>
<!-- Generator: Adobe Illustrator 25.2.3, SVG Export Plug-In . SVG Version: 6.00 Build 0)  -->
<svg version="1.1" id="Layer_1" xmlns="http://www.w3.org/2000/svg" xmlns:xlink="http://www.w3.org/1999/xlink" x="0px" y="0px"
	 viewBox="0 0 1366 768" style="enable-background:new 0 0 1366 768;" xml:space="preserve">
<style type="text/css">
	.st0{fill:#FFFFFF;}
</style>
<rect class="st0" width="1366" height="768"/>
<g>
	<path d="M95.8,267L95.8,267c0,13.7,11.2,25,25,25h150v25h-150c-27.6,0-50-22.4-50-50l0,0c0-27.6,22.4-50,50-50h150v25h-150
		C107,242,95.8,253.1,95.8,267z"/>
	<path d="M270.8,67v25h-150c-13.8,0-25,11.1-25,25h-25c0-27.6,22.4-50,50-50H270.8z"/>
	<path d="M233.2,267L233.2,267c0,27.6,18.8,50,37.5,50v-25c-6.5,0-12.5-11.3-12.5-25l0,0c0-13.8,4.9-25,12.5-25v-25
		C252,217,233.2,239.4,233.2,267z"/>
	<rect x="70.8" y="117" width="25" height="150"/>
	<rect x="245.8" y="67" width="25" height="175"/>
</g>
<g>
	<path d="M297,633.6v25h-87.5c-13.7,0-25,11.1-25,25h-25c0-13.8,5.6-26.3,14.6-35.4c9.1-9,21.6-14.6,35.4-14.6H297z"/>
	<path d="M297,483.6v25h-87.5c-13.8,0-25,11.1-25,25h-25c0-27.6,22.4-50,50-50H297z"/>
	<rect x="159.5" y="533.6" width="25" height="150"/>
	<rect x="272" y="483.6" width="25" height="175"/>
	<path d="M47,633.6v25h87.5c13.7,0,25,11.1,25,25h25c0-13.8-5.6-26.3-14.6-35.4c-9.1-9-21.6-14.6-35.4-14.6H47z"/>
	<path d="M47,483.6v25h87.5c13.8,0,25,11.1,25,25h25c0-27.6-22.4-50-50-50H47z"/>
	<rect x="159.5" y="533.6" width="25" height="150"/>
	<rect x="47" y="483.6" transform="matrix(-1 -4.547486e-11 4.547486e-11 -1 118.9867 1142.1259)" width="25" height="175"/>
</g>
<g>
	<path d="M541,92h-91.2c-6.9,0-12.5,5.6-12.5,12.5v175c0,6.9,5.6,12.5,12.5,12.5h125c6.9,0,12.5-5.6,12.5-12.5V129L541,92z
		 M449.8,67h100l62.5,50v162.5c0,20.7-16.8,37.5-37.5,37.5h-125c-20.7,0-37.5-16.8-37.5-37.5v-175C412.2,83.8,429,67,449.8,67z"/>
	<path d="M549.7,254.5h-75v-50h75V254.5z M549.7,179.5h-75c-13.8,0-25,11.2-25,25v50c0,13.8,11.2,25,25,25h75c13.8,0,25-11.2,25-25
		v-50C574.7,190.7,563.6,179.5,549.7,179.5z"/>
	<path d="M549.7,142h-25c0-6.9-5.6-12.5-12.5-12.5c-7,0-12.5,5.6-12.5,12.5h-25c0-20.6,16.8-37.5,37.5-37.5
		C532.9,104.5,549.7,121.4,549.7,142z"/>
	<rect x="524.7" y="142" width="25" height="62.5"/>
	<rect x="474.8" y="142" width="25" height="62.5"/>
	<circle cx="512.2" cy="229.5" r="12.5"/>
</g>
<g>
	<path d="M728.8,254.5v-125c0-20.7,16.8-37.5,37.5-37.5h137.5c20.7,0,37.5,16.8,37.5,37.5v125c0,20.7-16.8,37.5-37.5,37.5H766.2
		C745.5,292,728.8,275.2,728.8,254.5z M753.8,254.5c0,6.9,5.6,12.5,12.5,12.5h137.5c6.9,0,12.5-5.6,12.5-12.5v-125
		c0-6.9-5.6-12.5-12.5-12.5H766.2c-6.9,0-12.5,5.6-12.5,12.5V254.5z M891.2,204.5l-37.5,0c-6.9,0-12.5-5.6-12.5-12.5
		s5.6-12.5,12.5-12.5l37.5,0c6.9,0,12.5,5.6,12.5,12.5S898.2,204.5,891.2,204.5z M891.2,242l-37.5,0c-6.9,0-12.5-5.6-12.5-12.5
		s5.6-12.5,12.5-12.5l37.5,0c6.9,0,12.5,5.6,12.5,12.5S898.2,242,891.2,242z M891.2,167l-112.5,0c-6.9,0-12.5-5.6-12.5-12.5
		c0-6.9,5.6-12.5,12.5-12.5l112.5,0c6.9,0,12.5,5.6,12.5,12.5C903.8,161.4,898.2,167,891.2,167z M766.2,223.2v-25
		c0-10.3,8.4-18.7,18.8-18.7h25c10.4,0,18.8,8.4,18.8,18.7v25c0,10.3-8.4,18.7-18.8,18.7h-25C774.6,241.9,766.2,233.6,766.2,223.2z"
		/>
	<path d="M978.8,154.5v100c0,20.6-16.8,37.5-37.5,37.5h-51.4v-25h51.4c6.9,0,12.5-5.6,12.5-12.5v-100c0-7-5.6-12.5-12.5-12.5h-13.9
		v-25h13.9C962,117,978.8,133.7,978.8,154.5z"/>
</g>
<g>
	<path d="M1132.8,67c-34.5,0-62.5,28-62.5,62.5s28,62.5,62.5,62.5c34.5,0,62.5-28,62.5-62.5S1167.3,67,1132.8,67L1132.8,67z"/>
	<path d="M1257.8,192c-34.5,0-62.5,28-62.5,62.5s28,62.5,62.5,62.5c34.5,0,62.5-28,62.5-62.5S1292.3,192,1257.8,192L1257.8,192z"/>
	<path d="M1245.2,117L1245.2,117c13.8,0,25,11.2,25,25v62.5h-25V117z"/>
	<path d="M1270.2,142L1270.2,142l-87.5,0v-25h62.5C1259.1,117,1270.2,128.2,1270.2,142z"/>
	<path d="M1120.2,242L1120.2,242c0,13.8,11.2,25,25,25h62.5v-25H1120.2z"/>
	<path d="M1145.2,267L1145.2,267v-87.5h-25V242C1120.2,255.8,1131.4,267,1145.2,267z"/>
	<circle class="st0" cx="1257.8" cy="232.6" r="18.7"/>
	<circle class="st0" cx="1132.8" cy="107.6" r="18.7"/>
	<path class="st0" d="M1165.1,151.4v2.8c-7.5,9.7-19.2,16-32.4,16c-13.2,0-25-6.4-32.4-16.1c-0.1-1-0.1-1.9-0.1-2.6
		c0.4-11.3,7.5-18.8,32.5-18.8S1164.9,140.1,1165.1,151.4z"/>
	<path class="st0" d="M1290.1,276.4v2.8c-7.5,9.7-19.2,16-32.4,16c-13.2,0-25-6.4-32.4-16.1c-0.1-1-0.1-1.9-0.1-2.6
		c0.4-11.3,7.5-18.8,32.5-18.8S1289.9,265.1,1290.1,276.4z"/>
</g>
<g id="Layer_1_1_">
	<path d="M456,451h125c21.2,0,37.5,16.2,37.5,37.5v175c0,21.2-16.2,37.5-37.5,37.5H456c-21.2,0-37.5-16.2-37.5-37.5v-175
		C418.5,467.2,434.8,451,456,451z M456,476c-7.5,0-12.5,5-12.5,12.5v175c0,7.5,5,12.5,12.5,12.5h125c7.5,0,12.5-5,12.5-12.5v-175
		c0-7.5-5-12.5-12.5-12.5H456z M481,488.5h75c7.5,0,12.5,5,12.5,12.5s-5,12.5-12.5,12.5h-75c-7.5,0-12.5-5-12.5-12.5
		S473.5,488.5,481,488.5z M418.5,638.5h25c7.5,0,12.5,5,12.5,12.5s-5,12.5-12.5,12.5h-25c-7.5,0-12.5-5-12.5-12.5
		S411,638.5,418.5,638.5z M481,638.5h25c7.5,0,12.5,5,12.5,12.5s-5,12.5-12.5,12.5h-25c-7.5,0-12.5-5-12.5-12.5
		S473.5,638.5,481,638.5z M418.5,563.5h25c7.5,0,12.5,5,12.5,12.5s-5,12.5-12.5,12.5h-25c-7.5,0-12.5-5-12.5-12.5
		S411,563.5,418.5,563.5z M418.5,488.5h25c7.5,0,12.5,5,12.5,12.5s-5,12.5-12.5,12.5h-25c-7.5,0-12.5-5-12.5-12.5
		S411,488.5,418.5,488.5z M481,588.5h75c7.5,0,12.5,5,12.5,12.5s-5,12.5-12.5,12.5h-75c-7.5,0-12.5-5-12.5-12.5
		S473.5,588.5,481,588.5z M481,538.5h75c7.5,0,12.5,5,12.5,12.5s-5,12.5-12.5,12.5h-75c-7.5,0-12.5-5-12.5-12.5
		S473.5,538.5,481,538.5z"/>
</g>
<g>
	<g>
		<path d="M1070.2,632.2v-62.5c0-7.5,5-12.5,12.5-12.5s12.5,5,12.5,12.5v62.5c0,7.5-5,12.5-12.5,12.5S1070.2,639.8,1070.2,632.2z"/>
	</g>
	<g>
		<path d="M1295.2,632.2v-62.5c0-7.5,5-12.5,12.5-12.5s12.5,5,12.5,12.5v62.5c0,7.5-5,12.5-12.5,12.5S1295.2,639.8,1295.2,632.2z"/>
	</g>
	<g>
		<path d="M1282.7,582.2v37.5c0,6.9-5.5,12.5-12.4,12.5h-150.1c-6.9,0-12.5-5.6-12.5-12.5v-37.5H1282.7z"/>
	</g>
	<g>
		<path d="M1189,519.8v50.1h-81.2v-50.1c0-6.9,5.6-12.5,12.5-12.5h56.2C1183.4,507.2,1189,512.8,1189,519.8z"/>
	</g>
	<g>
		<path d="M1282.7,519.8v50.1h-81.2v-50.1c0-6.9,5.6-12.5,12.5-12.5h56.2C1277.1,507.2,1282.7,512.9,1282.7,519.8z"/>
	</g>
</g>
<g>
	<path d="M778.7,576h-25v100c0,6.9,5.6,12.5,12.5,12.5h0c6.9,0,12.5-5.6,12.5-12.5V576z"/>
	<path d="M978.8,563.5L978.8,563.5c0-6.9-5.6-12.5-12.5-12.5h-225c-6.9,0-12.5,5.6-12.5,12.5l0,0c0,6.9,5.6,12.5,12.5,12.5h225
		C973.2,576,978.8,570.4,978.8,563.5z"/>
	<path d="M953.8,576h-25v100c0,6.9,5.6,12.5,12.5,12.5l0,0c6.9,0,12.5-5.6,12.5-12.5V576z"/>
	<rect x="778.7" y="638.5" width="150" height="25"/>
	<circle cx="803.8" cy="488.5" r="25"/>
	<path d="M845.6,551h-28c-3.4-3.9-8.4-6.2-13.9-6.2c-5.5,0-10.5,2.4-13.9,6.2h-28c5.4-18,22.1-31.3,41.9-31.3
		C823.5,519.7,840.3,533,845.6,551z"/>
	<circle cx="903.8" cy="488.5" r="25"/>
	<path d="M945.6,551h-28c-3.4-3.9-8.4-6.2-13.9-6.2c-5.5,0-10.5,2.4-13.9,6.2h-28c5.4-18,22.1-31.3,41.9-31.3S940.3,533,945.6,551z"
		/>
</g>
</svg>
