<?xml version="1.0" encoding="UTF-8"?><svg id="Layer_1" xmlns="http://www.w3.org/2000/svg" viewBox="0 0 300 165"><rect x="150" width="150" height="165" fill="#404041"/><rect width="150" height="165" fill="#fff"/><g><path d="M52.94,22.84h59.04V127.24c0,8.23-6.68,14.91-14.91,14.91H38.02V37.76c0-8.23,6.68-14.91,14.91-14.91Z" fill="#404041"/><g><polygon points="94.44 75.67 75 75.67 75 30.3 49.23 90.43 67.62 90.43 67.62 133.77 67.62 133.77 94.44 75.67 94.44 75.67" fill="#fff"/><path d="M101.67,92.52l-.06-.13-5.43-12.66-25.25,54.69c1.33,.18,2.69,.29,4.06,.29,16.3,0,29.52-13.22,29.52-29.52,0-4.53-1.02-8.83-2.85-12.67Z" fill="#67cbf0"/><path d="M49.23,93.7h-1.42c-1.49,3.53-2.33,7.41-2.33,11.48,0,12.54,7.83,23.25,18.86,27.53v-39.01h-15.11Z" fill="#67cbf0"/><polygon points="93.04 72.39 78.28 37.95 78.28 72.39 93.04 72.39" fill="#67cbf0"/></g></g><g><path d="M202.92,23.01h59.06V127.1c0,8.22-6.67,14.89-14.89,14.89h-59.06V37.9c0-8.22,6.67-14.89,14.89-14.89Z" fill="#fff"/><g><polygon points="244.44 75.68 225 75.68 225 30.44 199.23 90.4 217.62 90.4 217.62 133.63 217.62 133.63 244.44 75.69 244.44 75.68" fill="#404041"/><path d="M251.67,92.49l-.06-.13-5.43-12.63-25.25,54.54c1.33,.18,2.69,.28,4.06,.28,16.3,0,29.52-13.18,29.52-29.44,0-4.52-1.02-8.81-2.85-12.63Z" fill="#67cbf0"/><path d="M199.23,93.67h-1.42c-1.49,3.52-2.33,7.39-2.33,11.45,0,12.51,7.83,23.18,18.86,27.45v-38.89h-15.11Z" fill="#67cbf0"/><polygon points="243.04 72.41 228.28 38.08 228.28 72.41 243.04 72.41" fill="#67cbf0"/></g></g></svg>