<?xml version="1.0" encoding="UTF-8"?><svg id="Layer_1" xmlns="http://www.w3.org/2000/svg" viewBox="0 0 300 165"><rect width="300" height="165" fill="#fff"/><g><path d="M37.99,22.84h59.04V127.24c0,8.23-6.68,14.91-14.91,14.91H23.08V37.76c0-8.23,6.68-14.91,14.91-14.91Z" fill="#404041"/><g><polygon points="79.5 75.67 60.05 75.67 60.05 30.3 34.29 90.43 52.67 90.43 52.67 133.77 52.67 133.77 79.5 75.67 79.5 75.67" fill="#fff"/><path d="M86.72,92.52l-.06-.13-5.43-12.66-25.25,54.69c1.33,.18,2.69,.29,4.06,.29,16.3,0,29.52-13.22,29.52-29.52,0-4.53-1.02-8.83-2.85-12.67Z" fill="#67cbf0"/><path d="M34.29,93.7h-1.42c-1.49,3.53-2.33,7.41-2.33,11.48,0,12.54,7.83,23.25,18.86,27.53v-39.01h-15.11Z" fill="#67cbf0"/><polygon points="78.09 72.39 63.33 37.95 63.33 72.39 78.09 72.39" fill="#67cbf0"/></g><g><g><path d="M104.82,49.64c1.66-3.01,3.99-5.36,6.96-7.05,2.98-1.68,6.35-2.52,10.13-2.52,4.62,0,8.58,1.22,11.88,3.66,3.29,2.44,5.49,5.77,6.6,9.99h-10.43c-.78-1.63-1.88-2.87-3.3-3.72-1.43-.85-3.04-1.28-4.86-1.28-2.92,0-5.29,1.02-7.1,3.05-1.82,2.03-2.72,4.75-2.72,8.15s.91,6.12,2.72,8.16c1.81,2.03,4.18,3.05,7.1,3.05,1.81,0,3.43-.43,4.86-1.28,1.42-.85,2.52-2.09,3.3-3.72h10.43c-1.11,4.22-3.31,7.54-6.6,9.96-3.29,2.42-7.25,3.63-11.88,3.63-3.77,0-7.15-.84-10.13-2.52-2.98-1.68-5.3-4.02-6.96-7.02-1.66-3-2.5-6.42-2.5-10.27s.83-7.28,2.5-10.29Z" fill="#404041"/><path d="M155.44,72.14h12.43v7.32h-21.92V40.52h9.49v31.63Z" fill="#404041"/><path d="M181.29,48.12v7.88h12.71v7.32h-12.71v8.55h14.37v7.6h-23.86V40.52h23.86v7.6h-14.37Z" fill="#404041"/><path d="M225.91,72.59h-14.54l-2.33,6.88h-9.93l14.09-38.95h10.99l14.09,38.95h-10.04l-2.33-6.88Zm-2.44-7.32l-4.83-14.26-4.77,14.26h9.6Z" fill="#404041"/><path d="M276.92,79.47h-9.49l-15.87-24.02v24.02h-9.49V40.52h9.49l15.87,24.14v-24.14h9.49v38.95Z" fill="#404041"/></g><g><path d="M110.37,123.55c-2.26-.93-4.06-2.29-5.41-4.11s-2.06-3.99-2.14-6.55h10.1c.15,1.44,.65,2.54,1.5,3.3,.85,.76,1.96,1.14,3.33,1.14s2.52-.32,3.33-.97c.81-.65,1.22-1.54,1.22-2.69,0-.96-.32-1.76-.97-2.39-.65-.63-1.44-1.14-2.38-1.55-.94-.41-2.28-.87-4.02-1.39-2.52-.78-4.57-1.55-6.16-2.33-1.59-.78-2.96-1.92-4.11-3.44-1.15-1.52-1.72-3.49-1.72-5.94,0-3.62,1.31-6.46,3.94-8.52,2.63-2.05,6.05-3.08,10.27-3.08s7.75,1.03,10.38,3.08c2.63,2.05,4.03,4.91,4.22,8.57h-10.26c-.08-1.26-.54-2.25-1.39-2.97-.85-.72-1.94-1.08-3.27-1.08-1.15,0-2.07,.3-2.78,.91-.7,.61-1.05,1.49-1.05,2.64,0,1.26,.59,2.24,1.77,2.94,1.18,.7,3.03,1.46,5.55,2.28,2.52,.85,4.56,1.66,6.13,2.44,1.57,.78,2.93,1.91,4.08,3.38,1.15,1.48,1.72,3.38,1.72,5.72s-.56,4.24-1.69,6.05c-1.13,1.81-2.77,3.26-4.91,4.33-2.15,1.07-4.68,1.61-7.6,1.61s-5.4-.46-7.66-1.39Z" fill="#404041"/><path d="M147.81,117.22h12.43v7.32h-21.92v-38.95h9.49v31.63Z" fill="#404041"/><path d="M189.72,117.66h-14.54l-2.33,6.88h-9.93l14.09-38.95h10.99l14.09,38.95h-10.04l-2.33-6.88Zm-2.44-7.32l-4.83-14.26-4.77,14.26h9.6Z" fill="#404041"/><path d="M230.01,85.59v7.6h-10.32v31.35h-9.49v-31.35h-10.32v-7.6h30.13Z" fill="#404041"/><path d="M243.54,93.2v7.88h12.71v7.32h-12.71v8.55h14.37v7.6h-23.86v-38.95h23.86v7.6h-14.37Z" fill="#404041"/></g><g><path d="M112.86,135.77c-.31,.56-.79,1.01-1.43,1.35-.64,.34-1.44,.51-2.39,.51h-1.76v4.19h-2.84v-11.66h4.6c.93,0,1.72,.16,2.36,.48,.64,.32,1.12,.76,1.44,1.33,.32,.56,.48,1.21,.48,1.94,0,.68-.16,1.29-.46,1.85Zm-2.82-.77c.27-.26,.4-.61,.4-1.08s-.13-.82-.4-1.08c-.26-.25-.67-.38-1.21-.38h-1.54v2.92h1.54c.54,0,.95-.13,1.21-.38Z" fill="#67cbf0"/><path d="M117.3,141.17c-.91-.51-1.64-1.22-2.18-2.13-.54-.91-.81-1.94-.81-3.08s.27-2.16,.81-3.07,1.26-1.62,2.18-2.13,1.92-.76,3.01-.76,2.1,.25,3.01,.76c.91,.51,1.63,1.22,2.16,2.13s.79,1.93,.79,3.07-.27,2.17-.8,3.08-1.25,1.62-2.16,2.13c-.91,.51-1.91,.76-3.01,.76s-2.1-.25-3.01-.76Zm5.25-2.76c.56-.62,.84-1.44,.84-2.46s-.28-1.85-.84-2.47c-.56-.61-1.3-.92-2.23-.92s-1.69,.3-2.25,.91c-.56,.61-.84,1.43-.84,2.47s.28,1.85,.84,2.47,1.31,.92,2.25,.92,1.67-.31,2.23-.93Z" fill="#67cbf0"/><path d="M143.52,130.16l-3.04,11.66h-3.44l-1.86-7.67-1.93,7.67h-3.44l-2.96-11.66h3.04l1.68,8.49,2.08-8.49h3.12l1.99,8.49,1.69-8.49h3.06Z" fill="#67cbf0"/><path d="M147.67,132.44v2.36h3.8v2.19h-3.8v2.56h4.3v2.27h-7.14v-11.66h7.14v2.27h-4.3Z" fill="#67cbf0"/><path d="M159.99,141.82l-2.42-4.4h-.68v4.4h-2.84v-11.66h4.77c.92,0,1.7,.16,2.35,.48,.65,.32,1.13,.76,1.45,1.32,.32,.56,.48,1.18,.48,1.87,0,.78-.22,1.47-.66,2.08-.44,.61-1.08,1.04-1.93,1.3l2.69,4.62h-3.2Zm-3.11-6.41h1.76c.52,0,.91-.13,1.17-.38,.26-.25,.39-.61,.39-1.08,0-.44-.13-.79-.39-1.05-.26-.25-.65-.38-1.17-.38h-1.76v2.89Z" fill="#67cbf0"/><path d="M184.43,130.16l-3.04,11.66h-3.44l-1.86-7.67-1.93,7.67h-3.44l-2.96-11.66h3.04l1.68,8.49,2.08-8.49h3.12l1.99,8.49,1.69-8.49h3.06Z" fill="#67cbf0"/><path d="M192.27,139.76h-4.35l-.7,2.06h-2.97l4.22-11.66h3.29l4.22,11.66h-3.01l-.7-2.06Zm-.73-2.19l-1.44-4.27-1.43,4.27h2.87Z" fill="#67cbf0"/><path d="M198.8,141.52c-.68-.28-1.22-.69-1.62-1.23-.4-.54-.62-1.2-.64-1.96h3.02c.04,.43,.19,.76,.45,.99,.25,.23,.59,.34,1,.34s.75-.1,1-.29c.24-.19,.36-.46,.36-.81,0-.29-.1-.53-.29-.71-.19-.19-.43-.34-.71-.46s-.68-.26-1.2-.41c-.75-.23-1.37-.46-1.84-.7s-.89-.58-1.23-1.03-.51-1.05-.51-1.78c0-1.09,.39-1.93,1.18-2.55,.79-.61,1.81-.92,3.07-.92s2.32,.31,3.11,.92c.79,.61,1.21,1.47,1.26,2.57h-3.07c-.02-.38-.16-.67-.41-.89-.26-.22-.58-.32-.98-.32-.34,0-.62,.09-.83,.27-.21,.18-.32,.45-.32,.79,0,.38,.18,.67,.53,.88,.35,.21,.91,.44,1.66,.68,.75,.25,1.37,.5,1.84,.73s.88,.57,1.22,1.01c.34,.44,.51,1.01,.51,1.71s-.17,1.27-.51,1.81c-.34,.54-.83,.97-1.47,1.3-.64,.32-1.4,.48-2.28,.48s-1.62-.14-2.29-.41Z" fill="#67cbf0"/><path d="M217.32,130.16v11.66h-2.84v-4.8h-4.42v4.8h-2.84v-11.66h2.84v4.57h4.42v-4.57h2.84Z" fill="#67cbf0"/><path d="M222.42,130.16v11.66h-2.84v-11.66h2.84Z" fill="#67cbf0"/><path d="M235.14,141.82h-2.84l-4.75-7.19v7.19h-2.84v-11.66h2.84l4.75,7.22v-7.22h2.84v11.66Z" fill="#67cbf0"/><path d="M245.07,133.85c-.21-.39-.51-.68-.91-.89-.39-.2-.85-.31-1.39-.31-.92,0-1.65,.3-2.21,.91-.55,.6-.83,1.41-.83,2.42,0,1.07,.29,1.91,.87,2.52,.58,.6,1.38,.91,2.4,.91,.7,0,1.29-.18,1.77-.53s.83-.86,1.05-1.53h-3.6v-2.09h6.18v2.64c-.21,.71-.57,1.37-1.07,1.98-.5,.61-1.14,1.1-1.92,1.48-.77,.38-1.65,.56-2.62,.56-1.15,0-2.18-.25-3.08-.76-.9-.5-1.61-1.2-2.11-2.1-.5-.9-.76-1.92-.76-3.07s.25-2.18,.76-3.08c.5-.9,1.2-1.61,2.1-2.11,.9-.5,1.92-.76,3.07-.76,1.4,0,2.57,.34,3.53,1.01,.96,.68,1.59,1.61,1.9,2.81h-3.14Z" fill="#67cbf0"/></g><g><path d="M111.56,22.84v2.33h-3.16v9.61h-2.91v-9.61h-3.16v-2.33h9.24Z" fill="#404041"/><path d="M123.2,22.84v11.94h-2.91v-4.91h-4.53v4.91h-2.91v-11.94h2.91v4.68h4.53v-4.68h2.91Z" fill="#404041"/><path d="M128.43,25.17v2.41h3.9v2.25h-3.9v2.62h4.4v2.33h-7.31v-11.94h7.31v2.33h-4.4Z" fill="#404041"/></g></g></g></svg>