<?xml version="1.0" encoding="utf-8"?>
<!-- Generator: Adobe Illustrator 26.0.3, SVG Export Plug-In . SVG Version: 6.00 Build 0)  -->
<svg version="1.1" id="Layer_1" xmlns="http://www.w3.org/2000/svg" xmlns:xlink="http://www.w3.org/1999/xlink" x="0px" y="0px"
	 viewBox="0 0 1610 114.9" style="enable-background:new 0 0 1610 114.9;" xml:space="preserve">
<style type="text/css">
	.st0{fill:#00D8B9;}
	.st1{fill:#FFFFFF;}
</style>
<g>
	<g>
		<g>
			<path class="st0" d="M40.3,99.4L5,6.2h21.1l27,76.9h0.3L80.5,6.2h21L62,108.8h-9.5C46.8,108.8,42.8,105.6,40.3,99.4z"/>
			<path class="st0" d="M131.3,105c-5.9-3.3-10.5-7.9-13.8-13.8c-3.3-5.9-4.9-12.8-4.9-20.6V44.3c0-7.8,1.6-14.7,4.9-20.6
				c3.3-5.9,7.9-10.5,13.8-13.8C137.2,6.6,144,5,151.7,5h15.5c7.7,0,14.5,1.6,20.4,4.9c5.9,3.3,10.5,7.9,13.8,13.8
				c3.3,5.9,4.9,12.8,4.9,20.6v26.4c0,7.8-1.6,14.7-4.9,20.6c-3.3,5.9-7.9,10.5-13.8,13.8c-5.9,3.3-12.7,4.9-20.4,4.9h-15.5
				C144,109.9,137.2,108.3,131.3,105z M167.2,92.1c5.7,0,10.2-2.1,13.7-6.2c3.5-4.1,5.2-9.5,5.2-16.1V45.2c0-6.6-1.7-12-5.2-16.1
				c-3.5-4.1-8-6.2-13.7-6.2h-15.5c-5.7,0-10.2,2.1-13.7,6.2c-3.5,4.1-5.2,9.5-5.2,16.1v24.6c0,6.6,1.7,12,5.2,16.1
				c3.5,4.1,8,6.2,13.7,6.2H167.2z"/>
			<path class="st0" d="M232.8,105c-2.6-2.5-3.9-5.8-3.9-9.9v-89h20.2v85h55.7v17.6h-61.7C238.9,108.8,235.4,107.5,232.8,105z"/>
			<path class="st0" d="M326.3,105c-2.6-2.5-3.9-5.8-3.9-9.9v-89h20.2v85h55.7v17.6h-61.7C332.4,108.8,328.9,107.5,326.3,105z"/>
			<path class="st0" d="M419.9,105c-2.6-2.5-4-5.9-4-10V6.2h78.3v17.6h-58v23.7h53.6v17.6h-53.6v26.1h58v17.6h-64
				C426,108.8,422.6,107.5,419.9,105z"/>
			<path class="st0" d="M543.9,68.9l-38-62.7h22L554,50.3l26.1-44.1h22l-38,62.7v39.9h-20.2V68.9z"/>
		</g>
		<g>
			<g>
				<path class="st1" d="M724.5,80.3h-45l-10.6,28.4h-11.1L697.2,6.2h5c3.2,0,5.6,2,7,5.9l22.6,59.2h0.1v0.3l14.2,37.2H735
					L724.5,80.3z M682.8,71.2h38.3l-19.1-51h-0.1L682.8,71.2z"/>
				<path class="st1" d="M779.1,105.8c-4.8-2.8-8.5-6.7-11.1-11.9c-2.6-5.1-4-11-4-17.7V6.2h10.8v70.3c0,7.1,1.9,12.9,5.7,17.2
					c3.8,4.3,8.8,6.5,15.1,6.5h15.8c6.3,0,11.3-2.2,15.1-6.5c3.8-4.3,5.7-10.1,5.7-17.2V6.2h10.8v70.1c0,6.6-1.3,12.5-4,17.7
					c-2.6,5.1-6.4,9.1-11.1,11.9s-10.3,4.2-16.6,4.2h-15.8C789.4,109.9,783.9,108.5,779.1,105.8z"/>
				<path class="st1" d="M898.6,15.6H866V6.2H942v9.4h-32.5v93.2h-10.8V15.6z"/>
				<path class="st1" d="M974.2,105.4c-5.2-3-9.2-7.3-12.1-12.9c-2.9-5.6-4.3-12-4.3-19.3V41.8c0-7.3,1.4-13.8,4.3-19.3
					s6.9-9.9,12.1-12.9c5.2-3,11.2-4.5,18-4.5h15.5c6.8,0,12.8,1.5,18,4.5c5.2,3,9.2,7.3,12.1,12.9c2.9,5.6,4.3,12,4.3,19.3v31.4
					c0,7.3-1.4,13.8-4.3,19.3c-2.9,5.5-6.9,9.8-12.2,12.9c-5.2,3.1-11.2,4.6-18,4.6h-15.7C985.3,109.9,979.4,108.4,974.2,105.4z
					 M1007.5,100.3c7.1,0,12.9-2.5,17.3-7.5c4.4-5,6.6-11.5,6.6-19.6V41.8c0-8.1-2.2-14.7-6.6-19.6c-4.4-5-10.2-7.5-17.3-7.5h-14.9
					c-7.1,0-12.9,2.5-17.3,7.5c-4.4,5-6.6,11.5-6.6,19.6v31.4c0,8.1,2.2,14.7,6.5,19.6c4.3,5,10.1,7.5,17.2,7.5H1007.5z"/>
				<path class="st1" d="M1070.1,6.2h10.4l36.6,68.2l35.6-68.2h10.4v102.6h-10.7V26.4l-29.6,56.3c-1.1,2-2,3.3-2.8,4
					c-0.8,0.7-1.7,1.1-2.6,1.1h-3.2l-33.4-61.4v82.4h-10.7V6.2z"/>
				<path class="st1" d="M1252.1,80.3h-45l-10.6,28.4h-11.1l39.4-102.6h5c3.2,0,5.6,2,7,5.9l22.6,59.2h0.1v0.3l14.2,37.2h-11.1
					L1252.1,80.3z M1210.5,71.2h38.3l-19.1-51h-0.1L1210.5,71.2z"/>
				<path class="st1" d="M1306.6,15.6h-32.5V6.2h75.9v9.4h-32.5v93.2h-10.8V15.6z"/>
				<path class="st1" d="M1374.9,6.2h10.8v102.6h-10.8V6.2z"/>
				<path class="st1" d="M1431.5,105.4c-5.2-3-9.2-7.3-12.1-12.9c-2.9-5.6-4.3-12-4.3-19.3V41.8c0-7.3,1.4-13.8,4.3-19.3
					c2.9-5.6,6.9-9.9,12.1-12.9c5.2-3,11.2-4.5,18-4.5h15.5c6.8,0,12.8,1.5,18,4.5c5.2,3,9.2,7.3,12.1,12.9c2.9,5.6,4.3,12,4.3,19.3
					v31.4c0,7.3-1.4,13.8-4.3,19.3c-2.9,5.5-6.9,9.8-12.2,12.9c-5.2,3.1-11.2,4.6-18,4.6h-15.7
					C1442.6,109.9,1436.6,108.4,1431.5,105.4z M1464.7,100.3c7.1,0,12.9-2.5,17.3-7.5c4.4-5,6.6-11.5,6.6-19.6V41.8
					c0-8.1-2.2-14.7-6.6-19.6c-4.4-5-10.2-7.5-17.3-7.5h-15c-7.1,0-12.9,2.5-17.3,7.5c-4.4,5-6.6,11.5-6.6,19.6v31.4
					c0,8.1,2.2,14.7,6.5,19.6c4.3,5,10.1,7.5,17.2,7.5H1464.7z"/>
				<path class="st1" d="M1527.3,6.2h10.3l56.9,85.4V6.2h10.6v102.6h-10.3l-56.9-84.9v84.9h-10.6V6.2z"/>
			</g>
		</g>
	</g>
</g>
</svg>
