<?xml version="1.0" encoding="UTF-8"?><svg id="a" xmlns="http://www.w3.org/2000/svg" viewBox="0 0 1501 808.58"><path d="M1322.79,637.45c-7.8,0-14.13-6.32-14.13-14.13v-176.63h-113.05c-7.8,0-14.13-6.32-14.13-14.13s6.32-14.13,14.13-14.13h127.17c7.8,0,14.13,6.32,14.13,14.13v190.76c0,7.8-6.32,14.13-14.13,14.13Z" fill="#f5f9ea"/><path d="M178.21,637.45c-7.8,0-14.13-6.32-14.13-14.13v-190.76c0-7.8,6.32-14.13,14.13-14.13h127.17c7.8,0,14.13,6.32,14.13,14.13s-6.32,14.13-14.13,14.13h-113.05v176.63c0,7.8-6.32,14.13-14.13,14.13Z" fill="#f5f9ea"/><path d="M1132.02,637.45c-7.8,0-14.13-6.32-14.13-14.13V255.93h-100.33c-4.23,0-8.24-1.9-10.92-5.17-2.69-3.27-3.76-7.58-2.93-11.73l19.08-95.38c1.53-7.65,8.92-12.68,16.62-11.08,7.65,1.53,12.62,8.97,11.08,16.62l-15.7,78.48h97.23c7.8,0,14.13,6.32,14.13,14.13v381.52c0,7.8-6.32,14.13-14.13,14.13Z" fill="#f5f9ea"/><path d="M1004.85,637.45c-7.8,0-14.13-6.32-14.13-14.13v-240.22h-430.99c-7.8,0-14.13-6.32-14.13-14.13s6.32-14.13,14.13-14.13h445.11c7.8,0,14.13,6.32,14.13,14.13v254.35c0,7.8-6.32,14.13-14.13,14.13Z" fill="#f5f9ea"/><path d="M496.15,637.45c-7.8,0-14.13-6.32-14.13-14.13V305.39c0-7.8,6.32-14.13,14.13-14.13h508.7c7.8,0,14.13,6.32,14.13,14.13s-6.32,14.13-14.13,14.13H510.28v303.81c0,7.8-6.32,14.13-14.13,14.13Z" fill="#f5f9ea"/><path d="M368.98,637.45c-7.8,0-14.13-6.32-14.13-14.13V241.8c0-7.8,6.32-14.13,14.13-14.13h97.22l-15.69-78.48c-1.48-7.4,3.11-14.65,10.43-16.48,5.26-1.31,130.69-32.21,289.56-32.21,91.68,0,172.8,10.48,224.7,19.27,7.69,1.3,12.88,8.59,11.57,16.29-1.29,7.69-8.62,12.9-16.29,11.57-50.84-8.61-130.27-18.87-219.99-18.87-126.41,0-233.37,20.54-269.58,28.38l16.37,81.89c.83,4.15-.24,8.46-2.93,11.73-2.68,3.27-6.69,5.17-10.92,5.17h-100.33v367.39c0,7.8-6.32,14.13-14.13,14.13Z" fill="#f5f9ea"/><path d="M1386.37,708.08H114.63c-7.8,0-14.13-6.32-14.13-14.13s6.32-14.13,14.13-14.13H1386.37c7.8,0,14.13,6.32,14.13,14.13s-6.32,14.13-14.13,14.13Z" fill="#f5f9ea"/></svg>