<?xml version="1.0" encoding="UTF-8"?><svg id="a" xmlns="http://www.w3.org/2000/svg" viewBox="0 0 1500 1184.21"><g><path d="M154.6,782.27v-152.02l-4.41-28.7h77.59c73.18,0,110.08,33.12,110.08,104.39s-36.91,105.03-110.08,105.03h-77.59l4.41-28.7Zm74.13,10.41c55.19,0,83.58-26.18,83.58-86.73s-28.08-86.11-83.27-86.11h-50.15v172.84h49.84Z" fill="#5e8039"/><path d="M550.91,810.97h-38.78l-8.84-22.71-51.4-64.33h-50.78v58.34l5.35,28.7h-34.38l4.41-28.7v-152.02l-4.41-28.7h93.36c48.58,0,72.22,21.76,72.22,60.56,0,32.48-21.12,53.93-59.92,58.34l73.16,90.52Zm-93.04-105.65c34.07,0,55.19-15.15,55.19-43.21s-16.71-43.21-50.78-43.21h-61.82v86.42h57.4Z" fill="#5e8039"/><path d="M769.74,810.97h-32.49l-5.37-27.13-10.41-24.91h-107.87l-10.72,24.91-5.37,27.13h-29.02l83.58-195.86-6.63-13.56h35.64l88.63,209.42Zm-56.14-70.34l-46.05-109.44-46.36,109.44h92.41Z" fill="#5e8039"/><path d="M798.83,782.27v-152.02l-4.41-28.7h91.47c51.09,0,73.8,21.76,73.8,65.6s-23.34,65.61-76.01,65.61h-60.23v49.51l6.93,28.7h-35.96l4.41-28.7Zm81.69-67.5c38.17,0,54.57-15.13,54.57-46.99s-15.77-48.26-52.35-48.26h-59.62v95.25h57.4Z" fill="#5e8039"/><path d="M1143.81,786.37l-3.79,24.6h-153.6l4.43-28.7v-152.02l-4.43-28.7h152.34l3.79,24.6-29.02-6.63h-98.41v75.06h73.81l24.91-3.15v23.97l-24.91-3.15h-73.81v80.74h99.66l29.03-6.63Z" fill="#5e8039"/><path d="M1350.19,810.97h-38.78l-8.84-22.71-51.4-64.33h-50.78v58.34l5.35,28.7h-34.38l4.43-28.7v-152.02l-4.43-28.7h93.36c48.58,0,72.22,21.76,72.22,60.56,0,32.48-21.12,53.93-59.92,58.34l73.16,90.52Zm-93.04-105.65c34.07,0,55.19-15.15,55.19-43.21s-16.71-43.21-50.78-43.21h-61.82v86.42h57.4Z" fill="#5e8039"/></g><g><path d="M265.14,995.58h-20.82l-2.2-13.56-4.41-10.42h-51.41l-4.41,10.42-2.37,13.56h-18.28l41.15-96.98-3.46-7.73h22.23l44,104.72Zm-32.17-35.64l-20.98-49.83-20.81,49.83h41.79Z" fill="#314d7a"/><path d="M374.74,995.58h-24.44l-3.78-11.82-23.02-30.28h-23.49v27.44l3,14.66h-21.76l2.51-14.66v-75.38l-2.51-14.68h49.2c25.07,0,36.89,11.04,36.89,30.92,0,15.46-9.46,26.18-27.44,29.17l34.85,44.63Zm-48.88-53.93c15.76,0,25.38-6.78,25.38-19.87s-7.41-19.87-23.18-19.87h-28.39v39.75h26.19Z" fill="#314d7a"/><path d="M436.43,902.85v78.06l4.09,14.66h-24.43l4.09-14.66v-78.06h-21.12l-14.99,3.46,2.37-15.46h83.74l2.37,15.46-14.83-3.46h-21.28Z" fill="#314d7a"/><path d="M490.51,991.94l-2.84-17.97,17.03,9.47c7.72,2.51,15.61,3.78,23.18,3.78,17.5,0,26.02-6.62,26.02-17.03s-6.77-15.77-28.38-21.76c-26.66-7.1-36.91-15.93-36.91-32.32s14.04-27.91,40.06-27.91c12.29,0,23.02,1.73,35.8,5.67l2.67,17.35-16.55-8.83c-6.94-2.05-13.57-3.15-20.65-3.15-15.15,0-24.77,6.15-24.77,15.46s5.52,14.98,27.28,20.81c26.97,7.25,38.17,16.25,38.17,33.12,0,17.98-14.82,29.81-41.79,29.81-17.66-.16-30.12-4.1-38.33-6.47Z" fill="#314d7a"/><path d="M624.07,942.74c0-35.63,21.76-54.72,51.09-54.72,11.2,0,22.09,2.06,32.8,5.83l2.68,17.83-16.72-9.15c-6.15-1.58-12.29-2.2-17.5-2.2-19.87,0-35.47,13.4-35.47,42.1s15.29,43.52,36.74,43.52c4.88,0,10.89-.63,17.19-2.36l16.4-9.31-2.68,18.14c-10.87,3.78-20.65,5.83-32.01,5.83-30.9,0-52.51-19.87-52.51-55.52Z" fill="#314d7a"/><path d="M727.29,943.07c0-34.69,20.81-55.05,52.51-55.05s52.52,20.35,52.52,55.05-20.82,55.5-52.52,55.5-52.51-20.65-52.51-55.5Zm88.15,0c0-28.39-14.66-42.9-35.49-42.9s-35.63,14.51-35.63,42.9,14.51,43.21,35.32,43.21,35.8-14.83,35.8-43.21Z" fill="#314d7a"/><path d="M854.66,960.41v-54.88l-2.53-14.68h21.29l-2.53,14.68v55.82c0,17.19,10.72,25.39,29.97,25.39s30.28-8.05,30.28-25.39v-55.82l-2.53-14.68h19.4l-2.53,14.68v54.88c0,25.54-15.77,38.16-45.42,38.16s-45.41-12.62-45.41-38.16Z" fill="#314d7a"/><path d="M1067.6,890.86l-2.53,14.68v90.04h-22.56l-55.03-91.3v76.64l2.37,14.66h-18.77l2.51-14.66v-75.38l-2.51-14.68h25.38l54.72,90.83v-76.16l-2.37-14.68h18.78Z" fill="#314d7a"/><path d="M1088.56,942.74c0-35.63,21.76-54.72,51.09-54.72,11.2,0,22.09,2.06,32.8,5.83l2.68,17.83-16.72-9.15c-6.15-1.58-12.29-2.2-17.5-2.2-19.87,0-35.47,13.4-35.47,42.1s15.29,43.52,36.74,43.52c4.88,0,10.89-.63,17.19-2.36l16.4-9.31-2.68,18.14c-10.87,3.78-20.65,5.83-32.01,5.83-30.9,0-52.51-19.87-52.51-55.52Z" fill="#314d7a"/><path d="M1199.11,980.91v-75.38l-2.51-14.68h21.28l-2.51,14.68v75.38l2.51,14.66h-21.28l2.51-14.66Z" fill="#314d7a"/><path d="M1316.48,980.12l-2.37,15.46h-71.9l2.51-14.66v-75.38l-2.51-14.68h21.28l-2.51,14.68v78.06h40.68l14.82-3.48Z" fill="#314d7a"/></g><g><path d="M1083.48,473.85c-4.64,0-8.41-3.76-8.41-8.41v-105.11h-67.27c-4.64,0-8.41-3.76-8.41-8.41s3.76-8.41,8.41-8.41h75.68c4.64,0,8.41,3.76,8.41,8.41v113.52c0,4.64-3.76,8.41-8.41,8.41Z" fill="#5e8039"/><path d="M402.36,473.85c-4.64,0-8.41-3.76-8.41-8.41v-113.52c0-4.64,3.76-8.41,8.41-8.41h75.68c4.64,0,8.41,3.76,8.41,8.41s-3.76,8.41-8.41,8.41h-67.28v105.11c0,4.64-3.76,8.41-8.41,8.41Z" fill="#5e8039"/><path d="M969.96,473.85c-4.64,0-8.41-3.76-8.41-8.41V246.81h-59.71c-2.52,0-4.91-1.13-6.5-3.07-1.6-1.95-2.24-4.51-1.75-6.98l11.35-56.76c.91-4.56,5.37-7.48,9.9-6.6,4.56,.91,7.51,5.34,6.6,9.9l-9.34,46.71h57.85c4.64,0,8.41,3.76,8.41,8.41v227.04c0,4.64-3.76,8.41-8.41,8.41Z" fill="#5e8039"/><path d="M894.28,473.85c-4.64,0-8.41-3.76-8.41-8.41v-142.95h-256.47c-4.64,0-8.41-3.76-8.41-8.41s3.76-8.41,8.41-8.41h264.88c4.64,0,8.41,3.76,8.41,8.41v151.36c0,4.64-3.76,8.41-8.41,8.41Z" fill="#5e8039"/><path d="M591.56,473.85c-4.64,0-8.41-3.76-8.41-8.41v-189.2c0-4.64,3.76-8.41,8.41-8.41h302.72c4.64,0,8.41,3.76,8.41,8.41s-3.76,8.41-8.41,8.41h-294.31v180.79c0,4.64-3.76,8.41-8.41,8.41Z" fill="#5e8039"/><path d="M515.88,473.85c-4.64,0-8.41-3.76-8.41-8.41V238.4c0-4.64,3.76-8.41,8.41-8.41h57.86l-9.34-46.71c-.88-4.4,1.85-8.71,6.21-9.8,3.13-.79,77.77-19.17,172.32-19.17,54.52,0,102.81,6.23,133.72,11.47,4.58,.77,7.66,5.11,6.89,9.69-.77,4.58-5.13,7.7-9.69,6.89-30.28-5.12-77.56-11.23-130.92-11.23-75.23,0-138.88,12.23-160.43,16.89l9.75,48.73c.49,2.47-.15,5.03-1.75,6.98-1.6,1.95-3.98,3.07-6.5,3.07h-59.71v218.64c0,4.64-3.76,8.41-8.41,8.41Z" fill="#5e8039"/><path d="M1121.32,515.89H364.51c-4.64,0-8.41-3.76-8.41-8.41s3.76-8.41,8.41-8.41h756.81c4.64,0,8.41,3.76,8.41,8.41s-3.76,8.41-8.41,8.41Z" fill="#5e8039"/></g></svg>