<?xml version="1.0" encoding="UTF-8"?><svg id="a" xmlns="http://www.w3.org/2000/svg" viewBox="0 0 1500 417.19"><g><path d="M719.51,202.66V113.12l-2.6-16.9h45.7c43.1,0,64.83,19.51,64.83,61.49s-21.73,61.86-64.83,61.86h-45.7l2.6-16.9Zm43.66,6.13c32.51,0,49.22-15.42,49.22-51.09s-16.53-50.71-49.04-50.71h-29.54v101.8h29.36Z" fill="#f5f9ea"/><path d="M953.03,219.57h-22.85l-5.2-13.38-30.28-37.9h-29.91v34.37l3.16,16.9h-20.25l2.6-16.9V113.12l-2.6-16.9h54.99c28.61,0,42.54,12.82,42.54,35.67,0,19.13-12.45,31.77-35.29,34.37l43.1,53.32Zm-54.8-62.23c20.06,0,32.51-8.92,32.51-25.45s-9.85-25.45-29.91-25.45h-36.41v50.9h33.82Z" fill="#f5f9ea"/><path d="M1081.98,219.57h-19.14l-3.15-15.97-6.13-14.68h-63.53l-6.32,14.68-3.16,15.97h-17.09l49.23-115.36-3.9-7.99h20.99l52.2,123.35Zm-33.07-41.43l-27.12-64.47-27.31,64.47h54.44Z" fill="#f5f9ea"/><path d="M1099.19,202.66V113.12l-2.6-16.9h53.87c30.1,0,43.47,12.82,43.47,38.64s-13.75,38.64-44.77,38.64h-35.48v29.17l4.09,16.9h-21.17l2.6-16.9Zm48.12-39.76c22.48,0,32.14-8.92,32.14-27.68s-9.29-28.42-30.84-28.42h-35.12v56.1h33.82Z" fill="#f5f9ea"/><path d="M1302.47,205.08l-2.23,14.49h-90.47l2.6-16.9V113.12l-2.6-16.9h89.72l2.23,14.49-17.09-3.9h-57.96v44.21h43.47l14.68-1.86v14.12l-14.68-1.86h-43.47v47.56h58.71l17.09-3.9Z" fill="#f5f9ea"/><path d="M1424.1,219.57h-22.85l-5.2-13.38-30.28-37.9h-29.91v34.37l3.16,16.9h-20.25l2.6-16.9V113.12l-2.6-16.9h54.99c28.6,0,42.54,12.82,42.54,35.67,0,19.13-12.44,31.77-35.29,34.37l43.1,53.32Zm-54.8-62.23c20.06,0,32.51-8.92,32.51-25.45s-9.84-25.45-29.91-25.45h-36.41v50.9h33.81Z" fill="#f5f9ea"/></g><g><path d="M765.67,328.31h-12.26l-1.3-7.99-2.61-6.13h-30.28l-2.61,6.13-1.39,7.99h-10.78l24.24-57.12-2.04-4.55h13.09l25.91,61.68Zm-18.95-20.99l-12.35-29.35-12.26,29.35h24.62Z" fill="#f5f9ea"/><path d="M830.26,328.31h-14.4l-2.23-6.97-13.56-17.83h-13.84v16.16l1.77,8.64h-12.82l1.49-8.64v-44.4l-1.49-8.64h28.98c14.76,0,21.73,6.5,21.73,18.2,0,9.1-5.57,15.42-16.16,17.18l20.53,26.29Zm-28.8-31.77c9.29,0,14.96-4,14.96-11.71s-4.37-11.7-13.66-11.7h-16.72v23.41h15.42Z" fill="#f5f9ea"/><path d="M866.61,273.69v45.98l2.42,8.64h-14.4l2.41-8.64v-45.98h-12.44l-8.83,2.04,1.4-9.1h49.32l1.4,9.1-8.73-2.04h-12.55Z" fill="#f5f9ea"/><path d="M898.5,326.17l-1.67-10.59,10.03,5.58c4.56,1.49,9.2,2.23,13.66,2.23,10.31,0,15.32-3.9,15.32-10.03s-4-9.29-16.72-12.82c-15.7-4.18-21.73-9.38-21.73-19.04s8.27-16.44,23.59-16.44c7.24,0,13.56,1.02,21.08,3.35l1.58,10.22-9.75-5.2c-4.09-1.21-7.99-1.86-12.17-1.86-8.92,0-14.58,3.63-14.58,9.1s3.25,8.82,16.06,12.26c15.88,4.27,22.48,9.57,22.48,19.5,0,10.59-8.73,17.56-24.62,17.56-10.4-.09-17.74-2.42-22.57-3.81Z" fill="#f5f9ea"/><path d="M977.16,297.19c0-20.99,12.82-32.23,30.1-32.23,6.59,0,13,1.21,19.32,3.44l1.58,10.49-9.84-5.38c-3.62-.93-7.24-1.3-10.31-1.3-11.7,0-20.9,7.89-20.9,24.8s9.01,25.64,21.64,25.64c2.88,0,6.41-.37,10.13-1.39l9.66-5.48-1.58,10.68c-6.41,2.23-12.17,3.44-18.86,3.44-18.21,0-30.93-11.7-30.93-32.7Z" fill="#f5f9ea"/><path d="M1037.99,297.38c0-20.44,12.26-32.42,30.93-32.42s30.93,11.98,30.93,32.42-12.26,32.7-30.93,32.7-30.93-12.17-30.93-32.7Zm51.93,0c0-16.72-8.64-25.26-20.9-25.26s-20.99,8.54-20.99,25.26,8.54,25.45,20.81,25.45,21.08-8.73,21.08-25.45Z" fill="#f5f9ea"/><path d="M1113.03,307.6v-32.33l-1.49-8.64h12.54l-1.49,8.64v32.88c0,10.13,6.32,14.96,17.65,14.96s17.83-4.74,17.83-14.96v-32.88l-1.49-8.64h11.43l-1.49,8.64v32.33c0,15.05-9.29,22.48-26.75,22.48s-26.75-7.43-26.75-22.48Z" fill="#f5f9ea"/><path d="M1238.49,266.63l-1.49,8.64v53.04h-13.29l-32.41-53.78v45.15l1.39,8.64h-11.05l1.49-8.64v-44.4l-1.49-8.64h14.96l32.23,53.5v-44.87l-1.4-8.64h11.05Z" fill="#f5f9ea"/><path d="M1250.86,297.19c0-20.99,12.82-32.23,30.1-32.23,6.59,0,13,1.21,19.32,3.44l1.58,10.49-9.84-5.38c-3.62-.93-7.24-1.3-10.31-1.3-11.71,0-20.9,7.89-20.9,24.8s9.01,25.64,21.64,25.64c2.88,0,6.41-.37,10.13-1.39l9.66-5.48-1.58,10.68c-6.41,2.23-12.17,3.44-18.86,3.44-18.21,0-30.93-11.7-30.93-32.7Z" fill="#f5f9ea"/><path d="M1316.01,319.67v-44.4l-1.49-8.64h12.54l-1.49,8.64v44.4l1.49,8.64h-12.54l1.49-8.64Z" fill="#f5f9ea"/><path d="M1385.15,319.21l-1.39,9.1h-42.36l1.49-8.64v-44.4l-1.49-8.64h12.54l-1.49,8.64v45.98h23.97l8.73-2.05Z" fill="#f5f9ea"/></g><g><path d="M611.62,311.14c-3.43,0-6.21-2.78-6.21-6.21v-77.68h-49.71c-3.43,0-6.21-2.78-6.21-6.21s2.78-6.21,6.21-6.21h55.93c3.43,0,6.21,2.78,6.21,6.21v83.89c0,3.43-2.78,6.21-6.21,6.21Z" fill="#f5f9ea"/><path d="M108.28,311.14c-3.43,0-6.21-2.78-6.21-6.21v-83.89c0-3.43,2.78-6.21,6.21-6.21h55.93c3.43,0,6.21,2.78,6.21,6.21s-2.78,6.21-6.21,6.21h-49.71v77.68c0,3.43-2.78,6.21-6.21,6.21Z" fill="#f5f9ea"/><path d="M527.73,311.14c-3.43,0-6.21-2.78-6.21-6.21V143.36h-44.12c-1.86,0-3.63-.83-4.8-2.27-1.18-1.44-1.65-3.33-1.29-5.16l8.39-41.95c.67-3.37,3.92-5.58,7.31-4.87,3.37,.67,5.55,3.95,4.87,7.31l-6.9,34.51h42.76c3.43,0,6.21,2.78,6.21,6.21v167.78c0,3.43-2.78,6.21-6.21,6.21Z" fill="#f5f9ea"/><path d="M471.8,311.14c-3.43,0-6.21-2.78-6.21-6.21v-105.64h-189.53c-3.43,0-6.21-2.78-6.21-6.21s2.78-6.21,6.21-6.21h195.75c3.43,0,6.21,2.78,6.21,6.21v111.85c0,3.43-2.78,6.21-6.21,6.21Z" fill="#f5f9ea"/><path d="M248.09,311.14c-3.43,0-6.21-2.78-6.21-6.21V165.11c0-3.43,2.78-6.21,6.21-6.21h223.71c3.43,0,6.21,2.78,6.21,6.21s-2.78,6.21-6.21,6.21H254.31v133.6c0,3.43-2.78,6.21-6.21,6.21Z" fill="#f5f9ea"/><path d="M192.17,311.14c-3.43,0-6.21-2.78-6.21-6.21V137.14c0-3.43,2.78-6.21,6.21-6.21h42.75l-6.9-34.51c-.65-3.25,1.37-6.44,4.59-7.25,2.31-.58,57.47-14.16,127.34-14.16,40.32,0,75.99,4.61,98.82,8.47,3.38,.57,5.66,3.78,5.09,7.16-.57,3.38-3.79,5.67-7.16,5.09-22.36-3.79-57.29-8.3-96.74-8.3-55.59,0-102.63,9.03-118.55,12.48l7.2,36.01c.37,1.83-.11,3.72-1.29,5.16-1.18,1.44-2.94,2.27-4.8,2.27h-44.12v161.57c0,3.43-2.78,6.21-6.21,6.21Z" fill="#f5f9ea"/><path d="M639.58,342.2H80.31c-3.43,0-6.21-2.78-6.21-6.21s2.78-6.21,6.21-6.21H639.58c3.43,0,6.21,2.78,6.21,6.21s-2.78,6.21-6.21,6.21Z" fill="#f5f9ea"/></g></svg>