<?xml version="1.0" standalone="no"?>
<!DOCTYPE svg PUBLIC "-//W3C//DTD SVG 20010904//EN"
 "http://www.w3.org/TR/2001/REC-SVG-20010904/DTD/svg10.dtd">
<svg version="1.0" xmlns="http://www.w3.org/2000/svg"
 width="800.000000pt" height="800.000000pt" viewBox="0 0 800.000000 800.000000"
 preserveAspectRatio="xMidYMid meet">
<metadata>
Created by potrace 1.14, written by Peter Selinger 2001-2017
</metadata>
<g transform="translate(0.000000,800.000000) scale(0.100000,-0.100000)"
fill="#000000" stroke="none">
<path d="M810 7984 c-209 -45 -372 -133 -516 -278 -150 -151 -227 -293 -274
-506 -18 -82 -19 -188 -20 -3176 0 -2177 3 -3115 11 -3170 30 -219 140 -428
305 -582 127 -119 262 -194 442 -245 l77 -22 3140 -2 c3045 -2 3143 -1 3225
17 162 36 280 89 400 179 199 150 330 361 384 616 13 61 15 472 16 3161 0
2176 -3 3115 -11 3170 -21 153 -70 277 -166 421 -143 213 -366 360 -638 417
-103 22 -6274 22 -6375 0z"/>
</g>
</svg>
