<svg id="Layer_1" data-name="Layer 1" xmlns="http://www.w3.org/2000/svg" viewBox="0 0 1005.04 768"><rect width="1005.04" height="768" fill="#302a34"/><path d="M709.25,491.1c.35,0,1.28,0,2.79-.14s3.23-.2,5.16-.3,3.9-.2,5.88-.29l4.87-.22a9.11,9.11,0,0,1,4.45.86l16.43,7.54a3.15,3.15,0,0,0,2.81.13,3.55,3.55,0,0,0,1.72-1.7,3.43,3.43,0,0,0,.16-2.39,3.12,3.12,0,0,0-1.88-2L735,485a8.77,8.77,0,0,1-1.89-1.24,11.15,11.15,0,0,1-1.69-1.67c-.78-1-1.77-2.28-3-3.82s-2.37-3.08-3.51-4.6-2.17-2.87-3.09-4.06-1.5-1.92-1.72-2.17a3.2,3.2,0,0,0-2.4-1.44,3.42,3.42,0,0,0-2.31.73,3.39,3.39,0,0,0-1.25,2.07,3.12,3.12,0,0,0,.78,2.6l6.68,8.5c1.05,1.38,1.32,2.4.79,3.05a3.89,3.89,0,0,1-2.74,1.2l-10.65.47a3.3,3.3,0,0,0-2.57,1.13,3.41,3.41,0,0,0-.77,2.26,3.36,3.36,0,0,0,.95,2.22A3,3,0,0,0,709.25,491.1Z" fill="#cfcbc9"/><path d="M699.78,535.32l17.82,12.82a3.1,3.1,0,0,0,2.65.65,3.43,3.43,0,0,0,2-1.31,3.51,3.51,0,0,0,.62-2.36,3.28,3.28,0,0,0-1.54-2.39l-11-7.92a3,3,0,0,1-1.41-2.09,2.74,2.74,0,0,1,.4-2l2.58-3.57a2.8,2.8,0,0,1,1.7-1,3.17,3.17,0,0,1,2.45.6l11.05,8a3.24,3.24,0,0,0,4.75-.58,3.42,3.42,0,0,0,.62-2.31A3.11,3.11,0,0,0,731,529.5l-17.8-12.82L698,505.73a3.1,3.1,0,0,0-2.66-.66,3.32,3.32,0,0,0-2.58,3.64,3.29,3.29,0,0,0,1.55,2.37l10.5,7.56a4.16,4.16,0,0,1,1.53,2,2.21,2.21,0,0,1-.27,2.18l-2.69,3.74a2.29,2.29,0,0,1-2.05,1,3.87,3.87,0,0,1-2.3-.87l-10.5-7.56a3.31,3.31,0,0,0-2.74-.71,3.35,3.35,0,0,0-2,1.33,3.46,3.46,0,0,0-.64,2.33,3.11,3.11,0,0,0,1.47,2.31Z" fill="#cfcbc9"/><path d="M656.29,554l13.54,14.14,13.91,14.53a3.23,3.23,0,0,0,2.58,1.18,3.44,3.44,0,0,0,2.25-.93,3.36,3.36,0,0,0,1-2.18,3.22,3.22,0,0,0-1.05-2.56L681,570.34a3.47,3.47,0,0,1-1-2.63,3,3,0,0,1,.74-2.16l2.4-2.4a9,9,0,0,0,3-5.94,13.14,13.14,0,0,0-1.18-6.42,19.07,19.07,0,0,0-4.11-5.81,22,22,0,0,0-5.8-4.21,14.51,14.51,0,0,0-6.19-1.57,7.38,7.38,0,0,0-5.35,2.11l-7.18,6.8a2.71,2.71,0,0,0-.84,1.13,4.08,4.08,0,0,0-.34,1.54,4.63,4.63,0,0,0,.22,1.71A4,4,0,0,0,656.29,554Zm8.69-5.12,1.51-1.46a4.65,4.65,0,0,1,3.18-1.39,7.58,7.58,0,0,1,3.43.79,11.57,11.57,0,0,1,3.15,2.33,11.81,11.81,0,0,1,2.29,3.16,7.78,7.78,0,0,1,.81,3.3,3.76,3.76,0,0,1-1.21,2.8l-2,1.91a2.85,2.85,0,0,1-2.37,1,2.94,2.94,0,0,1-2.28-1l-6.6-6.9A3.2,3.2,0,0,1,664,551,3,3,0,0,1,665,548.92Z" fill="#cfcbc9"/><path d="M639.8,612.53a3.07,3.07,0,0,0,1.74,2,3.27,3.27,0,0,0,2.24.07,3.49,3.49,0,0,0,1.78-1.38,2.5,2.5,0,0,0,.25-2.32l-1.15-4.08a3.1,3.1,0,0,1,.13-2.58,4.34,4.34,0,0,1,1.5-1.43l5.72-3.63a2.46,2.46,0,0,1,2.18-.47,3.93,3.93,0,0,1,1.84,1.12l2.22,2.37a3,3,0,0,0,2.46,1.2,3.32,3.32,0,0,0,2.19-.9A3.5,3.5,0,0,0,664,600.4a2.69,2.69,0,0,0-.82-2.29l-11.14-11-17.93-17.49a5.19,5.19,0,0,0-2.92-1.75,4.06,4.06,0,0,0-2.82.42,4.18,4.18,0,0,0-1.81,2.33,5.92,5.92,0,0,0,.1,3.82Zm-2.53-29.93a1.75,1.75,0,0,1,1-.08,1.82,1.82,0,0,1,1,.6l7.64,7.73a2.65,2.65,0,0,1,.78,1.48,1.51,1.51,0,0,1-.9,1.49l-3.26,2.07a1.6,1.6,0,0,1-1.74.23,2.51,2.51,0,0,1-1-1.34q-1-2.52-2-5c-.67-1.66-1.34-3.34-2-5.06a2.11,2.11,0,0,1-.06-1.37A1.17,1.17,0,0,1,637.27,582.6Z" fill="#cfcbc9"/><path d="M586.4,613.65l7.26,18.75a3.29,3.29,0,0,0,6.08.54,3.11,3.11,0,0,0,0-2.74l-3.68-9.61a3.17,3.17,0,0,1-.16-2.22,2.54,2.54,0,0,1,1.11-1.44,2.71,2.71,0,0,1,1.77-.39,3.23,3.23,0,0,1,1.87.91l10.39,9.87a3.25,3.25,0,0,0,2.58,1,3.5,3.5,0,0,0,2.18-1,3.44,3.44,0,0,0,1-2.21,3,3,0,0,0-1.13-2.47l-7.37-7.48a6.52,6.52,0,0,1-1.46-1.62,5.05,5.05,0,0,1-.64-1.67,7.07,7.07,0,0,1-.08-1.64,10.22,10.22,0,0,1,.22-1.5c.26-1.21.46-2.31.58-3.31a15.9,15.9,0,0,0,.12-2.91,17.22,17.22,0,0,0-.41-2.88,24.18,24.18,0,0,0-3.75-8,16.62,16.62,0,0,0-3.53-3.61,11.22,11.22,0,0,0-4.08-2,7.25,7.25,0,0,0-4.31.31L581.74,590a2.63,2.63,0,0,0-1.21.72,4.74,4.74,0,0,0-.93,1.26,4.24,4.24,0,0,0-.46,1.63,3.83,3.83,0,0,0,.25,1.79Zm1.26-18.07a3.3,3.3,0,0,1,1.72-1.57l2-.75a4.64,4.64,0,0,1,2.58-.27,5.81,5.81,0,0,1,2.31,1,8.66,8.66,0,0,1,1.9,1.92,13.93,13.93,0,0,1,1.44,2.53,12.47,12.47,0,0,1,.86,2.9,9.24,9.24,0,0,1,0,2.77,5.64,5.64,0,0,1-.82,2.31,3.6,3.6,0,0,1-1.83,1.47l-2.59,1a2.86,2.86,0,0,1-2.55.07,3.1,3.1,0,0,1-1.73-1.77l-3.44-9A3.13,3.13,0,0,1,587.66,595.58Z" fill="#cfcbc9"/><path d="M543.36,622.15l2.15,11.79a20,20,0,0,0,1.1,4.14,9.54,9.54,0,0,0,2.23,3.58,8.56,8.56,0,0,0,4.57,2.4,12.88,12.88,0,0,0,5.49-.1,15,15,0,0,0,5.32-2.38,9.09,9.09,0,0,0,3.37-4.3,9,9,0,0,0,.76-3.24,14.78,14.78,0,0,0-.22-3.26l-1.4-7.66a4.8,4.8,0,0,0-1.14-2.51c-.57-.61-1.62-.79-3.14-.57l-5.72,1.05a2.61,2.61,0,0,0-2,1.4,3.78,3.78,0,0,0-.33,2.36,4,4,0,0,0,1.15,2.14,2.55,2.55,0,0,0,2.39.63l.93-.17a2.4,2.4,0,0,1,1.18.23,1.51,1.51,0,0,1,1,1.24l.47,2.94a5.06,5.06,0,0,1,0,2.24,3.51,3.51,0,0,1-.8,1.49,4.15,4.15,0,0,1-1.31.93,11.32,11.32,0,0,1-1.61.57,4.87,4.87,0,0,1-2.59.12,3.21,3.21,0,0,1-1.64-1,8.62,8.62,0,0,1-1.44-3.73l-2-11.34-2.25-12.32a3.23,3.23,0,0,1,.86-3.22,5,5,0,0,1,3.05-1.42,5.24,5.24,0,0,1,3.31.61,4.15,4.15,0,0,1,2,3l.67,3.31a2.8,2.8,0,0,0,1.52,2.27,3.7,3.7,0,0,0,2.42.25,3.94,3.94,0,0,0,2.1-1.31,2.68,2.68,0,0,0,.55-2.48l-.62-3.39a14.35,14.35,0,0,0-1-3.14,9,9,0,0,0-1.85-2.76,9.35,9.35,0,0,0-4.89-2.86,15,15,0,0,0-6-.25,13.87,13.87,0,0,0-5,1.9A8.26,8.26,0,0,0,541.8,603a9.26,9.26,0,0,0-.79,4.14,27.36,27.36,0,0,0,.39,4.26Z" fill="#cfcbc9"/><path d="M501.8,642.42a10.6,10.6,0,0,0,4.12,3.83,11.66,11.66,0,0,0,10.68-.13,11.1,11.1,0,0,0,4.1-3.92,12,12,0,0,0,1.66-6.47v-23.9a11.78,11.78,0,0,0-1.65-6.47,11,11,0,0,0-9.4-5.29,11.34,11.34,0,0,0-5.36,1.21,10.63,10.63,0,0,0-4.14,3.82,12.17,12.17,0,0,0-1.73,6.44c-.05,2.07-.07,4.13-.07,6.16s0,4.09,0,6.16v6q0,3,.06,6A12.11,12.11,0,0,0,501.8,642.42Zm4.79-18.68V611.88a4.94,4.94,0,0,1,1.33-3.93,4.61,4.61,0,0,1,3.12-1.31,4.81,4.81,0,0,1,3.17,1.12,4.13,4.13,0,0,1,1.46,3.45v25.12a4.15,4.15,0,0,1-1.46,3.46A4.82,4.82,0,0,1,511,640.9a4.57,4.57,0,0,1-3.11-1.32,4.89,4.89,0,0,1-1.32-3.93Z" fill="#cfcbc9"/><path d="M460.06,600.94l3,.58a4.13,4.13,0,0,1,2.14.86,2.57,2.57,0,0,1,.52,2.48l-2.15,11.58-4.17,21.68a3.21,3.21,0,0,0,.51,2.76,3.38,3.38,0,0,0,4.39.84,3.09,3.09,0,0,0,1.48-2.3L470,617.34l2.16-11.25a3.25,3.25,0,0,1,1-2.11,2.68,2.68,0,0,1,2.12-.11l3.8.66a3,3,0,0,0,2.71-.62,4.13,4.13,0,0,0,1.3-2.27,4,4,0,0,0-.37-2.59,3.05,3.05,0,0,0-2.35-1.59l-19-3.63a3,3,0,0,0-2.77.64,4.11,4.11,0,0,0-1.31,2.29,3.89,3.89,0,0,0,.4,2.6A3.06,3.06,0,0,0,460.06,600.94Z" fill="#cfcbc9"/><path d="M409.63,624.28a11.34,11.34,0,0,0,4.52,3.12,11.22,11.22,0,0,0,5.44.71,11,11,0,0,0,5.26-2.13,11.88,11.88,0,0,0,3.95-5.38l4.42-11.08,4.44-11.12a11.83,11.83,0,0,0,.86-6.63,11.43,11.43,0,0,0-12.2-9.25,10.72,10.72,0,0,0-5.26,2,12,12,0,0,0-4,5.34c-.82,1.91-1.6,3.81-2.36,5.69l-2.28,5.73c-.76,1.88-1.5,3.75-2.24,5.59s-1.46,3.72-2.17,5.63a12.06,12.06,0,0,0-.81,6.67A10.55,10.55,0,0,0,409.63,624.28Zm4.54-9.6,4.42-11.07,4.4-11a4.91,4.91,0,0,1,2.68-3.16,4.6,4.6,0,0,1,3.38-.07,4.87,4.87,0,0,1,2.54,2.23,4.11,4.11,0,0,1,.07,3.74l-4.59,11.51-4.73,11.82a4.13,4.13,0,0,1-2.63,2.67,4.86,4.86,0,0,1-3.37-.14,4.61,4.61,0,0,1-2.4-2.38A4.88,4.88,0,0,1,414.17,614.68Z" fill="#cfcbc9"/><path d="M363.23,598.69a3.44,3.44,0,0,0,1.43,1.92,3.51,3.51,0,0,0,2.39.46,3.25,3.25,0,0,0,2.3-1.67l7.23-11.46a3.07,3.07,0,0,1,2-1.53,2.7,2.7,0,0,1,2,.29l3.72,2.35a2.7,2.7,0,0,1,1.13,1.63,3.12,3.12,0,0,1-.44,2.48l-7.27,11.52a3.24,3.24,0,0,0-.54,2.77,3.29,3.29,0,0,0,1.41,1.94,3.47,3.47,0,0,0,2.34.48,3.13,3.13,0,0,0,2.22-1.61l11.71-18.56,10-15.86a3.13,3.13,0,0,0,.5-2.69,3.42,3.42,0,0,0-1.44-1.91,3.25,3.25,0,0,0-4.63,1.24l-6.9,10.94a4.09,4.09,0,0,1-1.88,1.65,2.19,2.19,0,0,1-2.2-.14l-3.89-2.46a2.25,2.25,0,0,1-1.12-2,3.85,3.85,0,0,1,.73-2.34l6.9-10.95a3.24,3.24,0,0,0-.9-4.72,3.41,3.41,0,0,0-2.37-.5,3.16,3.16,0,0,0-2.22,1.6l-10,15.87L363.72,596A3.11,3.11,0,0,0,363.23,598.69Z" fill="#cfcbc9"/><path d="M329.46,570a3.22,3.22,0,0,0,2.49-1.2l7.4-8a3.47,3.47,0,0,1,2.57-1.18,3.05,3.05,0,0,1,2.2.61l2.54,2.25a9,9,0,0,0,6.11,2.66,13.09,13.09,0,0,0,6.34-1.57,19.31,19.31,0,0,0,5.55-4.45,22,22,0,0,0,3.84-6,14.31,14.31,0,0,0,1.19-6.28,7.23,7.23,0,0,0-2.43-5.19l-7.21-6.77a2.73,2.73,0,0,0-1.18-.77,4.24,4.24,0,0,0-1.57-.24,4.76,4.76,0,0,0-1.68.32,3.79,3.79,0,0,0-1.5,1l-13.29,14.37-13.66,14.76a3.23,3.23,0,0,0-1,2.65,3.42,3.42,0,0,0,1.07,2.19A3.24,3.24,0,0,0,329.46,570Zm19.23-19.3,6.48-7a3.2,3.2,0,0,1,2.48-1.08,3,3,0,0,1,2.12.9l1.54,1.42a4.59,4.59,0,0,1,1.58,3.08,7.31,7.31,0,0,1-.59,3.47,12.41,12.41,0,0,1-5.14,5.76,7.49,7.49,0,0,1-3.24,1,3.71,3.71,0,0,1-2.87-1l-2-1.89a3.14,3.14,0,0,1-.32-4.64Z" fill="#cfcbc9"/><path d="M232.09,283.2A300.54,300.54,0,0,1,515.22,83.47c102.47,0,197.79,53,252.63,137.79a18.81,18.81,0,0,1,5.82-6.63C717.07,128.65,619.76,75,515.22,75A309,309,0,0,0,219,295.88c2.07-2.21,4.14-4.43,6.3-6.55S229.8,285.15,232.09,283.2Z" fill="#ae88a7"/><path d="M328.34,167.86A285.62,285.62,0,0,1,515.22,98.28C618.09,98.28,710.83,152,762,239.86c.27-.89.55-1.8.8-2.64l.86-2.82C711.33,147.24,618.3,94.05,515.22,94.05A289.83,289.83,0,0,0,247.83,271.91c2-1.15,3.93-2.2,5.92-3.17A286.67,286.67,0,0,1,328.34,167.86Z" fill="#ae88a7"/><path d="M925.07,382.52,275.41,497.07a91.41,91.41,0,0,1-8.56,10.1l88.54-15.61L357.1,494a192.65,192.65,0,0,0,344.37-60.79l.65-2.79,97.34-17.16-.13,1.26a285,285,0,0,1-284.11,255.2c-108.54,0-205.81-59.87-254.85-156.49-.92.79-1.78,1.62-2.73,2.37-.19.16-.4.29-.59.44C307,613.56,405.41,674,515.22,674A289.21,289.21,0,0,0,803.54,415l.26-2.48,10.76-1.9-.06,1.06A300.57,300.57,0,0,1,515.22,684.53c-112.1,0-215.73-63.45-267.06-162.57a76.52,76.52,0,0,1-7.59,3.77C293.33,627.71,399.91,693,515.22,693A309,309,0,0,0,822.94,412.3l.2-3.22,103.4-18.23a4.23,4.23,0,1,0-1.47-8.33ZM680.91,434.16l-.21.89a173.18,173.18,0,0,1-303.39,53.64l-.58-.9Zm16.45-2a188.42,188.42,0,0,1-336.79,59.38l-.58-.82,12.21-2.16,1.65,2.53a177.41,177.41,0,0,0,310.93-54.95l.67-2.81,12.13-2.14Z" fill="#ae88a7"/><path d="M78.5,531.79a4.23,4.23,0,0,0,.73,8.4,3.78,3.78,0,0,0,.74-.07l99.28-17.51a60.75,60.75,0,0,1-9.32-6.94Z" fill="#ae88a7"/><path d="M926.54,234.81a4.23,4.23,0,1,0-1.47-8.33l-69.7,12.29c-.78,2.67-1.68,5.7-2.7,9.07Z" fill="#ae88a7"/><path d="M351.51,327.62c24-70.07,89.08-116.74,163.71-116.74A171.73,171.73,0,0,1,649.67,275l-29,5.11-2.51,9,136.28-24c.86-2.89,1.58-5.3,1.89-6.31l.81-2.76-85.88,15.14a192.54,192.54,0,0,0-341.34,60.19l-10.38,1.83a78.88,78.88,0,0,1-4.94,9.46L573.78,297l2.6-9.06Zm163.71-132a188.51,188.51,0,0,1,151.39,76.41l-12.19,2.15a176,176,0,0,0-139.2-67.56c-77.24,0-144.45,48.81-168.45,121.81l-12.2,2.15A188.39,188.39,0,0,1,515.22,195.64Z" fill="#ae88a7"/><path d="M138.5,365.17l-60,10.58a4.23,4.23,0,0,0,.73,8.4,4.71,4.71,0,0,0,.74-.06l64.84-11.44A67.35,67.35,0,0,1,138.5,365.17Z" fill="#ae88a7"/><path d="M222.66,518a61.16,61.16,0,0,0,27.12-12.35,78.84,78.84,0,0,0,19.81-22.85,76.31,76.31,0,0,0,9.6-28.34,56.5,56.5,0,0,0-3.5-28.81c-1.63-3.24-3.71-5.18-6.25-5.79a10.84,10.84,0,0,0-2.21-.27l-.25,0c-.13,0-.25,0-.38.05a8.43,8.43,0,0,0-1.52.2c-.2.05-.4.09-.59.15a8,8,0,0,0-1.9.82,10.34,10.34,0,0,0-4.42,5.48q-1.38,3.66,1.37,8.23,4.86,8.24,3.5,19.2a58.36,58.36,0,0,1-7,21.18,62.24,62.24,0,0,1-14.78,17.83,41.79,41.79,0,0,1-20.12,9.45,42.9,42.9,0,0,1-5.63.36c-.22,0-.44,0-.66,0a41.06,41.06,0,0,1-4.45-.34c-.53-.07-1.06-.17-1.58-.26-1.22-.22-2.44-.49-3.65-.82-.5-.13-1-.26-1.5-.41a45.34,45.34,0,0,1-4.93-1.84q-10.81-4.87-16.91-17.68a53.34,53.34,0,0,1-4.88-19.66,91.79,91.79,0,0,1,1.22-21,134.73,134.73,0,0,1,5.34-20.72q3.5-10.21,7.16-18.74,4.58-12.19,18-13.72l1.54,0c1.37,0,2.74-.13,4.1-.19,1.21-.06,2.43-.07,3.64-.18,1.71-.14,3.44-.41,5.16-.66,1.14-.17,2.28-.27,3.43-.48,1.9-.35,3.81-.83,5.72-1.29,1-.24,1.94-.41,2.92-.68,2.89-.79,5.78-1.72,8.69-2.79A146.76,146.76,0,0,0,276,364.67a101.67,101.67,0,0,0,23.46-22.25,67.67,67.67,0,0,0,12.8-27.73,39.28,39.28,0,0,0-2.43-23.77q-4.89-11-17.68-14.94a42.84,42.84,0,0,0-5.32-1.21c-.58-.09-1.16-.1-1.74-.17-1.19-.13-2.37-.25-3.56-.27-.17,0-.34,0-.52,0-.86,0-1.71.1-2.57.16-.52,0-1,0-1.55.09a38.74,38.74,0,0,0-4.71.83,68,68,0,0,0-19.5,8.38,105.77,105.77,0,0,0-18.44,14.63,212.35,212.35,0,0,0-16.46,18.14,221.63,221.63,0,0,0-13.71,18.89q-6.1,9.45-10.36,17.07-2.15,3.66-.61,6.85a8.95,8.95,0,0,0,6.24,5.13c.19,0,.38.05.57.08a9.22,9.22,0,0,0,1.19.12l.19,0c.09,0,.18,0,.27,0a10.62,10.62,0,0,0,2.82-.43q3.65-1.06,5.78-5.94Q214.74,350,223,338a180.51,180.51,0,0,1,18.59-22.85,101.48,101.48,0,0,1,21.8-17.53,40.82,40.82,0,0,1,3.71-1.91l1-.43c1.12-.47,2.23-.89,3.34-1.23.13,0,.25-.1.38-.13a29.61,29.61,0,0,1,3.63-.82l.94-.13a29.77,29.77,0,0,1,3.11-.23c.21,0,.41,0,.62,0,.63,0,1.27,0,1.9.1.32,0,.64,0,.95.06a27.75,27.75,0,0,1,2.85.47q8.22,1.83,10.67,8.39a21.24,21.24,0,0,1,0,14.17,55.54,55.54,0,0,1-10.67,20,80.71,80.71,0,0,1-18.29,16.3,95.08,95.08,0,0,1-18.74,10.06,152.4,152.4,0,0,1-19.66,6.4A96.94,96.94,0,0,1,210,370.46a71.1,71.1,0,0,1-19.2-2.59,63.42,63.42,0,0,1-17.37-7.77,46,46,0,0,1-13.56-13.41,60.54,60.54,0,0,1-6.56-15.09,46.73,46.73,0,0,1-1.67-16.3,3.48,3.48,0,0,0,.3-1.53,6.39,6.39,0,0,0-2.59-3.81,9.56,9.56,0,0,0-4.11-1.67l-.74,0c-.2,0-.38,0-.57.05s-.44,0-.66.06a9.32,9.32,0,0,0-.91.23c-.19.06-.39.11-.57.18a6.38,6.38,0,0,0-.89.48,4.45,4.45,0,0,0-.43.26,6.78,6.78,0,0,0-1.17,1.05,8.71,8.71,0,0,0-2.29,5.95,78.31,78.31,0,0,0,6.09,31.24q6.1,14.16,20.12,23.92a31.28,31.28,0,0,1,9.6,11.43q2.89,6.24-.46,14.17-3.66,10.07-7,21.34a146.72,146.72,0,0,0-4.87,23,111.82,111.82,0,0,0-.61,23.32,72,72,0,0,0,5.18,21.94,51.53,51.53,0,0,0,10.36,16.46,48.15,48.15,0,0,0,14,10.36,51.6,51.6,0,0,0,16.15,4.72,55.68,55.68,0,0,0,6.31.4c.24,0,.49,0,.73,0l.66,0q1.59,0,3.18-.15l1.51-.09C219.54,518.45,221.1,518.25,222.66,518Z" fill="#cfcbc9"/><path d="M780.28,273.54c1.65-5.38,3.28-10.62,3.49-11.12q3.35-11,5.48-18.29c1.42-4.88,2.34-7.82,2.75-8.84q1.83-4.87.3-7.77a6.86,6.86,0,0,0-4.27-3.66,8.14,8.14,0,0,0-1.91-.26c-.08,0-.16,0-.24,0s-.18,0-.28,0a8.85,8.85,0,0,0-1.13.12l-.53.08a11.75,11.75,0,0,0-1.7.52,6.57,6.57,0,0,0-4,4.87q-.62,2.76-3.35,11.74t-6.4,21.49c-.25.73-2.39,7.94-4.13,13.92l-13.92,2.46-5,.87a6.75,6.75,0,0,0,.84,13.39c.11,0,.21.05.33.05a6.8,6.8,0,0,0,1.18-.1l12.36-2.18c-.07.28-.18.56-.25.84-.6,2.44-1.32,4.88-2.13,7.32q-2.75,9.75-5.33,18.44t-4.73,15.69q-2.73,9.76-5.33,20.27c-.05.19-.08.37-.12.56s-.21.16-.29.29q-3.66,6.4-8.68,14a118.86,118.86,0,0,1-11.28,14.48,65.35,65.35,0,0,1-13.87,11.58,35,35,0,0,1-16.15,5.33,23.86,23.86,0,0,1-2.65.13,21.27,21.27,0,0,1-3.69-.37c-.28-.05-.56-.11-.83-.18a18.74,18.74,0,0,1-3.5-1.11,15.4,15.4,0,0,1-7.62-7.61,14.16,14.16,0,0,1-2-4.88c-.3-1.62-.56-3.55-.76-5.79a6.92,6.92,0,0,1,2.9-5.64,12.36,12.36,0,0,1,4.42-2.59,112,112,0,0,0,16.15-4.26A62,62,0,0,0,709.15,360a52.67,52.67,0,0,0,11.73-11,47.21,47.21,0,0,0,7.77-14.94q4-12.18-1.82-20.87a19.34,19.34,0,0,0-1.55-2c-.17-.2-.38-.37-.56-.55a15,15,0,0,0-1.21-1.18c-.24-.2-.51-.37-.77-.56a13.92,13.92,0,0,0-1.24-.89c-.28-.18-.6-.33-.9-.49s-.87-.49-1.33-.7-.69-.26-1-.39-.93-.37-1.42-.52-.78-.19-1.18-.29-1-.25-1.52-.34-.86-.13-1.3-.18-1.06-.15-1.61-.19-1-.05-1.45-.06-.81-.05-1.24-.05h-.89a30.15,30.15,0,0,0-14.78,4,52.53,52.53,0,0,0-13.1,10.36A77.59,77.59,0,0,0,669.07,334a104.18,104.18,0,0,0-7.77,17.22,86.12,86.12,0,0,0-4.42,25.75c0,.13,0,.24,0,.37l-.32.59A125.82,125.82,0,0,1,649.71,389q-10.05,15.86-19.19,21a40.33,40.33,0,0,1-4.08,2c-.41.18-.81.31-1.22.47-.91.35-1.8.65-2.66.89-.45.12-.89.22-1.33.32a21.46,21.46,0,0,1-2.44.36c-.38,0-.78.09-1.16.1a15.35,15.35,0,0,1-3.27-.19,18.67,18.67,0,0,1-7.92-3.5,16.36,16.36,0,0,1-5-6.25,13.63,13.63,0,0,1-1.22-7.47,12.17,12.17,0,0,1,3.81-7.16,73.39,73.39,0,0,1,10.67-8.38q5.48-3.5,10.51-7.16a57,57,0,0,0,9.3-8.53A37.47,37.47,0,0,0,642.4,336a17.62,17.62,0,0,0-9.14-12.81,26.89,26.89,0,0,0-3.3-1.67c-.35-.15-.71-.25-1.07-.38a23,23,0,0,0-2.36-.75c-.42-.1-.85-.18-1.27-.26a22.7,22.7,0,0,0-2.34-.32c-.42,0-.85-.07-1.28-.09-.22,0-.43,0-.65,0a24.49,24.49,0,0,0-2.82.16,34.58,34.58,0,0,0-14.48,4.88c-.81.41-1.47.76-2,1.07a2.11,2.11,0,0,1-1,.25,3.47,3.47,0,0,1-1-.1c-2-.41-3-1.88-2.89-4.42a21.8,21.8,0,0,1,.76-5.64q4-14.33,7.77-28t7.77-28a6.06,6.06,0,0,0-.46-5.79,7.78,7.78,0,0,0-4.26-3.2,8.63,8.63,0,0,0-5.49.3,7,7,0,0,0-4.11,4.73L559.34,393.26c-1.23,1.95-2.48,3.92-3.85,6a119,119,0,0,1-11.28,14.47,65.35,65.35,0,0,1-13.87,11.58,35,35,0,0,1-16.15,5.34,23.82,23.82,0,0,1-2.65.12,20.34,20.34,0,0,1-3.69-.36c-.28-.05-.56-.12-.83-.18a19.51,19.51,0,0,1-3.5-1.11,15.42,15.42,0,0,1-7.62-7.62q-3.34-6.39-2.59-16.15a78.91,78.91,0,0,1,4.42-20.11,69.31,69.31,0,0,1,5.64-13A71.14,71.14,0,0,1,511.14,361a41.25,41.25,0,0,1,9.3-8.23A24.28,24.28,0,0,1,530.65,349a12.55,12.55,0,0,1,2.21,0c.24,0,.47,0,.7.06a10.9,10.9,0,0,1,2.27.55,6.51,6.51,0,0,1,3.66,4,10.42,10.42,0,0,1,.15,7.62c-.92,2.65-1.88,5.08-2.9,7.32q-1.83,3.35-.61,5.63a5.5,5.5,0,0,0,3.51,2.9,6.45,6.45,0,0,0,1.7.22c.15,0,.3,0,.44-.05l.49-.05a8.72,8.72,0,0,0,2.24-.58,7,7,0,0,0,3.82-4.42q7.6-14.92,1.82-25.6a18.26,18.26,0,0,0-8.68-8.38,26.62,26.62,0,0,0-2.71-1.06l-.9-.25c-.62-.18-1.24-.35-1.87-.48-.36-.08-.72-.12-1.08-.18-.58-.09-1.15-.18-1.73-.23-.39,0-.79,0-1.18-.06s-.66-.06-1-.06-.84,0-1.27,0a30.15,30.15,0,0,0-14.78,4,52.53,52.53,0,0,0-13.1,10.36A77.4,77.4,0,0,0,491.18,365a104.18,104.18,0,0,0-7.77,17.22,86.93,86.93,0,0,0-4.35,24.38c-1.82,3.08-3.64,6.14-5.52,9.08a24.79,24.79,0,0,1-9,8.53,22.2,22.2,0,0,1-10.06,2.44q-3.36,0-4.26-3.66a12.67,12.67,0,0,1,.3-7.31,95.52,95.52,0,0,0,5.18-22.25,62.41,62.41,0,0,0-.91-20.57,35.37,35.37,0,0,0-7.77-15.7c-3.77-4.26-9-6.8-15.7-7.61a30,30,0,0,0-3.12-.17H428l-.36,0a27.74,27.74,0,0,0-4.09.33l-.44.05a28.94,28.94,0,0,0-4.08,1l-.75.25a31.21,31.21,0,0,0-3.88,1.66l-.65.36a34,34,0,0,0-3.91,2.43,63.38,63.38,0,0,0-17.06,19A96.48,96.48,0,0,0,382,400.72a86.61,86.61,0,0,0-2.83,24c-.89,1.5-1.88,3.15-3.05,5.09q-4.56,7.62-10.21,15.39a103.83,103.83,0,0,1-11.27,13.25,26.35,26.35,0,0,1-2.5,2.14c-.26.19-.5.33-.75.5a15.46,15.46,0,0,1-1.59.95c-.27.13-.54.24-.8.34a7.9,7.9,0,0,1-1.41.4c-.24,0-.48.09-.71.11a5.11,5.11,0,0,1-1.84-.17c-2.85-1-4.27-3.15-4.27-6.4a35.82,35.82,0,0,1,1.68-7.31c.91-2.85,2-5.89,3.35-9.15s2.79-6.65,4.42-10.21,3.15-7.16,4.57-10.81q2.13-5.81,3.66-9.91a25.1,25.1,0,0,0,1.67-7.47,11.19,11.19,0,0,0-1.37-6.1,17.52,17.52,0,0,0-5.49-5.48,69.54,69.54,0,0,0-9.9-5.94,93.91,93.91,0,0,0-10.51-4.73c-2-.81-3-1.87-2.9-3.2a19.31,19.31,0,0,1,.46-3.2c.61-2.23,1.22-4.52,1.83-6.85a24.22,24.22,0,0,0,.91-6c-.41-2.63-2.29-4.57-5.64-5.79a9,9,0,0,0-2.22-.48l-.4,0-.33,0a7.28,7.28,0,0,0-1.79.24c-.13,0-.25.09-.37.13a7.9,7.9,0,0,0-1.7.74c-.18.1-.36.2-.54.32a11.85,11.85,0,0,0-1.94,1.56,22.37,22.37,0,0,0-4,5.64,35.91,35.91,0,0,0-2.9,7.62,32.14,32.14,0,0,0-1.06,8.07,15.43,15.43,0,0,0,1.52,7,24.49,24.49,0,0,1,1.67,2.89c.1.3-.35,1.68-1.37,4.11q-3.34,8.54-7.46,17.07t-8.08,15.24q-1.53,3-.76,5.18a5.31,5.31,0,0,0,2.44,3.05,4.86,4.86,0,0,0,1.59.51l.42.05c.14,0,.28.05.42.05A6.77,6.77,0,0,0,302,433a5.27,5.27,0,0,0,3.35-2.29,298.52,298.52,0,0,0,15.85-32.31q1.51-3.35,4.11-4a10.4,10.4,0,0,1,2.32-.3,4.92,4.92,0,0,1,1.8.3c1.62.61,3.2,1.27,4.72,2A29.64,29.64,0,0,1,338.6,399a9.63,9.63,0,0,1,4,3.81,7.94,7.94,0,0,1,.76,4,16,16,0,0,1-.91,4.12c-.51,1.42-1.07,2.84-1.68,4.27q-2.13,5.18-4.72,11.12t-4.88,11.88c-1.52,4-2.85,7.83-4,11.59A36.09,36.09,0,0,0,325.49,460a15.83,15.83,0,0,0,4.12,10.05,17.81,17.81,0,0,0,10.51,5.49,18.85,18.85,0,0,0,3.42.32c.13,0,.25,0,.38,0,.36,0,.72-.06,1.08-.09a18.57,18.57,0,0,0,2.66-.4c.43-.1.85-.22,1.27-.34a20.91,20.91,0,0,0,2.58-1c.38-.17.76-.32,1.14-.51a28.43,28.43,0,0,0,3.63-2.23A78.33,78.33,0,0,0,371.06,457a135,135,0,0,0,11-16.06,38.25,38.25,0,0,0,4.32,8.45q6.24,9,18.74,9.9c.72.05,1.42.08,2.13.08.42,0,.83-.07,1.25-.09s1.1-.05,1.65-.1c.82-.08,1.63-.22,2.43-.37.51-.1,1-.18,1.52-.31a26.3,26.3,0,0,0,2.57-.8c.41-.15.83-.26,1.24-.43a28.76,28.76,0,0,0,3.66-1.79,53.31,53.31,0,0,0,14-12,31.48,31.48,0,0,1,5.48-4.11,7.5,7.5,0,0,1,1.68-.64l.52-.11a10,10,0,0,1,1.58-.16,4.52,4.52,0,0,1,.52,0,14.28,14.28,0,0,1,2.1.16,24.92,24.92,0,0,0,4.82.46h0a28,28,0,0,0,4.51-.41c.45-.07.91-.18,1.37-.27,1.14-.24,2.29-.54,3.46-.91.47-.15.93-.29,1.41-.46a46,46,0,0,0,4.85-2.06,34.71,34.71,0,0,0,12.8-10.67c.22-.3.41-.64.63-.94a31.48,31.48,0,0,0,2.69,5.88,28.56,28.56,0,0,0,13.56,11.28,36.77,36.77,0,0,0,3.84,1.28c.39.11.79.2,1.19.3.91.22,1.83.41,2.76.56l1.32.2c1,.12,1.95.19,2.93.23l1.05,0H511a37.09,37.09,0,0,0,3.78-.19,43.14,43.14,0,0,0,19.05-6.25,79.18,79.18,0,0,0,15.84-12.8c.75-.78,1.41-1.62,2.12-2.42a5.55,5.55,0,0,0,1.44,3.3,8.94,8.94,0,0,0,4.73,2.74,7.37,7.37,0,0,0,1.55.18h.14c.1,0,.19,0,.29,0a8.52,8.52,0,0,0,1.32-.17l.49-.11a9,9,0,0,0,1.69-.64,7.17,7.17,0,0,0,3.66-5l14.94-52.72a37.44,37.44,0,0,1,6.7-11.89,85.14,85.14,0,0,1,10.67-11.12A61.64,61.64,0,0,1,611,337.82a27.13,27.13,0,0,1,2.55-1.19c.27-.12.52-.19.77-.29.54-.2,1.07-.39,1.57-.53.28-.08.55-.14.82-.2a11.16,11.16,0,0,1,1.33-.22c.24,0,.49-.06.73-.07a9.13,9.13,0,0,1,1.67.06q6.1.93,7,5.18a17.78,17.78,0,0,1-.6,9.15,26.14,26.14,0,0,1-5.64,9.6,56.1,56.1,0,0,1-8.23,7.31q-4.43,3.21-9.3,6.1a52.74,52.74,0,0,0-8.84,6.55q-7.62,6.41-9.29,14.48a26.37,26.37,0,0,0,1.22,15.39,29.43,29.43,0,0,0,9.91,12.65A31.62,31.62,0,0,0,613.14,428q10.07.62,21.94-6.55t24.08-27l.51-.87a30.21,30.21,0,0,0,2.24,4.48,28.56,28.56,0,0,0,13.56,11.28,39.35,39.35,0,0,0,3.84,1.29c.4.11.79.19,1.19.29.92.22,1.84.41,2.76.56.44.08.88.14,1.32.2,1,.12,1.95.19,2.93.23.35,0,.7,0,1,0l.36,0a36.92,36.92,0,0,0,3.77-.2,43.14,43.14,0,0,0,19-6.25,79.52,79.52,0,0,0,15.85-12.8,117.72,117.72,0,0,0,11.87-14.68,29.32,29.32,0,0,0,1.64,9.56,18.13,18.13,0,0,0,7.92,9.91,18.66,18.66,0,0,0,12.81,2q9.74-1.51,17.82-10.06a109.62,109.62,0,0,0,14.07-18.42,27.6,27.6,0,0,0,1.49,7.05,18.08,18.08,0,0,0,7.92,9.91,18.66,18.66,0,0,0,12.81,2q9.73-1.51,17.82-10.06a109.1,109.1,0,0,0,14.17-18.59,135.59,135.59,0,0,0,7-12q3-6,5.49-10.22a4.62,4.62,0,0,0,.45-4.11,5.34,5.34,0,0,0-2.43-2.9,7.52,7.52,0,0,0-3.66-.91,3.69,3.69,0,0,0-3.2,1.83c-1.63,2.85-3.5,6.35-5.64,10.51a104.08,104.08,0,0,1-7.47,12.35,86.23,86.23,0,0,1-11,14.63q-5.79,6.09-11.88,6.7a9.52,9.52,0,0,1-1.93,0c-.31,0-.61-.06-.89-.11a5.85,5.85,0,0,1-1.16-.39,5.29,5.29,0,0,1-.68-.32,4.75,4.75,0,0,1-1-.84,6.09,6.09,0,0,1-.44-.44,6.58,6.58,0,0,1-1-1.85,26.35,26.35,0,0,1-.92-7.93,103,103,0,0,1,3.36-20.87q2.73-10.21,5.48-20.27,2.13-7,4.57-15.39t5.18-17.22l3.85-13.07L844,276.06l6.66-1.17a6.77,6.77,0,0,0-2.25-13.36h-.1l-14,2.46c1.65-5.38,3.28-10.62,3.49-11.12q3.35-11,5.48-18.29c1.42-4.88,2.34-7.82,2.75-8.84q1.83-4.87.3-7.77a6.86,6.86,0,0,0-4.27-3.66,8.14,8.14,0,0,0-1.91-.26c-.08,0-.16,0-.24,0l-.28,0a8.85,8.85,0,0,0-1.13.12l-.53.08a11.75,11.75,0,0,0-1.7.52,6.55,6.55,0,0,0-4,4.87q-.61,2.74-3.35,11.74t-6.4,21.49c-.25.73-2.39,7.94-4.13,13.92l-13.92,2.46-10.26,1.8ZM438,408a17.09,17.09,0,0,1-1.38,2.74,1.89,1.89,0,0,1-.91.66,2.67,2.67,0,0,1-.26.09,6,6,0,0,1-1.61.22c-.41,0-.84,0-1.33-.05a9.22,9.22,0,0,0-2.29-.31h0a6,6,0,0,0-2,.31,5.93,5.93,0,0,0-4.11,3.2,14.49,14.49,0,0,0-1.68,5,16.1,16.1,0,0,0,2.44,7.92c.4,1,.81,2,1.22,3s.1,2.24-.92,3.65a34.42,34.42,0,0,1-8.68,7.78,18.7,18.7,0,0,1-9.91,2.89q-7.31,0-10.36-6.4T393.38,423c0-.69.08-1.42.12-2.13a4.36,4.36,0,0,0,.18-3,88.1,88.1,0,0,1,2.91-15.23,85.49,85.49,0,0,1,8.22-20,52.93,52.93,0,0,1,12-14.63,24.65,24.65,0,0,1,3.19-2.2c.34-.2.68-.34,1-.51a18.14,18.14,0,0,1,2.24-1c.4-.14.79-.25,1.19-.35a15,15,0,0,1,2.18-.42c.39,0,.78-.1,1.18-.11a16.08,16.08,0,0,1,3.17.15,9.67,9.67,0,0,1,7.16,4.73,23.54,23.54,0,0,1,3.21,10.36,66.37,66.37,0,0,1-.31,14A101.91,101.91,0,0,1,438,408Zm239.41-59a76.79,76.79,0,0,1,13.26-20.88q8.07-9,17.83-10.21a14.22,14.22,0,0,1,2.36,0,9,9,0,0,1,1.07.11,7.35,7.35,0,0,1,1.4.37,7.1,7.1,0,0,1,.81.3,5.15,5.15,0,0,1,1.13.81,5.3,5.3,0,0,1,.52.42,6,6,0,0,1,1.09,1.79,14.76,14.76,0,0,1,.15,9.6q-3.36,11.89-13.26,17.83a76.49,76.49,0,0,1-20.87,8.69,14.44,14.44,0,0,1-2,.07q-.35,0-.66-.06a5.7,5.7,0,0,1-1.09-.21c-.18-.06-.36-.11-.52-.18a3.22,3.22,0,0,1-.8-.51,2.91,2.91,0,0,1-.33-.26,3.1,3.1,0,0,1-.67-1.14A9.4,9.4,0,0,1,677.45,349.06Zm123-65.31,13.94-2.46c-.07.28-.18.56-.25.84-.6,2.44-1.32,4.88-2.13,7.32q-2.75,9.75-5.33,18.44t-4.73,15.69q-2.73,9.75-5.33,20.27l-.12.54c-1.38,2.48-2.91,5.37-4.62,8.69a104.08,104.08,0,0,1-7.47,12.35,85.83,85.83,0,0,1-11,14.63q-5.79,6.09-11.88,6.7a9.52,9.52,0,0,1-1.93,0c-.3,0-.61-.06-.89-.11a5.85,5.85,0,0,1-1.16-.39,5.29,5.29,0,0,1-.68-.32,4.49,4.49,0,0,1-1-.84,6.09,6.09,0,0,1-.44-.44,6.71,6.71,0,0,1-1-1.85,26.41,26.41,0,0,1-.91-7.93A102.31,102.31,0,0,1,757,354q2.73-10.22,5.48-20.27,2.13-7,4.57-15.39t5.18-17.22L776,288.05l13.89-2.45Z" fill="#cfcbc9"/><path d="M354.45,244.54a4.06,4.06,0,0,0,6,.37,4.25,4.25,0,0,0,1.28-2.69,3.89,3.89,0,0,0-1.28-3.18l-8.89-9.29a4.13,4.13,0,0,1-1.27-2.49,3.32,3.32,0,0,1,.59-2.2,3.48,3.48,0,0,1,1.86-1.3,4.06,4.06,0,0,1,2.6.14l16.75,6.36a4,4,0,0,0,3.47,0,4.36,4.36,0,0,0,2-2.23,4.26,4.26,0,0,0,0-3,3.74,3.74,0,0,0-2.49-2.3l-12.11-5a8,8,0,0,1-2.46-1.17,6.09,6.09,0,0,1-1.55-1.62,7.73,7.73,0,0,1-.88-1.84,11.84,11.84,0,0,1-.47-1.84c-.29-1.52-.6-2.89-.93-4.09a20.35,20.35,0,0,0-1.28-3.41,19.9,19.9,0,0,0-1.87-3.13,25.58,25.58,0,0,0-2.87-3.23,27.49,27.49,0,0,0-5.29-4.13,21.43,21.43,0,0,0-5.82-2.47,14.1,14.1,0,0,0-5.65-.27,8.88,8.88,0,0,0-4.81,2.44l-8.94,8.55a3.52,3.52,0,0,0-1,1.41,6,6,0,0,0-.46,1.9,5.34,5.34,0,0,0,.25,2.11,4.79,4.79,0,0,0,1.16,1.94L337,226.44ZM329.72,205a4.19,4.19,0,0,1,1.22-2.64l1.9-1.81a5.85,5.85,0,0,1,2.85-1.56,7.39,7.39,0,0,1,3.14,0,10.84,10.84,0,0,1,3.12,1.3,16.78,16.78,0,0,1,2.88,2.22,14.92,14.92,0,0,1,2.39,2.92,11.62,11.62,0,0,1,1.4,3.18,7.28,7.28,0,0,1,.17,3.06,4.54,4.54,0,0,1-1.4,2.57l-2.51,2.4A3.56,3.56,0,0,1,342,218a3.85,3.85,0,0,1-2.85-1.2l-8.31-8.68A3.94,3.94,0,0,1,329.72,205Z" fill="#cfcbc9"/><path d="M375.71,175l5.72,10,12.73,22.26a19.44,19.44,0,0,0,1.18,1.81,4.61,4.61,0,0,0,1.5,1.33,3.54,3.54,0,0,0,2,.43,6.3,6.3,0,0,0,2.67-1l13.89-7.95a3.38,3.38,0,0,0,1.73-2.6,4.79,4.79,0,0,0-.59-2.92,4.55,4.55,0,0,0-2.15-1.94,3.16,3.16,0,0,0-3,.29l-7.94,4.55c-1.42.81-2.57.9-3.45.26a7.22,7.22,0,0,1-2.13-2.34c-.81-1.42-1.58-2.82-2.29-4.19a46.26,46.26,0,0,0-2.41-4,3.35,3.35,0,0,1-.67-2.79,3,3,0,0,1,1.4-1.73L400,181a3.1,3.1,0,0,0,1.7-2.48,4.78,4.78,0,0,0-.61-2.92,4.35,4.35,0,0,0-2.17-1.93,3.27,3.27,0,0,0-3,.32L390,177.35a2.47,2.47,0,0,1-2.56.3,4.35,4.35,0,0,1-2-2.09l-4.75-8.3a3.23,3.23,0,0,1-.3-3.09,4.67,4.67,0,0,1,2-2.16l7.72-4.42a3.29,3.29,0,0,0,1.65-2.55,4.74,4.74,0,0,0-.6-2.93,4.56,4.56,0,0,0-2.14-2,3.19,3.19,0,0,0-3,.3l-13.89,7.95a6.2,6.2,0,0,0-2.74,2.54c-.52,1-.31,2.36.65,4Q372.85,170,375.71,175Z" fill="#cfcbc9"/><path d="M430.24,159.54l7.12,24.64a21.32,21.32,0,0,0,.72,2,4.87,4.87,0,0,0,1.14,1.65,3.6,3.6,0,0,0,1.85.88,6.27,6.27,0,0,0,2.82-.29c.87-.25,1.91-.54,3.14-.87s2.44-.65,3.63-1,2.28-.69,3.27-1a9.06,9.06,0,0,0,2.14-1,12.2,12.2,0,0,0,3.92-3.21,14.13,14.13,0,0,0,2.45-4.49,19.42,19.42,0,0,0,.94-5.3,21.08,21.08,0,0,0-.48-5.46,22.94,22.94,0,0,0-2.23-5.74,16.17,16.17,0,0,0-3.93-4.9,22.34,22.34,0,0,0-2.62-1.89,3.37,3.37,0,0,1-1.46-1.87,7.07,7.07,0,0,1-.36-2.93c.07-1.05.11-2.19.11-3.42a18,18,0,0,0-.47-4.37,17.07,17.07,0,0,0-1.6-4,16.86,16.86,0,0,0-5.86-6.37,11.71,11.71,0,0,0-8.75-1.48l-2.52.73-1.79.52-1.71.49-2.2.63a6.21,6.21,0,0,0-3.26,1.83c-.75.86-.88,2.22-.41,4.08Zm19.42,1.65a7.88,7.88,0,0,1,2.84,2.35,11.44,11.44,0,0,1,1.84,3.62,10.34,10.34,0,0,1,.45,4,7.61,7.61,0,0,1-1.22,3.52,5.52,5.52,0,0,1-3.24,2.21l-2.77.81a4.49,4.49,0,0,1-2,.17,2.63,2.63,0,0,1-1.38-.66,3.42,3.42,0,0,1-.84-1.21c-.19-.48-.35-.93-.48-1.36-.43-1.29-.85-2.69-1.26-4.22s-.74-2.81-1-3.86a7,7,0,0,1,0-2.9c.21-.83,1-1.43,2.34-1.83l3.17-.91A4.76,4.76,0,0,1,449.66,161.19ZM434.1,140.4a3.18,3.18,0,0,1,2-1.34l1.31-.37a4.37,4.37,0,0,1,3.22.17,6.16,6.16,0,0,1,2.41,2.12,10,10,0,0,1,1.46,3.23,10.59,10.59,0,0,1,.37,3.55,7.14,7.14,0,0,1-.9,3.13,3.83,3.83,0,0,1-2.34,1.82l-2.19.64a2,2,0,0,1-2.2-.43,4.63,4.63,0,0,1-1-1.74c-.41-1.41-.79-2.78-1.15-4.12s-.73-2.68-1.12-4A3.69,3.69,0,0,1,434.1,140.4Z" fill="#cfcbc9"/><path d="M487.75,145.8l1.13,25.63a16.83,16.83,0,0,0,.22,2.15,4.61,4.61,0,0,0,.72,1.88,3.57,3.57,0,0,0,1.58,1.28,6.33,6.33,0,0,0,2.81.39l16-.7a3.4,3.4,0,0,0,2.73-1.52,4.77,4.77,0,0,0,.8-2.87,4.52,4.52,0,0,0-1-2.71,3.14,3.14,0,0,0-2.8-1.11l-9.14.4c-1.62.07-2.69-.38-3.19-1.34a7.49,7.49,0,0,1-.81-3.06c-.07-1.64-.11-3.23-.12-4.78a43.57,43.57,0,0,0-.29-4.69,3.36,3.36,0,0,1,.68-2.79,3,3,0,0,1,2-.89l7-.31a3.1,3.1,0,0,0,2.66-1.43,4.77,4.77,0,0,0,.8-2.87,4.38,4.38,0,0,0-1.05-2.71,3.3,3.3,0,0,0-2.84-1.11l-6.77.3a2.51,2.51,0,0,1-2.41-.91,4.37,4.37,0,0,1-.8-2.76l-.42-9.56a3.27,3.27,0,0,1,1.14-2.89,4.82,4.82,0,0,1,2.76-1l8.88-.4a3.29,3.29,0,0,0,2.64-1.51,4.78,4.78,0,0,0,.81-2.87,4.57,4.57,0,0,0-1-2.72,3.19,3.19,0,0,0-2.8-1.1l-16,.7a6.13,6.13,0,0,0-3.6,1c-.93.67-1.36,2-1.28,3.87.11,3.84.26,7.68.42,11.51S487.59,142,487.75,145.8Z" fill="#cfcbc9"/><path d="M541,177.54a4.14,4.14,0,0,0,3-.52,4,4,0,0,0,1.89-2.9L548.47,162a12.1,12.1,0,0,1,1.41-4.16,7,7,0,0,1,2-2.35,2.06,2.06,0,0,1,2-.34,2.49,2.49,0,0,1,1.32,1.82L560,179a4,4,0,0,0,2.09,2.67,4.3,4.3,0,0,0,5.35-1.46A3.89,3.89,0,0,0,568,177l-5.66-27a7.65,7.65,0,0,1,0-4.24,12.42,12.42,0,0,1,2.19-3.53l10.43-12.65a3.15,3.15,0,0,0,.73-2.74,4.23,4.23,0,0,0-1.41-2.45,4,4,0,0,0-5.82.59l-13.09,15.57a2.47,2.47,0,0,1-1.09.9,1,1,0,0,1-.85-.08,1.5,1.5,0,0,1-.5-.71,2,2,0,0,1,0-1l3.1-15.27a3.89,3.89,0,0,0-.61-3.36,4.25,4.25,0,0,0-2.53-1.59,4.37,4.37,0,0,0-3,.47,4,4,0,0,0-1.94,2.93l-4.56,22.49L537.8,172.4a4,4,0,0,0,.63,3.5A4.32,4.32,0,0,0,541,177.54Z" fill="#cfcbc9"/><path d="M594.54,191.32a3.14,3.14,0,0,0,2.65-1.22l3.66-3.84a3.85,3.85,0,0,1,2.85-1.51,5.24,5.24,0,0,1,2.49.7l7.55,3.83a3.09,3.09,0,0,1,1.91,2.05,4.92,4.92,0,0,1,0,2.69l-1.11,3.89a3.79,3.79,0,0,0,.26,3.41,4.16,4.16,0,0,0,2.38,1.77,4.33,4.33,0,0,0,2.9-.19,3.35,3.35,0,0,0,1.94-2.34l4.68-19L634,151.14a6.47,6.47,0,0,0,0-4.26,5.14,5.14,0,0,0-2.26-2.76,5.22,5.22,0,0,0-3.65-.47,7.47,7.47,0,0,0-4,2.55l-32.5,38.5a3.84,3.84,0,0,0-1,3.13,4,4,0,0,0,1.37,2.45A4.37,4.37,0,0,0,594.54,191.32Zm16.71-17q2.1-2.64,4.11-5.31t4.16-5.4a2.56,2.56,0,0,1,1.43-.93,1.47,1.47,0,0,1,1.19.17,2,2,0,0,1,.69,1,2.33,2.33,0,0,1,0,1.48l-3.44,13.15a3.24,3.24,0,0,1-1.08,1.78,1.89,1.89,0,0,1-2.18,0l-4.3-2.18c-.91-.46-1.36-1-1.36-1.73A3.17,3.17,0,0,1,611.25,174.34Z" fill="#cfcbc9"/><path d="M645.15,220.38a4.08,4.08,0,0,0,3.18-1.59l11.27-12.64a3.81,3.81,0,0,1,2.79-1.47,3.36,3.36,0,0,1,2.39.76l4.1,3.66a3.47,3.47,0,0,1,1.06,2.25,4,4,0,0,1-1.06,3L657.55,227a4.12,4.12,0,0,0-1.25,3.31,4.25,4.25,0,0,0,1.35,2.68,4.32,4.32,0,0,0,2.79,1.07,3.91,3.91,0,0,0,3.07-1.53l18.25-20.47,15.62-17.49a4,4,0,0,0,1.16-3.22,4.16,4.16,0,0,0-4.2-3.69,4.15,4.15,0,0,0-3.14,1.62l-10.77,12.07a5.22,5.22,0,0,1-2.66,1.65,2.75,2.75,0,0,1-2.67-.63l-4.3-3.83a2.82,2.82,0,0,1-1-2.67,4.79,4.79,0,0,1,1.37-2.75L682,181.07a4.11,4.11,0,0,0,1.24-3.31,4.19,4.19,0,0,0-1.38-2.7A4.24,4.24,0,0,0,679,174a3.89,3.89,0,0,0-3.06,1.52L660.35,193l-18.26,20.47a3.89,3.89,0,0,0-1.17,3.21,4.22,4.22,0,0,0,4.23,3.72Z" fill="#cfcbc9"/></svg>